<?xml version="1.0" encoding="utf-8"?>
<!-- Generator: Adobe Illustrator 26.2.1, SVG Export Plug-In . SVG Version: 6.00 Build 0)  -->
<svg version="1.1" id="Layer_1" xmlns="http://www.w3.org/2000/svg" xmlns:xlink="http://www.w3.org/1999/xlink" x="0px" y="0px"
	 viewBox="0 0 2684.14 3307.37" style="enable-background:new 0 0 2684.14 3307.37;" xml:space="preserve">
<style type="text/css">
	.st0{fill:#EF2E4A;}
	.st1{fill:#C66B44;}
	.st2{fill:none;}
	.st3{opacity:0.25;}
	.st4{fill:#021168;}
	.st5{fill:#371A45;}
	.st6{opacity:0.4;}
	.st7{fill:#FFFFFF;}
	.st8{fill:#E96F5F;}
	.st9{fill:#FFCA83;}
	.st10{fill:#FFA1A8;}
	.st11{fill:#F73C69;}
	.st12{fill:#FFB031;}
	.st13{opacity:0.35;}
	.st14{opacity:0.5;}
	.st15{fill:#FF0068;}
	.st16{fill:#F77D48;}
	.st17{fill:#A33C34;}
	.st18{opacity:0.6;}
	.st19{opacity:0.2;}
	.st20{fill:#650000;}
	.st21{fill:#8D9DB7;}
	.st22{fill:#996EFF;}
	.st23{fill:#450185;}
	.st24{fill:none;stroke:#450185;stroke-width:5.6945;stroke-miterlimit:10;}
	.st25{fill:#9E9E9E;}
	.st26{fill:#FF8B6E;}
	.st27{fill:#EA4F3B;}
	.st28{fill:#F2834C;}
	.st29{fill:#FFC73B;}
	.st30{fill:#36B3FF;}
	.st31{fill:#F75C5C;}
	.st32{fill:#FF2C2C;}
	.st33{fill:#A4DCFF;}
	.st34{fill:none;stroke:#450185;stroke-width:35.7289;stroke-linecap:round;stroke-linejoin:round;stroke-miterlimit:10;}
	.st35{fill:#54EF50;}
	.st36{fill:#4ACCFF;}
	.st37{opacity:0.7;}
	.st38{fill:#111A28;}
	.st39{fill:#6FE25A;}
	.st40{fill:#000072;}
	.st41{fill:#8B809E;}
	.st42{fill:#5F5F82;}
	.st43{fill:#A65555;}
	.st44{fill:#41C460;}
	.st45{fill:#79708A;}
	.st46{fill:#FF8CBC;}
	.st47{fill:#6E6E89;}
	.st48{fill:#55B6FF;}
	.st49{fill:#250178;}
	.st50{fill:#D8D8D8;}
	.st51{fill:#220F2D;}
	.st52{fill:#77688C;}
	.st53{fill:#FF73B4;}
	.st54{fill:#59A9F7;}
	.st55{fill:#D99977;}
	.st56{fill:#FF3D3D;}
	.st57{fill:#FFD45E;}
	.st58{fill:none;stroke:#250178;stroke-width:32.944;stroke-linecap:round;stroke-linejoin:round;stroke-miterlimit:10;}
	.st59{fill:#FED3C2;}
	.st60{fill:#FF8DAE;}
	.st61{fill:#EC3353;}
	.st62{fill:#736F7E;}
	.st63{fill:#1CA5F9;}
	.st64{fill:#FFBE55;}
	.st65{fill:#FCC06A;}
	.st66{fill:#A16044;}
	.st67{fill:#2D0000;}
	.st68{fill:none;stroke:#2D0000;stroke-width:0;stroke-linecap:round;stroke-linejoin:round;}
	.st69{fill:#7C6359;}
	.st70{fill:#DDDDDD;}
	.st71{fill:#599DEF;}
	.st72{fill:#F9AA41;}
	.st73{fill:#FFCA55;}
</style>
<g>
	<g>
		<g>
			<g>
				<g>
					<path class="st7" d="M856.88,2463.48l-283.52-674.46c-41.6-98.97,4.9-212.93,103.87-254.53l373.58-157.04
						c98.97-41.6,212.93,4.9,254.53,103.87l283.52,674.46c41.6,98.97-4.9,212.93-103.87,254.53l-373.58,157.04
						C1012.45,2608.96,898.49,2562.45,856.88,2463.48z"/>
				</g>
				<g>
					<path class="st7" d="M2195.61,1452.27c-9.44-1.18-19.25-2.68-29.44-4.56l-63.01-63.5l-32.02-32.28
						c-17.7-44.57-21.4-120.13-5.2-184.91c19.9-79.85,69.99-143.4,161.26-112.51c0,0,102.06-64.78,160.67,29.34
						c6.6,10.62,13.19,24.19,19.15,39.9C2452.5,1243.44,2463.65,1485.58,2195.61,1452.27z"/>
				</g>
				<g>
					<path class="st5" d="M2242.42,1476.75c-23.82,0-50.42-2.43-80.14-7.93c-4.3-0.79-8.25-2.88-11.33-5.99l-95.02-95.8
						c-2.04-2.06-3.64-4.5-4.71-7.19c-28.61-72.07-25.99-223.27,43.24-296.17c24.02-25.29,65.81-50.71,130.34-32.39
						c18.02-9.29,60.14-27.01,104.2-16.97c31.6,7.2,57.54,26.79,77.1,58.2c37.44,60.11,80.5,222.44,10.41,325.26
						C2390.33,1436.19,2339.63,1476.75,2242.42,1476.75z M2176.63,1427.8c99.52,17.11,168.27-1.12,204.44-54.19
						c55.58-81.54,22.14-224.59-11.38-278.42c-13.43-21.56-29.78-34.32-49.99-38.99c-39.53-9.13-80.64,16.19-81.05,16.45
						c-5.45,3.41-12.21,4.23-18.31,2.17c-39.38-13.31-70.37-7.3-94.77,18.39c-53.67,56.52-58.47,184.35-35.97,246.85L2176.63,1427.8
						z"/>
				</g>
				<g>
					<path class="st5" d="M2228.09,1032.28c56.3,21.5,111.01,69.95,110.19,134.79c-0.45,12.52-4.13,25.99-11.45,36.55
						c-4.51,7.09-11.29,13.29-18.06,18.17c-25.3,18.25-59.59,4.14-80.44-11.92c-11.74-8.67-21.94-18-31.76-28.89
						c-3.78-4.19-3.44-10.66,0.75-14.44c4.14-3.75,10.49-3.41,14.28,0.56c8.88,8.59,19.31,16.91,29.82,23.55
						c16.83,10.04,38.58,21.06,53.66,5.72c1.81-1.28,3.43-3.87,4.91-5.47c0.93-1.45,1.8-3.14,2.76-4.58
						c7.65-16.55,2.97-34.84-5.25-51.13c-16.53-31.56-49.48-51.38-82.61-62.09C2186.87,1064.2,2200.02,1023.11,2228.09,1032.28
						L2228.09,1032.28z"/>
				</g>
				<g>
					<path class="st5" d="M2274.68,1214.37c3.17,43.76,11.93,104.45,48.69,131.91c9.84,6.5,21.64,8.7,33.14,7.95
						c39.52-3.27,49.64-51.76,53.25-85.13c0.61-6.31,1.01-13.83,0.92-19.85c0.16-28.33,41.37-29.41,42.92-1.03
						c-2.61,61.12-33.31,149.25-109.61,136.89c-59.12-7.67-79.77-73.89-85.05-124.77c-1.69-15.36-2.47-30.4-2.1-46.1
						c0.11-4.93,4.2-8.82,9.13-8.71C2270.8,1205.64,2274.62,1209.61,2274.68,1214.37L2274.68,1214.37z"/>
				</g>
				<g>
					<path class="st5" d="M1036.38,2601.91c-83.52,0-163.01-49.23-197.34-130.92l-283.52-674.46
						c-45.67-108.66,5.57-234.22,114.22-279.9l373.58-157.04c108.66-45.68,234.21,5.56,279.89,114.22l283.52,674.46
						c45.67,108.66-5.56,234.22-114.22,279.89l-373.58,157.04C1091.96,2596.54,1063.94,2601.91,1036.38,2601.91z M1125.92,1381.62
						c-22.58,0-45.51,4.39-67.59,13.68l-373.58,157.04c-88.96,37.4-130.92,140.21-93.53,229.18l283.52,674.46
						c37.39,88.97,140.2,130.92,229.18,93.53l373.58-157.04c88.96-37.4,130.92-140.21,93.53-229.17l-283.52-674.46
						C1259.39,1421.94,1194.3,1381.62,1125.92,1381.62z"/>
				</g>
				<g>
					<path class="st7" d="M2475.02,2247.38c-15.34,6.49-31.69,11.69-49.18,15.5l-28.69-74.6l-64.78-168.34
						c0,0,39.47-76.21,96.26-143.08c44.51-52.4,99.59-99.11,154.72-99.11c24.03,0,43.33,15.55,56.85,41.08
						C2693.13,1918.47,2658.43,2170.37,2475.02,2247.38z"/>
				</g>
				<g>
					<path class="st7" d="M1071.28,3248.31c-6.92-16.57-8.63-33.2-6.44-49.55c6.33-47.46,45.48-92.56,85.43-127.21
						c0.11-0.16,0.27-0.27,0.38-0.38c45.64-39.47,92.19-65.32,92.19-65.32l302.36,33.89c10.19,12.39,17.21,24.45,21.5,36.2
						C1627.68,3244.66,1111.61,3344.68,1071.28,3248.31z"/>
				</g>
				<g>
					<path class="st5" d="M1186,3307.37c-4.31,0-8.53-0.06-12.66-0.19c-67.65-2.01-108.65-19.03-121.85-50.6
						c-56.77-135.75,171.25-264.11,180.98-269.5c3.89-2.16,8.33-3.05,12.79-2.56l302.32,33.91c5.54,0.62,10.62,3.37,14.16,7.67
						c41.73,50.61,34.29,94.3,20.7,122.05C1533.55,3247.94,1320.28,3307.37,1186,3307.37z M1247.4,3027.94
						c-60.09,34.88-190.07,131.43-156.34,212.09c4.59,10.98,32.21,22.74,83.54,24.27c134.44,3.94,331.34-57.53,369.3-135.02
						c10.87-22.2,7.58-44.91-10.1-69.22L1247.4,3027.94z"/>
				</g>
				<g>
					<path class="st5" d="M2425.82,2284.32c-8.71,0-16.77-5.33-20.01-13.75l-93.49-242.93c-2.21-5.73-1.85-12.12,0.97-17.57
						c5.37-10.36,133.05-253.77,270.07-253.77c52.01,0,89.88,51.61,98.83,134.68c14.77,137.12-53.59,349.65-251.8,392.86
						C2428.87,2284.16,2427.34,2284.32,2425.82,2284.32z M2355.88,2021.37l83.14,216.04c158.56-46.14,213.12-224.88,200.53-341.83
						c-6.31-58.54-28.36-96.37-56.18-96.37C2495,1799.2,2393.43,1952.21,2355.88,2021.37z"/>
				</g>
				<g>
					<path class="st7" d="M2475.02,2247.38c-1.88,25.42-5.04,51.22-9.76,77.17c0,0-18.72,3.27-50.2,8.9
						c-148.66,26.49-581.61,105.22-669.13,138.9c0,0-57.65,61.41-96.91,234.95c-20.22,89.61-35.61,209.1-35.61,365.43
						c0,0-17.64,1.45-46.71,3.22c-90.69,5.63-292.71,14.8-416.05-4.77c-3.49-0.59-6.97-1.13-10.35-1.77c-0.27,0-0.38-0.05-0.38-0.05
						l-0.48-50.04l-3-302.84l-1.56-157.56l-99.91-3.65l18.5-165.23l-49.88-146.25c0,0-228.83,56.63-359.58-28.64
						c-44.03-28.69-86.61-104.95-95.14-201.27c-11.15-124.74,34.81-283.21,208.72-415.89c36.84-28.16,79.42-55.08,128.44-80.34
						c104.52-53.84,436.97-113.37,761.64-212.53c142.38-43.49,283.27-94.6,402.81-156.17c0,0,5.9,6.22,15.45,18.07
						c16.25,20.33,43.12,57.17,68.91,107.31c24.72,48.05,48.43,108.33,60.76,177.94c3.59,20.33,6.27,41.46,7.67,63.34
						c0,0-214.52,116-361.57,150.21c0,0,79.8,172.63,69.72,292.44c0,0,98.46,44.67,508.72-106.02c0,0,3.38,8.74,8.47,24.62
						c5.58,17.32,13.19,43.12,20.75,75.35c4.83,20.33,9.6,43.28,13.78,68.16C2474.16,2085.53,2481.35,2164.36,2475.02,2247.38z"/>
				</g>
				<g class="st19">
					<path class="st5" d="M2405.76,1123.74c23.86,107.15-16.84,199.12-58.08,168.56c-37.33-27.67-26.44-110.85-37.92-168.56
						c-9.01,60.28-61.08,52.99-106.94,50.3c0,0,37.06,141.63-69.24,100.29c0,0-4.88,51.16-31.69,109.89
						c-12.87,28.16-30.78,58.08-55.61,84.89c-22.15,23.92-62.05,3.7-55.18-28.21c6.22-29.01,10.62-63.23,9.22-99.86
						c0,0-39.95,148.77-138.26,171.13c-88.81,20.16-117.93-3.11-122.7-7.72c1.98,2.47,7.67,9.49,11.48,14.27
						c-8.74-7.56,178.75,402.86-128.33,538.22c-257.26,113.43-612.93-181.27-726.24-284.56c-12.5-11.42-32.45-2.84-33.09,14.05
						c-1.93,52.07-22.42,128.55-124.37,136.91l156.01-3.49c0,0,28.1,237.79-91.6,248.41c-119.7,10.67-142.87-29.92-142.87-29.92
						s77.23-39.85,111.98-100.02c0,0-149.57,105.86-223.47-44.73l-1.23,20.27c8.53,96.32,51.11,172.58,95.14,201.27
						c130.75,85.27,359.58,28.64,359.58,28.64l49.88,146.25l-18.5,165.23l99.91,3.65c0,0,729.62-46.34,885.84-582.25
						c-105.81,128.01-170.81,172.52-174.99,175.31c44.08-42.15,82.8-133.16,103.34-187.86c-27.46-1.23-37.65-5.85-37.65-5.85
						c10.08-119.81-69.72-292.44-69.72-292.44c147.05-34.21,361.57-150.21,361.57-150.21c-1.39-21.88-4.08-43.01-7.67-63.34
						C2462.39,1485.58,2451.24,1243.44,2405.76,1123.74z M1504.42,2409.82c-71.67,47.47-183.81,73.26-260.3,86.14
						c-41.01,6.91-76.6-28.6-69.91-69.64l9.18-56.3c115.14-12.44,382.05-86.72,382.05-86.72L1504.42,2409.82z"/>
				</g>
				<g class="st19">
					<path class="st5" d="M2475.02,2247.38c-1.88,25.42-5.04,51.22-9.76,77.17c0,0-613.3,106.99-719.33,147.8
						c0,0-132.52,141.26-132.52,600.38c0,0-17.64,1.45-46.71,3.22c60.98,168.72-455.1,268.74-495.42,172.36
						c-6.92-16.57-8.63-33.2-6.44-49.55c152.47,79.16,447.48-119.81,447.48-119.81c-136.65,33.84-317.32,1.56-362.05-7.4
						c-5.47-1.13-8.9-1.88-9.97-2.15c-0.27,0-0.38-0.05-0.38-0.05l-12.6-48.64c0,0,4.34-0.43,12.12-1.39
						c56.1-6.7,290.99-38.4,349.82-102.86c42.62-46.72,61.18-152.96,69.03-223.95c1.72-15.57-18.41-23.05-27.37-10.2
						c-66.74,95.69-182.6,171.64-186.67,172.31c3.38-2.52,90.1-68.59,115.68-220.04c26.06-154.45,244.23-447.91,455.36-440.4
						c207.97,7.4,325.1-53.95,328.53-55.77c-24.83,59.89-96.3,106.11-158.47,136.45c-13.68,6.68-7.17,27.35,7.85,24.82
						c74.24-12.48,168.69-30.95,229.3-52.36c30.84-10.89,55.35-32.87,74.65-59.05c51.16-69.29,65.96-167.97,65.96-167.97
						s0.05,0,0.05,0.05c135.63,89.99,169.09-89.45,177.03-201.54C2693.13,1918.47,2658.43,2170.37,2475.02,2247.38z"/>
				</g>
				<g>
					<path class="st5" d="M1352.3,3102.54c-76.96,0-156.3-3.41-215.81-14.13l-15.78-2.84l-5.01-507.98l-102.29-3.73l20.34-181.67
						l-42.89-125.76c-57.38,11.66-241.16,40.78-357.42-35.05c-57.26-37.36-111.71-143.59-105-274.36
						c5.44-106.24,58-306.82,348.75-456.57c3.42-1.74,6.92-3.44,10.65-5.19c38.09-17.51,96.6-35.76,202.08-63.06
						c40.1-10.33,83.8-21.16,130.07-32.62c75.51-18.71,161.09-39.91,247.78-63.22c42.37-11.41,79.91-21.9,114.75-32.07
						c191.68-55.73,341.85-112.16,459.11-172.54l12.94-6.66l10,10.57c5.85,6.19,143.44,154.07,158.04,378.71l0.81,12.39l-10.92,5.91
						c-8.41,4.55-198.17,106.68-343.93,146.35c20.06,48,65.14,167.15,63.04,264.04c37.36,5.18,165.03,7.4,481.87-108.98l17.91-6.58
						l6.85,17.8c3.71,9.65,90.36,239.12,46.08,482.72l-2.41,13.3l-13.31,2.32c-6.03,1.05-595.87,104.2-711.11,145.11
						c-18.06,23.01-124.7,176.31-124.7,583.99v17.86l-17.8,1.44C1606.86,3092.69,1483.01,3102.54,1352.3,3102.54z M1159.13,3052.87
						c136.91,20.43,369.32,6.43,434.99,1.86c3.37-447.28,132.13-589.71,137.69-595.63l3.03-3.23l4.14-1.59
						c99.03-38.12,616.62-130.11,709.5-146.45c30.7-190.15-21.52-373.73-40.18-430.66c-390.72,141.19-494.21,103.56-504.87,98.73
						l-12.44-5.64l1.15-13.61c9.53-113.24-67.23-281.02-68.01-282.7l-9.97-21.59l23.16-5.39
						c124.02-28.86,300.14-118.67,345.68-142.53c-15.05-170.86-107.31-295.12-137.24-331.36
						c-117.4,58.93-265.62,114.08-452.42,168.39c-35.08,10.23-72.87,20.79-115.51,32.28c-87.07,23.4-172.85,44.66-248.54,63.41
						c-46.18,11.44-89.8,22.25-129.7,32.53c-71.77,18.57-151.14,40.31-195.44,60.68c-3.19,1.5-6.34,3.02-9.34,4.55
						c-273.43,140.83-322.69,326.15-327.71,424.08c-5.89,114.93,40.67,209.4,87.48,239.94c122.07,79.6,342.15,26.6,344.36,26.06
						l17.24-4.25l57.01,167.15l-16.66,148.78l97.53,3.56L1159.13,3052.87z M2465.26,2324.55h0.05H2465.26z"/>
				</g>
				<g>
					<path class="st5" d="M1134.87,2580.36c-11.23,0-20.66-8.73-21.39-20.08c-0.75-11.82,8.22-22.02,20.04-22.77
						c1.84-0.12,186.04-12.71,385.02-91.53c263.91-104.55,427.44-269.81,486.06-491.21c3.03-11.46,14.8-18.29,26.23-15.25
						c11.46,3.03,18.28,14.78,15.25,26.23c-34.38,129.83-104.03,243.06-207.04,336.54c-81.84,74.27-184.72,136.18-305.79,184.01
						c-205.16,81.05-389.27,93.54-397.01,94.02C1135.79,2580.35,1135.32,2580.36,1134.87,2580.36z"/>
				</g>
				<g>
					<path class="st47" d="M1915.28,1952.88c0,0-100.78,373.86-861.7,430.85l-45.96-114.89
						C1007.63,2268.83,1584.22,2234.1,1915.28,1952.88z"/>
				</g>
				<g class="st19">
					<path class="st5" d="M1915.29,1952.9c0,0-100.77,373.85-861.71,430.8l-45.96-114.87c0,0,20.49-1.23,55.93-5.09l4.91,12.28
						c8.46,21.16,29.84,34.34,52.54,32.26c500.91-45.86,702.53-232.08,779.43-343.09
						C1905.48,1961.16,1910.41,1957.03,1915.29,1952.9z"/>
				</g>
				<g>
					<path class="st5" d="M1053.57,2405.17c-8.71,0-16.63-5.29-19.91-13.48l-45.96-114.89c-2.56-6.4-1.89-13.63,1.8-19.45
						c3.69-5.82,9.95-9.51,16.82-9.93c5.7-0.35,573.41-37.66,895.06-310.89c7.16-6.08,17.43-6.8,25.37-1.77
						c7.93,5.03,11.67,14.63,9.23,23.7c-1.1,4.09-28.38,101.2-152.46,204.93c-112.18,93.79-329.6,211.87-728.35,241.73
						C1054.65,2405.16,1054.11,2405.17,1053.57,2405.17z M1038.35,2287.87l29.29,73.23c374.71-30.63,579.33-140.59,685.3-228.08
						c45.59-37.64,77.22-74.39,98.83-105.14c-163.54,111.02-362.17,174.49-509.53,209.3
						C1204.13,2269.82,1089.96,2283.09,1038.35,2287.87z"/>
				</g>
				<g>
					<path class="st5" d="M1717.2,1467.36c57.67,52.4,106.16,115.2,141.47,184.8c2.43,4.84,4.61,9.39,7.03,14.98
						c10.47,26.36-27.33,42.83-39.45,17.07c-18.91-56.67-47.93-110.2-82.97-158.65c-11.62-16.34-24.51-31.73-37.71-46.94
						C1699.07,1470.99,1709.68,1460.57,1717.2,1467.36L1717.2,1467.36z"/>
				</g>
				<g>
					<path class="st5" d="M1722.13,2467.78c28.28-32.83,57.86-63.74,92.08-90.43c8.29-6.3,18.7,4.78,11.95,12.64
						c-26.47,30.98-48.79,66.42-68.58,101.95C1741.29,2518.82,1703.05,2492.82,1722.13,2467.78L1722.13,2467.78z"/>
				</g>
				<g>
					<path class="st47" d="M1575.39,1674.78c-0.59,3.81-1.13,7.56-1.72,11.21c-2.2,14-4.45,27.03-6.65,39.15
						c-11.37,61.3-22.1,97.34-22.1,97.34c-211.24-195.64-508.67-279.41-648.86-309.71c26.55-12.17,64.25-24.72,110.42-37.97
						c26.76-7.67,56.36-15.61,88.27-23.86c232.11,73.79,379.64,168.45,379.64,168.45c0.32-4.99,0.64-9.97,0.97-14.86
						c6.54-109.46,2.9-192.69-2.57-249.48c27.24-7.35,54.76-14.91,82.32-22.79c10.94-3.06,21.88-6.17,32.82-9.39
						C1599.37,1460.75,1588.85,1584.79,1575.39,1674.78z"/>
				</g>
				<g class="st18">
					<path class="st7" d="M1575.39,1674.78c-0.59,3.81-1.13,7.56-1.72,11.21l-35.61-22.95c16.04-84.73,17.64-242.3,17.05-330.78
						c10.94-3.06,21.88-6.17,32.82-9.39C1599.37,1460.75,1588.85,1584.79,1575.39,1674.78z"/>
				</g>
				<g class="st18">
					<path class="st7" d="M1575.39,1674.78c-2.73,18.23-5.58,35.07-8.37,50.36c-93.21-62.16-293.24-179.93-560.53-250.34
						c26.76-7.67,56.36-15.61,88.27-23.86c232.11,73.79,379.64,168.45,379.64,168.45c0.32-4.99,0.64-9.97,0.97-14.86
						L1575.39,1674.78z"/>
				</g>
				<g>
					<path class="st5" d="M1544.93,1843.92c-5.34,0-10.56-1.99-14.58-5.71c-203.94-188.86-487.77-271.83-638.81-304.48
						c-9.02-1.95-15.79-9.46-16.79-18.63c-1.01-9.18,3.97-17.97,12.36-21.83c38.06-17.49,96.67-35.78,202.28-63.11
						c3.92-1.02,8.03-0.91,11.88,0.32c173.17,55.06,298.66,120.85,353.79,152.36c5.06-101.78,1.01-178.03-3.61-225.74
						c-1.01-10.42,5.66-20.05,15.77-22.78c42.37-11.42,79.89-21.9,114.72-32.06c6.18-1.81,12.85-0.73,18.16,2.92
						c5.31,3.65,8.69,9.49,9.22,15.91c23.08,278.78-41.09,498.29-43.83,507.5c-2.11,7.1-7.74,12.61-14.89,14.57
						C1548.72,1843.68,1546.82,1843.92,1544.93,1843.92z M969.88,1508.23c155.11,40.04,383.46,120.74,563.02,274.79
						c16.06-68.39,48.1-234.83,35.58-432.21c-22.81,6.52-46.88,13.22-72.72,20.24c6.03,74.36,6.06,160.25,0.05,249.76
						c-0.5,7.57-4.98,14.3-11.75,17.72c-6.76,3.42-14.84,3-21.23-1.09c-1.45-0.93-145.65-92.49-368.68-164.19
						C1052.06,1484.19,1007.82,1496.15,969.88,1508.23z"/>
				</g>
				<g>
					<path class="st5" d="M1573.22,1710.34c-5.08,0-10.19-1.8-14.28-5.45c-38.86-34.71-98.08-68.74-98.67-69.08
						c-10.28-5.88-13.85-18.99-7.96-29.27c5.88-10.28,18.99-13.85,29.27-7.96c2.58,1.48,63.76,36.65,105.94,74.33
						c8.83,7.89,9.6,21.45,1.7,30.29C1584.99,1707.92,1579.12,1710.34,1573.22,1710.34z"/>
				</g>
				<g>
					<g>
						<path class="st7" d="M1199.4,2174.96l-92.23-266.72c-9.92-28.7,5.3-60.01,33.99-69.93l509.35-176.14
							c28.7-9.92,60.01,5.3,69.93,33.99l92.23,266.72c9.92,28.7-5.3,60.01-33.99,69.93l-509.35,176.14
							C1240.63,2218.88,1209.32,2203.66,1199.4,2174.96z"/>
					</g>
					<g class="st19">
						<path class="st5" d="M1778.7,2032.81l-509.37,176.12c-28.69,9.97-60.01-5.26-69.93-33.95l-92.24-266.75
							c-9.92-28.69,5.31-60.01,34-69.93l41.19-14.27l79.21,229c9.92,28.69,41.24,43.92,69.93,34l468.13-161.91l13.03,37.75
							C1822.57,1991.57,1807.39,2022.89,1778.7,2032.81z"/>
					</g>
					<g>
						<path class="st7" d="M1785.93,1885.6l-50.83-146.98l64.78-22.4c40.59-14.04,84.87,7.49,98.91,48.08l0,0
							c14.04,40.59-7.49,84.87-48.08,98.91L1785.93,1885.6z"/>
					</g>
					<g class="st19">
						<path class="st5" d="M1903.07,1789.76c0,32.23-20.16,62.32-52.34,73.42l-64.78,22.42l-50.84-147l1.13-0.38l26.06,75.4
							l64.78-22.42c27.14-9.39,45.8-32.28,50.95-58.62c9.12,8.37,16.41,19.09,20.75,31.69
							C1901.67,1772.71,1903.07,1781.29,1903.07,1789.76z"/>
					</g>
					<g>
						<path class="st5" d="M1251.43,2234.04c-31.95,0-61.88-20.03-72.89-51.87c0,0,0,0,0,0l-92.23-266.72
							c-13.88-40.16,7.49-84.12,47.64-98l509.35-176.14c40.17-13.88,84.12,7.49,98,47.63l92.23,266.72
							c6.72,19.45,5.47,40.35-3.52,58.86c-9,18.51-24.66,32.41-44.11,39.14l-509.36,176.14
							C1268.23,2232.68,1259.76,2234.04,1251.43,2234.04z M1220.25,2167.75c5.93,17.15,24.72,26.3,41.87,20.35l509.36-176.14
							c8.31-2.87,15-8.81,18.85-16.71c3.84-7.91,4.38-16.84,1.5-25.15l-92.24-266.72c-5.93-17.15-24.71-26.3-41.87-20.35
							l-509.35,176.14c-17.15,5.93-26.28,24.71-20.35,41.87L1220.25,2167.75z"/>
					</g>
					<g>
						<path class="st5" d="M1342.31,2200.91c-31.24,0-60.5-19.59-71.27-50.73l-92.23-266.72c-13.58-39.26,7.31-82.25,46.58-95.83
							l418.45-144.7c39.3-13.58,82.26,7.33,95.83,46.58l92.23,266.72c6.58,19.02,5.36,39.47-3.44,57.56
							c-8.8,18.11-24.12,31.69-43.14,38.27l-418.45,144.7C1358.75,2199.57,1350.46,2200.91,1342.31,2200.91z M1668.43,1679.52
							c-3.75,0-7.55,0.61-11.28,1.9l-418.45,144.7c-8.74,3.02-15.78,9.27-19.82,17.59c-4.04,8.32-4.6,17.71-1.58,26.45l92.23,266.72
							l0,0c3.02,8.74,9.27,15.78,17.58,19.82c8.32,4.04,17.71,4.6,26.45,1.59l418.45-144.7c8.74-3.02,15.78-9.27,19.82-17.58
							s4.6-17.71,1.58-26.45l-92.23-266.72C1696.23,1688.51,1682.78,1679.52,1668.43,1679.52z"/>
					</g>
					<g>
						<path class="st5" d="M1580.12,2118.55c-8,0-15.6-4.75-18.83-12.6l-54.76-132.77l-119.64-47.92
							c-5.41-2.16-9.62-6.54-11.59-12.02L1325,1773.18c-3.8-10.58,1.7-22.25,12.28-26.04c10.59-3.8,22.25,1.69,26.05,12.28
							l47.2,131.44l119.12,47.71c5.1,2.04,9.16,6.06,11.25,11.14l58.04,140.72c4.29,10.4-0.66,22.3-11.06,26.59
							C1585.34,2118.06,1582.7,2118.55,1580.12,2118.55z"/>
					</g>
					<g>
						<path class="st5" d="M1785.93,1907.57c-3.3,0-6.58-0.74-9.6-2.21c-5.24-2.54-9.26-7.07-11.16-12.58l-50.83-146.98
							c-1.9-5.51-1.54-11.55,1.01-16.79c2.54-5.24,7.07-9.26,12.58-11.16l64.78-22.4c51.97-17.96,108.88,9.69,126.86,61.66
							c17.97,51.98-9.69,108.89-61.67,126.86l-64.77,22.4C1790.78,1907.17,1788.35,1907.57,1785.93,1907.57z M1763.05,1752.2
							l36.46,105.45l44.01-15.22c29.08-10.05,44.55-41.88,34.5-70.96c-10.05-29.07-41.88-44.54-70.96-34.49L1763.05,1752.2z"/>
					</g>
					<g>
						<g>
							<circle class="st48" cx="1625.45" cy="1861.46" r="61.67"/>
						</g>
						<g>
							<path class="st5" d="M1625.44,1944.58c-45.83,0-83.12-37.29-83.12-83.12s37.29-83.12,83.12-83.12s83.12,37.29,83.12,83.12
								S1671.28,1944.58,1625.44,1944.58z M1625.44,1821.24c-22.18,0-40.22,18.05-40.22,40.22s18.04,40.22,40.22,40.22
								s40.22-18.04,40.22-40.22S1647.62,1821.24,1625.44,1821.24z"/>
						</g>
					</g>
					<g>
						<path class="st7" d="M1221.5,2003.69c-0.54,25.37-4.67,53.09-13.94,82.7c-38.24,121.84-222.13,95.35-222.13,95.35l18.77,63.76
							c0,0-10.78,1.82-28.69,4.13c-0.16,0-0.38,0.05-0.54,0.05c-47.73,6.22-145.17,15.87-224.97,4.88l-14.48-86.02l-12.17-72.51
							l-5.15-30.73l-22.04-131.07l43.92-10.89h0.11l146.09-36.15c0,0,25.15-43.87,58.24-73.58c16.89-15.12,35.82-26.55,54.49-26.55
							c55.29,0,48.91,62.58,48.91,62.58s82.96-26.22,117.77,0.54C1189.43,1868.49,1223.1,1924.64,1221.5,2003.69z"/>
					</g>
					<g>
						<path class="st5" d="M692.81,1920.69l188.33-54.31c0.01-0.01-13.5,10.2-13.45,10.14c29.67-47.77,84.03-124.26,149.85-108.68
							c30.93,6.34,48.96,35.38,51.37,64.05c0.72,6.58,0.89,13.3,0.34,19.92c0,0-27.81-22.62-27.81-22.62
							c37.53-10.41,77.35-18.17,115.94-7.05c14.88,4.91,27.41,14.71,37.38,26.74c45.98,57.67,56.04,136.39,42.44,206.79
							c-10.22,57.52-32.87,98.46-86.68,125.03c-53.34,25.13-111.02,28.31-168.16,22.25c0,0,23.63-27.29,23.63-27.29l18.77,63.74
							c3.81,12.21-4.38,25.29-17.02,27.21c-64.75,9.96-129.2,15.27-194.67,14.14c-21.88-0.59-43.88-2.1-65.99-4.94
							c-11.75-1.51-20.05-12.26-18.54-24.01c1.51-11.89,12.53-20.23,24.38-18.5c40.62,5.25,82.26,5.57,123.39,3.66
							c41.31-2.1,83.62-6.27,124.3-12.66c0,0-17.01,27.21-17.01,27.21l-18.76-63.74c-3.35-11.36,3.15-23.29,14.52-26.64
							c6.16-1.91,11.39-0.07,17.83,0.28c9.27,0.81,18.64,1.23,27.97,1.26c70.06,0.31,150.85-19.01,165.84-97.09
							c16.07-60.33,11.77-130.41-23.97-182.55c-2.9-3.91-6.93-8.73-10.35-12.23c-1.31-1.11-3.7-3.43-5.04-4.1
							c-5.4-3.8-15.52-6.38-26.55-6.87c-22.15-1.04-48.07,3.66-70.72,10.26c-11.55,3.36-23.64-3.27-27-14.81
							c-1.78-6.23-0.05-11.91-1.12-18.7c-1.03-11.28-6.03-23.58-16.46-26.54c-1.07-0.12-3.25-0.77-4.29-1.03
							c-9.67-1.23-16.74,0.37-26.85,5.96c-14.12,8.09-27.91,21.42-40.25,35.89c-12.15,14.34-24.02,31.04-33.5,47.01
							c-2.94,5.13-7.89,9.12-13.46,10.16c0,0-191.93,39.73-191.93,39.73C682.24,1950.98,675.72,1926.16,692.81,1920.69
							L692.81,1920.69z"/>
					</g>
					<g>
						<path class="st5" d="M987.65,2211.31c-9.15,0-17.69-5.76-20.8-14.9l-102.81-301.97c-3.91-11.48,2.23-23.97,13.72-27.88
							c11.47-3.92,23.97,2.23,27.88,13.72l102.81,301.97c3.91,11.48-2.23,23.97-13.72,27.88
							C992.38,2210.93,989.99,2211.31,987.65,2211.31z"/>
					</g>
					<g class="st19">
						<path class="st49" d="M723.34,2096.04l-5.15-30.73c31.37-10.4,53.95-25.96,55.35-26.92
							C760.61,2060.8,741.84,2080.27,723.34,2096.04z"/>
					</g>
					<g class="st19">
						<path class="st5" d="M1220.76,2003.67c-0.54,25.37-4.67,53.09-13.94,82.7c-38.24,121.84-222.13,95.35-222.13,95.35
							l18.77,63.76l-0.59-1.72c0,0-10.46,2.57-28.1,5.85c-0.16,0-0.38,0.05-0.54,0.05c-47.73,6.22-145.17,15.87-224.97,4.88
							l-14.48-86.02c18.34,1.93,48.15,0.01,70.9-16.39c117.77-84.94,78.43-248.32,78.43-248.32l-144.66,19.52l146.09-36.15
							c0,0,25.15-43.87,58.24-73.58C884.1,2007.11,1112.64,2138.36,1220.76,2003.67z"/>
					</g>
				</g>
				<g>
					<g>
						<path class="st47" d="M1684.96,2195.68c0,203.95-105.22,394.6-105.22,394.6l-137.18-87.42c2.04-2.31,4.13-4.72,6.11-7.19
							c46.55-55.88,89.08-144.15,118.04-212.37c23.81-56.2,38.4-98.89,38.4-98.89L1684.96,2195.68z"/>
					</g>
					<g class="st19">
						<path class="st5" d="M1684.96,2195.68c0,203.95-105.22,394.6-105.22,394.6l-137.18-87.42c2.04-2.31,4.13-4.72,6.11-7.19
							l105.6,9.55c25.87-23.71,45.17-69.41,58.33-111.02c13.11-41.44-4.62-86.14-41.91-108.46c-1.4-0.84-2.73-1.66-3.97-2.45
							c23.81-56.2,38.4-98.89,38.4-98.89L1684.96,2195.68z"/>
					</g>
					<g>
						<path class="st5" d="M1579.74,2611.71c-4.05,0-8.05-1.14-11.52-3.36l-137.16-87.37c-5.29-3.37-8.84-8.89-9.72-15.1
							c-0.88-6.21,1.01-12.49,5.16-17.19c83.57-94.63,157.57-309.07,158.32-311.23c3.33-9.74,13.09-15.73,23.29-14.29l79.86,11.27
							c10.59,1.49,18.45,10.55,18.45,21.24c0,207.08-103.49,396.96-107.9,404.95c-2.86,5.19-7.74,8.96-13.48,10.42
							C1583.3,2611.49,1581.51,2611.71,1579.74,2611.71z M1474.5,2497.79l96.82,61.67c25.03-51.64,87.06-193.99,91.89-345.19
							l-43.76-6.18C1601.17,2258.34,1543.51,2407.94,1474.5,2497.79z"/>
					</g>
					<g>
						<path class="st47" d="M2001.58,2243.57l-36.95,65.32l-27.89,49.34c-160.83-48.21-283.7-187.92-283.7-187.92l51.64-31.96
							c32.45,15.87,64.14,29.71,93.96,41.62C1913.79,2225.93,2001.58,2243.57,2001.58,2243.57z"/>
					</g>
					<g class="st18">
						<path class="st7" d="M2001.58,2243.57l-19.36,34.27c-9.17-1.93-93.42-20.11-202.07-63.44c-29.82-11.96-61.51-25.8-93.9-41.62
							l-19.52,12.07c-8.9-9.12-13.68-14.53-13.68-14.53l51.64-31.96c32.45,15.87,64.14,29.71,93.96,41.62
							C1913.79,2225.93,2001.58,2243.57,2001.58,2243.57z"/>
					</g>
					<g class="st19">
						<path class="st5" d="M1964.63,2308.89l-27.89,49.34c-160.83-48.21-283.7-187.92-283.7-187.92l51.64-31.96
							c32.45,15.87,64.14,29.71,93.96,41.62c-1.26,4.16-2.93,8.58-5.12,13.12c-10.35,21.44-3.76,47.17,16.37,59.89
							C1843.85,2274.43,1897.65,2300.99,1964.63,2308.89z"/>
					</g>
					<g>
						<path class="st5" d="M1936.74,2379.67c-2.05,0-4.12-0.29-6.16-0.91c-164.8-49.4-288.48-188.38-293.67-194.27
							c-4.17-4.74-6.04-11.08-5.11-17.33c0.93-6.25,4.57-11.77,9.94-15.09l51.67-31.94c6.27-3.88,14.09-4.25,20.71-1.02
							c153.18,74.99,290.31,103.18,291.68,103.46c6.74,1.36,12.42,5.87,15.27,12.12c2.85,6.25,2.54,13.49-0.84,19.47l-64.82,114.62
							C1951.53,2375.63,1944.32,2379.67,1936.74,2379.67z M1686.85,2174.62c37.07,36.9,128.58,119.45,239.82,157.81l42.08-74.41
							c-47.71-11.91-149.27-40.87-262.81-95.21L1686.85,2174.62z M1653.02,2170.32h0.05H1653.02z"/>
					</g>
					<g>
						<circle class="st47" cx="1649.44" cy="2152.15" r="95.19"/>
					</g>
					<g class="st18">
						<path class="st7" d="M1735.1,2193.75v-0.38c0-52.56-42.64-95.19-95.19-95.19c-37.65,0-70.2,21.88-85.65,53.58
							c0.21-52.4,42.69-94.82,95.19-94.82c52.56,0,95.19,42.63,95.19,95.19C1744.65,2167.04,1741.21,2181.15,1735.1,2193.75z"/>
					</g>
					<g class="st19">
						<path class="st5" d="M1744.65,2152.13c0,52.61-42.63,95.19-95.19,95.19c-52.61,0-95.19-42.58-95.19-95.19
							c0-6.06,0.59-11.96,1.66-17.7c17.16,24.88,45.91,41.19,78.41,41.19c46.5,0,85.22-33.3,93.53-77.44
							C1738.43,2113.52,1744.65,2132.13,1744.65,2152.13z"/>
					</g>
					<g>
						<path class="st5" d="M1649.44,2269.32c-64.6,0-117.16-52.56-117.16-117.16c0-64.61,52.56-117.17,117.16-117.17
							c64.61,0,117.17,52.56,117.17,117.17C1766.61,2216.76,1714.05,2269.32,1649.44,2269.32z M1649.44,2078.93
							c-40.37,0-73.22,32.85-73.22,73.22c0,40.37,32.85,73.22,73.22,73.22c40.38,0,73.22-32.85,73.22-73.22
							C1722.66,2111.78,1689.81,2078.93,1649.44,2078.93z"/>
					</g>
				</g>
				<g class="st19">
					<path class="st5" d="M1647.69,1305.12c-22.74,209.15-263.05,373.74-556.08,373.74c-125.28,0-240.9-30.09-334-80.87
						c36.84-28.16,79.42-55.08,128.44-80.34C990.57,1463.8,1323.02,1404.28,1647.69,1305.12z"/>
				</g>
			</g>
			<g>
				<g>
					<path class="st7" d="M1782.03,883.66c-13.95,130.73-61.03,258.76-141.35,371.1c-16.39,22.9-34.07,45.12-53.16,66.56
						c-9.26,10.46-18.95,20.74-28.9,30.92c-30.15,30.5-62.17,58.07-95.75,82.72c-28.9,21.32-59,40.42-89.92,57.37
						c-37.33,20.49-76,37.75-115.53,51.88c-14.43,5.1-28.96,9.82-43.57,14.14c-267.65,78.56-568.45,16.3-781.63-188.82
						c-314.09-302.1-318.96-799.64-11.01-1111.3c59.35-59.98,125.98-108.85,197.16-146.2c8.28-4.44,16.72-8.67,25.23-12.71
						c22.7-10.97,45.8-20.81,69.22-29.51c54.18-20.1,110.14-34.18,166.71-42.24c56.54-8.12,113.84-10.22,170.68-6.3
						c18.07,1.24,36.1,3.06,54.1,5.54c26.98,3.72,53.76,8.73,80.37,15.23c132.55,32.01,258.31,98.23,362.93,198.89
						C1728.31,414.71,1806.63,653.13,1782.03,883.66z"/>
					<path class="st5" d="M986.05,1593.05c-204.9,0-405.08-77.69-555.18-222.12c-151.67-145.88-236.67-341.64-239.35-551.21
						c-2.69-211.25,78.39-411.15,228.3-562.86c58.52-59.13,125.01-108.44,197.65-146.55c7.92-4.25,16.2-8.42,25.3-12.74
						c22.64-10.94,45.98-20.89,69.38-29.58c53.78-19.96,110-34.2,167.11-42.34c56.56-8.12,114.11-10.25,171.08-6.31
						c18.28,1.25,36.53,3.12,54.23,5.55c27.54,3.8,54.65,8.94,80.57,15.27c136.78,33.03,262.59,101.98,363.81,199.38
						c175.07,168.36,260.72,403.21,235,644.33c-14.26,133.66-63.26,262.31-141.7,372.03c-16.6,23.2-34.53,45.65-53.29,66.72
						c-8.59,9.71-18.07,19.85-28.96,30.98c-29.8,30.15-62.1,58.05-96,82.93c-28.37,20.93-58.7,40.27-90.13,57.5
						c-36.79,20.19-75.76,37.69-115.82,52.01c-14.37,5.08-29.06,9.85-43.68,14.17C1139.19,1582.29,1062.29,1593.05,986.05,1593.05z
						 M994.63,21.31c-38.4,0-76.83,2.74-114.81,8.19c-56.84,8.1-112.79,22.28-166.31,42.14c-23.28,8.65-46.51,18.55-69.05,29.44
						c-9.06,4.3-17.29,8.44-25.16,12.67c-72.29,37.94-138.47,87-196.7,145.85C273.43,410.56,192.75,609.46,195.42,819.66
						c2.65,208.52,87.23,403.3,238.15,548.46c204.93,197.19,503.69,269.38,779.73,188.35c14.55-4.3,29.17-9.05,43.47-14.11
						c39.86-14.25,78.63-31.66,115.24-51.75c31.28-17.15,61.46-36.4,89.7-57.23c33.74-24.76,65.87-52.52,95.53-82.52
						c10.84-11.08,20.27-21.17,28.82-30.84c18.67-20.98,36.51-43.32,53.03-66.4c78.05-109.17,126.81-237.18,141-370.18l1.94,0.21
						l-1.94-0.21c25.6-239.91-59.63-473.58-233.83-641.1c-100.72-96.93-225.91-165.53-362.03-198.4
						c-25.8-6.31-52.77-11.42-80.18-15.2c-17.61-2.42-35.78-4.28-53.97-5.52C1031.64,21.95,1013.14,21.31,994.63,21.31z"/>
				</g>
				<g>
					<path class="st50" d="M432.22,1369.5c213.16,205.16,514.01,267.42,781.64,188.82c14.62-4.3,29.14-9.01,43.55-14.12
						c39.55-14.12,78.2-31.4,115.54-51.86c30.91-16.98,61.04-36.07,89.91-57.36c33.61-24.65,65.61-52.21,95.79-82.73
						c9.91-10.2,19.61-20.46,28.9-30.9c19.08-21.46,36.73-43.71,53.13-66.6c80.31-112.34,127.43-240.35,141.36-371.12
						c7.68-71.82,5.35-144.45-6.95-215.63c-16.19,124.48-62.59,245.9-139.21,353.08c-16.36,22.94-34.05,45.14-53.14,66.6
						c-9.24,10.45-18.94,20.7-28.9,30.9c-30.18,30.52-62.18,58.08-95.74,82.73c-28.93,21.3-59,40.38-89.91,57.36
						c-37.34,20.46-76.04,37.75-115.54,51.86c-14.46,5.11-28.98,9.82-43.6,14.12c-267.64,78.6-568.43,16.34-781.64-188.82
						C303,1016.2,227.16,865.88,200.01,708.64C169.17,944.78,246.81,1191.21,432.22,1369.5z"/>
				</g>
				<g>
					<path class="st5" d="M986.06,1606.1c-208.26,0-411.68-78.96-564.25-225.76c-154.21-148.32-240.63-347.37-243.35-560.46
						c-2.73-214.78,79.69-417.99,232.07-572.2c59.46-60.09,127.05-110.2,200.86-148.94c8-4.29,16.47-8.56,25.77-12.98
						c22.93-11.07,46.66-21.19,70.44-30.02c54.66-20.28,111.79-34.76,169.81-43.03c57.47-8.25,115.97-10.4,173.83-6.41
						c18.57,1.27,37.11,3.17,55.11,5.64c27.99,3.86,55.54,9.08,81.89,15.52c139,33.56,266.88,103.65,369.77,202.66
						c178,171.18,265.09,409.97,238.93,655.12l0,0c-14.5,135.9-64.32,266.69-144.06,378.24c-16.87,23.58-35.09,46.39-54.16,67.81
						c-8.71,9.85-18.33,20.14-29.38,31.43c-30.34,30.69-63.16,59.05-97.61,84.33c-28.81,21.25-59.63,40.92-91.58,58.43
						c-37.39,20.52-76.99,38.3-117.7,52.85c-14.62,5.17-29.54,10.01-44.37,14.4C1141.69,1595.17,1063.53,1606.1,986.06,1606.1z
						 M994.63,34.38c-37.78,0-75.59,2.69-112.95,8.06c-55.93,7.97-110.97,21.91-163.62,41.45c-22.9,8.5-45.75,18.24-67.92,28.95
						c-8.94,4.25-16.98,8.29-24.66,12.42c-71.22,37.37-136.3,85.64-193.59,143.53C285.19,417.24,205.85,612.82,208.49,819.5
						c2.61,205,85.76,396.49,234.14,539.21c201.57,193.96,495.46,264.94,766.99,185.24c14.3-4.23,28.71-8.91,42.8-13.89
						c39.17-14,77.31-31.13,113.32-50.89c30.78-16.87,60.46-35.81,88.23-56.29c33.2-24.37,64.82-51.68,93.99-81.19
						c10.64-10.88,19.92-20.81,28.33-30.31c18.39-20.66,35.94-42.64,52.19-65.35c76.73-107.34,124.67-233.2,138.63-363.96
						c25.16-235.86-58.63-465.6-229.89-630.3c-99.06-95.32-222.18-162.79-356.04-195.12c-25.4-6.21-51.93-11.24-78.9-14.96
						c-17.31-2.38-35.18-4.2-53.08-5.43C1031.05,35,1012.84,34.38,994.63,34.38z M1782.03,883.66h0.05H1782.03z"/>
				</g>
				<g>
					<path class="st5" d="M986.07,1610.46c-209.37,0-413.89-79.39-567.28-226.98c-155.06-149.14-241.96-349.27-244.68-563.54
						c-2.75-215.95,80.11-420.27,233.33-575.32c59.78-60.41,127.72-110.79,201.94-149.73c8.03-4.31,16.56-8.61,25.93-13.06
						c23.02-11.12,46.88-21.29,70.79-30.17C761.04,31.27,818.48,16.72,876.81,8.4c57.76-8.29,116.58-10.46,174.74-6.45
						c18.67,1.28,37.31,3.18,55.41,5.67c28.13,3.88,55.83,9.13,82.33,15.61c139.74,33.75,268.31,104.2,371.75,203.75
						c178.97,172.12,266.54,412.22,240.24,658.73l0,0c-14.58,136.64-64.67,268.15-144.85,380.31
						c-16.96,23.7-35.28,46.64-54.45,68.17c-8.75,9.89-18.42,20.24-29.52,31.58c-30.52,30.87-63.52,59.38-98.14,84.79
						c-28.96,21.36-59.95,41.14-92.07,58.74c-37.58,20.63-77.4,38.51-118.32,53.13c-14.71,5.2-29.69,10.06-44.6,14.48
						C1142.51,1599.47,1063.94,1610.46,986.07,1610.46z M994.63,38.73c-37.57,0-75.17,2.68-112.33,8.01
						c-55.62,7.93-110.37,21.8-162.72,41.22c-22.77,8.45-45.49,18.14-67.54,28.79c-8.9,4.23-16.88,8.24-24.5,12.33
						c-70.85,37.18-135.59,85.18-192.56,142.76C289.12,419.46,210.22,613.94,212.84,819.44c2.59,203.83,85.27,394.23,232.8,536.13
						c200.46,192.88,492.72,263.45,762.75,184.2c14.22-4.21,28.56-8.86,42.57-13.82c38.94-13.92,76.87-30.95,112.68-50.6
						c30.62-16.78,60.13-35.61,87.73-55.98c33.03-24.24,64.47-51.4,93.48-80.75c10.57-10.81,19.81-20.69,28.17-30.14
						c18.3-20.56,35.75-42.41,51.91-65c76.3-106.73,123.97-231.87,137.84-361.89c25.02-234.51-58.3-462.94-228.58-626.7
						c-98.51-94.79-220.93-161.88-354.05-194.03c-25.27-6.18-51.66-11.18-78.47-14.88c-17.22-2.36-34.98-4.18-52.78-5.4
						C1030.85,39.36,1012.74,38.73,994.63,38.73z M1782.03,883.66h0.05H1782.03z"/>
				</g>
				<g>
					<path class="st5" d="M1734.8,1079.85c-306.94,474.82-982.4,505.63-1228.1,6.32c-167.16-339.7,41.84-765.4,383.73-904.82
						c248.83-101.47,536.12-93.39,799.06,243.69c0,0,92.94,167.09,93.6,303.62s-22.04,269.55-22.04,269.55L1734.8,1079.85z"/>
				</g>
				<g class="st14">
					<path class="st7" d="M769.66,401.08c0,0,326.79-105.72,574.49,5.76c0.26,0.12,0.52,0.23,0.78,0.35
						c52.11,23.51,96.76,60.55,129.53,106.89c43.34,61.28,64.07,109.82,80.65,153.26c50.35,132.13,48.84,203.47,48.84,203.47
						c49.73-98.49,62.54-193.9,21.71-304.37c-4.05-10.88-8.64-21.95-13.72-33.16c-1.16-2.59-2.37-5.13-3.63-7.67
						c0.05-0.05,0-0.09-0.1-0.14c-11.9-21.99-28.65-50.3-50.25-80.65c-65.1-91.6-174.11-202.03-326.87-214.9
						C945.46,205.87,753.35,391.44,769.66,401.08z"/>
				</g>
				<g>
					<path class="st51" d="M506.72,1086.16c245.68,499.3,921.15,468.48,1228.09-6.3l5.3-16.56
						c-439.65,279.39-1029.88,195.02-1287.84-305.2C439.35,868.33,455.15,981.33,506.72,1086.16z"/>
				</g>
				<g>
					<path class="st5" d="M1079.92,1549.02c-81.49,0-161.91-12.38-238.03-37.46c-188.01-61.93-336.01-193.45-428-380.34
						c-84.49-171.67-90.5-372.84-16.94-566.44c81.7-215.03,253.03-393.38,458.3-477.09c114.07-46.52,225.1-68.39,330.06-65
						l1.99,0.06l1.93,0.47c139.79,33.76,268.36,104.22,371.81,203.76c178.97,172.12,266.54,412.22,240.24,658.73l0,0
						c-14.58,136.64-64.67,268.15-144.85,380.31c-16.96,23.7-35.28,46.64-54.45,68.17c-8.75,9.89-18.42,20.24-29.52,31.58
						c-30.52,30.87-63.52,59.38-98.14,84.79l-2.57,1.59C1347.67,1516.3,1212.39,1549.02,1079.92,1549.02z M1164.12,61.09
						c-93.62,0-192.49,20.98-294.24,62.47c-195.5,79.73-358.76,249.81-436.72,454.99c-69.7,183.44-64.2,373.65,15.49,535.58
						c87.29,177.35,227.46,302.06,405.36,360.66c189.6,62.45,407.69,41.92,598.62-56.33c32.55-23.98,63.57-50.83,92.22-79.82
						c10.57-10.81,19.81-20.69,28.17-30.14c18.3-20.56,35.75-42.41,51.91-65c76.3-106.73,123.97-231.87,137.84-361.89
						c25.02-234.51-58.3-462.94-228.58-626.7c-98.03-94.33-219.74-161.23-352.11-193.55C1176.12,61.17,1170.12,61.09,1164.12,61.09z
						 M1782.03,883.66h0.05H1782.03z"/>
				</g>
				<g>
					<path class="st5" d="M1085.01,1467.83c-13.99,0-27.98-0.41-42.01-1.22c-242.54-14.15-444.35-149.7-553.68-371.89
						c-75.42-153.28-80.8-332.85-15.14-505.64c72.9-191.84,225.77-350.97,408.93-425.66c315.57-128.7,592.01-44.68,821.64,249.71
						l1.66,2.5c3.9,7,95.37,173.05,96.04,312.94c0.66,136.65-21.38,267.4-22.32,272.9l-0.65,2.67l-27.02,84.09l-1.39,2.15
						C1598.76,1325.96,1346.55,1467.83,1085.01,1467.83z M1157.1,144.36c-83.03,0-169.52,18.28-259.37,54.92
						c-173.39,70.71-318.2,221.57-387.35,403.55c-61.8,162.64-56.94,331.25,13.69,474.79c103,209.32,292.96,337,521.18,350.32
						c261.65,15.3,518.84-121.26,671.89-356.47l25.02-77.84c2.32-14.14,22.16-138.87,21.55-264.88
						c-0.61-123.79-82.08-277.54-90.48-293.04C1521.53,241.73,1348.64,144.36,1157.1,144.36z M1734.8,1079.85h0.05H1734.8z"/>
				</g>
				<g>
					<g>
						<path class="st7" d="M328.84,1090.65c0,268.36-117.66,410.96-177.94,466.41c-16.04,14.75-40.65,13.03-54.65-2.79
							c-1.13-1.29-2.2-2.68-3.16-4.18l-67.41-101.73c-10.51-15.82-7.83-37,6.38-49.61c75.35-66.93,124.79-134.93,157.13-197.57
							c75.72-146.84,57.22-264.23,56.36-269.38L328.84,1090.65z"/>
					</g>
					<g class="st19">
						<path class="st5" d="M328.84,1090.65c0,268.36-117.66,410.96-177.94,466.41c-16.04,14.75-40.65,13.03-54.65-2.79
							c133.21-92.78,113.32-266.32,92.94-353.09c75.72-146.84,57.22-264.23,56.36-269.38L328.84,1090.65z"/>
					</g>
					<g>
						<path class="st7" d="M535.15,1586.45c-36.58,19.2-78.73,57.28-106.29,84.41c-14.69,14.48-39.36,8.47-46.01-11.1
							c-8.69-25.63-15.77-52.5-21.61-80.12c-47.03-224.71-6.27-495.75-6.27-495.75c47.89,86.56,126.3,289.01,170.16,405.81
							c9.65,25.69,17.64,47.19,23.27,62.48C553.23,1565.32,547.59,1579.97,535.15,1586.45z"/>
					</g>
					<g class="st19">
						<path class="st5" d="M525.12,1489.71c-46.12-13.78-116-12.44-163.89,89.94c-47.03-224.71-6.27-495.75-6.27-495.75
							C402.85,1170.45,481.26,1372.9,525.12,1489.71z"/>
					</g>
					<g>
						<path class="st5" d="M124.99,1586.57c-2.32,0-4.64-0.14-6.98-0.42c-16.76-2.04-31.73-11.28-41.07-25.37l-67.41-101.7
							c-15.76-23.76-11.61-55.91,9.64-74.79c127.64-113.34,177.17-229.4,196.25-306.81c20.68-83.92,11.1-141.93,11-142.51
							l-20.87-121.24l142.65,272.15v4.77c0,270.79-115.4,417.39-184.18,480.67C153.3,1581.19,139.37,1586.57,124.99,1586.57z
							 M265.99,1012.44c-8.24,92.93-50.42,249.25-221.09,400.81c-6.92,6.14-8.24,16.64-3.08,24.42l67.41,101.71
							c3.11,4.69,7.89,7.64,13.46,8.32c5.61,0.69,10.96-1.05,15.12-4.88c63.72-58.62,170.35-194.45,171.66-447.42L265.99,1012.44z"
							/>
					</g>
					<g>
						<path class="st5" d="M409.46,1698.23c-3.66,0-7.35-0.43-11.02-1.3c-15.97-3.8-28.65-15.37-33.93-30.96
							c-79.83-235.81-30.83-570.81-28.7-584.95l8.48-56.44l27.62,49.94c59.1,106.87,163.95,387.5,194.67,470.97
							c8.15,22.15-1.49,47.13-22.43,58.11c-34.13,17.9-74.16,53.96-101.72,81.06C433.47,1693.48,421.66,1698.23,409.46,1698.23z
							 M366.76,1150.84c-10.34,109.2-22.1,335.71,34.44,502.71c1.35,3.99,4.47,5.28,6.21,5.7c1.69,0.41,4.96,0.66,7.87-2.21
							c29.43-28.93,72.56-67.64,110.89-87.74c3.84-2.01,5.55-6.4,4.07-10.43C504.33,1488.5,425.36,1276.91,366.76,1150.84z"/>
					</g>
				</g>
				<g>
					<g>
						<path class="st7" d="M1538.07,243.05c-228.73,44.89-856.83,221.43-1275.62,850.34c-35.29-89.19-54.65-186.36-54.65-288.09
							c0-2.79,0-5.63,0.05-8.42c29.6-41.67,67.47-91.01,113.91-144.21c182.45-209.1,497.19-477.83,962.96-574.8
							c68.75,27.73,132.68,64.89,190.17,110.05C1496.93,205.13,1518.01,223.53,1538.07,243.05z"/>
					</g>
					<g class="st19">
						<path class="st5" d="M1538.07,243.05c-228.73,44.89-856.83,221.43-1275.62,850.34c-35.29-89.19-54.65-186.36-54.65-288.09
							c0-2.79,0-5.63,0.05-8.42c29.6-41.67,67.47-91.01,113.91-144.21c0.15,1.14,0.31,2.28,0.47,3.41
							c12.17,85.75,116.31,121.8,179.31,62.37c401.83-379.05,807.06-496.47,973.34-530.53
							C1496.93,205.13,1518.01,223.53,1538.07,243.05z"/>
					</g>
					<g>
						<path class="st5" d="M258.06,1134.93l-13.61-34.41c-37.16-93.93-56.01-193.25-56.01-295.22c0-2.91,0-5.88,0.05-8.79l0.12-5.97
							l3.46-4.87C347.81,566.46,696.35,180.57,1280.78,58.91l5.74-1.2l5.44,2.19c96.97,39.08,184.31,96.03,259.6,169.25l26.5,25.77
							l-36.27,7.12c-242.97,47.68-852.44,225.19-1263.23,842.07L258.06,1134.93z M227.17,803.15c0,0.72,0,1.44,0,2.15
							c0,84.52,13.59,167.1,40.44,246.04c179.55-259.06,413.1-467.25,694.73-619.16c218.19-117.7,417.5-174.51,535.07-200.42
							c-63.78-56.39-135.77-101.27-214.5-133.7C719.23,217.41,380.8,588.49,227.17,803.15z"/>
					</g>
				</g>
				<g>
					<path class="st7" d="M166.83,1189.12c50.95,146.35,181.41,238.86,291.41,206.59c110-32.27,157.86-177.08,106.91-323.43
						c-0.3-0.92-0.67-1.89-1.02-2.8c-51.6-144.74-181.17-235.85-290.39-203.8c-84.98,24.92-132.87,117.02-126.79,225.08
						C148.76,1122.59,155.25,1155.84,166.83,1189.12z"/>
				</g>
				<g class="st19">
					<path class="st5" d="M166.83,1189.12c50.95,146.35,181.41,238.86,291.41,206.59c110-32.27,157.86-177.08,106.91-323.43
						c-0.3-0.92-0.67-1.89-1.02-2.8c-6.86,18.57-20.54,38.88-47.77,41.37c-47.71,4.35-160.63-66.25-160.63-66.25
						s-90.67,19.43-208.78,46.16C148.76,1122.59,155.25,1155.84,166.83,1189.12z"/>
				</g>
				<g>
					<path class="st5" d="M413.61,1421.39c-106.58,0-218.3-91.52-265.09-225.9l0,0c-31.3-89.9-28.5-181.8,7.7-252.14
						c25.13-48.83,63.87-82.11,112.05-96.25c119.58-35.08,260.96,63.07,315.17,218.79c31.3,89.9,28.5,181.8-7.69,252.13
						c-25.13,48.83-63.87,82.12-112.05,96.25C447.31,1419.09,430.52,1421.39,413.61,1421.39z M319.29,878.59
						c-13.58,0-27.02,1.84-40.12,5.69c-37.75,11.07-68.36,37.63-88.52,76.8c-30.89,60.05-32.97,142.92-5.55,221.68
						c47.53,136.53,167.65,223.72,267.69,194.36c37.75-11.08,68.36-37.63,88.52-76.8c30.9-60.05,32.97-142.92,5.55-221.68
						C505.55,959.98,409.43,878.59,319.29,878.59z"/>
				</g>
				<g>
					
						<ellipse transform="matrix(0.9085 -0.4178 0.4178 0.9085 -462.2968 237.1682)" class="st7" cx="310.57" cy="1174.53" rx="168.63" ry="223.08"/>
					<path class="st5" d="M348.65,1391.14c-2.67,0-5.36-0.07-8.08-0.21c-54.95-2.93-110.16-35.48-151.47-89.32
						c-74.13-96.58-80.13-232.18-13.37-302.27c27.75-29.14,64.01-43.37,104.84-41.22c54.95,2.93,110.16,35.48,151.47,89.32
						c74.13,96.58,80.13,232.18,13.37,302.27C419.51,1376.92,386.19,1391.14,348.65,1391.14z M272.51,961.96
						c-36.42,0-68.73,13.8-93.86,40.17c-65.43,68.7-59.31,201.94,13.66,297.01l0,0c40.6,52.9,94.71,84.88,148.48,87.74
						c39.49,2.1,74.78-11.71,101.7-39.96c65.43-68.7,59.31-201.94-13.66-297.01c-40.6-52.9-94.71-84.88-148.48-87.74
						C277.72,962.03,275.11,961.96,272.51,961.96z"/>
				</g>
				<g class="st19">
					<path class="st5" d="M492.33,1211.88c-3.59-42.09-18.9-83.29-41.99-118.99c0,96.7-67.5,159.38-157.63,142.19
						c-58.24-11.08-112.53-53.02-148.22-108.28c-0.04,6.1,0.27,12.39,0.8,18.78c9.2,107.18,94.34,208.91,190.19,227.21
						C431.32,1391.09,501.51,1319,492.33,1211.88z"/>
				</g>
				<g>
					<path class="st5" d="M353.56,1408.62c-84.25,0-175.15-77.56-214.76-189.9l0,0c-26.85-76.16-25.39-155.48,3.92-212.15
						c18.95-36.65,47.9-61.42,83.73-71.63c92.8-26.42,205.12,56.55,250.41,185c26.85,76.16,25.39,155.47-3.91,212.15
						c-18.95,36.65-47.91,61.42-83.74,71.63C377.58,1407.03,365.64,1408.62,353.56,1408.62z M175.34,1205.84
						c38.61,109.5,129.8,181.56,203.27,160.62c25.3-7.21,46.03-25.25,59.94-52.17c24.49-47.37,25.15-115.21,1.78-181.48
						c-38.6-109.5-129.79-181.56-203.26-160.62c-25.3,7.21-46.03,25.25-59.94,52.17C152.64,1071.72,151.97,1139.57,175.34,1205.84
						L175.34,1205.84z"/>
				</g>
				<g class="st14">
					
						<ellipse transform="matrix(0.9948 -0.1017 0.1017 0.9948 -82.7859 75.2746)" class="st7" cx="696.76" cy="849.45" rx="106.52" ry="122.36"/>
				</g>
				<g class="st14">
					
						<ellipse transform="matrix(1 -8.832302e-03 8.832302e-03 1 -9.426 6.4121)" class="st7" cx="721.26" cy="1070.4" rx="43.97" ry="50.54"/>
				</g>
			</g>
		</g>
	</g>
</g>
</svg>
