<?xml version="1.0" encoding="utf-8"?>
<!-- Generator: Adobe Illustrator 26.2.1, SVG Export Plug-In . SVG Version: 6.00 Build 0)  -->
<svg version="1.1" id="Layer_1" xmlns="http://www.w3.org/2000/svg" xmlns:xlink="http://www.w3.org/1999/xlink" x="0px" y="0px"
	 viewBox="0 0 2625.85 2831.8" style="enable-background:new 0 0 2625.85 2831.8;" xml:space="preserve">
<style type="text/css">
	.st0{fill:#371A45;}
	.st1{fill:#FF1564;}
	.st2{fill:#DB3B69;}
	.st3{opacity:0.35;}
	.st4{fill:#FFFFFF;}
	.st5{fill:none;stroke:#293856;stroke-width:33.4418;stroke-linecap:round;stroke-miterlimit:10;}
	.st6{fill:#32B1D1;}
	.st7{fill:#AFAFB2;}
	.st8{opacity:0.5;}
	.st9{fill:#22A7F0;}
	.st10{opacity:0.6;}
	.st11{fill:#FF80E4;}
	.st12{opacity:0.7;}
	.st13{fill:#EA3F70;}
	.st14{fill:#00C3FF;}
	.st15{fill:#FF791F;}
	.st16{fill:#515151;}
	.st17{fill:#111A28;}
	.st18{fill:#FF900B;}
	.st19{fill:#ED1100;}
	.st20{fill:#8CCC1D;}
	.st21{opacity:0.3;}
	.st22{fill:#A63340;}
	.st23{fill:#FFB600;}
	.st24{fill:#FF0660;}
	.st25{fill:#6B184E;}
	.st26{opacity:0.4;}
	.st27{fill:#982E20;}
	.st28{fill:none;}
	.st29{fill:#220F2D;}
	.st30{fill:#008CFF;}
	.st31{fill:#FFDA22;}
	.st32{fill:#FFBB01;}
	.st33{fill:#56D128;}
	.st34{fill:#FA2005;}
	.st35{opacity:0.2;}
	.st36{fill:#FF8A33;}
	.st37{fill:#FFA23A;}
	.st38{fill:#FEF26B;}
	.st39{fill:#55DFFF;}
	.st40{fill:#FFAA00;}
	.st41{fill:#FCA054;}
	.st42{fill:#FF903E;}
	.st43{opacity:0.25;}
	.st44{fill:#EA2D2D;}
	.st45{fill:#CC2525;}
	.st46{fill:#CC6532;}
	.st47{fill:#181558;}
	.st48{fill:#AD2358;}
	.st49{opacity:0.4;fill:url(#SVGID_1_);}
	.st50{opacity:0.4;fill:url(#SVGID_00000100371565184407675270000004511083412124744332_);}
</style>
<g>
	<g>
		<g>
			<polygon class="st4" points="1989.19,1324.32 1930.24,2362.57 1389.75,2081.77 1395.23,1950.26 1422.68,1292.15 			"/>
		</g>
		<g>
			<g>
				<g>
					<path class="st41" d="M1526.6,462.81c-23.66,762.74-294.86,1494.48-774,2088.41c-156.53,194.03-449.12,203.5-619.27,21.29
						c-1.89-2.02-3.78-4.05-5.67-6.07c-139.97-149.89-147.48-379.62-18.81-539.31c364.3-452.11,569.59-1006.04,587.93-1586.36
						c6.48-204.98,161.89-374.33,365.74-396.79c2.75-0.3,5.5-0.61,8.25-0.91C1318.58,15.77,1534.33,213.64,1526.6,462.81z"/>
				</g>
			</g>
			<g>
				<g>
					<path class="st42" d="M1287.95,78.13l0.11,0.04c143.63,66.37,243.85,213.38,238.52,384.63
						c-23.64,762.78-294.83,1494.49-774.01,2088.43c-107.57,133.36-279.43,179.53-431.6,136.22c0,0-0.04-0.01-0.08-0.03
						c-69.23-19.71-134.39-57.95-187.57-114.91c-1.88-2.03-3.75-4.06-5.68-6.07c-139.98-149.9-147.48-379.61-18.77-539.33
						c364.3-452.1,569.59-1006.03,587.93-1586.35c6.46-204.98,161.86-374.32,365.72-396.79c2.78-0.3,5.51-0.58,8.26-0.9
						C1148.24,34.53,1222.58,48,1287.95,78.13z"/>
				</g>
			</g>
			<g class="st26">
				<g>
					<path class="st4" d="M1287.56,76.43c-54.02-17.74-112.78-24.57-173.45-17.86c-2.74,0.32-5.48,0.6-8.26,0.9
						C901.99,81.95,746.59,251.29,740.13,456.27C721.79,1036.59,516.5,1590.51,152.2,2042.62
						C23.49,2202.33,31,2432.05,170.97,2581.95c1.93,2.01,3.8,4.04,5.68,6.07c41.62,44.58,90.6,77.68,143.1,99.42
						c-63.19-20.79-122.4-57.42-171.42-109.92c-1.88-2.03-3.75-4.06-5.68-6.07c-139.98-149.9-147.48-379.61-18.77-539.33
						c364.3-452.1,569.59-1006.03,587.93-1586.35c6.46-204.98,161.86-374.32,365.72-396.79c2.78-0.3,5.51-0.58,8.26-0.9
						C1157.23,40.19,1226.03,51.05,1287.56,76.43z"/>
				</g>
			</g>
			<g class="st43">
				<g>
					<path class="st0" d="M1337.4,96.46l0.11,0.04c143.63,66.37,243.85,213.38,238.52,384.63
						c-23.64,762.78-294.83,1494.49-774.01,2088.43c-107.57,133.36-279.43,179.53-431.6,136.22c0,0-0.04-0.01-0.08-0.03
						c-46.98-21.63-90.73-52.58-128.46-93c-1.87-2.03-3.75-4.06-5.68-6.07c-139.94-149.89-147.48-379.61-18.77-539.33
						c364.3-452.1,569.59-1006.03,587.93-1586.35c6.46-204.98,161.9-374.31,365.72-396.79c2.78-0.3,5.51-0.58,8.26-0.9
						C1234.26,77.27,1287.67,82.25,1337.4,96.46z"/>
				</g>
			</g>
			<g>
				<g>
					<path class="st0" d="M434.15,2720.47c-118.66,0-232.15-49.11-313.45-136.16l-5.66-6.06
						C44.55,2502.75,3.79,2404.31,0.25,2301.05c-3.53-103.1,30.27-204.23,95.15-284.76c363.81-451.51,565.8-996.5,584.12-1576.06
						c3.27-103.37,43.54-202.09,113.41-277.99c69.98-76.02,165.05-124.11,267.7-135.42l8.26-0.91
						c123.54-13.63,246.78,26.97,338.09,111.36c90.81,83.93,140.7,202.78,136.88,326.08c-11.83,381.46-84.93,755.92-217.26,1112.98
						c-132.33,357.06-320.93,688.71-560.56,985.74c-77.46,96.02-192.75,153.64-316.33,158.12
						C444.52,2720.37,439.33,2720.47,434.15,2720.47z M1115.93,57.87c-14.38,0-28.81,0.79-43.26,2.38l-8.26,0.91
						C870.86,82.49,720.23,245.92,714.06,441.32c-9.19,290.67-64.8,575.55-165.3,846.71c-100.5,271.16-243.98,523.48-426.45,749.93
						C-0.35,2190.2,7.38,2412.32,140.29,2554.65l5.67,6.07c78,83.53,188.23,129.03,302.51,124.93
						c113.57-4.11,219.52-57.07,290.69-145.28c480.14-595.18,746.47-1313.77,770.18-2078.1l17.27,0.53l-17.27-0.53
						c3.52-113.29-42.33-222.51-125.79-299.64C1310.26,94.92,1214.61,57.87,1115.93,57.87z"/>
				</g>
			</g>
			<g>
				<g>
					<path class="st44" d="M1432.69,153.41c30.93,46.82,49.19,102.95,49.63,163.71c6.26,852.11-298.17,1673.54-858.26,2315.75
						c-39.92,45.76-90.29,76.4-144.24,91.81c-105.1,30-223.64,2.17-304.4-84.39c-1.38-1.5-2.78-2.97-4.16-4.47
						c-105.88-113.49-108.2-288.39-6.19-405.38c461.86-529.77,711.9-1204.42,706.86-1907.24C870.79,168,986.55,36.82,1140.81,19.78
						c2.03-0.24,4.05-0.48,6.07-0.68C1264.51,6.06,1372.53,62.16,1432.69,153.41z"/>
				</g>
			</g>
			<g>
				<g>
					<path class="st45" d="M1432.69,153.41c30.93,46.82,49.19,102.95,49.63,163.71c6.26,852.11-298.17,1673.54-858.26,2315.75
						c-39.92,45.76-90.29,76.4-144.24,91.81c-60.07-10.38-117.5-39.72-162.66-88.11c-1.36-1.45-2.69-2.85-4.01-4.29
						c-101.87-109.21-104.13-277.54-5.99-390.1c444.48-509.82,685.07-1158.98,680.21-1835.33
						c-1.08-149.33,110.34-275.53,258.78-291.97c1.94-0.23,3.86-0.42,5.84-0.64C1317.73,106.97,1380.41,122.15,1432.69,153.41z"/>
				</g>
			</g>
			<g class="st12">
				<g>
					<path class="st4" d="M1303.95,43.72c-37.29-11.06-77.43-15-118.76-10.42c-2.01,0.2-4.04,0.44-6.07,0.68
						C1024.88,51.02,909.11,182.2,910.21,337.4c5.08,702.83-244.96,1377.48-706.86,1907.24c-101.98,116.99-99.66,291.9,6.22,405.39
						c1.38,1.5,2.78,2.97,4.16,4.47c28.37,30.37,61.38,53.54,96.88,69.45c-49.95-14.68-96.82-42.52-135.2-83.66
						c-1.38-1.5-2.78-2.97-4.16-4.47c-105.88-113.49-108.2-288.39-6.19-405.38c461.86-529.77,711.9-1204.42,706.86-1907.24
						C870.79,168,986.55,36.82,1140.81,19.78c2.03-0.24,4.05-0.48,6.07-0.68C1202.79,12.91,1256.51,22.3,1303.95,43.72z"/>
				</g>
			</g>
			<g>
				<g>
					<path class="st0" d="M396.46,2753.63c-88.38,0-173.28-36.83-233.66-101.55l-4.16-4.45c-112.06-120.1-114.89-304.33-6.61-428.53
						c458.11-525.43,707.63-1198.71,702.61-1895.79C853.45,158.54,975.67,20.67,1138.92,2.6l6.08-0.67
						c89.75-9.93,179.92,18.78,247.41,78.77c67.45,59.95,106.52,146.08,107.18,236.29c6.27,855.75-300.04,1682.24-862.51,2327.22
						c-59.29,67.99-145.05,107.86-235.28,109.37C400.02,2753.61,398.24,2753.63,396.46,2753.63z M1180.01,34.55
						c-10.38,0-20.8,0.57-31.22,1.72l-6.06,0.67c-145.6,16.11-254.6,139.11-253.54,286.12
						c5.08,705.52-247.47,1386.94-711.12,1918.74c-96.61,110.81-94.1,275.14,5.83,382.24l4.17,4.47
						c54.94,58.89,132.82,91.92,213.16,90.53c80.47-1.35,156.95-36.9,209.82-97.53c556.92-638.61,860.21-1456.95,854-2304.26
						c-0.59-80.45-35.43-157.25-95.58-210.72C1317.1,59.98,1249.42,34.55,1180.01,34.55z"/>
				</g>
			</g>
			<g>
				<g>
					<g>
						<path class="st32" d="M854.35,1482.19c-0.72,1.94-1.49,3.89-2.31,5.84c-24.86,59.03-77.73,76.62-120.2,90.76
							c-38.48,12.81-62.73,21.9-75.72,46.48c-13.01,24.65-6.91,49.86,4.14,88.95c12.19,43.14,27.36,96.84-7.48,150.72
							c-34.84,53.87-90.09,62.24-134.48,68.96c-40.39,6.11-66.02,10.98-83.29,33.14c-17.39,22.3-15.97,48.46-12.2,89.31
							c4.13,44.87,9.27,100.71-34.73,147.82c-43.87,46.96-99.88,45.8-144.89,44.86c-41.57-0.86-68.14-0.4-89.62,19.18
							c-14.5,13.22-36.97,12.18-50.18-2.32c-13.22-14.5-12.18-36.97,2.32-50.19c43.54-39.69,96.45-38.6,138.96-37.71
							c42.96,0.89,70.36,0.29,91.49-22.33c21.18-22.67,19.84-50.04,15.9-92.81c-3.85-41.83-8.64-93.89,26.93-139.51
							c35.55-45.6,87.19-53.42,128.69-59.7c42.15-6.38,68.83-11.6,85.45-37.29c16.56-25.61,10.32-51.95-1.23-92.82
							c-11.39-40.29-25.56-90.43,1.41-141.47c26.97-51.04,76.39-67.48,116.1-80.7c40.17-13.37,65.39-22.98,77.16-50.92
							c11.79-27.96,1.02-52.66-17.49-90.7c-18.3-37.62-41.07-84.43-23.4-139.37c17.67-54.93,63.46-79.72,100.26-99.64
							c37.25-20.16,60.42-34.02,67.14-63.63c6.75-29.66-8.15-52.25-33-86.66c-24.53-33.96-55.06-76.22-47.24-133.45
							c7.83-57.24,48.52-89.9,81.21-116.15c33.27-26.7,53.74-44.64,55.2-75.31c1.46-30.84-17.24-50.83-47.88-80.89
							c-30.03-29.47-67.41-66.14-69.8-124c-2.39-57.8,31.72-97.43,59.12-129.28c28.32-32.91,45.46-54.68,41.02-86.17
							c-2.74-19.42,10.79-37.4,30.22-40.13c19.43-2.74,37.4,10.79,40.14,30.22c9.15,64.95-27.81,107.91-57.51,142.43
							c-26.8,31.14-43.16,51.67-41.99,80c1.17,28.34,19.22,47.42,48.57,76.22c32.14,31.53,72.13,70.77,69.09,134.97
							c-3.05,64.22-46.65,99.23-81.69,127.35c-31.81,25.53-51.5,42.59-55.29,70.37c-3.78,27.65,10.62,49.25,34.44,82.22
							c26.24,36.32,58.9,81.53,44.69,144.02c-14.23,62.51-63.22,89.03-102.6,110.35c-35.65,19.3-57.9,32.46-66.44,58.92
							c-8.5,26.42,1.93,50.1,19.66,86.53C851.89,1377.58,875.29,1425.69,854.35,1482.19z"/>
					</g>
				</g>
			</g>
			<g class="st12">
				<g>
					<g>
						<path class="st4" d="M1009.92,203.23c-1.71-0.06-3.49,0.07-5.25,0.31c-19.4,2.71-32.94,20.71-30.18,40.13
							c4.43,31.46-12.71,53.26-41.05,86.15c-27.37,31.84-61.51,71.49-59.09,129.31c2.36,57.85,39.77,94.51,69.78,123.98
							c30.63,30.06,49.33,50.04,47.9,80.91c-1.45,30.65-21.94,48.58-55.21,75.3c-32.69,26.25-73.41,58.91-81.2,116.14
							c-7.84,57.21,22.71,99.51,47.24,133.45c24.83,34.41,39.72,57.02,32.98,86.65c-6.74,29.63-29.9,43.48-67.14,63.64
							c-36.78,19.91-82.61,44.7-100.24,99.64c-17.68,54.93,5.11,101.74,23.4,139.39c18.5,38.04,29.27,62.74,17.5,90.66
							c-11.78,27.97-37,37.6-77.17,50.96c-39.7,13.22-89.14,29.65-116.11,80.66c-26.95,51.07-12.81,101.18-1.38,141.47
							c11.54,40.86,17.75,67.22,1.18,92.84c-16.59,25.67-43.26,30.88-85.41,37.27c-41.49,6.32-93.13,14.12-128.68,59.7
							c-35.57,45.62-30.81,97.7-26.96,139.49c3.94,42.82,5.29,70.15-15.91,92.85c-21.12,22.62-48.49,23.22-91.46,22.34
							c-42.53-0.93-95.44-1.99-138.98,37.7c-14.5,13.23-15.52,35.65-2.35,50.18c1.01,1.11,2.07,2.18,3.24,3.14
							c-9.51-0.07-19.03-3.96-26-11.58c-13.17-14.53-12.15-36.95,2.35-50.18c43.54-39.68,96.45-38.63,138.93-37.72
							c42.97,0.88,70.38,0.3,91.51-22.33c21.2-22.7,19.85-50.03,15.91-92.85c-3.85-41.79-8.66-93.88,26.96-139.49
							c35.51-45.6,87.14-53.4,128.68-59.7c42.15-6.39,68.82-11.6,85.41-37.27c16.57-25.62,10.36-51.98-1.18-92.84
							c-11.43-40.3-25.57-90.4,1.38-141.47c26.98-51.01,76.36-67.46,116.11-80.66c40.17-13.36,65.39-22.99,77.17-50.96
							c11.77-27.93,1-52.62-17.5-90.66c-18.33-37.66-41.08-84.46-23.4-139.39c17.64-54.94,63.46-79.73,100.24-99.64
							c37.24-20.16,60.4-34.01,67.14-63.64c6.74-29.63-8.16-52.24-32.98-86.65c-24.58-33.95-55.08-76.23-47.24-133.45
							c7.79-57.23,48.51-89.89,81.2-116.14c33.28-26.71,53.71-44.66,55.17-75.31c1.47-30.85-17.22-50.83-47.85-80.89
							c-30.01-29.47-67.42-66.13-69.83-124c-2.37-57.8,31.77-97.45,59.14-129.29c28.34-32.9,45.48-54.69,41.05-86.15
							c-2.76-19.42,10.77-37.41,30.18-40.13C992.4,193.64,1002.43,196.84,1009.92,203.23z"/>
					</g>
				</g>
			</g>
			<g>
				<g>
					<g>
						<path class="st0" d="M986.93,194.73c17.42,0,32.63,12.82,35.13,30.57c9.16,64.95-27.81,107.91-57.51,142.43
							c-26.8,31.14-43.16,51.67-41.99,80c1.17,28.34,19.22,47.42,48.56,76.22c32.14,31.53,72.13,70.77,69.09,134.97
							c-3.05,64.22-46.65,99.23-81.69,127.35c-31.81,25.53-51.5,42.59-55.29,70.37c-3.78,27.65,10.62,49.26,34.44,82.22
							c26.24,36.33,58.9,81.53,44.69,144.02c-14.23,62.51-63.23,89.03-102.6,110.35c-35.65,19.3-57.9,32.46-66.45,58.92
							c-8.5,26.42,1.93,50.1,19.66,86.53c18.93,38.91,42.33,87.02,21.39,143.52c-0.72,1.94-1.49,3.88-2.31,5.84
							c-24.87,59.03-77.72,76.62-120.2,90.76c-38.48,12.81-62.73,21.9-75.72,46.48c-13.02,24.66-6.91,49.86,4.14,88.95
							c12.19,43.14,27.37,96.84-7.48,150.73c-34.84,53.87-90.09,62.23-134.48,68.96c-40.39,6.11-66.02,10.98-83.29,33.14
							c-17.39,22.3-15.97,48.46-12.2,89.31c4.13,44.87,9.27,100.72-34.73,147.82c-37.56,40.21-84.02,45.14-124.85,45.14
							c-6.86,0-13.56-0.14-20.03-0.27c-6.57-0.14-12.76-0.24-18.62-0.24c-31.22,0-52.92,2.93-71,19.42
							c-6.81,6.21-15.38,9.27-23.92,9.27c-9.64,0-19.25-3.9-26.26-11.59c-13.22-14.5-12.18-36.97,2.32-50.19
							c36.92-33.65,80.57-37.99,118.91-37.99c6.88,0,13.59,0.14,20.06,0.27c6.35,0.13,12.38,0.23,18.08,0.23
							c32.86,0,55.41-3.29,73.41-22.56c21.18-22.68,19.84-50.04,15.9-92.81c-3.85-41.83-8.64-93.89,26.93-139.51
							c35.55-45.6,87.19-53.42,128.69-59.7c42.16-6.38,68.83-11.59,85.45-37.29c16.56-25.61,10.32-51.95-1.23-92.81
							c-11.39-40.29-25.56-90.42,1.41-141.47c26.97-51.04,76.39-67.49,116.1-80.7c40.17-13.37,65.39-22.98,77.16-50.93
							c11.79-27.96,1.02-52.66-17.49-90.71c-18.3-37.62-41.07-84.43-23.4-139.37c17.67-54.93,63.46-79.72,100.26-99.64
							c37.25-20.16,60.42-34.02,67.14-63.63c6.75-29.66-8.14-52.25-33-86.66c-24.53-33.96-55.07-76.22-47.24-133.45
							c7.83-57.24,48.52-89.9,81.21-116.15c33.28-26.7,53.74-44.64,55.2-75.31c1.46-30.84-17.24-50.83-47.88-80.89
							c-30.03-29.47-67.4-66.14-69.79-124c-2.39-57.8,31.72-97.43,59.12-129.28c28.32-32.91,45.46-54.68,41.02-86.17
							c-2.74-19.42,10.8-37.4,30.22-40.13C983.61,194.85,985.28,194.73,986.93,194.73L986.93,194.73z M986.93,164.73
							c-3.06,0-6.15,0.22-9.19,0.64c-17.33,2.44-32.67,11.49-43.2,25.47c-10.53,13.98-14.98,31.23-12.54,48.56
							c2.39,16.92-5.97,29.79-34.05,62.41c-29.22,33.96-69.23,80.46-66.35,150.09c2.88,69.72,46.73,112.75,78.75,144.17
							c30.37,29.8,39.7,41.69,38.93,58.06c-0.77,16.15-11.13,26.95-44.01,53.33c-34.91,28.02-82.71,66.4-92.16,135.48
							c-9.45,69.13,26.44,118.81,52.65,155.08c24.51,33.93,31.58,46.97,28.06,62.44c-3.49,15.39-15.48,24.03-52.17,43.9
							c-39.33,21.29-93.18,50.44-114.54,116.84c-21.36,66.4,5.42,121.46,24.98,161.67c18.23,37.48,22.93,51.46,16.83,65.94
							c-6.12,14.52-19.42,20.95-58.99,34.12c-42.43,14.12-100.55,33.46-133.15,95.15c-32.58,61.67-15.92,120.61-3.76,163.65
							c11.39,40.3,13.56,54.99,4.91,68.36c-8.73,13.5-23.09,17.62-64.75,23.92c-44.3,6.71-104.96,15.89-147.86,70.92
							c-42.87,54.98-37.25,116.09-33.14,160.7c3.9,42.39,3.32,57.52-7.95,69.58c-9.33,9.99-21.36,13.04-51.49,13.04
							c-5.83,0-12.1-0.11-17.46-0.22c-6.62-0.14-13.47-0.28-20.68-0.28c-43.94,0-94.83,5.44-139.12,45.82
							c-26.7,24.34-28.62,65.86-4.28,92.57c12.39,13.59,30.04,21.38,48.43,21.38c16.36,0,32.04-6.07,44.13-17.1
							c9.63-8.78,21.97-11.59,50.79-11.59c5.97,0,12.45,0.12,18,0.23c6.62,0.14,13.47,0.28,20.66,0.28
							c47.33,0,101.78-6.49,146.77-54.66c53.19-56.94,47.12-122.9,42.68-171.05c-3.46-37.58-3.94-55.37,5.99-68.11
							c9.78-12.54,27.05-16.31,64.13-21.92c47.7-7.22,113-17.11,155.18-82.33c42.22-65.29,24.27-128.8,11.16-175.18
							c-10.92-38.63-13.39-53.7-6.48-66.78c6.85-12.97,20.66-19.37,58.66-32.02c45.68-15.2,108.23-36.02,138.37-107.58
							c0.96-2.28,1.9-4.66,2.8-7.06c25.4-68.54-2.31-125.49-22.54-167.08c-17.5-35.96-22.56-50.28-18.08-64.22
							c4.51-13.97,16.98-22.67,52.17-41.72c42.34-22.92,100.32-54.3,117.57-130.07c17.22-75.72-21.41-129.2-49.62-168.25
							c-23.54-32.59-31.04-45.91-29.03-60.58c2.14-15.7,15.16-27.6,44.35-51.04c37.64-30.21,89.19-71.59,92.88-149.32
							c3.68-77.62-43.55-123.97-78.04-157.81c-27.02-26.51-38.93-39.83-39.6-56.04c-0.67-16.25,10.07-30.52,34.75-59.2
							c31.88-37.04,75.53-87.78,64.48-166.18C1047.23,188.97,1019.36,164.73,986.93,164.73L986.93,164.73z"/>
					</g>
				</g>
			</g>
			<g>
				<g>
					<path class="st42" d="M1827,574.15c-23.66,762.74-294.86,1494.48-774,2088.41c-156.53,194.03-449.12,203.5-619.27,21.29
						c-1.89-2.02-3.78-4.05-5.67-6.07c-139.97-149.89-147.48-379.62-18.81-539.31c364.3-452.11,569.59-1006.04,587.93-1586.36
						c6.48-204.98,161.89-374.33,365.74-396.79c2.75-0.3,5.5-0.61,8.25-0.91C1618.98,127.1,1834.73,324.97,1827,574.15z"/>
				</g>
			</g>
			<g class="st12">
				<circle class="st46" cx="1220.54" cy="1211.48" r="45.33"/>
			</g>
			<g class="st12">
				<circle class="st46" cx="552.49" cy="2376.04" r="45.33"/>
			</g>
			<g class="st12">
				<circle class="st46" cx="830.11" cy="2050.82" r="45.33"/>
			</g>
			<g class="st12">
				<circle class="st46" cx="973.05" cy="1984.85" r="26.31"/>
			</g>
			<g class="st12">
				<circle class="st46" cx="1118.21" cy="1319.83" r="23.95"/>
			</g>
			<g class="st12">
				<circle class="st46" cx="1372.85" cy="459.4" r="45.33"/>
			</g>
			<g class="st12">
				<circle class="st46" cx="1251.28" cy="588.92" r="23.95"/>
			</g>
			<g>
				<circle class="st46" cx="1009.92" cy="2435.02" r="45.33"/>
			</g>
			<g>
				<g class="st21">
					<path class="st0" d="M553.29,2748.73c161.81,66.31,356.83,24.94,474.74-121.2c267.81-331.98,470.7-707.07,601.64-1106.5
						c91.82-280.03,148.31-571.98,167.05-869.54c2.38-37.36,4.15-74.8,5.31-112.33c2.68-85.99-21.33-165.81-64.01-232.43
						c-65.79-82.29-162.51-138.6-271.39-151.87c113.24,75.28,187.69,205.4,183.07,353.58c-2.42,78.17-7.43,155.99-15.03,233.38
						c-141.7,78-237.75,228.72-237.75,401.9c0,85.48,23.39,165.48,64.14,233.98c21.43,36.01,27.28,79.3,14.14,119.1
						c-22.98,69.62-48.17,138.51-75.47,206.55l-345.85-78.73c0,0-1.51,135.56,98.81,230.71c75.32,71.39,92.21,185.06,40.86,275.23
						c-19.61,34.38-39.82,68.45-60.59,102.22l-211.19,24.92c0,0,3.93,48.41,27.81,98.73c25.96,54.72,20.17,119.33-16.58,167.48
						c-18.74,24.53-37.83,48.85-57.27,72.94c-82.41,102.09-202.46,153.06-322.51,151.88
						C553.25,2748.73,553.27,2748.73,553.29,2748.73z"/>
				</g>
			</g>
			<g class="st26">
				<path class="st4" d="M1371.2,154.44c-2.74,0.32-5.48,0.6-8.26,0.9c-203.86,22.47-359.26,191.8-365.72,396.79
					c-6.76,213.35-38.77,423.12-94.68,625.59c-40.21,145.79-92.82,287.76-157.34,424.53c-89.5,190.01-201.95,370.01-335.91,536.23
					c-128.71,159.72-121.2,389.43,18.77,539.33c1.93,2.01,3.8,4.04,5.68,6.07c51.9,55.54,115.14,93.28,182.45,113.4
					c-48.72-21.72-94.1-53.35-133.07-95.1c-1.91-2.04-3.79-4.07-5.68-6.07c-139.98-149.9-147.48-379.61-18.81-539.35
					c133.01-165.06,244.83-343.7,334.04-532.22c61.36,2.93,136.67-71.84,176.94-180.52c40.29-108.72,31.91-214.5-16.55-252.27
					c55.17-201.14,86.81-409.46,93.49-621.33c6.5-204.97,161.9-374.31,365.76-396.77c2.75-0.32,5.48-0.6,8.22-0.92
					c56.76-6.27,111.85-0.71,162.96,14.57C1519.33,158.69,1446.77,146.1,1371.2,154.44z"/>
			</g>
			<g>
				<g>
					<path class="st0" d="M734.55,2831.8c-118.66,0-232.15-49.11-313.44-136.16l-5.68-6.09c-70.47-75.46-111.24-173.9-114.77-277.16
						c-3.53-103.1,30.27-204.23,95.15-284.76c363.82-451.51,565.8-996.51,584.12-1576.06c3.27-103.37,43.54-202.09,113.41-277.99
						c69.98-76.02,165.05-124.11,267.7-135.42l8.26-0.91c123.56-13.62,246.78,26.97,338.09,111.36
						c90.81,83.93,140.7,202.78,136.88,326.08l-17.27-0.53l17.27,0.53c-11.83,381.46-84.93,755.92-217.26,1112.98
						c-132.33,357.06-320.93,688.71-560.56,985.74c-77.46,96.02-192.76,153.64-316.33,158.12
						C744.92,2831.71,739.73,2831.8,734.55,2831.8z M1416.34,169.2c-14.38,0-28.81,0.79-43.26,2.38l-8.26,0.91
						c-193.56,21.33-344.19,184.77-350.37,380.17c-9.19,290.67-64.8,575.55-165.3,846.71c-100.5,271.17-243.98,523.48-426.45,749.94
						c-122.66,152.23-114.93,374.35,17.98,516.67l5.66,6.06c78.01,83.54,188.23,129.04,302.51,124.94
						c113.57-4.11,219.52-57.06,290.69-145.28c480.14-595.17,746.47-1313.76,770.18-2078.1l0,0
						c3.51-113.29-42.34-222.51-125.79-299.64C1610.67,206.25,1515.02,169.2,1416.34,169.2z"/>
				</g>
			</g>
			<g class="st12">
				<circle class="st46" cx="1237.25" cy="379.76" r="23.95"/>
			</g>
		</g>
		<g>
			<path class="st4" d="M1985.01,2365.04c0,0,265.7,58.28,322.98-25.96c84.19-123.82,102.3-568.61,38.82-683.67
				c-54.58-98.93-349.5-63.76-349.5-63.76L1985.01,2365.04z"/>
		</g>
		<g>
			<path class="st4" d="M1985.01,2365.04c0,0,265.7,58.28,322.98-25.96c84.19-123.82,102.3-568.61,38.82-683.67
				c-54.58-98.93-349.5-63.76-349.5-63.76L1985.01,2365.04z"/>
		</g>
		<g class="st3">
			<path class="st0" d="M2307.99,2339.08c-57.28,84.23-322.99,25.96-322.99,25.96l10.35-182.2c0,0,265.71,58.27,322.99-25.96
				c31.95-47.02,54.45-140.41,66.52-244.44C2384.97,2076.75,2358.24,2265.16,2307.99,2339.08z"/>
		</g>
		<g>
			<path class="st0" d="M2111.67,1585.58c89.24,0,203.24,12.01,235.14,69.83c63.48,115.06,45.37,559.85-38.82,683.67
				c-24.03,35.34-84.73,45.59-147.12,45.59c-86.32,0-175.86-19.64-175.86-19.64l12.3-773.39
				C1997.31,1591.65,2048.23,1585.58,2111.67,1585.58L2111.67,1585.58z M2111.67,1551.03c-64.75,0-116.28,6.05-118.44,6.31
				l-29.98,3.57l-0.48,30.18l-12.3,773.39l-0.45,28.24l27.59,6.05c3.81,0.83,94.22,20.44,183.26,20.44
				c90.44,0,147.91-19.86,175.69-60.72c62.56-92.01,77.6-300.96,80.72-362.81c6.35-125.83-0.88-285.69-40.22-356.98
				C2344.96,1580.53,2255.67,1551.03,2111.67,1551.03L2111.67,1551.03z"/>
		</g>
		<g>
			<path class="st4" d="M2187.2,2009.98l119.37,4.18c23.04,0.81,41.3,19.83,41,42.89c-0.78,60.19-9.33,166.04-59.13,179.35
				c-70.1,18.73-134.41-4.82-148.13-25.44c-20.28-30.48-6.33-117.8,3.79-167.15C2148.26,2023.53,2166.51,2009.26,2187.2,2009.98z"/>
		</g>
		<g class="st3">
			<path class="st0" d="M2288.43,2236.4c-70.1,18.72-134.38-4.8-148.12-25.46c-12.98-19.5-11.94-62.26-6.87-103.48
				c1.51,5.23,3.48,9.79,5.95,13.5c13.75,20.61,78.02,44.14,148.12,25.42c33.5-8.94,48.34-59.81,54.69-110.46
				c3.49,6.27,5.49,13.47,5.38,21.16C2346.81,2117.26,2338.25,2223.11,2288.43,2236.4z"/>
		</g>
		<g>
			<path class="st0" d="M2236.61,2260.47c-53.21,0-97.07-19.48-110.68-39.94c-18.11-27.22-17.69-87.84,1.25-180.19
				c5.87-28.62,31.25-48.6,60.62-47.62l119.37,4.18c32.21,1.13,58.09,28.21,57.67,60.37c-1.04,80.84-14.37,180.43-71.94,195.82
				C2273.62,2258.25,2254.57,2260.47,2236.61,2260.47z M2185.68,2027.23c-11.96,0-22.25,8.31-24.65,20.05
				c-18.91,92.22-15.67,140.07-6.33,154.11c8.67,13.03,64.72,35.58,129.29,18.32c27.37-7.31,45.11-69.72,46.32-162.88
				c0.17-13.53-10.74-24.92-24.34-25.4l-119.38-4.18C2186.29,2027.24,2185.98,2027.23,2185.68,2027.23z"/>
		</g>
		<g class="st3">
			<path class="st0" d="M1646.6,2223.96c0,0,183.85-239.65,77.1-482.25c-106.75-242.6-228.29,173.2-228.29,173.2L1646.6,2223.96z"/>
		</g>
		<g>
			<g>
				
					<rect x="1481.02" y="1772.16" transform="matrix(0.9908 0.1356 -0.1356 0.9908 277.5892 -195.5846)" class="st4" width="188.02" height="336.93"/>
			</g>
			<g class="st3">
				
					<rect x="1481.02" y="1772.16" transform="matrix(0.9908 0.1356 -0.1356 0.9908 277.5892 -195.5846)" class="st0" width="188.02" height="336.93"/>
			</g>
			<g>
				<path class="st0" d="M1660.1,2139.73l-220.52-30.17l50.36-368.06l220.52,30.17L1660.1,2139.73z M1478.51,2080.02l152.05,20.8
					l40.99-299.59l-152.05-20.8L1478.51,2080.02z"/>
			</g>
		</g>
		<g>
			<path class="st4" d="M2148.8,2059.03c-0.14,2.45-0.32,4.89-0.56,7.34c-0.18,2.4-0.37,4.8-0.59,7.15
				c-0.28,3.32-0.56,6.64-0.89,9.91c-0.35,3.73-0.75,7.46-1.14,11.1c-0.62,5.99-1.33,11.93-2.07,17.72
				c-0.41,3.13-0.82,6.21-1.22,9.29c-0.72,5.24-1.47,10.43-2.27,15.53c-0.43,2.76-0.91,5.46-1.34,8.17
				c-0.5,3.12-1.05,6.24-1.64,9.31c-0.97,5.69-2.08,11.33-3.18,16.82c-0.38,1.83-0.76,3.66-1.15,5.49
				c-1.96,9.29-4.05,18.3-6.26,27.03c-0.78,3.06-1.55,6.07-2.37,9.09c-0.82,2.97-1.59,5.93-2.45,8.8
				c-1.91,6.75-3.9,13.26-5.93,19.63c-0.79,2.5-1.63,4.96-2.46,7.37c-0.28,0.86-0.56,1.68-0.84,2.55
				c-1.27,3.68-2.54,7.27-3.86,10.81c-3.57,9.76-7.34,19.14-11.28,28.04c-0.8,1.85-1.6,3.71-2.45,5.56
				c-0.69,1.49-1.33,2.94-2.01,4.33c-1.06,2.3-2.16,4.56-3.26,6.81c-0.95,1.99-1.89,3.92-2.88,5.86
				c-3.65,7.21-7.38,14.13-11.23,20.68c-0.98,1.71-1.95,3.36-2.97,5.02c-0.72,1.3-1.49,2.51-2.2,3.67c-1.02,1.7-2.09,3.36-3.11,4.97
				c-1.07,1.7-2.19,3.4-3.25,5c-1.07,1.65-2.18,3.26-3.29,4.86c-7.28,10.71-14.83,20.47-22.47,29.4c-0.99,1.19-1.99,2.34-3.02,3.44
				c-3.27,3.75-6.58,7.32-9.92,10.74c-0.74,0.79-1.48,1.58-2.26,2.33c-15.59,15.8-31.55,28.47-47.18,38.6
				c-2.02,1.32-3.99,2.55-6.01,3.78c-0.58,0.38-1.2,0.77-1.82,1.1c-1.25,0.76-2.49,1.48-3.69,2.2c-3.98,2.32-7.9,4.46-11.77,6.47
				c-217.71,112.37-501.72-104.15-501.72-104.15s-155.6,91.48-245.26,91.58c-158.8,0.2-302.44-104.1-252.75-217.95
				c0.85-1.9,1.74-3.79,2.77-5.59c0.47-0.9,0.98-1.8,1.54-2.65c0.51-0.9,1.07-1.75,1.68-2.59c1.12-1.7,2.32-3.34,3.62-4.94
				c1.3-1.59,2.63-3.14,4.06-4.63c0.69-0.75,1.43-1.49,2.16-2.19c2.95-2.94,6.11-5.63,9.54-8.12c0.73-0.56,1.5-1.12,2.27-1.68
				c0.82-0.56,1.64-1.11,2.46-1.67c1.06-0.68,2.12-1.36,3.22-2.04c58.18-35.62,161.02-29.5,166.73-38.72
				c83.48-133.52,163.69-192.4,242.39-199.42c72.93-6.56,144.58,31.47,216.4,95.92c0.09,0.1,0.18,0.15,0.22,0.24
				c1.37,1.19,2.78,2.47,4.15,3.71c0.09,0.05,0.18,0.15,0.26,0.25c9.12,8.35,18.26,17.07,27.38,26.2c0,0,32.05,31.29,53.49,52.75
				l17.75-37.59l66.36-140.42l145.24-307.38l50.66-107.26l82.15-173.86c25.29,98,44.73,187.46,59.04,269.03
				c25.46,144.85,35.04,264.98,33.23,364.64c-0.12,5.32-0.23,10.55-0.39,15.78c-0.11,4.44-0.27,8.88-0.48,13.27
				C2150.19,2037.01,2149.55,2048.18,2148.8,2059.03z"/>
		</g>
		<g class="st3">
			<path class="st0" d="M2148.8,2059.03c-0.14,2.45-0.32,4.89-0.56,7.34c-0.18,2.4-0.37,4.8-0.59,7.15
				c-0.28,3.32-0.56,6.64-0.89,9.91c-0.35,3.73-0.75,7.46-1.14,11.1c-0.62,6.03-1.33,11.93-2.07,17.72
				c-0.41,3.13-0.82,6.21-1.22,9.29c-0.72,5.24-1.47,10.43-2.27,15.53c-0.43,2.76-0.91,5.46-1.34,8.17
				c-0.5,3.12-1.05,6.24-1.64,9.31c-0.97,5.69-2.08,11.33-3.18,16.82c-0.38,1.83-0.76,3.66-1.15,5.49
				c-1.96,9.29-4.05,18.3-6.26,27.03c-0.78,3.06-1.55,6.07-2.37,9.09c-0.82,2.97-1.59,5.93-2.45,8.8
				c-1.91,6.75-3.9,13.26-5.93,19.63c-0.79,2.5-1.63,4.96-2.46,7.37c-0.28,0.86-0.56,1.68-0.84,2.55
				c-1.27,3.68-2.54,7.27-3.86,10.81c-3.57,9.76-7.34,19.14-11.28,28.04c-0.8,1.85-1.6,3.71-2.45,5.56
				c-0.69,1.49-1.33,2.94-2.01,4.33c-1.06,2.3-2.16,4.56-3.26,6.81c-0.95,1.99-1.89,3.92-2.88,5.86
				c-3.65,7.21-7.38,14.13-11.23,20.68c-0.98,1.71-1.95,3.36-2.97,5.02c-0.72,1.3-1.49,2.51-2.2,3.67c-1.02,1.7-2.09,3.36-3.11,4.97
				c-1.07,1.7-2.19,3.4-3.25,5c-1.07,1.65-2.18,3.26-3.29,4.86c-7.28,10.71-14.83,20.47-22.47,29.4c-0.99,1.19-1.99,2.34-3.02,3.44
				c-3.27,3.75-6.58,7.32-9.92,10.74c-0.74,0.79-1.48,1.58-2.26,2.33c-15.59,15.8-31.55,28.47-47.18,38.6
				c-2.02,1.32-3.99,2.55-6.01,3.78c-0.58,0.38-1.2,0.77-1.82,1.1c-1.25,0.76-2.49,1.48-3.69,2.2c-3.98,2.32-7.9,4.46-11.77,6.47
				c-217.71,112.37-501.72-104.15-501.72-104.15s-155.6,91.48-245.26,91.58c-158.8,0.2-302.44-104.1-252.75-217.95
				c0.85-1.9,1.74-3.79,2.77-5.59c0.47-0.9,0.98-1.8,1.54-2.65c0.51-0.9,1.07-1.75,1.68-2.59c1.12-1.7,2.32-3.34,3.62-4.94
				c1.3-1.59,2.63-3.14,4.06-4.63c0.69-0.75,1.43-1.49,2.16-2.19c2.95-2.94,6.11-5.63,9.54-8.12c0.73-0.56,1.5-1.12,2.27-1.68
				c0.82-0.56,1.64-1.11,2.46-1.67c1.06-0.68,2.12-1.36,3.22-2.04c-55.53,148.04,120.29,176.88,246.43,176.72
				c86.6-0.09,184.71-179.05,307.98-107.56c107,64.83,209.48,204.83,419.65,96.34c44.68-23.09,95.02-69.11,121.74-148.12
				c13.42-39.64-15.23-81.02-57.06-81.96c-81.45-1.8-213.44-8.55-309.96-32.06l66.36-140.42c44.4,5.58,96.27,12.42,152.25,18.84
				c115.41,13.18,193.75,6.97,193.75,6.97s9.26,0.2,21.85,2.72c0.87,0.19,1.74,0.38,2.66,0.57c-0.03,5.42-0.1,10.79-0.17,16.07
				c-0.12,5.32-0.23,10.55-0.39,15.78c-0.11,4.44-0.27,8.88-0.48,13.27C2150.19,2037.01,2149.55,2048.18,2148.8,2059.03z"/>
		</g>
		<g class="st21">
			<polygon class="st47" points="1722.03,989.77 1722.03,989.81 1606.62,982.64 			"/>
		</g>
		<g>
			<path class="st0" d="M2064.87,1361.4c26.47,66.61,44.73,135.72,59.75,205.52l10.31,52.58c3.39,17.53,5.85,35.26,8.82,52.88
				c1.35,8.84,3.02,17.61,4.1,26.5l3.46,26.61l3.42,26.61l2.81,26.7l2.91,26.69l2.21,26.78l2.17,26.78l1.52,26.85
				c0.45,8.96,1.21,17.89,1.41,26.87l0.78,26.92l0.39,13.46v13.48l-0.08,26.97c-0.84,35.97-2.41,72-6.76,107.92
				c-4.07,35.9-9.91,71.78-19.07,107.07c-9.02,35.28-20.87,70.1-36.79,103.38c-3.69,8.44-8.44,16.43-12.71,24.61
				c-4.41,8.12-9.53,15.91-14.33,23.83l-7.96,11.47l-3.99,5.73l-4.3,5.52l-8.65,11.01l-9.3,10.52
				c-25.03,27.8-55.4,51.39-89.34,67.98c-33.85,16.62-70.78,26.66-107.94,30.33c-37.23,3.41-74.5,1.02-110.74-5.22
				c-36.19-6.56-71.41-16.82-105.48-29.58c-34.01-12.95-66.98-28.22-98.79-45.5c-15.91-8.65-31.56-17.73-46.92-27.33
				c-15.44-9.69-30.27-19.44-45.44-30.7l19.23,1.15c-29.11,16.71-58.31,31.62-88.49,45.6c-30.16,13.84-61.09,26.38-93.62,35.96
				l-12.24,3.51l-12.56,2.9c-8.25,2.18-17.12,3.12-25.73,4.56c-4.35,0.62-8.97,0.67-13.45,1c-4.54,0.3-9.05,0.55-13.23,0.34
				c-8.55-0.03-17.07-0.58-25.59-1.12c-34.01-2.9-67.72-9.91-99.91-21.81c-32.1-11.98-62.99-28.47-89.77-51.45
				c-13.34-11.5-25.59-24.69-35.68-39.85c-10.15-15.07-17.69-32.52-21.34-51.04c-1.97-9.24-2.43-18.77-2.33-28.23
				c0.41-4.7,0.62-9.46,1.37-14.1c0.94-4.6,1.44-9.35,2.88-13.78c1.27-4.49,2.44-9.04,4.24-13.3l2.5-6.47
				c0.91-2.17,2.04-4.64,3.25-6.84c4.77-9.07,11.24-17.04,18.37-23.73c14.43-13.41,31.18-21.82,47.74-28.06
				c16.66-6.19,33.49-10.21,50.21-13.27c16.73-3.04,33.41-5.02,49.83-6.67l24.15-2.42c3.85-0.44,7.72-0.91,10.85-1.49
				c1.47-0.25,3.09-0.7,2.91-0.66c-0.07,0.02-0.13,0.05-0.19,0.09c-0.14,0.06-0.51,0.22-0.73,0.37c-0.1,0.08-0.78,0.45-1.38,0.92
				c-0.3,0.23-0.54,0.44-0.85,0.74c-0.55,0.49-1.08,1.03-1.54,1.62c-0.34,0.37-1.16,1.71-0.94,1.37l0.21-0.33l0.42-0.65l0.85-1.31
				c17.65-28.09,36.84-55.4,58.12-81.34c21.34-25.86,44.87-50.43,72.01-71.54c27.29-20.71,58.32-38.48,93.07-46.91
				c17.26-4.16,35.16-6.59,53-5.99c17.83,0.49,35.43,3.3,52.48,7.63c16.98,4.59,33.18,11.06,48.89,18.25
				c15.53,7.51,30.48,15.94,44.67,25.35c28.34,18.86,53.67,41.18,76.74,65.19c5.76,5.96,11.23,12.21,16.68,18.4
				c5.45,6.1,10.65,12.45,15.91,18.74c10.38,12.71,20.58,25.61,29.9,39.36c1.82,2.68,1.12,6.33-1.56,8.14
				c-2.03,1.37-4.61,1.31-6.53,0.03l-0.05-0.04c-27.58-18.34-52.84-39.71-77.06-60.69c-24.36-20.72-48.92-40.77-74.68-58.41
				c-12.91-8.76-26.13-16.85-39.76-23.96c-13.7-6.88-27.87-12.55-42.32-16.77c-14.49-4-29.29-6.23-44.06-6.67
				c-14.8-0.53-29.52,1.54-43.9,4.98c-28.88,6.95-55.78,22.14-80.3,40.73c-24.39,18.97-46.32,41.74-66.45,66.15
				c-20.09,24.49-38.5,50.64-55.55,77.78l-0.82,1.26l-0.41,0.63l-0.2,0.31c0.09-0.12-0.92,1.39-1.42,1.96
				c-0.63,0.78-1.32,1.52-2.04,2.2c-0.51,0.45-0.96,0.81-1.46,1.2c-1.01,0.78-2.1,1.46-2.66,1.75c-0.68,0.37-1.49,0.79-2.09,1.06
				l-1.61,0.66c-4,1.47-6.39,1.85-8.92,2.37c-4.89,0.9-9.12,1.38-13.37,1.87l-24.52,2.46c-16.03,1.61-31.76,3.49-47.13,6.29
				c-15.34,2.79-30.35,6.45-44.28,11.63c-13.88,5.17-26.73,12.01-36.23,20.93c-4.73,4.46-8.66,9.35-11.48,14.74
				c-0.76,1.37-1.32,2.62-1.99,4.21l-1.89,4.94c-1.43,3.26-2.22,6.64-3.19,9.99c-1.15,3.32-1.37,6.77-2.13,10.14
				c-0.56,3.39-0.65,6.82-1.01,10.23c0,6.83,0.24,13.67,1.72,20.4c5.09,27.14,23.03,51.91,45.68,71.32
				c22.77,19.58,50.25,34.44,79.18,45.2c29.02,10.74,59.74,17.13,90.69,19.78c7.76,0.48,15.51,1,23.28,1.02
				c3.98,0.2,7.6-0.05,11.2-0.31c3.65-0.3,7.22-0.25,10.93-0.79c7.46-1.31,14.87-1.98,22.41-4l11.27-2.59l11.27-3.24
				c30.05-8.85,59.77-20.83,88.86-34.19c29.01-13.41,57.95-28.22,85.41-43.99l9.96-5.72l9.27,6.87c13.34,9.9,28.17,19.71,42.8,28.87
				c14.75,9.21,29.81,17.95,45.09,26.26c30.57,16.61,62.17,31.22,94.52,43.54c32.39,12.14,65.62,21.78,99.3,27.89
				c33.69,5.8,67.86,7.92,101.38,4.86c33.46-3.33,66.08-12.27,95.98-26.93c29.85-14.58,56.62-35.31,79.06-60.22l8.35-9.42l7.79-9.93
				l3.89-4.97l3.61-5.21l7.23-10.4c4.37-7.26,9.05-14.32,13.1-21.8c3.92-7.55,8.3-14.84,11.71-22.69
				c14.73-30.78,25.9-63.47,34.45-96.94c8.7-33.45,14.31-67.84,18.23-102.45c4.2-34.59,5.72-69.58,6.55-104.56
				c0.96-70.06-3.56-140.37-11.94-210.26c-8.52-69.91-20.78-139.36-33.24-208.83c-12.79-69.46-26.95-138.63-35.39-209.66l-0.01-0.05
				c-0.38-3.18,1.9-6.07,5.08-6.45C2061.47,1357.46,2063.93,1359.01,2064.87,1361.4z"/>
		</g>
		<g>
			<g>
				<path class="st4" d="M1409.16,1041.28c5.03,97.83,34.51,194.81,89.03,281.28c11.13,17.63,23.23,34.79,36.41,51.43
					c6.38,8.11,13.09,16.11,20,24.04c20.94,23.77,43.36,45.42,67.06,64.96c20.38,16.89,41.74,32.17,63.78,45.88
					c26.62,16.57,54.34,30.78,82.83,42.69c10.4,4.31,20.89,8.33,31.45,12.06c193.55,67.9,417.08,32.12,581.94-113.11
					c242.89-213.89,266.36-584.17,52.52-827.04c-41.22-46.75-88.23-85.47-139.04-115.78c-5.91-3.6-11.94-7.04-18.03-10.35
					c-16.25-8.96-32.82-17.1-49.69-24.4c-39.01-16.87-79.57-29.32-120.82-37.31c-41.23-8.03-83.25-11.61-125.17-10.69
					c-13.33,0.29-26.65,1.01-39.98,2.22c-19.97,1.82-39.86,4.61-59.67,8.52c-98.69,19.17-193.75,64.05-274.65,135.33
					C1467.38,694.01,1400.3,868.78,1409.16,1041.28z"/>
				<path class="st0" d="M1993.87,1598.26c-65.36,0-131.15-10.87-194.68-33.15c-10.61-3.75-21.22-7.82-31.54-12.1
					c-28.88-12.08-56.83-26.47-83.06-42.8c-22.42-13.94-43.94-29.42-63.96-46c-23.92-19.72-46.54-41.63-67.24-65.13
					c-7.63-8.76-14.19-16.65-20.05-24.11c-12.93-16.33-25.21-33.68-36.5-51.56c-53.27-84.47-84.14-182-89.28-282.04
					c-9.27-180.46,63.08-352.34,198.49-471.57c78.3-68.98,173.53-115.91,275.4-135.7c19.3-3.8,39.43-6.68,59.83-8.54
					c13.1-1.19,26.58-1.94,40.09-2.22c42.04-0.94,84.26,2.68,125.51,10.72c41.65,8.07,82.41,20.65,121.15,37.41
					c16.87,7.3,33.63,15.54,49.83,24.47c6.52,3.54,12.44,6.94,18.1,10.39c51.85,30.93,98.76,69.99,139.41,116.09
					c214.1,243.16,190.48,615.18-52.66,829.28C2273.84,1547.59,2134.93,1598.26,1993.87,1598.26z M1410.74,1041.2
					c5.11,99.5,35.81,196.5,88.79,280.51c11.23,17.79,23.44,35.04,36.31,51.29c5.84,7.42,12.36,15.27,19.95,23.98
					c20.58,23.36,43.08,45.16,66.87,64.78c19.91,16.49,41.31,31.88,63.61,45.75c26.09,16.24,53.88,30.56,82.6,42.57
					c10.27,4.25,20.82,8.31,31.37,12.03c199.53,70,421.91,26.78,580.36-112.8c241.82-212.95,265.32-582.95,52.38-824.8
					c-40.43-45.85-87.08-84.7-138.66-115.47c-5.62-3.43-11.49-6.8-17.98-10.32c-16.12-8.89-32.79-17.08-49.56-24.34
					c-38.53-16.66-79.07-29.18-120.49-37.2c-41.03-8-83.03-11.56-124.83-10.66c-13.43,0.29-26.84,1.03-39.87,2.21
					c-20.29,1.85-40.31,4.71-59.51,8.49c-101.32,19.68-196.03,66.35-273.91,134.96C1473.49,690.75,1401.54,861.72,1410.74,1041.2
					L1410.74,1041.2z"/>
			</g>
			<g class="st3">
				<path class="st0" d="M2381.66,1450.48c-164.85,145.26-388.41,181.04-581.95,113.11c-10.57-3.72-21.05-7.73-31.44-12.05
					c-28.5-11.9-56.21-26.13-82.83-42.67c-22.04-13.73-43.41-29-63.78-45.87c-23.72-19.53-46.13-41.18-67.09-64.96
					c-6.87-7.95-13.59-15.92-20-24.03c-13.17-16.65-25.24-33.84-36.38-51.45c-54.53-86.47-84.03-183.43-89.04-281.29
					c-2.77-53.74,1.84-107.74,13.73-160.3c6.92,93.25,36.17,185.29,88.18,267.78c11.1,17.65,23.22,34.8,36.38,51.45
					c6.37,8.1,13.09,16.08,20,24.03c20.96,23.78,43.37,45.43,67.05,64.96c20.41,16.87,41.74,32.14,63.78,45.87
					c26.62,16.54,54.37,30.78,82.83,42.68c10.42,4.31,20.9,8.33,31.47,12.05c193.53,67.93,417.06,32.15,581.95-113.11
					c96.21-84.71,157.95-193.97,184.18-310.08C2591.94,1143.49,2525.03,1324.25,2381.66,1450.48z"/>
			</g>
			<g>
				<path class="st0" d="M1993.87,1608.9c-66.53,0-133.54-11.06-198.2-33.75c-10.81-3.82-21.59-7.96-32.09-12.31
					c-29.44-12.3-57.89-26.97-84.61-43.6c-22.83-14.19-44.74-29.96-65.12-46.84c-24.33-20.06-47.37-42.37-68.44-66.29
					c-7.79-8.94-14.46-16.96-20.43-24.56c-13.14-16.6-25.64-34.26-37.13-52.46c-54.24-86.02-85.68-185.32-90.91-287.18l0,0
					c-9.43-183.73,64.22-358.72,202.08-480.1c79.72-70.23,176.68-118,280.4-138.15c19.63-3.87,40.13-6.8,60.89-8.69
					c13.34-1.21,27.08-1.98,40.83-2.27c42.78-0.94,85.77,2.72,127.77,10.91c42.39,8.21,83.89,21.03,123.34,38.09
					c17.18,7.44,34.25,15.82,50.74,24.92c6.62,3.59,12.69,7.08,18.49,10.62c52.71,31.44,100.47,71.21,141.85,118.14
					c217.98,247.57,193.93,626.33-53.61,844.31C2278.9,1557.32,2137.48,1608.9,1993.87,1608.9z M1421.37,1040.65
					c5.02,97.68,35.16,192.91,87.17,275.38c11.02,17.46,23.02,34.41,35.65,50.36c5.75,7.31,12.16,15.02,19.63,23.6
					c20.17,22.9,42.26,44.29,65.62,63.55c19.56,16.2,40.56,31.31,62.46,44.93c25.61,15.94,52.89,30,81.08,41.79
					c10.06,4.17,20.44,8.15,30.82,11.82c195.89,68.73,414.21,26.29,569.77-110.76c237.42-209.07,260.49-572.33,51.42-809.78
					c-39.69-45.02-85.5-83.16-136.13-113.36c-5.55-3.39-11.28-6.67-17.6-10.11c-15.88-8.76-32.25-16.8-48.71-23.93
					c-37.82-16.36-77.62-28.65-118.29-36.53c-40.3-7.85-81.55-11.38-122.57-10.47c-13.2,0.28-26.36,1.01-39.14,2.17
					c-19.92,1.82-39.57,4.62-58.41,8.33c-99.49,19.33-192.47,65.15-268.93,132.5C1482.98,696.58,1412.33,864.44,1421.37,1040.65
					L1421.37,1040.65z"/>
			</g>
			<g>
				<path class="st0" d="M1993.86,1614.77c-67.19,0-134.84-11.18-200.14-34.08c-10.92-3.86-21.8-8.03-32.4-12.42
					c-29.74-12.44-58.48-27.25-85.46-44.04c-23.05-14.33-45.18-30.24-65.77-47.3c-24.56-20.25-47.82-42.78-69.1-66.93
					c-7.87-9.04-14.6-17.13-20.64-24.81c-13.26-16.75-25.88-34.58-37.48-52.96c-54.78-86.87-86.52-187.15-91.8-290.01l0,0
					c-9.53-185.52,64.85-362.23,204.07-484.81c80.5-70.92,178.42-119.16,283.16-139.51c19.81-3.91,40.52-6.86,61.48-8.77
					c13.48-1.23,27.35-2,41.24-2.29c43.24-0.96,86.61,2.75,129.02,11.02c42.8,8.29,84.71,21.23,124.54,38.46
					c17.35,7.51,34.59,15.98,51.25,25.17c6.67,3.62,12.83,7.16,18.72,10.75c53.18,31.72,101.41,71.88,143.2,119.27
					c220.12,250,195.84,632.47-54.13,852.59C2281.69,1562.68,2138.89,1614.77,1993.86,1614.77z M1427.23,1040.35
					c4.97,96.68,34.8,190.93,86.27,272.55c10.91,17.29,22.79,34.06,35.29,49.85c5.7,7.25,12.05,14.88,19.46,23.39
					c19.94,22.64,41.8,43.81,64.92,62.88c19.37,16.04,40.16,30.99,61.83,44.47c25.35,15.78,52.34,29.69,80.25,41.36
					c9.95,4.12,20.23,8.07,30.51,11.7c193.87,68.01,409.97,26.01,563.94-109.63c234.99-206.93,257.82-566.48,50.9-801.49
					c-39.29-44.56-84.62-82.31-134.73-112.2c-5.52-3.36-11.16-6.6-17.4-9.99c-15.75-8.69-31.95-16.65-48.24-23.7
					c-37.43-16.19-76.82-28.35-117.07-36.15c-39.89-7.78-80.72-11.25-121.33-10.36c-13.07,0.28-26.09,1-38.74,2.15
					c-19.72,1.8-39.17,4.57-57.81,8.25c-98.48,19.13-190.51,64.48-266.19,131.15C1488.21,699.79,1418.29,865.94,1427.23,1040.35
					L1427.23,1040.35z"/>
			</g>
			<g>
				<path class="st0" d="M1436.02,1189.02c206.58,364.32,701.71,411.01,902.23,47.88c136.42-247.05-0.15-571.36-245.81-687.18
					c-178.8-84.3-390.24-88.38-596.94,153.35c0,0-74.98,121.14-80.92,222.77c-5.95,101.63,5.42,201.47,5.42,201.47L1436.02,1189.02z
					"/>
			</g>
			<g>
				<path class="st29" d="M2338.23,1236.9c-200.5,363.12-695.65,316.43-902.22-47.86l-3.24-12.51
					c311.91,223.48,749.02,181.41,958.59-181.96C2396.45,1077.07,2380.32,1160.65,2338.23,1236.9z"/>
			</g>
			<g>
				<path class="st0" d="M1926.41,1565.68c-107.11,0-216.32-29.7-313.93-87.09l-2.34-1.64c-24.6-20.28-47.86-42.8-69.13-66.96
					c-7.87-9.04-14.6-17.13-20.64-24.81c-13.26-16.75-25.88-34.58-37.48-52.96c-54.78-86.87-86.52-187.15-91.8-290.01l0,0
					c-9.53-185.52,64.85-362.23,204.07-484.81c80.5-70.92,178.42-119.16,283.16-139.51l1.85-0.36l1.88,0.03
					c77.84,1.18,159.13,21.49,241.62,60.39c146.98,69.3,266.02,207.42,318.44,369.48c48.2,149.02,36.12,301.04-34.03,428.05
					c-76.2,137.96-192.16,231.61-335.34,270.83C2025.33,1559.28,1976.08,1565.68,1926.41,1565.68z M1632.06,1448.1
					c134.24,78.52,291.28,101.58,431.1,63.29c133.54-36.57,241.84-124.2,313.21-253.41c65.26-118.16,76.36-260.01,31.27-399.41
					c-49.4-152.72-161.34-282.77-299.43-347.88c-77.13-36.36-152.77-55.51-224.85-56.9c-97.73,19.33-189.09,64.53-264.29,130.78
					c-130.87,115.23-200.79,281.37-191.84,455.79l0,0c4.97,96.68,34.8,190.93,86.27,272.55c10.91,17.29,22.79,34.06,35.29,49.85
					c5.7,7.25,12.05,14.88,19.46,23.39C1587.87,1408.41,1609.35,1429.28,1632.06,1448.1z"/>
			</g>
			<g>
				<path class="st0" d="M1923.24,1505c-202.94,0-395.44-117.43-502.96-307.05l-1.18-2.07l-17.08-66.52
					c-0.47-4.14-11.48-102.57-5.51-204.58c6.14-105,80.44-226.14,83.6-231.24l1.63-2.24c181.77-212.58,389.84-265.73,618.42-157.96
					c131.25,61.88,237.55,185.21,284.36,329.9c43.05,133.1,32.25,268.91-30.42,382.41c-90.44,163.79-246.41,258.32-427.89,259.35
					C1925.22,1505,1924.22,1505,1923.24,1505z M1452.94,1182.15c101.31,177.07,281.12,286.65,470.3,286.65c0.93,0,1.83,0,2.76,0
					c168-0.95,312.48-88.66,396.41-240.64c57.78-104.64,67.6-230.28,27.66-353.77c-43.78-135.35-142.98-250.6-265.35-308.3
					c-211.6-99.77-404.88-50.11-574.51,147.63c-7.44,12.36-72.25,122.45-77.56,213.17c-5.43,92.94,3.96,185.47,5.21,197.14
					L1452.94,1182.15z"/>
			</g>
			<g>
				
					<ellipse transform="matrix(0.4226 -0.9063 0.9063 0.4226 253.2285 2947.4839)" class="st4" cx="2439.88" cy="1275" rx="209.56" ry="152.27"/>
				<path class="st0" d="M2399.78,1493.57c-15.09,0-29.96-2.39-44.28-7.42c-35.5-12.45-63.25-38.91-80.26-76.5
					c-24.74-54.69-23.34-124.65,3.84-191.93c46.79-115.84,156.78-184.86,245.19-153.86c35.5,12.45,63.25,38.9,80.26,76.51
					c24.74,54.69,23.34,124.65-3.84,191.93l0,0C2561.47,1429.36,2477.87,1493.57,2399.78,1493.57z M2478.97,1092.45
					c-63.27,0-132.72,55.62-166.33,138.83c-23.14,57.3-24.79,118.4-4.42,163.45c12.83,28.37,33.32,48.17,59.26,57.27
					c70.44,24.71,159.99-35.09,199.64-133.26l0,0c23.14-57.29,24.8-118.4,4.42-163.45c-12.83-28.37-33.33-48.17-59.26-57.27
					C2501.54,1094.25,2490.35,1092.45,2478.97,1092.45z"/>
			</g>
			<g>
				
					<ellipse transform="matrix(0.4534 -0.8913 0.8913 0.4534 187.6995 2925.2346)" class="st4" cx="2478.84" cy="1309.58" rx="166.32" ry="124.07"/>
				<path class="st0" d="M2447.48,1469.79c-29.87,0-55.75-11.9-74.86-34.43c-46.3-54.58-36.47-155.4,21.9-224.75
					c32.69-38.84,74.78-61.15,115.47-61.23c0.07,0,0.14,0,0.21,0c29.87,0,55.75,11.9,74.86,34.44
					c46.29,54.58,36.47,155.4-21.91,224.76l0,0c-32.69,38.83-74.77,61.15-115.46,61.23
					C2447.63,1469.79,2447.55,1469.79,2447.48,1469.79z M2510.2,1152.67c-0.07,0-0.14,0-0.21,0
					c-39.72,0.07-80.89,21.97-112.95,60.06c-57.39,68.18-67.21,167.09-21.91,220.49c18.47,21.77,43.48,33.28,72.35,33.28
					c0.07,0,0.14,0,0.21,0c39.72-0.08,80.88-21.97,112.94-60.06c57.38-68.17,67.21-167.09,21.92-220.49
					C2564.08,1164.17,2539.07,1152.67,2510.2,1152.67z"/>
			</g>
			<g class="st3">
				<path class="st0" d="M2343.78,1331.01c4.32-31.21,17.22-61.35,35.61-87.12c-3.86,72,43.23,121.04,110.15,111.41
					c43.24-6.2,84.81-35.52,113.25-75.41c-0.21,4.54-0.69,9.22-1.34,13.95c-11.05,79.48-77.68,152.23-148.84,162.48
					C2381.45,1466.58,2332.75,1410.44,2343.78,1331.01z"/>
			</g>
			<g>
				<path class="st0" d="M2443.85,1486.35c-11.28,0-22.41-1.76-33.17-5.44c-26.69-9.13-47.64-28.99-60.58-57.45
					c-20.1-44.21-18.18-104.69,5.14-161.78c39.8-97.44,125.98-154.98,196.22-130.97c26.69,9.12,47.64,28.99,60.58,57.45
					c20.1,44.21,18.18,104.69-5.14,161.78C2573.19,1432.45,2506.21,1486.35,2443.85,1486.35z M2518.89,1161.59
					c-47.16,0-102.83,46.91-130.14,113.78c-19.62,48.04-21.75,97.8-5.7,133.1c6.08,13.36,17.83,30.83,39.34,38.18
					c50.36,17.23,119.51-33.34,150.99-110.41c19.62-48.04,21.76-97.79,5.7-133.1c-6.08-13.36-17.83-30.83-39.34-38.18
					C2533.08,1162.68,2526.08,1161.59,2518.89,1161.59z"/>
			</g>
			<g class="st8">
				<path class="st4" d="M2174.26,709.32c0,0-242.95-96.16-436.7-21.54c-0.2,0.08-0.41,0.16-0.61,0.24
					c-40.76,15.74-76.53,42.24-103.75,76.42c-35.99,45.21-54.17,81.64-68.94,114.32c-44.87,99.43-47.29,154.41-47.29,154.41
					c-32.84-78.06-37.8-152.08-1.25-235.27c3.62-8.19,7.67-16.5,12.08-24.91c1.01-1.94,2.06-3.84,3.14-5.74
					c-0.03-0.04,0-0.07,0.08-0.11c10.14-16.39,24.28-37.42,42.22-59.81c54.04-67.56,142.39-147.63,259.07-150.63
					C2050.49,551.1,2187.14,702.63,2174.26,709.32z"/>
			</g>
			<g class="st8">
				
					<ellipse transform="matrix(0.1618 -0.9868 0.9868 0.1618 859.9059 3078.804)" class="st4" cx="2242.31" cy="1033.21" rx="91.27" ry="78.33"/>
			</g>
			<g class="st8">
				
					<ellipse transform="matrix(0.0779 -0.997 0.997 0.0779 849.6077 3312.3345)" class="st4" cx="2215.48" cy="1196.86" rx="37.69" ry="32.34"/>
			</g>
		</g>
		<g>
			<path class="st4" d="M1252.28,1564.25c0,0-26.27-86.88,15.85-110.48c56.95-31.9,87.72,153.55,132.43,181.28
				C1445.28,1662.79,1252.28,1564.25,1252.28,1564.25z"/>
		</g>
		<g>
			<path class="st0" d="M1407.86,1657.05c-5.85,0-11.53-2.46-14.56-3.78c-4.36-1.89-10.36-4.66-18.32-8.46
				c-13.01-6.21-31.01-15.04-53.49-26.27c-38.19-19.07-76.68-38.72-77.07-38.91l-6.55-3.34l-2.13-7.04
				c-3.1-10.25-28.76-101.03,23.94-130.55c11.23-6.28,23.19-7.55,34.59-3.66c31.07,10.6,50.93,57.25,71.94,106.62
				c13.34,31.34,29.94,70.34,43.44,78.71c5.76,3.58,21.08,13.08,12.65,28.02C1418.56,1655.05,1413.14,1657.05,1407.86,1657.05z
				 M1266.95,1552.33c29.19,14.87,59.66,30.22,85.1,42.84c-5.82-12.29-11.58-25.82-17.61-39.98c-14.7-34.54-34.83-81.84-51.31-87.46
				c-1.37-0.46-3.12-0.81-6.55,1.11C1255.99,1480.37,1260.51,1526.14,1266.95,1552.33z"/>
		</g>
		<g>
			<path class="st4" d="M2050.58,1640.19c-5.34-7.76-11.92-15.85-19.1-23.87c-48.52-54.25-112.3-93.12-182.98-110.48
				c-150.17-36.88-178.68,60.97-371.93,72.42c-41.61,2.46-110.28-4.15-150.34-14.12l-58.3-16.25
				c-37.07-10.7-74.01-20.66-111.04-21.72c-26.82-0.77-54.5,14.95-69.42,32.97c-22.64,27.34-27,143.85,58.6,230.75
				c52.07,52.86,236.48,161.9,632.06,14.11L2050.58,1640.19z"/>
		</g>
		<g class="st3">
			<path class="st0" d="M1778.15,1803.99c-395.61,147.81-579.99,38.75-632.08-14.11c-85.6-86.87-81.26-203.39-58.58-230.74
				c0.4-0.44,0.75-0.93,1.19-1.37c9.28,45.47,31.94,96.75,75.62,141.07c52.48,53.29,225.66,157.8,584.58,55.27
				C1778.59,1745.63,1800.1,1782.25,1778.15,1803.99L1778.15,1803.99z"/>
		</g>
		<g>
			<path class="st0" d="M1267.19,1550.43c-23.22-2.69-46-6.4-68.44-8.27c-11.2-1.04-22.32-1.44-33.23-1.46
				c-2.74-0.03-5.45,0.12-8.16,0.19c-2.56,0.19-4.57,0.33-6.9,0.79c-4.49,0.73-9.02,1.88-13.43,3.57
				c-8.8,3.45-17.25,8.49-24.54,14.52c-3.63,3.03-6.9,6.37-9.76,9.7l-1.06,1.26l-0.51,0.79c-0.33,0.37-0.71,1.21-1.09,1.88
				c-0.77,1.49-1.55,3.35-2.25,5.37c-2.99,8.17-4.61,18.38-5.46,28.58c-0.78,10.28-0.69,20.89,0.23,31.47
				c3.58,42.55,20.9,84.07,47.36,117.86c6.53,8.46,13.86,16.7,21.48,23.89c3.83,3.52,7.51,7.16,11.88,10.31
				c4.26,3.21,8.21,6.74,12.88,9.54c17.53,12.53,37.61,21.76,57.72,30.4c41.05,15.99,85.18,24.61,129.75,27.74
				c22.39,0.62,44.74,1.96,67.22,0.31l16.83-0.72l8.41-0.39l8.4-0.9l33.61-3.56l8.41-0.84c2.8-0.36,5.58-0.89,8.37-1.32l16.73-2.73
				l33.48-5.4l33.26-7.15l16.66-3.47c5.57-1.11,11.14-2.2,16.61-3.78l33.01-8.7c5.54-1.34,11.04-2.81,16.63-4
				c5.56-1.28,11.2-2.32,16.71-3.85c22.29-5.31,44.93-9.7,69.19-10.54l0.13,0c1.52-0.05,2.79,1.14,2.84,2.65
				c0.03,0.94-0.42,1.79-1.12,2.31c-19.36,14.24-40.36,24.91-61.69,34.68c-21.56,9.2-44.23,15.2-66.53,22.35
				c-22.5,6.55-45.51,11.41-68.31,17.02c-11.54,2.27-23.19,4.06-34.8,6.02l-17.43,2.89c-2.91,0.46-5.8,1.01-8.72,1.39l-8.82,0.87
				l-35.28,3.3l-8.82,0.82c-2.95,0.17-5.92,0.17-8.88,0.26l-17.77,0.38c-23.65,1.18-47.45-0.68-71.15-1.91l-35.5-4.3
				c-5.93-0.51-11.76-2.09-17.64-3.12l-17.6-3.47c-5.9-0.96-11.68-2.6-17.47-4.21l-17.37-4.76c-5.83-1.4-11.45-3.67-17.14-5.67
				l-17.02-6.11c-22.23-9.51-44.36-19.71-64.52-34.04c-5.23-3.19-9.98-7.3-14.92-11.06c-4.99-3.64-9.59-8.06-14.23-12.38
				c-9.13-8.66-17.18-17.75-24.77-27.53c-15.16-19.42-27.68-40.94-36.96-63.79c-9.34-22.82-15.81-46.82-18.89-71.53
				c-1.46-12.37-2.2-24.91-1.44-37.66c0.75-12.79,2.62-25.63,7.58-39.17c1.32-3.38,2.87-6.82,4.91-10.36
				c1.09-1.8,2.06-3.53,3.54-5.42c0.68-0.9,1.41-1.88,2.07-2.68l1.79-1.99c4.78-5.31,10.08-9.78,15.6-13.78
				c11.01-8.03,23.38-13.74,36.56-17.27c6.61-1.72,13.47-2.82,20.47-3.07c3.42-0.16,7.2,0.09,10.39,0.34
				c3.05,0.35,6.11,0.63,9.12,1.09c12.11,1.57,23.91,4.24,35.39,7.43c22.98,6.5,44.72,15.21,65.84,25.29
				c1.34,0.64,1.9,2.24,1.27,3.58C1269.42,1549.99,1268.3,1550.56,1267.19,1550.43z"/>
		</g>
		<g>
			<path class="st0" d="M2048.4,1641.69c-7.56-4.52-14.39-9.08-21.06-13.76l-9.86-7.05l-9.52-7.19
				c-12.54-9.58-24.14-19.89-36.81-28.94c-25.3-18.04-52.36-33.37-80.97-45.08c-28.44-11.88-58.89-20.25-88.88-23.23
				c-1.88-0.2-3.77-0.55-5.64-0.62l-5.61-0.07l-11.23-0.18c-3.77-0.28-7.44,0.5-11.16,0.71c-3.71,0.36-7.44,0.61-11.15,1.04
				c-14.74,2.74-29.41,6.16-44.05,11.81c-29.25,10.67-58.97,25.5-90.74,36.89c-8.01,2.7-15.92,5.63-24.01,8.12l-24.46,6.94
				l-24.79,5.68c-8.27,1.87-16.65,3.03-24.98,4.64c-4.17,0.69-8.34,1.63-12.53,2.1l-12.59,1.39c-8.47,0.84-16.66,1.82-25.39,2.14
				c-17.4,0.42-34.15-0.91-50.8-3.23l-12.44-1.8l-12.34-2.34c-8.22-1.56-16.36-3.52-24.46-5.67c-16.15-4.38-32.21-9.65-47.36-17.28
				c-1.34-0.67-1.88-2.3-1.2-3.65c0.48-0.95,1.44-1.5,2.44-1.49h0.04c33.07,0.21,65.3,0.23,97.34-0.15
				c15.95-0.42,31.91-0.53,47.16-1.55c7.6-0.33,15.63-1.42,23.45-1.86l11.82-0.82c3.95-0.24,7.81-0.94,11.72-1.39
				c7.78-1.09,15.66-1.84,23.37-3.3l23.05-4.92l22.68-6.44c7.52-2.31,14.94-5.07,22.41-7.58c29.79-10.62,58.69-25.12,90.82-36.92
				c15.88-6.13,33.03-10.57,50.39-13.83l13.21-1.56c4.41-0.37,8.82-1.29,13.25-1.14l13.27-0.13l6.64-0.05
				c2.21,0.03,4.37,0.34,6.56,0.5c35.12,2.47,68.74,10.54,100.73,23.4c31.9,12.96,61.94,30.54,88.45,52.34
				c13.21,10.9,26.07,22.36,36.5,36.01c10.21,13.67,19.4,28.61,23.07,46.49c0.32,1.56-0.68,3.07-2.24,3.39
				c-0.73,0.15-1.46,0.01-2.05-0.35L2048.4,1641.69z"/>
		</g>
		<g>
			<path class="st0" d="M1546.38,2293.99c-15.94,11.09-31.5,23.1-46.58,35.39c-15.09,12.33-29.72,25.11-43.83,38.29
				c-7.01,6.55-18.01,6.17-24.55-0.85c-6.55-7.01-6.17-18.01,0.85-24.55c0.89-0.83,1.95-1.61,2.95-2.22
				c17.27-10.33,34.79-20.04,52.55-29.13c17.8-9.08,35.68-17.62,54.14-25.34c2.44-1.02,5.25,0.13,6.27,2.57
				c0.89,2.12,0.13,4.52-1.68,5.78L1546.38,2293.99z"/>
		</g>
		<g>
			<path class="st0" d="M1177,2143.2c-1.06,1.86-2.36,4.87-3.46,7.45c-1.13,2.7-2.19,5.45-3.2,8.24c-2.02,5.58-3.75,11.3-5.21,17.1
				c-2.92,11.59-4.61,23.51-4.69,35.51c0.05,11.96,1.75,24.05,6.11,35.49c4.25,11.48,11.33,22.11,20.44,31.17
				c-10.86-6.77-20.72-15.94-28.1-27.19c-7.49-11.19-12.51-24.11-15.6-37.42c-2.98-13.34-4.15-27.1-3.87-40.8
				c0.15-6.85,0.61-13.71,1.44-20.55c0.41-3.43,0.9-6.85,1.49-10.3c0.65-3.55,1.18-6.66,2.28-10.79l0.28-1.03
				c2.5-9.32,12.08-14.86,21.4-12.37c9.32,2.5,14.86,12.08,12.36,21.4C1178.29,2140.54,1177.69,2141.96,1177,2143.2z"/>
		</g>
		<g>
			<path class="st4" d="M2126.29,2078.54c40.94-4.66,91.9-25.53,94.36-68.79c4.37-76.98-90.8-78.78-90.8-78.78s-78.34,6.2-193.75-7
				c-125.62-14.37-230.33-30.99-276.97-30.11c-21.25,0.4-59.25,6.12-64.31,60.81c-2.43,26.27,17.01,49.87,50.2,66.27
				C1771.66,2083.49,2093.86,2082.23,2126.29,2078.54z"/>
		</g>
		<g class="st3">
			<path class="st0" d="M2220.63,2009.73c-2.46,43.28-53.41,64.15-94.35,68.82c-32.41,3.67-354.64,4.93-481.25-57.63
				c-33.17-16.39-52.64-39.96-50.17-66.23c1.21-13.18,4.35-23.52,8.75-31.61c7.8,15.27,23.48,28.76,44.75,39.28
				c126.6,62.56,448.83,61.3,481.25,57.63c31.62-3.63,69.26-16.87,85.83-42.71C2219.32,1986.26,2221.36,1996.94,2220.63,2009.73z"/>
		</g>
		<g>
			<path class="st0" d="M2069.03,2095.1c-107.97,0-328.12-10.07-430.63-60.72c-40.1-19.81-61.42-49.37-58.49-81.1
				c4.36-47.12,32.4-73.55,78.96-74.42c32.49-0.64,90.45,6.75,163.86,16.09c34.73,4.41,74.09,9.42,115.09,14.11
				c112.41,12.86,190.09,7,190.86,6.95l0.73-0.06l0.73,0.01c2.23,0.04,54.93,1.4,85.14,33.98c14.88,16.04,21.72,36.45,20.35,60.64
				c-2.98,52.44-59.84,77.4-107.64,82.84C2120.14,2094.34,2098.86,2095.1,2069.03,2095.1z M1662.92,1908.82
				c-1.2,0-2.36,0.01-3.49,0.03c-21.12,0.4-45.85,6.12-49.65,47.2c-1.73,18.68,13.55,37.43,41.9,51.44
				c122.97,60.75,439.08,59.99,472.92,56.14h0c29.15-3.32,79.03-18.59,81.08-54.74c0.9-15.92-3.12-28.5-12.32-38.46
				c-20.02-21.69-57.96-24.2-63.21-24.45c-9.47,0.69-85.43,5.51-195.74-7.11c-41.19-4.71-80.65-9.73-115.47-14.16
				C1749.43,1915.88,1693.98,1908.82,1662.92,1908.82z"/>
		</g>
		<g>
			<path class="st0" d="M1449.48,1890.73c-3.48,0-6.95-1.39-9.5-4.15c-4.86-5.25-4.55-13.45,0.69-18.31
				c77.75-72.08,49.95-288.33,49.67-290.51c-0.94-7.09,4.04-13.61,11.13-14.56c7.08-0.96,13.61,4.03,14.56,11.13
				c1.26,9.42,29.84,231.76-57.73,312.94C1455.79,1889.59,1452.63,1890.73,1449.48,1890.73z"/>
		</g>
		<g>
			<path class="st0" d="M1426.13,2377.55c-2.03,0-4.1-0.48-6.02-1.49c-131.77-69.35-166.5-169.31-172.43-240.95
				c-6.39-77.22,18.12-137.35,19.16-139.88c2.74-6.61,10.33-9.74,16.93-7s9.74,10.31,7.01,16.92
				c-0.31,0.76-23.33,57.77-17.19,128.82c8.15,94.34,61.51,168.07,158.59,219.16c6.33,3.33,8.76,11.17,5.43,17.5
				C1435.28,2375.03,1430.79,2377.55,1426.13,2377.55z"/>
		</g>
		<g>
			<path class="st0" d="M2287.35,1644.82c-26.7-0.48-52.98,2.51-78.87,7.13c-12.94,2.35-25.78,5.09-38.49,8.2
				c-12.62,3.11-25.52,6.6-37.4,10.45l-0.11,0.03c-9.13,2.96-18.94-2.05-21.89-11.19c-2.96-9.14,2.05-18.94,11.19-21.89
				c1.19-0.39,2.49-0.64,3.69-0.76c14.15-1.36,27.47-1.97,41.15-2.33c13.59-0.32,27.16-0.23,40.69,0.26
				C2234.35,1635.77,2261.37,1638.62,2287.35,1644.82z"/>
		</g>
	</g>
</g>
</svg>
