<?xml version="1.0" encoding="utf-8"?>
<!-- Generator: Adobe Illustrator 28.0.0, SVG Export Plug-In . SVG Version: 6.00 Build 0)  -->
<svg version="1.1" id="Layer_1" xmlns="http://www.w3.org/2000/svg" xmlns:xlink="http://www.w3.org/1999/xlink" x="0px" y="0px"
	 viewBox="0 0 1896.9 3407.76" style="enable-background:new 0 0 1896.9 3407.76;" xml:space="preserve">
<style type="text/css">
	.st0{fill:#371A45;}
	.st1{fill:#FFEB52;}
	.st2{opacity:0.3;}
	.st3{fill:#FF1B40;}
	.st4{opacity:0.6;}
	.st5{fill:#FFFFFF;}
	.st6{opacity:0.2;}
	.st7{fill:#22A7F0;}
	.st8{fill:#1C7AEA;}
	.st9{opacity:0.7;}
	.st10{fill:#220F2D;}
	.st11{opacity:0.5;}
	.st12{fill:#FEDA24;}
	.st13{fill:#16B768;}
	.st14{fill:#3386FF;}
	.st15{opacity:0.4;}
	.st16{fill:#240F30;}
	.st17{fill:#FF67A0;}
	.st18{opacity:0.46;}
	.st19{fill:#7BA2FF;}
	.st20{fill:#787A75;}
	.st21{fill:#494963;}
	.st22{fill:#AD5833;}
	.st23{fill:#271333;}
	.st24{fill:#BEE944;}
	.st25{fill:#FCD656;}
	.st26{fill:none;}
	.st27{fill:#9DA9B9;}
	.st28{fill:#B44AC8;}
	.st29{fill:#F9941E;}
	.st30{fill:#FFFFFF;stroke:#371A45;stroke-width:0;stroke-miterlimit:10;}
	.st31{fill:none;stroke:#000000;stroke-width:26.1128;stroke-linecap:round;stroke-linejoin:round;stroke-miterlimit:10;}
	.st32{fill:#2A1238;}
	.st33{fill:none;stroke:#000000;stroke-width:31.3353;stroke-linecap:round;stroke-linejoin:round;stroke-miterlimit:10;}
	.st34{opacity:0.8;}
	.st35{fill:#FDEAF6;}
	.st36{fill:#220F30;}
	.st37{fill:#2C143A;}
	.st38{fill:#FC3C53;}
	.st39{opacity:0.75;}
	.st40{fill:#61B8FF;}
	.st41{fill:#55485C;}
	.st42{fill:#FDFDFF;}
	.st43{fill:#000072;}
	.st44{fill:#C67F40;}
	.st45{fill:#5FC94B;}
	.st46{opacity:0.25;}
	.st47{fill:#755F6E;}
	.st48{fill:#E11A25;}
	.st49{fill:#FD2F19;}
	.st50{fill:#FFCE00;}
	.st51{fill:#FBFCF7;}
	.st52{fill:#677568;}
	.st53{opacity:0.6;fill:url(#SVGID_1_);}
	.st54{fill:#F9BD8C;}
	.st55{fill:#EFB27B;}
	.st56{fill:#F4CC25;}
	.st57{fill:#F2A427;}
	.st58{fill:#FF7687;}
	.st59{fill:#F96029;}
	.st60{fill:#FF0068;}
	.st61{fill:#E9C289;}
	.st62{fill:#650000;}
	.st63{opacity:0.6;fill:#FFFFFF;}
	.st64{opacity:0.3;fill:#650000;}
	.st65{fill:none;stroke:#650000;stroke-width:31.0404;stroke-linecap:round;stroke-linejoin:round;stroke-miterlimit:10;}
	.st66{fill:#0CCBFF;}
	.st67{fill:url(#SVGID_00000125571295822646526170000000720363937555815587_);}
	.st68{fill:url(#SVGID_00000073684436655229701170000008603624856671264153_);}
	.st69{opacity:0.3;fill:#000072;}
	.st70{fill:none;stroke:#650000;stroke-width:25.867;stroke-linecap:round;stroke-linejoin:round;stroke-miterlimit:10;}
	.st71{fill:#74698B;}
	.st72{fill:none;stroke:#650000;stroke-width:20.6936;stroke-linecap:round;stroke-linejoin:round;stroke-miterlimit:10;}
	.st73{fill:none;stroke:#000072;stroke-width:20.6936;stroke-linecap:round;stroke-linejoin:round;stroke-miterlimit:10;}
	.st74{fill:#705D46;}
	.st75{fill:url(#SVGID_00000149357882971380968050000007757032767954342535_);}
</style>
<g>
	<g>
		<g>
			<g>
				<g>
					<g>
						<g>
							<path class="st5" d="M1741.37,2665.52c-152.92,47.52-216.7-25.68-189-127.35c-2.46-2.52-4.93-5.09-7.39-7.72
								c-49.06-52.67-92.03-128.55-144.43-200.44l-46.48-235.42l-104.19-527.9c89.73-0.77,200.88,108.57,310.1,259.79
								c16.75,23.21,33.45,47.41,50.04,72.38c82.18,123.62,161.18,265.59,226.72,395.51
								C1906.27,2440.56,1898.83,2614.44,1741.37,2665.52z"/>
						</g>
					</g>
					<g class="st4">
						<g>
							<g>
								<path class="st5" d="M1420.36,2018.27c-11.18,8.13-19.88,19.17-28.75,29.78c-4.12,4.96-8.3,9.91-12.54,14.74
									c-8.33,9.64-16.9,19.08-25.67,28.33l0.69,3.49c18.77-18.01,36.66-36.83,53.62-56.45c4.24-4.83,8.42-9.79,12.54-14.74
									c3.07-3.67,6.15-7.36,9.29-10.99C1426.39,2014.23,1423.29,2016.12,1420.36,2018.27z"/>
							</g>
						</g>
					</g>
					<g>
						<g>
							<path class="st0" d="M1655.43,2698.66c-40.01,0-72.59-11.05-95.24-32.92c-29.54-28.5-39.4-71.59-28.21-122.12
								c-32.6-34.9-62.08-78.98-93.15-125.47c-17-25.42-34.58-51.72-53.23-77.29c-1.58-2.18-2.68-4.67-3.2-7.31l-150.64-763.3
								c-1.06-5.4,0.33-10.99,3.81-15.25c3.48-4.27,8.67-6.76,14.17-6.8c208.21-1.58,491.47,515.46,603.52,737.86
								c47.95,100.83,56.93,206.16,24.23,282.13c-23.76,55.19-68.86,94.92-130.42,114.9
								C1713.6,2693.5,1682.77,2698.66,1655.43,2698.66z M1417.87,2322.4c18.19,25.11,35.2,50.57,51.68,75.21
								c32.35,48.39,62.91,94.1,95.96,127.57c4.63,4.69,6.41,11.48,4.68,17.84c-11.27,41.36-5.7,75.51,15.67,96.13
								c27.97,26.99,81.25,30.09,150.02,8.71c51.66-16.77,87.96-48.52,107.67-94.3c28.56-66.34,19.79-160.27-23.47-251.26
								c-166.52-330.52-393.57-682.57-547.23-714.78L1417.87,2322.4z"/>
						</g>
					</g>
					<g>
						<g>
							<path class="st0" d="M1736.59,2597.88c-11.26,0-21.99-2.42-31.64-7.33c-14.58-7.42-38.54-27.03-41.69-76.23l-11.28-6.83
								c-8.3-5.01-18-6.22-26.59-3.27c-25.21,8.62-44.75,22.88-59.73,43.58c-5.31,7.34-15.58,9-22.93,3.68
								c-7.35-5.32-8.99-15.59-3.68-22.93c18.82-26.02,44.3-44.66,75.7-55.41c17.82-6.1,37.58-3.82,54.22,6.25l18.87,11.41
								c4.87,2.94,7.87,8.2,7.92,13.89c0.28,28.72,8.83,48.82,24.09,56.59c15.38,7.84,37.31,3.43,58.67-11.79
								c38.56-27.48,78.61-95.32,64.57-196.08c-1.25-8.98,5.02-17.28,14-18.54c8.96-1.27,17.28,5.02,18.54,14
								c16.04,115.2-29.79,192.98-78.05,227.36C1777.55,2590.51,1756.25,2597.88,1736.59,2597.88z"/>
						</g>
					</g>
					<g>
						<g>
							<path d="M1669.71,2493.95c6.2-5.97,50.08-37.76,53.95-22.43c0.48,2.1-0.29,4.14-1.77,5.5
								c-10.54,10.81-16.22,24.97-20.94,39.13c-3.43,10.54-14.75,16.31-25.29,12.88
								C1660.44,2524.58,1657.01,2503.11,1669.71,2493.95L1669.71,2493.95z"/>
						</g>
					</g>
					<g class="st2">
						<g>
							<g>
								<path d="M1688.41,2546.41c-17.99,0.83-35.11,12.18-42.87,28.44c-7.76,16.25-5.83,36.7,4.83,51.22
									c10.83,14.74,28.86,22.44,46.69,26.49c24.57,5.58,50.43,5.43,74.94-0.42c-32.89,10.13-65.79,20.27-98.68,30.4
									c-10.86,3.34-21.82,6.71-33.14,7.62c-30.38,2.43-61.42-14.85-75.37-41.94c-16.36-31.79-9.15-70.06-1.56-104.99
									c1.7-7.84,3.52-15.92,8.23-22.41c5.96-8.21,15.77-12.72,25.5-15.61c26.72-7.93,56.28-5.92,81.68,5.57
									c-2.49,12.84-0.23,26.54,6.27,37.89L1688.41,2546.41z"/>
							</g>
						</g>
					</g>
					<g>
						<g>
							<path class="st0" d="M1386.01,2274.93c-2.97,0-5.98-0.72-8.77-2.23c-8.98-4.85-12.32-16.06-7.47-25.04
								c66.5-123.05,163.25-203.19,287.87-238.56l-60.71-96.57c-5.43-8.64-2.83-20.04,5.81-25.48c8.66-5.42,20.05-2.83,25.48,5.81
								l74.19,118.01c3.18,5.06,3.72,11.36,1.43,16.89c-2.29,5.53-7.1,9.61-12.94,10.95c-125.91,28.92-223.02,105.13-288.62,226.52
								C1398.94,2271.42,1392.57,2274.93,1386.01,2274.93z"/>
						</g>
					</g>
					<g class="st2">
						<g>
							<g>
								<path d="M1631.38,1824.73c-0.05-0.11-0.05-0.16-0.11-0.27c3.94,1.26,7.83,2.85,11.66,4.71L1631.38,1824.73z"/>
							</g>
						</g>
					</g>
					<g class="st2">
						<g>
							<g>
								<path class="st0" d="M1703.37,2485.23c-6.13,6.19-12.21,12.32-18.34,18.51c-24.58-31.75-76.32-29.29-108.73-5.58
									c-12.32,8.92-22.5,20.04-31.32,32.3c-49.06-52.67-92.03-128.55-144.43-200.44l-46.48-235.42l-104.19-527.9
									c89.73-0.77,200.88,108.57,310.1,259.79c-30.82,10.68-58.75,33.01-75.66,61.16c-31.92,53.05-31.97,119.63-19.82,180.29
									C1496.36,2226.71,1601.48,2359.36,1703.37,2485.23z"/>
							</g>
						</g>
					</g>
				</g>
				<g>
					<g>
						<g>
							<path class="st5" d="M746.6,1557.69l-13.9,117.41l-7.05,59.81L603.7,2766.25c0,0-66.41-12.73-154.15-37.33
								c-17.16-4.82-35.15-10.07-53.61-15.78c-137.57-42.46-301.63-109.74-351.93-198.91c-75.18-133.34,12.96-689.48,140.48-890.69
								c58.42-92.25,267.3-94.18,413.29-83.11c16.32,1.2,31.87,2.61,46.3,4.08C704.99,1550.59,746.6,1557.69,746.6,1557.69z"/>
						</g>
					</g>
					<g class="st2">
						<g>
							<path class="st0" d="M732.7,1675.1l-7.05,59.81l-96.83,818.9l-25.12,212.44c0,0-1.39-0.27-4.02-0.8
								c-0.74-0.17-1.64-0.34-2.58-0.52c-0.74-0.17-1.59-0.34-2.43-0.51c-0.65-0.1-1.29-0.26-1.94-0.37
								c-0.25-0.07-0.55-0.1-0.79-0.17c-1.19-0.25-2.53-0.52-3.91-0.84c-0.3-0.02-0.6-0.1-0.94-0.18c-1.14-0.25-2.33-0.5-3.62-0.77
								c-1.74-0.35-3.52-0.76-5.4-1.17c-1.34-0.32-2.78-0.59-4.21-0.92c-1.49-0.33-2.97-0.66-4.51-1c-1.93-0.42-3.96-0.9-6.04-1.33
								c-4.21-0.97-8.66-1.96-13.36-3.08c-4.16-0.92-8.51-1.95-13.06-3.06c-5.24-1.27-10.73-2.55-16.42-3.96
								c-21.01-5.18-45.02-11.39-70.91-18.65c-5.03-1.41-10.16-2.88-15.33-4.35c-3.6-1.03-7.29-2.12-10.99-3.21
								c-8.92-2.62-18.08-5.37-27.28-8.22c-137.62-42.46-301.63-109.74-351.88-198.91c-61.94-109.79-13.16-506.27,77.26-755.22
								c-49.45,222.56-65.7,468.04-19.01,550.78c23.08,40.91,161.02-62.56,171.07-134.99c25.93-186.8,94.19-420.75,280.82-532.92
								C559.05,1638.96,652.1,1669.27,732.7,1675.1z"/>
						</g>
					</g>
					<g>
						<g>
							<path class="st0" d="M603.72,2782.69c-1.03,0-2.07-0.1-3.09-0.29c-19.42-3.73-476.78-93.14-570.92-260.1
								c-78.35-138.96,8.55-698.78,140.89-907.59c97.26-153.47,559.15-76.54,578.75-73.2c8.62,1.47,14.58,9.44,13.55,18.12
								L620.03,2768.2c-0.54,4.53-2.93,8.63-6.61,11.32C610.59,2781.6,607.18,2782.69,603.72,2782.69z M485.2,1552.37
								c-124.15,0-247.59,17.97-286.86,79.92c-57.92,91.4-113.06,269.42-143.89,464.59c-30.17,190.96-28.65,351.61,3.87,409.28
								c77.03,136.61,446.47,222.35,531.19,240.4l138.92-1175.18C669.65,1562.25,577.23,1552.37,485.2,1552.37z"/>
						</g>
					</g>
					<g>
						<g>
							<path class="st5" d="M78.57,2087.95l188.57,49.48c16.83,4.42,28.73,20.19,28.89,38.43c0.6,66.8-5.65,221.17-73.71,260.27
								c-56.5,32.45-136.49,13.04-176.96-37.61c-45.28-56.66-26.32-205.75-13.52-278.94C35.82,2096.82,57.22,2082.35,78.57,2087.95z
								"/>
						</g>
					</g>
					<g class="st2">
						<g>
							<path class="st0" d="M296.02,2175.88c0.63,66.79-5.64,221.16-73.71,260.23c-56.51,32.46-136.48,13.06-176.98-37.61
								c-27.82-34.86-31.37-104.68-26.99-170.27c3.36,33.77,12.61,62.37,26.61,82.56c80.26,115.7,171.02,12.67,171.02,12.67
								s7.89,30.41,17.57,33.79c40.48,14.15,54.17-124.22,59.67-195.99C294.99,2165.77,295.99,2170.7,296.02,2175.88z"/>
						</g>
					</g>
					<g>
						<g>
							<path class="st0" d="M159.57,2468.54c-47.5,0-96.28-21.27-127.04-59.77c-48.5-60.69-31.38-209.01-16.87-292.03
								c2.75-15.71,11.84-29.54,24.94-37.95c12.69-8.14,27.67-10.52,42.14-6.73c0,0,0,0,0,0l188.57,49.48
								c23.99,6.3,40.92,28.57,41.15,54.17c0.75,84.57-8.91,232.7-81.96,274.66C209.07,2462.67,184.49,2468.54,159.57,2468.54z
								 M69.3,2103.18c-3.83,0-7.59,1.11-10.96,3.27c-5.39,3.46-9.15,9.28-10.31,15.97c-22.75,130.04-18.95,229.42,10.17,265.85
								c36.57,45.77,107.99,61.16,155.95,33.62c42.14-24.2,66.62-116.12,65.47-245.87c-0.1-10.82-6.94-20.15-16.64-22.69
								L74.4,2103.84C72.71,2103.4,71,2103.18,69.3,2103.18z"/>
						</g>
					</g>
					<g>
						<g>
							<path d="M118.13,2432.1c44.81-17.38,72.2-62.53,87.21-106.75c10.09-32.19,17.37-65.83,19.7-99.57
								c0.3-5.68,0.41-11.67-0.07-16.78c-0.23-2.62,1.7-4.93,4.33-5.16c2.48-0.22,4.69,1.52,5.11,3.93
								c3.41,23.78,1.1,47.22-1.46,70.82c-5.58,47.45-16.93,95.19-46.07,134.56c-15.21,20.55-34.98,39.46-59.1,49.37
								C106.88,2469.29,97.09,2438.65,118.13,2432.1L118.13,2432.1z"/>
						</g>
					</g>
					<g>
						<g>
							<path class="st0" d="M473.14,1668.96c-45.77-11.72-92.41-21.83-139.01-29.65c-45.6-7.42-93.16-13.88-138.81-11.4
								c-23.81,0.82-26.17-33.81-2.3-36.09c74.37,0.92,145.38,19.55,216.39,38.53c23.16,6.49,46.09,13.27,69.06,20.76
								C489.73,1655.04,484.84,1671.86,473.14,1668.96L473.14,1668.96z"/>
						</g>
					</g>
				</g>
			</g>
			<g>
				<g>
					<g>
						<path class="st5" d="M1648.3,3346.13c-5.83,3.59-12.36,6.02-19.04,7.33c-282.74,56-406.38-4.16-475.39-135.57
							c-18.31-34.91-30.92-72.68-38.86-111.44c-25.85-125.73-53.74-234.31-83.98-326.71c-8.98-27.66-18.21-53.8-27.68-78.57
							c-4.91,18.69-9.6,37.43-14.13,56.19c-63.23,263.87-88.92,525.61-240.4,602.55c-17.9,9.1-37.36,14.72-57.11,18.01
							c-268.49,44.34-395.57-27.17-365.12-117.78c9.03-27.01,32.14-55.76,69.72-83.63c22.63-85.3,31.01-235.79,51.24-447.2
							c6.56-68.45,14.3-143.35,24.21-224.51c0.4-3.45,0.79-6.91,1.24-10.36c38.98-330.81,82.13-637.23,131.77-904.9l587.12-78.91
							c36.42,36.19,70.76,75.81,101.89,120.3c80.87,115.62,126.29,252.53,137.21,393.82c27.43,354.43,120.93,725.82,160.93,1103.49
							c59.02,1.02,104.38,63.8,105.56,124.96C1698.26,3288.92,1683.88,3324.12,1648.3,3346.13z"/>
					</g>
				</g>
				<g>
					<g>
						<path class="st13" d="M593.44,1599.9c19.96,21.11,51.74,60.54,68.86,118.24c18.74,63.18,10.27,115.78,5.4,144.03
							c-16.62,96.34-60.22,125.45-117.99,262.96c-18.42,43.85-30.7,80.66-37.97,104.01c2.96,76.49,7.69,107,12.77,114.06
							c0.36,0.5,2.5,3.35,4.86,7.56c5.49,9.81,5.12,16.26,8.01,19.55c8.49,9.64,23.23,9.73,36.06,9.04
							c129.28-6.98,258.42-16.73,387.29-29.24c35.23-3.42,70.53-7.05,105.92-6.7c32.22,0.32,64.31,3.94,96.48,5.69
							c86.66,4.73,173.42-4.08,259.76-12.87c31.07-92.71,36.25-192.83,24.41-289.88c-5.05-41.39-13.13-82.4-24.17-122.61
							c-12.14-44.23-27.82-87.43-45.02-129.95c-25.24-62.41-53.77-123.48-85.45-182.89c-3.92-7.35-8.8-15.41-16.91-17.32
							c-6.13-1.45-12.43,1.09-18.22,3.57c-39,16.74-38.61,12.94-61.82,26.53c-5.32,3.11-12.59,7.59-20.98,13.49
							c0.56,6.5,0.85,15.58-0.53,26.21c-7.59,58.71-58.94,112.61-117.71,127.29c-36.62,9.15-71.49,1.91-83.88-0.66
							c-18.96-3.94-35.12-10.13-42.37-12.95c0,0-26.42-10.25-48.12-23.73c-49.54-30.78-83.81-89.79-90.32-101.25
							C725.69,1634.69,659.56,1617.3,593.44,1599.9z"/>
					</g>
				</g>
				<g>
					<g>
						<path class="st1" d="M664.83,1751.53c5,9.71,13.42,29.22,13.74,55.22c0.32,26-7.62,45.71-12.37,55.55
							c73.92,19.35,151.61-0.64,227.86-5.57c64.71-4.19,129.56,2.6,194.38,4.23c103.25,2.61,206.34-7.84,309.09-18.28
							c-9.82-33.4-22.35-65.99-37.41-97.37c-68.8,0.92-137.63,0.19-206.4-2.17c-5.47-0.19-11.08-0.37-16.26,1.38
							c-8.9,3-14.92,11.02-21.62,17.6c-18.1,17.8-43.61,26.47-68.9,28.69c-25.28,2.22-50.68-1.44-75.76-5.29
							c-24.58-3.77-50.45-8.29-69.54-24.22c-1.53-1.28-5.28-6.24-12.13-8.8c-9.25-3.45-18.02-0.73-19.84-0.24
							C858.39,1755.3,804.59,1756.09,664.83,1751.53z"/>
					</g>
				</g>
				<g>
					<g>
						<path class="st0" d="M543.55,3407.76c-121.03,0-204.66-31.02-229.16-88.79c-20.16-47.54,5.13-102.77,69.42-152.15
							c15.86-63.43,24.51-161.49,36.35-295.75c8.88-100.71,19.93-226.04,37.29-368.28c42.78-364.13,86.35-663.87,133.18-916.29
							c1.29-6.98,6.92-12.34,13.96-13.28l587.1-78.89c5.07-0.67,10.15,1.03,13.76,4.63c39.82,39.58,73.76,79.67,103.76,122.55
							c80.22,114.71,128.69,253.7,140.16,401.96c14.64,189.31,47.6,379.94,82.5,581.75c28.64,165.62,58.23,336.76,76.93,507.94
							c46.05,7.77,86.63,47.83,101.58,102.23c16.36,59.5-3.36,114.96-51.47,144.73c-7.3,4.52-15.54,7.7-24.46,9.47
							c-265.06,52.5-412.53,9.41-493.11-144.07c-18.13-34.54-31.74-73.48-40.43-115.74c-28.64-139.21-59.13-255.22-92.73-352.64
							c-11.94,49.51-22.53,99.03-32.87,147.34c-46.34,216.59-86.36,403.64-217.08,470.08c-18.05,9.17-38.86,15.75-61.87,19.55
							C640.83,3403.29,589.49,3407.76,543.55,3407.76z M620.77,1604.2c-45.88,249.25-88.66,544.64-130.7,902.5
							c-17.29,141.77-28.32,266.8-37.18,367.26c-12.33,139.79-21.24,240.8-38.72,306.72c-0.95,3.6-3.1,6.76-6.09,8.98
							c-54.54,40.47-77.67,82.92-63.44,116.48c22.25,52.47,137.96,90,346.37,55.56c19.68-3.25,37.29-8.78,52.34-16.43
							c116.76-59.34,155.26-239.29,199.83-447.66c14.02-65.55,28.53-133.33,46.27-200.64c1.82-6.89,7.88-11.83,15-12.21
							c7.08-0.32,13.68,3.88,16.22,10.54c41.55,108.78,78.32,242.19,112.41,407.86c8.07,39.24,20.63,75.27,37.34,107.08
							c73.56,140.11,206.14,176.95,457.64,127.11c5.06-1,9.62-2.74,13.57-5.19c52.97-32.77,41.77-91.01,37.08-108.08
							c-10.38-37.73-41.43-78.7-85.09-79.45c-8.29-0.14-15.18-6.45-16.05-14.69c-18.49-174.56-48.77-349.73-78.07-519.14
							c-35.03-202.6-68.12-393.96-82.89-584.82c-11.02-142.4-57.47-275.75-134.33-385.66c-27.42-39.21-58.32-76.03-94.29-112.36
							L620.77,1604.2z M398.29,3176.48h0.05H398.29z"/>
					</g>
				</g>
				<g>
					<g>
						<path class="st0" d="M392.06,3161.28c77.84-29.16,169.79-17.19,235.1,33.71c3.07,2.36,3.64,6.76,1.28,9.82
							c-2.24,2.91-6.35,3.55-9.38,1.6c-32.05-20.78-69.08-32.78-106.41-35.01c-37.33-2.32-74.84,4.9-108.13,20.27
							C383.68,3200.41,371,3169.76,392.06,3161.28L392.06,3161.28z"/>
					</g>
				</g>
				<g>
					<g>
						<path class="st0" d="M1590.79,3144.35c-60.45-15.53-126.34-2.97-176.36,35.56c-7.21,5.36-15.78-4.84-9.19-11.03
							c50.29-47.18,123.54-67.8,191.84-56.77C1619.41,3116.23,1613.1,3148.91,1590.79,3144.35L1590.79,3144.35z"/>
					</g>
				</g>
				<g>
					<g>
						<path d="M903.2,2657.29c66.41,22.99,138.81,21.48,207.7,12.44c66.73-11.44,139.96-32.15,181.7-89.39
							c1.95-3.22,6.28-4.2,9.37-2.01c2.63,1.84,3.49,5.26,2.2,8.07c-8.03,17.58-20.39,32.91-34.37,45.99
							c-80.28,71.88-227.67,89.98-328.51,58.53c-15.78-5.44-31.17-12.11-45.15-21.39c-3.27-2.12-4.2-6.49-2.08-9.75
							C896.07,2656.65,899.98,2655.81,903.2,2657.29L903.2,2657.29z"/>
					</g>
				</g>
				<g>
					<g>
						<path class="st0" d="M717.76,3036.4c-118.14,0-232.37-20.56-298.55-77.59c-6.87-5.92-7.64-16.29-1.72-23.16
							s16.29-7.64,23.16-1.72c82.58,71.16,276.55,90.2,494.19,48.49c8.9-1.7,17.51,4.13,19.22,13.04
							c1.7,8.91-4.13,17.51-13.04,19.22C873.08,3027.7,794.58,3036.4,717.76,3036.4z"/>
					</g>
				</g>
				<g>
					<g>
						<path class="st0" d="M1230.1,3020.99c-48.34,0-96.07-3.47-139.72-9.32c-8.99-1.21-15.3-9.47-14.1-18.46
							c1.21-8.98,9.47-15.26,18.46-14.1c172.04,23.05,380.01,4.7,456.87-88.26c5.79-7,16.14-7.97,23.12-2.2
							c6.99,5.78,7.97,16.13,2.2,23.12C1509.84,2992.94,1367.53,3020.99,1230.1,3020.99z"/>
					</g>
				</g>
				<g>
					<g>
						<path class="st1" d="M629.01,1968.08c-15.7,34.04-31.41,68.08-47.11,102.11c86.46,2.84,173.26-5.09,257.78-23.53
							c-9.6-27.95-16.79-56.73-21.48-85.9c-59.68,19.11-125.1-3.14-186.96,6.9L629.01,1968.08z"/>
					</g>
				</g>
				<g>
					<g>
						<path class="st1" d="M510.08,2217.53c3.55,34.14,7.65,68.23,12.27,102.25c84.73,3.83,169.85-1.18,253.55-14.93
							c10.39-1.71,20.91-3.56,31.4-2.62c19.85,1.76,41.51,12.94,58.2,2.04c-6.65-35.29-15.6-70.14-26.77-104.27
							c-17.4-9.62-37.92,4.7-57.63,7.32c-10.66,1.42-21.43-0.71-32.08-2.21c-27.06-3.8-54.5-3.5-81.83-3.19
							c-39.79,0.45-79.59,0.9-119.38,1.36c-16.39,0.19-35.76,2.02-43.98,16.19L510.08,2217.53z"/>
					</g>
				</g>
				<g class="st2">
					<g>
						<g>
							<path class="st0" d="M1650.28,3346.13c-5.83,3.58-12.36,6.02-19.04,7.33c-282.74,56-406.38-4.16-475.39-135.57
								c-18.31-34.91-30.92-72.68-38.86-111.44c-25.85-125.73-53.74-234.31-83.98-326.71c-0.73-9.26-1.41-18.46-2.04-27.71
								c-1.84-26.4-17.21-62.74-41.39-52.84c0.62,19.35,1.17,38.76,1.62,58.16c-63.23,263.87-88.92,525.61-240.4,602.55
								c-17.9,9.1-37.36,14.72-57.11,18.01c-268.49,44.34-395.57-27.17-365.12-117.78c40.5,49.48,109.4,77.78,174.94,80.22
								c43.51,1.55,89.03-6.22,124.29-32.21c54.76-40.34,72.82-113.47,87.13-180.48c9.2-43.11,18.4-86.28,27.6-129.39
								c20.41-95.89,35.61-210.81-34.11-278.66c-40.89-39.79-103.31-51.42-158.65-38.94c-36.46,8.27-70.12,25.89-100.23,48.62
								c7.39-74.02,15.45-148.87,24.21-224.51c4.54-39.19,9.22-78.13,14.03-116.81c151.04,3.49,308.57,3.69,472.11-0.29
								c165.59-4.03,324.84-12.04,477.3-23.08c10.95,68.81,22.86,138.67,35.78,209.53c6.76,37.05,13.68,73.73,20.75,110.04
								c-18.33-4.46-111.54-25.25-163.11,28.02c-19.49,20.14-27.08,44.73-33.13,83.81c-30.94,199.61,42.7,354.52,68.46,408.62
								c10.91,22.87,26.29,52.01,57.87,73.82c39.15,27.05,81.13,26.82,104.39,27.62c61.47,2.09,135.23-7.75,171.26-52.89
								C1700.24,3288.92,1685.87,3324.12,1650.28,3346.13z"/>
						</g>
					</g>
				</g>
				<g>
					<g>
						<path class="st0" d="M1015.71,1810.89c-88.02,0-203.04-54.25-299.91-212.85c-4.73-7.74-2.29-17.85,5.46-22.58
							c7.74-4.72,17.85-2.29,22.58,5.45c102.83,168.36,234.47,216.86,319.3,190.2c69.92-21.96,108.38-89.49,102.88-180.65
							c-0.55-9.06,6.35-16.84,15.41-17.38c9.05-0.63,16.84,6.35,17.39,15.41c6.37,105.61-41.84,187.6-125.83,213.97
							C1055.81,1807.86,1036.51,1810.89,1015.71,1810.89z"/>
					</g>
				</g>
				<g>
					<g>
						<path class="st0" d="M882.13,1764.29H671.1c-6.05,0-10.95-4.9-10.95-10.95s4.9-10.95,10.95-10.95h211.03
							c6.05,0,10.95,4.9,10.95,10.95S888.18,1764.29,882.13,1764.29z"/>
					</g>
				</g>
				<g>
					<g>
						<path class="st0" d="M1362.17,1758.08h-229.51c-6.05,0-10.95-4.9-10.95-10.95s4.9-10.95,10.95-10.95h229.51
							c6.05,0,10.95,4.9,10.95,10.95S1368.22,1758.08,1362.17,1758.08z"/>
					</g>
				</g>
				<g>
					<g>
						<path class="st0" d="M663.79,1882.99c-5.87,0-10.73-4.65-10.94-10.57c-0.21-6.04,4.51-11.11,10.56-11.33l735.8-26.06
							c6.18-0.26,11.11,4.52,11.33,10.56s-4.51,11.11-10.56,11.33l-735.8,26.06C664.05,1882.99,663.92,1882.99,663.79,1882.99z"/>
					</g>
				</g>
				<g>
					<g>
						<path class="st0" d="M623.38,1980.69c-5.84,0-10.7-4.62-10.93-10.52c-0.24-6.04,4.47-11.13,10.51-11.37l798.46-31.42
							c6.07-0.17,11.13,4.47,11.37,10.51c0.24,6.04-4.47,11.13-10.51,11.37l-798.46,31.42
							C623.68,1980.69,623.53,1980.69,623.38,1980.69z"/>
					</g>
				</g>
				<g>
					<g>
						<path class="st0" d="M510.31,2221.75c-5.88,0-10.74-4.67-10.94-10.59c-0.21-6.04,4.53-11.11,10.58-11.31l938.35-31.38
							c0.13,0,0.25-0.01,0.37-0.01c5.88,0,10.74,4.67,10.94,10.59c0.21,6.04-4.53,11.11-10.58,11.31l-938.35,31.38
							C510.56,2221.74,510.43,2221.75,510.31,2221.75z"/>
					</g>
				</g>
				<g class="st2">
					<g>
						<g>
							<path d="M1334.95,1666.9c0.47,0.43,0.95,0.85,1.42,1.28c0.23,0.21,0.46,0.41,0.69,0.62c0.12,0.11,0.24,0.22,0.36,0.33
								c0.16,0.14,0.32,0.33,0.51,0.42c0.34,0.17,0.79,0.16,1.07-0.14c0.28-0.31,0.32-0.7,0.14-1.07c-0.09-0.18-0.26-0.34-0.4-0.49
								c-0.11-0.12-0.22-0.24-0.33-0.36c-0.21-0.24-0.43-0.47-0.64-0.71c-0.43-0.47-0.85-0.95-1.28-1.42
								c-0.38-0.42-1.16-0.42-1.54,0c-0.19,0.21-0.33,0.48-0.32,0.77C1334.64,1666.41,1334.73,1666.71,1334.95,1666.9
								L1334.95,1666.9z"/>
						</g>
					</g>
				</g>
				<g class="st2">
					<g>
						<g>
							<path class="st0" d="M721.26,1590.96c-32.54-8.26-68.38-2.58-96.77,15.35c51.59,63.42,78.08,151.52,52.53,229.18
								c-10.46,31.8-28.84,60.3-47.03,88.4c-19.22,29.7-38.48,59.44-60.38,87.22c-11.71,14.85-24.35,29.43-31.39,46.98
								c-9.83,24.5-7.66,51.95-5.34,78.24c6.87,77.9,14.17,157.48,46.16,228.84c3.29,7.33,7.37,15.1,14.68,18.44
								c5.51,2.51,11.87,2.02,17.9,1.44c94.09-9.01,187.44-25.8,278.77-50.14c17.75-4.73,39.98-17.71,33.88-35.04
								c-2.43-6.88-8.88-11.35-14.62-15.86c-51.81-40.67-65.87-112.03-75.49-177.18c-6.69-45.32-12.95-90.7-18.25-136.2
								c-3.77-32.38-6.98-65.72,1.68-97.14c11.88-43.13,47.12-79.04,90.02-91.72c34.38-10.17,71.46-6.04,106.49-13.66
								c39.95-8.69,74.93-32.05,108.52-55.37s67.77-47.5,107.22-58.25c39.45-10.75,86.03-5.35,114.26,24.22l-78.6-86.01
								L721.26,1590.96z"/>
						</g>
					</g>
				</g>
			</g>
			<g>
				<g>
					<g>
						<path class="st5" d="M1373.87,2291.71l-478.08,5.99c-56.58,0.73-103.51-45-104.23-101.66l-3.17-254.41
							c-0.62-49.6,34.38-91.7,81.12-101.88c6.62-1.49,13.49-2.24,20.54-2.35l478.01-5.99c56.66-0.72,103.58,45.01,104.23,101.66
							l2.56,201.5l0.68,52.91C1476.25,2244.14,1430.46,2290.99,1373.87,2291.71z"/>
					</g>
				</g>
				<g>
					<g>
						<path class="st5" d="M1373.87,2291.71l-478.08,5.99c-56.58,0.73-103.51-45-104.23-101.66l-3.17-254.41
							c-0.62-49.6,34.38-91.7,81.12-101.88c6.62-1.49,13.49-2.24,20.54-2.35l478.01-5.99c56.66-0.72,103.58,45.01,104.23,101.66
							l2.56,201.5l0.68,52.91C1476.25,2244.14,1430.46,2290.99,1373.87,2291.71z"/>
					</g>
				</g>
				<g>
					<g>
						<path class="st5" d="M1373.87,2291.71l-478.08,5.99c-56.58,0.73-103.51-45-104.23-101.66l-3.17-254.41
							c-0.62-49.6,34.38-91.7,81.12-101.88c6.62-1.49,13.49-2.24,20.54-2.35l478.01-5.99c56.66-0.72,103.58,45.01,104.23,101.66
							l2.56,201.5l0.68,52.91C1476.25,2244.14,1430.46,2290.99,1373.87,2291.71z"/>
					</g>
				</g>
				<g class="st2">
					<g>
						<path class="st0" d="M1374.58,2291.74l-478.08,5.99c-56.58,0.73-103.51-45-104.23-101.66l-3.17-254.41
							c-0.62-49.6,34.38-91.7,81.12-101.88c27.37,17.69,44.76,29.01,44.76,29.01c25.83,203.92,85.26,305.03,338.9,305.99
							c109.48,0.39,178.37-17.17,221.68-40.18l0.68,52.91C1476.96,2244.17,1431.16,2291.01,1374.58,2291.74z"/>
					</g>
				</g>
				<g>
					<g>
						<path class="st0" d="M880.04,2314.34c-27.38,0-53.27-10.56-73.02-29.83c-20.08-19.58-31.33-45.72-31.68-73.59l-3.56-283.73
							c-0.35-27.88,10.24-54.29,29.82-74.37s45.71-31.33,73.59-31.68l507.32-6.36c28-0.26,54.28,10.24,74.36,29.82
							s31.33,45.72,31.68,73.59l3.56,283.73c0.72,57.74-45.66,105.32-103.41,106.04l-507.33,6.36
							C880.94,2314.34,880.49,2314.34,880.04,2314.34z M1383.85,1847.62c-0.31,0-0.61,0-0.92,0.01L875.61,1854
							c-39.63,0.5-71.47,33.14-70.98,72.78l3.56,283.73c0.24,19.1,7.97,37.03,21.76,50.49c13.79,13.45,31.74,20.73,51.02,20.49l0,0
							l507.33-6.36c39.63-0.5,71.47-33.14,70.97-72.78l-3.56-283.73c-0.24-19.1-7.97-37.03-21.76-50.49
							C1420.38,1854.88,1402.61,1847.62,1383.85,1847.62z"/>
					</g>
				</g>
				<g>
					<g>
						<path class="st5" d="M1204.75,2292.06l-0.93,1.82l-308.05,3.84c-41.47,0.47-77.72-23.89-94.39-59.35
							c-6.11-12.84-9.6-27.15-9.75-42.31l-1.46-113.03l-0.48-37.3l-0.78-65.48l-0.5-38.59c-0.7-56.67,45.03-103.52,101.63-104.25
							l103.29-1.25c-47.5,9.57-83.21,52.01-82.62,102.06l0.92,75.52l0.81,61.92l1.42,117.1c0.76,56.53,47.68,102.29,104.25,101.63
							L1204.75,2292.06z"/>
					</g>
				</g>
				<g class="st2">
					<g>
						<path class="st0" d="M1253.55,2291.43l-0.93,1.82l-356.85,4.48c-41.47,0.47-77.72-23.89-94.39-59.35
							c-6.11-12.84-9.6-27.15-9.75-42.31l-1.46-113.03l-0.48-37.3l-0.78-65.48c20.68-3.12,48.19-0.61,63.52,29.82
							c21.25,42.15,43.03,27.75,59.2,3.67l0.81,61.92l1.42,117.1c0.76,56.53,47.68,102.29,104.25,101.63L1253.55,2291.43z"/>
					</g>
				</g>
				<g>
					<g>
						<path class="st0" d="M894.41,2314.15c-31.16,0-60.63-12.04-83.14-33.99c-22.9-22.33-35.71-52.12-36.09-83.89l-3.19-254.44
							c-0.42-31.76,11.65-61.87,33.98-84.76c22.32-22.88,52.11-35.71,83.88-36.12l103.27-1.28c8.67-0.01,15.64,6.26,16.54,14.69
							c0.9,8.43-4.77,16.16-13.08,17.84c-40.75,8.25-69.95,44.36-69.43,85.86l3.19,254.44c0.27,23,9.57,44.58,26.18,60.79
							c16.33,15.92,37.67,24.65,60.21,24.65c0.38,0,0.76,0,1.15-0.01l297.37-1.97c2.15,0,4.28-0.02,6.33,0l6.82-0.09l0,0.41
							c9.71,0.93,16.65,4.28,16.72,15.9c0.06,9.04-7.29,16.43-16.32,16.54l0,0c-0.01,0-0.06,0-0.1,0l-432.72,5.42
							C895.47,2314.15,894.94,2314.15,894.41,2314.15z M928.59,1853.32l-38.32,0.48c-23,0.3-44.59,9.6-60.79,26.21
							c-16.2,16.6-24.95,38.41-24.64,61.4l3.19,254.45c0,0,0,0,0,0.01c0.27,22.99,9.57,44.57,26.18,60.77
							c16.6,16.2,38.31,24.92,61.37,24.65l42.27-0.53c-1.45-1.28-2.87-2.6-4.26-3.96c-22.9-22.33-35.72-52.13-36.1-83.91
							l-3.19-254.43C893.89,1905.72,906.88,1875.41,928.59,1853.32z"/>
					</g>
				</g>
				<g>
					<g>
						<path class="st7" d="M1100.83,2065.18c0.06,9.41-12.65,85.45-12.65,85.45s-24.06,0.16-53.61,0.36
							c-36.91,0.25-67.09-37.76-67.41-84.91c-0.32-47.14,29.34-85.57,66.25-85.82c24.91-0.17,53.61-0.36,53.61-0.36
							S1100.73,2049.85,1100.83,2065.18z"/>
					</g>
				</g>
				<g class="st2">
					<g>
						<path class="st0" d="M1100.83,2065.18c0.06,9.41-12.65,85.45-12.65,85.45s-24.06,0.16-53.61,0.36
							c-36.91,0.25-67.09-37.76-67.41-84.91c-0.32-47.14,29.34-85.57,66.25-85.82c24.91-0.17,53.61-0.36,53.61-0.36
							S1100.73,2049.85,1100.83,2065.18z"/>
					</g>
				</g>
				<g>
					<g>
						<path class="st0" d="M1034.2,2161.95c-21.12,0-40.86-10.22-55.63-28.82c-14.25-17.94-22.19-41.73-22.35-66.96
							c-0.18-25.23,7.44-49.12,21.45-67.26c14.61-18.94,34.39-29.44,55.68-29.58l37.43-0.25c0.07,0,0.14,0,0.21,0
							c14.62,0,27.15,10.4,29.84,24.79c7.21,38.49,10.89,62.47,10.95,71.25l0,0c0.01,2.12,0.06,8.58-10.13,71.13
							c-2.39,14.65-14.91,25.35-29.77,25.45l-37.23,0.25C1034.51,2161.95,1034.36,2161.95,1034.2,2161.95z M1070.98,1990.96
							c-0.02,0-0.04,0-0.06,0l-37.43,0.25c-14.41,0.1-28.08,7.58-38.49,21.06c-11.03,14.28-17.02,33.36-16.88,53.73
							c0.14,20.37,6.39,39.36,17.61,53.49c10.52,13.26,24.18,20.54,38.49,20.54c0.1,0,0.2,0,0.29,0l37.23-0.25
							c4.15-0.03,7.64-3.01,8.3-7.08c7.28-44.66,9.85-64.26,9.85-67.47c-0.05-7.08-4.01-32.26-10.58-67.37
							C1078.55,1993.86,1075.06,1990.96,1070.98,1990.96z"/>
					</g>
				</g>
				<g>
					<g>
						
							<ellipse transform="matrix(1 -6.795208e-03 6.795208e-03 1 -14.0088 7.4382)" class="st7" cx="1087.61" cy="2065.27" rx="66.84" ry="85.36"/>
					</g>
				</g>
				<g class="st9">
					<g>
						<path class="st5" d="M1020.78,2065.75c0.02,3.55,0.21,7,0.56,10.41c6.84-37.46,33-65.45,64.49-65.67
							c34.18-0.23,62.51,32.29,66.85,74.49c1.22-6.46,1.81-13.22,1.75-20.17c-0.32-47.15-30.49-85.13-67.41-84.9
							C1050.1,1980.14,1020.46,2018.59,1020.78,2065.75z"/>
					</g>
				</g>
				<g class="st2">
					<g>
						<path class="st0" d="M1020.78,2065.75c0.32,47.1,30.49,85.13,67.41,84.9c36.93-0.29,66.56-38.69,66.24-85.84
							c-0.03-7.43-0.83-14.67-2.29-21.51c-9.52,31.86-33.6,54.5-61.91,54.69c-31.06,0.25-57.41-26.66-65.13-63.34
							C1022.26,2044.28,1020.73,2054.77,1020.78,2065.75z"/>
					</g>
				</g>
				<g>
					<g>
						<path class="st0" d="M1087.83,2161.58c-42.7,0-77.64-42.86-78-95.79c-0.37-53.11,34.23-96.55,77.13-96.84
							c0.15,0,0.29,0,0.44,0c21.13,0,40.87,10.22,55.64,28.82c14.25,17.95,22.19,41.73,22.35,66.97
							c0.37,53.1-34.23,96.54-77.13,96.84C1088.11,2161.58,1087.97,2161.58,1087.83,2161.58z M1087.38,1990.85
							c-0.09,0-0.19,0-0.28,0c-30.82,0.21-55.66,33.77-55.38,74.8c0.28,40.9,25.42,74.03,56.1,74.03c0.1,0,0.19,0,0.29,0
							c30.82-0.21,55.66-33.76,55.38-74.79l0,0c-0.14-20.37-6.39-39.37-17.61-53.5C1115.36,1998.14,1101.69,1990.85,1087.38,1990.85
							z"/>
					</g>
				</g>
				<g>
					<g>
						<path class="st0" d="M1225.23,2307.25c-0.06,0-0.12,0-0.18,0c-8.57-0.09-15.44-7.12-15.35-15.69l1.43-128.73
							c0.39-35.13,18.24-67.5,47.75-86.57c21.25-13.74,33.79-37.04,33.56-62.33l-1.65-181.46c-0.08-8.57,6.81-15.58,15.38-15.66
							c8.33-0.04,15.58,6.81,15.66,15.38l1.65,181.46c0.32,35.99-17.53,69.14-47.75,88.68c-20.74,13.41-33.29,36.15-33.56,60.84
							l-1.43,128.73C1240.65,2300.42,1233.72,2307.25,1225.23,2307.25z"/>
					</g>
				</g>
				<g>
					<g>
						<path class="st5" d="M797.01,2006.69c0,0,53.55-4.51,59.51,56.18c5.96,60.69-49.16,78.04-49.16,78.04s-192.49,46-330.53-7.25
							c-57.82-55.84-2.04-126.82-2.04-126.82S638.74,2045.13,797.01,2006.69z"/>
					</g>
				</g>
				<g class="st2">
					<g>
						<path class="st0" d="M807.34,2140.91c0,0-192.48,45.99-330.5-7.25c-25.75-24.87-28.98-52.77-24.62-76.03
							c4,7.26,9.46,14.42,16.67,21.39c138.02,53.24,330.54,7.25,330.54,7.25s39.74-12.53,48.05-53.42
							c4.49,7.59,7.78,17.43,9.02,30.04C862.47,2123.54,807.34,2140.91,807.34,2140.91z"/>
					</g>
				</g>
				<g>
					<g>
						<path class="st0" d="M638.88,2175.92c-54.79,0-114.89-6.47-167.96-26.94c-2.05-0.79-3.92-1.98-5.5-3.51
							c-54.17-52.31-26-120.2-3.54-148.78c3.94-5.01,10.41-7.3,16.65-5.85c1.61,0.38,162.18,36.91,314.6-0.12
							c0.82-0.2,1.66-0.33,2.5-0.41c24.09-1.99,71.27,10.19,77.24,70.94c5.75,58.5-37.11,87.92-60.58,95.31
							c-0.37,0.12-0.74,0.22-1.11,0.31C806.14,2158.09,729.84,2175.92,638.88,2175.92z M485.96,2119.55
							c127.6,47.43,304.69,8.33,316.93,5.53c5.97-2.08,41.62-16.47,37.29-60.61c-3.89-39.64-32.54-41.71-40.8-41.46
							c-137.83,33.07-277.17,10.12-317.18,2.18C471.63,2042.7,452.53,2084.68,485.96,2119.55z"/>
					</g>
				</g>
			</g>
			<g>
				<g>
					<g>
						<path class="st14" d="M1747.33,2588.71c-37.01,108.29-144.1,204.98-337.48,218.94c-479.77,28.69-1226.5,83.27-1245.77-169.12
							c-3.12-144.37,6.19-233.84,34.11-297.13c20.42-46.21,67.78-74.51,118.15-71.01c70.19,4.87,139.94,8.65,209.42,11.5
							c306.98,12.59,608.82,6.08,922.97-14.45c15.28-1.04,30.55-2.85,45.83-4.71C1700.35,2237.22,1802.84,2426.05,1747.33,2588.71z"
							/>
					</g>
				</g>
				<g class="st4">
					<g>
						<path class="st5" d="M1494.55,2262.73c-15.28,1.86-30.55,3.67-45.83,4.71c-314.15,20.53-615.99,27.05-922.97,14.45
							c-69.48-2.85-139.23-6.62-209.42-11.5c-50.37-3.5-97.73,24.8-118.15,71.01c-1.05,2.38-2.07,4.81-3.07,7.27
							c24.29-27.98,61.16-43.79,99.85-41.15c70.19,4.78,139.94,8.48,209.42,11.27c306.98,12.34,608.82,5.96,922.97-14.17
							c15.28-1.02,30.55-2.79,45.83-4.61c205.8-25,308.3,160.06,252.78,319.48c-6.91,19.82-16.28,39.25-28.18,57.83
							c22.52-27.47,38.93-57.56,49.55-88.62C1802.84,2426.05,1700.35,2237.22,1494.55,2262.73z"/>
					</g>
				</g>
				<g>
					<g>
						<path class="st0" d="M799.01,2849.87c-343.18,0-638.44-41.43-651.31-210.11c-0.02-0.3-0.04-0.6-0.04-0.89
							c-3.3-151.44,7-239.54,35.52-304.11c23.08-52.26,77-84.69,134.28-80.76c359.9,24.85,719.01,23.91,1130.18-2.97
							c15-0.98,30.4-2.81,44.87-4.61c97.66-12.13,183.82,22.25,236.32,94.27c56.93,78.1,65.71,188.94,22.37,282.36
							c-31.63,68.17-117.88,184.93-340.18,200.99l-52.62,3.17C1182.5,2837.85,983.78,2849.87,799.01,2849.87z M180.49,2637.7
							c7.75,96.46,145.16,154.58,408.42,172.73c234.99,16.19,530.24-1.66,767.5-16.01l52.44-3.16
							c205.32-14.83,283.96-120.42,312.54-182.03c38.4-82.77,30.9-180.58-19.12-249.18c-45.93-63.01-118.96-91.76-205.73-81.03
							c-14.95,1.86-30.88,3.75-46.77,4.79c-412.64,26.98-773.16,27.92-1134.58,2.96c-43.4-3-84.45,21.62-101.97,61.26
							C187.18,2407.01,177.38,2493.64,180.49,2637.7z"/>
					</g>
				</g>
				<g class="st2">
					<g>
						<g>
							<path class="st0" d="M1728.09,2561.52c-36.16,108.29-140.8,204.98-329.76,218.94c-468.1,28.65-1196.28,83.11-1217.18-168
								c-0.06-0.74-0.1-1.51-0.11-2.25c-2.98-143.71,6.14-232.87,33.35-296c19.95-46.21,66.23-74.51,115.45-71.01
								c48.76,3.46,97.31,6.38,145.7,8.79c21.61,1.08,33.66,25.95,20.57,43.18c-33.92,44.67-53.75,100.72-52.43,157.39
								c3.39,145.02,146.72,219.06,165.89,228.63c39.47,19.71,73.73,25.32,124.29,30.82c151.14,16.46,258.47,11.31,408.36,7.3
								c113.03-3.02,225.6-16.24,338.56-21.52c0,0,93.9-4.39,160.75-46.01c38.25-23.81,64.2-56.57,64.2-56.57
								C1715.97,2582.3,1723.23,2570.38,1728.09,2561.52z"/>
						</g>
					</g>
				</g>
				<g class="st15">
					<g>
						<g>
							<path class="st5" d="M1521.99,2338.15c-14.68,0.52-26.32,4.23-35.35,7.11c-16.08,5.13-19.85,9.4-22.3,12.14
								c-5.71,6.41-8.27,16.18-4.42,23.86c7.49,14.97,29.53,11.57,45.13,17.62c23.28,9.02,30.19,38.63,48.37,55.74
								c14.61,13.75,37.51,18.35,55.87,10.28c18.44-8.1,29.29-29.64,27.67-48.7c-1.24-14.63-9.56-24.14-19.43-35.11
								C1594.03,2354.97,1557.59,2336.88,1521.99,2338.15z"/>
						</g>
					</g>
				</g>
				<g class="st15">
					<g>
						<g>
							<path class="st5" d="M1661.33,2471.5c-18.19-5.51-48.92,15.74-50.46,43.45c-1.26,22.76,17.28,47.87,38.22,47.27
								c21.42-0.61,34.94-27.83,36.14-46.85c0.23-3.66,0.84-16.17-6.99-28.49C1675.83,2483.09,1670.16,2474.18,1661.33,2471.5z"/>
						</g>
					</g>
				</g>
			</g>
			<g>
				<g>
					<path class="st5" d="M463.72,2300.62c-22.99,50.7-19.55,109.88,8.98,157.73c45.39,76.1,40.13,141.03,14.56,163.37
						c-8.76,7.66-19.87,10.29-32.14,6.73c-7.72-2.25-14.51-7.01-19.76-13.09c-22.34-25.68-43.25-41.34-61.87-40.62
						c-12.26,0.44-22.61,9.53-26.12,21.24c-0.49,1.7-1.04,3.45-1.59,5.09c0,0.05,0,0.11-0.05,0.11
						c-14.62,46.87-35.92,79.99-60.61,100.63c-13.63,11.44-28.25,19.05-43.36,23.16c-38.38,10.35-79.88-2.19-115.52-34.05
						c0,0-0.11-0.05-0.11-0.11c-66.25-59.18-112.35-184.89-81.03-353.9c8.1-43.64,21.24-86.23,38.11-127.35
						c163.81-399.56,321.54-619.6,471.45-603.94c9.47,0.93,18.89,2.9,28.31,5.75c31.75,11.33,68,55.46,83.49,118.48
						c3.94,15.93,6.52,33.18,7.39,51.36c2.14,45.17-6.46,96.47-32.08,150.45l-177.5,367.75
						C464.11,2299.8,463.94,2300.18,463.72,2300.62z"/>
				</g>
			</g>
			<g>
				<g>
					<path class="st0" d="M214.61,2744.93c-10.05,0-19.9-1.23-29.33-3.49c-109.1-26.19-197.41-185.77-156.33-407.51
						c7.92-42.74,21.05-86.67,39.05-130.57c187.95-458.48,357.99-657.26,519.76-607.69c0.24,0.08,0.49,0.16,0.73,0.24
						c31.46,11.27,62.77,46.75,81.72,92.61c18.28,44.23,40.82,135.54-13.59,250.18l-177.94,368.75
						c-20.75,45.82-17.72,99.1,8.12,142.48c46.62,78.24,43.14,144.74,19.01,175.93c-13.62,17.61-34.26,24.48-55.25,18.37
						c-10.4-3.03-19.94-9.27-27.59-18.07c-27.05-31.05-42.19-35.16-48.84-35c-4.79,0.19-9.4,4.19-10.99,9.53
						C331.48,2707.58,270.01,2744.93,214.61,2744.93z M539.96,1621.31c-131.34,0-279.65,199.55-441.57,594.51
						c-17.14,41.82-29.63,83.56-37.14,124.09c-37.03,199.87,39.53,347.46,131.69,369.58c60.65,14.56,112.48-29.61,138.7-118.14
						c5.63-19.03,22.21-32.3,41.24-33.02c22.81-0.91,46.61,13.83,74.86,46.25c3.51,4.04,7.66,6.84,12,8.1
						c8.17,2.39,14.58,0.19,20.08-6.93c13.98-18.08,19.86-70.02-21.25-139.01c-31.35-52.61-35.01-117.24-9.79-172.91l0.59-1.27
						l177.62-368.04c48.92-103.09,29.06-184.26,12.86-223.45c-18.45-44.64-44.89-67.77-62.09-74.11
						C565.31,1623.2,552.71,1621.31,539.96,1621.31z"/>
				</g>
			</g>
			<g>
				<g>
					<path class="st0" d="M507.06,2227.22c-4.93,0-9.81-2.22-13.05-6.44c-82.36-107.44-204.21-169.06-334.3-169.06
						c-9.07,0-16.43-7.35-16.43-16.43s7.35-16.43,16.43-16.43c140.4,0,271.74,66.31,360.38,181.93c5.52,7.2,4.16,17.5-3.05,23.03
						C514.06,2226.12,510.55,2227.22,507.06,2227.22z"/>
				</g>
			</g>
			<g class="st2">
				<g>
					<g>
						<path class="st0" d="M666.46,1729.86c-0.6-0.49-1.26-1.04-1.92-1.59c-35.92-29.24-91.1-21.52-128.88,5.2
							c-37.83,26.77-62.31,68.27-85.68,108.46c-37.89,65.26-75.77,130.47-113.66,195.73c-21.52,37.01-42.98,74.02-62.91,111.91
							c-50.64,96.63-90.88,198.85-119.63,304.24c-11.28,41.34-20.91,83.93-18.61,126.69c2.3,42.76,17.63,86.45,49.49,114.81
							c16.26,14.51,36.03,24.25,57.1,29.67c-38.38,10.35-79.88-2.19-115.52-34.05c0,0-0.11-0.05-0.11-0.11
							c-53.33-67.67-85.46-185.05-57.76-336.22c8.21-44.73,21.57-88.31,38.65-130.41c155.05-382.15,304.79-603.94,447.63-618.56
							c9.47,0.93,18.89,2.9,28.31,5.75C614.72,1622.71,650.97,1666.84,666.46,1729.86z"/>
					</g>
				</g>
			</g>
			<g class="st2">
				<g>
					<g>
						<path d="M687.76,1801.91l-0.6,3.72c0.11-1.37,0.22-2.74,0.33-4.11C687.54,1801.63,687.65,1801.8,687.76,1801.91z"/>
					</g>
				</g>
			</g>
			<g class="st2">
				<g>
					<g>
						<path class="st0" d="M487.27,2621.73c-8.76,7.66-19.87,10.29-32.14,6.73c-7.72-2.25-14.51-7.01-19.76-13.09
							c-22.34-25.68-43.25-41.34-61.87-40.62c-12.26,0.44-22.61,9.53-26.12,21.24c-0.49,1.7-1.04,3.45-1.59,5.09
							c0.49-3.78,1.2-7.5,2.14-11.22l-3.07,7.34c1.92,0.71-2.19,0.82-2.14-1.2c0.55-16.92,9.25-33.34,22.94-43.25
							c13.63-9.96,31.97-13.19,48.23-8.49c20.91,6.02,36.35,23.49,49.22,41.06C471.77,2597.09,479.82,2609.19,487.27,2621.73z"/>
					</g>
				</g>
			</g>
			<g>
				<g>
					<g>
						<g>
							<g>
								<path class="st5" d="M1548.91,1277.06c-42.96,104.44-112.59,198.68-205.85,271.98c-19.02,14.94-38.95,29-59.85,42.09
									c-10.15,6.4-20.61,12.54-31.27,18.54c-32.2,17.9-65.24,32.92-98.86,45.17c-28.96,10.62-58.37,19.13-87.95,25.67
									c-35.71,7.91-71.75,12.84-107.75,14.98c-13.13,0.74-26.24,1.13-39.33,1.18c-239.6,0.37-472.65-123.35-599.07-343.78
									c-186.3-324.68-70.58-736.11,258.34-918.98c63.37-35.18,130.07-59.44,197.75-73.1c7.89-1.67,15.87-3.12,23.86-4.41
									c21.36-3.58,42.77-6.14,64.18-7.67c49.52-3.54,99.04-1.68,147.63,5.29c48.58,6.91,96.33,18.97,142.25,35.88
									c14.6,5.37,29.03,11.21,43.28,17.58c21.35,9.56,42.23,20.14,62.61,31.9c101.6,58.29,189.36,143.15,251.39,251.33
									C1617.45,877.46,1624.66,1092.89,1548.91,1277.06z"/>
							</g>
							<g>
								<path class="st0" d="M916.97,1698.44c-247.92,0-477.55-131.98-599.53-344.68c-89.98-156.81-112.96-338.71-64.72-512.19
									c48.63-174.86,163.6-320.2,323.74-409.24c62.49-34.69,129.19-59.34,198.27-73.3c7.55-1.6,15.38-3.04,23.93-4.42
									c21.29-3.57,42.94-6.16,64.34-7.69c49.16-3.51,98.96-1.73,148.01,5.3c48.59,6.91,96.57,19.01,142.61,35.97
									c14.79,5.44,29.39,11.37,43.39,17.63c21.81,9.77,42.93,20.53,62.77,31.98c104.85,60.16,192.01,147.29,252.05,251.98
									c103.86,180.98,117.97,395.28,38.73,587.93l0,0c-43.94,106.8-115.31,201.1-206.4,272.71c-19.29,15.15-39.48,29.35-60,42.2
									c-9.41,5.93-19.67,12.01-31.34,18.58c-31.81,17.68-65.16,32.92-99.12,45.29c-28.41,10.42-58.08,19.08-88.17,25.73
									c-35.21,7.8-71.55,12.85-108.02,15.01c-13.08,0.73-26.34,1.13-39.43,1.18C917.71,1698.44,917.32,1698.44,916.97,1698.44z
									 M912.13,348.75c-16.33,0-32.64,0.58-48.88,1.74c-21.28,1.53-42.82,4.11-64.01,7.66c-8.5,1.36-16.27,2.8-23.78,4.39
									c-68.73,13.88-135.09,38.42-197.26,72.92c-159.3,88.57-273.67,233.14-322.03,407.08
									c-47.98,172.55-25.12,353.48,64.38,509.46c121.34,211.57,349.8,342.88,596.44,342.88c0.36,0,0.72,0,1.08,0
									c13.03-0.05,26.23-0.44,39.24-1.17c36.27-2.16,72.43-7.18,107.46-14.94c29.94-6.62,59.45-15.23,87.72-25.6
									c33.79-12.31,66.97-27.47,98.61-45.05c11.62-6.54,21.82-12.59,31.18-18.49c20.43-12.79,40.51-26.92,59.7-41.98
									c90.61-71.23,161.6-165.03,205.3-271.26l1.65,0.68l-1.65-0.68c78.82-191.63,64.78-404.78-38.53-584.8
									c-59.72-104.14-146.43-190.82-250.74-250.67c-19.74-11.4-40.75-22.1-62.45-31.82c-13.93-6.23-28.45-12.13-43.17-17.54
									c-45.81-16.87-93.54-28.91-141.88-35.78C977.9,351.1,944.98,348.75,912.13,348.75z"/>
							</g>
						</g>
						<g class="st2">
							<g>
								<path class="st0" d="M339.49,1330.63c125.31,220.15,356.84,343.45,595.04,342.65c13.02-0.05,26.04-0.46,39.08-1.23
									c35.8-2.18,71.63-7.19,107.15-15.13c29.41-6.6,58.69-15.14,87.47-25.79c33.47-12.29,66.32-27.36,98.39-45.3
									c10.57-6.04,20.99-12.18,31.11-18.57c20.8-13.13,40.61-27.26,59.56-42.21c92.83-73.43,162.23-167.71,205.11-272.2
									c23.57-57.38,39.14-117.83,46.18-179.46c-43.21,98.77-110.44,187.79-199.01,257.85c-18.92,15-38.76,29.08-59.56,42.21
									c-10.08,6.41-20.5,12.54-31.11,18.57c-32.07,17.95-64.92,33.02-98.35,45.32c-28.83,10.64-58.06,19.19-87.47,25.79
									c-35.52,7.94-71.39,12.94-107.15,15.13c-13.08,0.75-26.1,1.16-39.12,1.22c-238.21,0.8-469.69-122.49-595.04-342.65
									c-73.16-128.41-99.13-270.5-83.55-406.65C226.12,917.49,230.46,1139.27,339.49,1330.63z"/>
							</g>
						</g>
						<g>
							<g>
								<path class="st0" d="M917,1710.39c-252.22,0-485.82-134.28-609.92-350.68c-91.58-159.6-114.97-344.75-65.87-521.33
									C290.7,660.41,407.7,512.51,570.65,421.91c63.57-35.29,131.43-60.37,201.7-74.56c7.64-1.62,15.66-3.1,24.4-4.5
									c21.58-3.62,43.61-6.25,65.38-7.81c50-3.58,100.66-1.76,150.56,5.39c49.41,7.03,98.21,19.34,145.04,36.58
									c15.03,5.53,29.89,11.56,44.14,17.93c22.19,9.94,43.68,20.89,63.87,32.55c106.66,61.2,195.35,149.86,256.44,256.39
									c105.7,184.21,120.07,402.32,39.41,598.42l0,0c-44.72,108.7-117.35,204.68-210.06,277.55
									c-19.62,15.41-40.16,29.86-61.04,42.93c-9.55,6.02-19.97,12.2-31.82,18.87c-32.42,18.02-66.34,33.52-100.89,46.1
									c-28.89,10.6-59.07,19.41-89.68,26.17c-35.82,7.93-72.79,13.07-109.89,15.28c-13.32,0.75-26.8,1.15-40.1,1.2
									C917.75,1710.39,917.35,1710.39,917,1710.39z M912.12,360.7c-16.04,0-32.07,0.57-48.03,1.71
									c-20.9,1.5-42.06,4.03-62.89,7.52c-8.39,1.35-15.97,2.75-23.29,4.3c-67.64,13.66-132.85,37.77-193.94,71.68
									c-156.47,87-268.82,229-316.32,399.83c-47.12,169.45-24.66,347.13,63.23,500.31c119.22,207.87,343.72,336.88,586.07,336.88
									c0.36,0,0.71,0,1.07,0c12.79-0.05,25.78-0.43,38.58-1.15c35.61-2.11,71.14-7.05,105.55-14.67
									c29.42-6.5,58.42-14.96,86.19-25.15c33.23-12.1,65.83-27,96.91-44.28c11.39-6.41,21.43-12.36,30.62-18.15
									c20.1-12.59,39.83-26.46,58.69-41.27c88.98-69.95,158.71-162.08,201.63-266.41c77.41-188.19,63.61-397.51-37.84-574.31
									c-58.67-102.31-143.85-187.46-246.32-246.25c-19.41-11.21-40.06-21.73-61.39-31.28c-13.68-6.11-27.94-11.91-42.41-17.23
									c-45.02-16.58-91.93-28.41-139.44-35.17C976.77,363,944.41,360.7,912.12,360.7z M1548.91,1277.06h0.05H1548.91z"/>
							</g>
						</g>
						<g>
							<g>
								<path class="st0" d="M917.01,1713.09c-253.19,0-487.68-134.8-612.27-352.03c-91.94-160.23-115.42-346.11-66.13-523.4
									C288.3,658.99,405.75,510.5,569.34,419.55c63.82-35.42,131.94-60.6,202.49-74.85c7.65-1.62,15.72-3.11,24.51-4.52
									c21.65-3.63,43.76-6.27,65.61-7.84c50.2-3.58,101.05-1.77,151.13,5.41c49.59,7.06,98.59,19.41,145.6,36.72
									c15.09,5.55,30,11.61,44.31,18c22.28,9.98,43.85,20.97,64.12,32.67c107.07,61.43,196.1,150.44,257.43,257.38
									c106.12,184.94,120.55,403.91,39.57,600.78l0,0c-44.89,109.13-117.82,205.49-210.89,278.65
									c-19.7,15.47-40.32,29.97-61.28,43.1c-9.58,6.04-20.04,12.24-31.93,18.93c-32.55,18.1-66.61,33.65-101.29,46.29
									c-28.99,10.64-59.3,19.48-90.02,26.27c-35.96,7.96-73.08,13.12-110.32,15.33c-13.37,0.75-26.89,1.15-40.24,1.21
									C917.76,1713.09,917.36,1713.09,917.01,1713.09z M912.12,363.4c-15.98,0-31.94,0.57-47.83,1.7
									c-20.82,1.49-41.89,4.02-62.64,7.49c-8.36,1.34-15.9,2.74-23.17,4.28c-67.39,13.61-132.33,37.62-193.19,71.4
									c-155.83,86.65-267.72,228.06-315.03,398.2c-46.92,168.75-24.56,345.7,62.97,498.25
									c118.74,207.04,342.34,335.53,583.74,335.53c0.35,0,0.7,0,1.06,0c12.74-0.05,25.68-0.43,38.43-1.15
									c35.46-2.11,70.84-7.02,105.12-14.61c29.31-6.47,58.19-14.9,85.84-25.05c33.1-12.06,65.57-26.89,96.54-44.1
									c11.33-6.38,21.33-12.31,30.49-18.08c20.02-12.54,39.68-26.36,58.46-41.11c88.62-69.67,158.06-161.41,200.81-265.31
									c77.08-187.41,63.35-395.87-37.69-571.94c-58.43-101.89-143.26-186.7-245.32-245.26c-19.34-11.17-39.9-21.64-61.15-31.16
									c-13.62-6.09-27.83-11.86-42.24-17.16c-44.84-16.52-91.57-28.3-138.89-35.03C976.52,365.69,944.28,363.4,912.12,363.4z
									 M1548.91,1277.06h0.05H1548.91z"/>
							</g>
						</g>
						<g>
							<g>
								<path class="st0" d="M1462.75,1427.47c-367.35,317.66-931.72,180.52-1014.16-290.31
									C392.5,816.83,667.26,516.11,982.72,483.42c229.59-23.79,464.53,52,600.23,393.21c0,0,36.43,160.14,4.12,272.87
									c-32.3,112.73-83.04,216.96-83.04,216.96L1462.75,1427.47z"/>
							</g>
						</g>
						<g>
							<g>
								<path class="st16" d="M448.61,1137.16c82.43,470.82,646.82,607.95,1014.15,290.32l8.36-12.38
									c-429.75,124.58-896.13-87.02-988.46-561.55C445.47,941.33,431.31,1038.31,448.61,1137.16z"/>
							</g>
						</g>
						<g>
							<g>
								<path class="st0" d="M1011.65,1685.02c-141.2,0-277.74-40.2-388.92-116.6c-140.07-96.27-230.43-240.28-261.3-416.47
									c-28.34-161.83,15.08-329.09,122.29-470.97c119.08-157.6,303.21-263.41,492.55-283.03
									c105.22-10.91,202.01-2.22,287.71,25.82c1.06,0.35,2.09,0.81,3.07,1.36c107.11,61.45,196.14,150.46,257.47,257.4
									c106.12,184.94,120.55,403.91,39.57,600.78l0,0c-44.89,109.13-117.82,205.49-210.89,278.65
									c-19.7,15.47-40.32,29.97-61.28,43.1c-9.58,6.04-20.04,12.24-31.93,18.93c-32.55,18.1-66.61,33.65-101.29,46.29
									c-0.81,0.29-1.63,0.52-2.47,0.69C1108.05,1680.38,1059.57,1685.02,1011.65,1685.02z M1062.25,426.23
									c-26.83,0-54.38,1.46-82.59,4.38c-180.44,18.7-356.05,119.69-469.74,270.16c-101.65,134.53-142.9,292.75-116.14,445.5
									c29.31,167.29,114.92,303.91,247.55,395.07c141.36,97.15,326.22,132.71,507.33,97.63c32.65-11.96,64.7-26.65,95.29-43.65
									c11.33-6.38,21.33-12.31,30.49-18.08c20.02-12.54,39.68-26.36,58.46-41.11c88.62-69.67,158.06-161.41,200.81-265.31
									c77.08-187.41,63.35-395.87-37.69-571.94c-58.15-101.41-142.45-185.89-243.86-244.41
									C1194.11,435.67,1130.49,426.23,1062.25,426.23z M1548.91,1277.06h0.05H1548.91z"/>
							</g>
						</g>
						<g>
							<g>
								<path class="st0" d="M1011.95,1616.07c-72.19,0-144.01-11.91-212.63-36.36c-196.5-70-330.24-230.28-366.91-439.71
									c-25.3-144.48,13.46-293.78,109.15-420.41c106.24-140.6,270.53-234.99,439.47-252.5
									c291.12-30.17,498.72,105.59,617.19,403.48c0.31,0.79,0.56,1.6,0.75,2.43c1.52,6.71,36.98,165.58,3.9,281.04
									c-32.33,112.81-81.97,215.31-84.07,219.62c-0.34,0.7-0.73,1.37-1.16,2.01l-41.28,61.01c-0.81,1.19-1.77,2.28-2.86,3.22
									C1340.37,1555.01,1175.29,1616.07,1011.95,1616.07z M1057.11,495.89c-23.58,0-47.82,1.29-72.7,3.87
									c-160.05,16.59-315.8,106.17-416.65,239.63c-90.13,119.28-126.71,259.54-103,394.94
									c34.58,197.46,160.53,348.51,345.58,414.43c212.12,75.56,457.15,24.85,640.02-132.31l39.38-58.2
									c5.28-11.03,51.69-109.16,81.53-213.27c29.32-102.3-0.91-248.79-4.09-263.52C1464.94,625.31,1293.55,495.89,1057.11,495.89z
									 M1462.75,1427.47h0.05H1462.75z"/>
							</g>
						</g>
						<g class="st11">
							<g>
								
									<ellipse transform="matrix(0.1811 -0.9835 0.9835 0.1811 -418.5185 1401.6868)" class="st5" cx="632.38" cy="952.14" rx="105.1" ry="91.49"/>
							</g>
						</g>
						<g class="st11">
							<g>
								
									<ellipse transform="matrix(0.2717 -0.9624 0.9624 0.2717 -660.7668 1407.3468)" class="st5" cx="599.41" cy="1140.22" rx="43.41" ry="37.77"/>
							</g>
						</g>
						<g class="st11">
							<g>
								<path class="st5" d="M1096.91,556.63c287.35,19.98,458.98,305.13,418.21,593.74
									C1444.3,874.16,1294.41,670.45,1096.91,556.63z"/>
							</g>
						</g>
					</g>
					<g>
						<g>
							<g>
								<path class="st5" d="M166.22,1140.27c6.8,132.94,92.11,240.61,190.57,240.47s172.78-108.03,165.98-240.96
									c-0.03-0.83-0.1-1.72-0.17-2.55c-7.72-131.76-92.63-238.06-190.41-237.92c-76.07,0.1-137.72,64.52-158.71,155.09
									C167.33,1081.06,164.68,1110.04,166.22,1140.27z"/>
							</g>
						</g>
						<g class="st2">
							<g>
								<path class="st0" d="M166.22,1140.27c6.8,132.94,92.11,240.61,190.57,240.47s172.78-108.03,165.98-240.96
									c-0.03-0.83-0.1-1.72-0.17-2.55c-10.13,13.66-26.29,27.11-49.35,22.62c-40.39-7.89-116.51-93.28-116.51-93.28
									s-79.44-5.8-183.26-12.18C167.33,1081.06,164.68,1110.04,166.22,1140.27z"/>
							</g>
						</g>
						<g>
							<g>
								<path class="st0" d="M356.61,1397.15c-106.85,0-199.58-114.8-206.81-256.04c-4.17-81.61,20.23-156.65,66.95-205.9
									c32.43-34.17,72.33-52.27,115.4-52.33c0.07,0,0.15,0,0.21,0c106.85,0,199.58,114.79,206.81,256.04
									c4.17,81.61-20.23,156.65-66.95,205.9c-32.43,34.17-72.33,52.27-115.41,52.33C356.75,1397.15,356.67,1397.15,356.61,1397.15
									z M182.61,1139.43c6.34,124.04,84.38,224.87,174,224.87c0.06,0,0.11,0,0.17,0c33.86-0.05,65.54-14.6,91.62-42.09
									c39.97-42.12,61.64-110.01,57.98-181.61c-6.34-124.04-84.38-224.87-174-224.87c-0.06,0-0.11,0-0.17,0
									c-33.85,0.05-65.53,14.6-91.62,42.09C200.62,999.94,178.95,1067.84,182.61,1139.43L182.61,1139.43z"/>
							</g>
						</g>
						<g>
							<g>
								
									<ellipse transform="matrix(0.9892 -0.1465 0.1465 0.9892 -167.2808 54.7912)" class="st5" cx="288.26" cy="1162.82" rx="144.85" ry="191.61"/>
							</g>
							<g>
								<path class="st0" d="M300.4,1355.53c-13.05,0-26.3-2.31-39.52-6.94c-44.63-15.65-82.35-55.8-103.48-110.16l0,0
									c-37.9-97.53-10.2-210.84,61.76-252.6c29.92-17.37,63.28-20.4,96.46-8.77c44.63,15.65,82.35,55.8,103.48,110.17
									c37.91,97.53,10.2,210.84-61.75,252.6C339.35,1350.27,320.1,1355.53,300.4,1355.53z M160.86,1237.08
									c20.74,53.35,57.64,92.72,101.25,108.01c32.13,11.26,64.42,8.33,93.38-8.47c70.44-40.88,97.43-152.15,60.16-248.05
									c-20.74-53.36-57.64-92.72-101.25-108.01c-32.13-11.27-64.41-8.33-93.37,8.47C150.59,1029.91,123.59,1141.18,160.86,1237.08
									L160.86,1237.08z"/>
							</g>
						</g>
						<g class="st2">
							<g>
								<path class="st0" d="M415.66,1235.13c6.38-33.93,4.26-69.8-4.54-103.08c-20.5,76.11-81.63,110.27-141.87,76.51
									c-38.93-21.8-68.52-67-82.1-118.5c-1.32,4.79-2.44,9.81-3.41,14.96c-16.2,86.42,22.59,185.6,86.64,221.53
									C334.44,1362.47,399.47,1321.5,415.66,1235.13z"/>
							</g>
						</g>
						<g>
							<g>
								<path class="st0" d="M298.67,1370.52c-0.24,0-0.47,0-0.71,0c-82.76-0.53-155.33-95.9-161.76-212.6
									c-3.81-69.21,16.46-134.19,54.21-173.83c24.22-25.43,53.74-38.85,85.41-38.85c0.24,0,0.48,0,0.72,0
									c82.76,0.52,155.32,95.9,161.75,212.6c3.81,69.2-16.46,134.19-54.21,173.83C359.87,1357.09,330.35,1370.52,298.67,1370.52z
									 M275.84,978.09c-22.48,0-43.78,9.9-61.64,28.66c-31.63,33.2-48.53,89.04-45.2,149.37
									c5.49,99.69,63.43,181.13,129.17,181.56c0.16,0,0.32,0,0.48,0c22.48,0,43.78-9.9,61.65-28.66
									c31.63-33.2,48.52-89.04,45.2-149.37c-5.49-99.69-63.43-181.14-129.16-181.55C276.17,978.09,276.01,978.09,275.84,978.09z"
									/>
							</g>
						</g>
					</g>
				</g>
				<g>
					<g>
						<g>
							<g>
								<path class="st17" d="M1452.28,439.03c-11.5-9.09-24.97-15.49-39.31-18.34c-338.24-67.94-702.88,2.19-973.06,184.07
									c-10.07,6.79-18.18,16.1-23.49,26.99c-12.04,24.58-22.5,52.07-30.66,83.99c-8.7,34.33-4.11,70.85,12.7,102
									c39.42,72.93,86.61,137.2,142.35,192.06c17.19,16.92,38.49,29.24,62.03,34.49c207.28,46.43,479.61-52.45,547.66-211.88
									c5.31-12.48,21.85-15.28,30.93-5.15C1528.06,1213.68,1916.56,805.96,1452.28,439.03z M1188.99,712.72
									c-14.56-14.34-38.16-13.47-51.19,2.24c-105.5,127.07-228.91,214.07-404.71,183.96c-34-5.8-65.15-23.32-87.05-49.93
									c-41.17-49.93-67.56-102.44-81.14-156.97c-6.57-26.39,5.53-53.98,29.62-66.52c255.84-132.82,525.71-179.09,812.21-122.75
									c14.34,2.79,27.7,9.47,38.43,19.38C1805.64,855.89,1420.64,940.7,1188.99,712.72z"/>
							</g>
						</g>
						<g class="st4">
							<g>
								<g>
									<path class="st5" d="M1166.19,732.14c10.12,3.07,15.59,9.17,28.55,21.04c14.65,13.41,31,24.88,45.93,37.98
										c22.22,19.5,84.58,60.96,164.86,72.89c39.43,5.86,107.89,16.03,147.82-25.32c12.08-12.5,18.4-26.46,21.9-36.96
										c-95.45,46.24-157.04,36.82-188.78,26.86c-62.98-19.77-175.94-94.69-197.48-115.91c-14.56-14.34-38.16-13.47-51.19,2.24
										c-3.58,4.31-7.19,8.57-10.81,12.79c-3.57,5.28-7.15,10.56-10.72,15.84C1128.04,736.01,1147.3,726.41,1166.19,732.14z"/>
								</g>
							</g>
							<g>
								<g>
									<path class="st5" d="M567.15,649.23c-24.09,12.54-36.19,40.13-29.62,66.52c13.58,54.53,39.97,107.04,81.14,156.97
										c21.9,26.61,53.05,44.13,87.05,49.93c137.75,23.59,243.32-24.72,333.32-107.86c-83.98,68.29-181.92,105.38-305.95,84.14
										c-34-5.8-65.15-23.32-87.05-49.93c-41.17-49.93-67.56-102.44-81.14-156.97c-3.93-15.78-1.14-31.97,6.86-45.14
										C570.22,647.67,568.68,648.43,567.15,649.23z"/>
								</g>
							</g>
							<g>
								<g>
									<path class="st5" d="M1452.28,439.03c-11.5-9.09-24.97-15.49-39.31-18.34c-338.24-67.94-702.88,2.19-973.06,184.07
										c-6.94,4.68-12.86,10.62-17.66,17.38c269.18-177.1,629.12-244.86,963.35-177.72c14.34,2.85,27.81,9.25,39.31,18.34
										c239.12,188.98,252.02,388.77,160.95,485.33C1704.78,864.28,1713.18,645.22,1452.28,439.03z"/>
								</g>
							</g>
							<g>
								<g>
									<path class="st5" d="M1123.13,856.13c-13.39,31.38-34.79,60.36-61.95,86.4c36.04-28.32,64.89-61.02,83.19-97.13
										C1136.05,843.53,1126.85,847.38,1123.13,856.13z"/>
								</g>
							</g>
						</g>
						<g class="st2">
							<g>
								<g>
									<path class="st0" d="M1206.82,766.51c-8.61-9.59-24.28-6.94-29.31,4.87c-64.49,150.88-322.53,244.46-518.94,200.52
										c-22.31-4.97-42.49-16.63-58.78-32.64c-52.81-51.92-97.53-112.75-134.89-181.77c-15.93-29.48-20.28-64.04-12.04-96.53
										c7.73-30.21,17.64-56.22,29.05-79.48c0.92-1.89,2.02-3.66,3.12-5.44c-15.29,9.26-30.37,18.79-45.12,28.72
										c-10.07,6.79-18.18,16.1-23.49,26.99c-12.04,24.58-22.5,52.07-30.66,83.99c-8.7,34.33-4.11,70.85,12.7,102
										c39.42,72.93,86.61,137.2,142.35,192.06c17.19,16.92,38.49,29.24,62.03,34.49c207.28,46.43,479.61-52.45,547.66-211.88
										c5.31-12.48,21.85-15.28,30.93-5.15c243.88,271.88,508.48,150.63,482.22-72.93
										C1641.62,927.32,1416.19,999.63,1206.82,766.51z"/>
								</g>
							</g>
							<g>
								<g>
									<path d="M1456.72,477.74c-10.17-9.38-22.83-15.7-36.42-18.34c-271.48-53.32-527.19-9.53-769.62,116.17
										c-14.45,7.51-24.33,20.74-28.07,35.77c247.49-121.86,508.08-162.86,784.12-108.58c14.34,2.79,27.7,9.47,38.43,19.38
										c90.82,84.09,134.28,152.36,144.83,203.82C1611.69,676.31,1580.96,592.63,1456.72,477.74z"/>
								</g>
							</g>
						</g>
						<g>
							<g>
								<path class="st0" d="M713.24,1072.47c-38.71,0-77.08-3.9-113.98-12.17c-25.89-5.8-50.08-19.22-69.98-38.8
									c-55.87-54.99-104.74-120.93-145.26-195.99c-18.91-35.03-23.94-75.45-14.16-113.82l0,0c7.92-31.04,18.31-59.55,31.77-87.15
									c6.56-13.45,16.62-24.99,29.08-33.39c275.46-185.43,643.89-255.18,985.51-186.58c16.63,3.34,32.61,10.79,46.23,21.56
									c160.66,126.98,240.86,279.5,214.53,407.98c-16.04,78.26-70.94,137.25-146.86,157.81c-19.82,5.37-40.36,8-61.35,8
									c-97.98,0.01-205.99-57.37-299.57-161.7c-0.19-0.21-0.82-0.85-1.92-0.66c-1.21,0.2-1.57,1.04-1.68,1.32
									C1107.46,975.04,906.64,1072.47,713.24,1072.47z M401.7,719.8L401.7,719.8c-7.74,30.35-3.75,62.35,11.23,90.1
									c38.96,72.18,85.87,135.49,139.4,188.18c15.51,15.27,34.23,25.7,54.12,30.16c33.79,7.57,69.22,11.14,105.04,11.14
									c180.25,0.01,371.27-90.15,423.9-213.41c4.73-11.08,14.65-18.87,26.54-20.83c11.82-1.96,23.71,2.21,31.73,11.14
									c105.16,117.24,227.74,171.03,327.88,143.92c63.69-17.25,109.77-66.86,123.26-132.7
									c23.79-116.06-51.99-256.48-202.71-375.61c-9.57-7.57-20.75-12.8-32.32-15.12c-333.23-66.92-692.36,0.98-960.69,181.62
									c-7.68,5.17-13.87,12.27-17.91,20.54C418.69,664.5,409.05,690.95,401.7,719.8z"/>
							</g>
						</g>
						<g class="st18">
							<g>
								<path class="st19" d="M594.52,625.5c255.85-132.81,525.72-179.07,812.2-122.78c14.35,2.82,27.73,9.49,38.47,19.42
									c360.47,333.74-24.56,418.56-256.2,190.58c-14.57-14.34-38.15-13.5-51.21,2.23c-105.48,127.06-228.9,214.05-404.71,183.98
									c-33.98-5.81-65.12-23.32-87.04-49.92C604.86,799.03,578.5,746.58,564.89,692C558.32,665.64,570.41,638.02,594.52,625.5z"/>
							</g>
						</g>
						<g>
							<g>
								<path class="st0" d="M801.67,921.4c-23.19,0-46.95-2.1-71.37-6.27c-38.34-6.56-72.77-26.33-96.94-55.67
									c-41.53-50.41-69.92-105.41-84.4-163.49c-8.49-34.05,7.13-69.02,38-85.04l0,0c265.21-137.68,542.09-179.5,822.94-124.31
									c17.51,3.44,33.57,11.56,46.45,23.49c144.23,133.54,161.13,217.81,149.91,264.99c-8.54,35.89-36.42,62.32-78.52,74.43
									c-85.82,24.69-233.71-10.37-350.27-125.08c-3.84-3.78-8.89-5.73-14.15-5.45c-5.07,0.26-9.65,2.55-12.9,6.46
									c-60.43,72.8-119.68,123.51-181.12,155.04C915.99,907.84,860.66,921.4,801.67,921.4z M602.09,640.08L602.09,640.08
									c-17.31,8.99-26.05,28.7-21.26,47.94c13.29,53.3,39.49,103.95,77.88,150.55c19.17,23.26,46.56,38.95,77.13,44.18
									c146.12,24.99,266.2-29.99,389.31-178.28c9.06-10.91,22.37-17.57,36.52-18.29c14.41-0.73,28.53,4.69,38.84,14.84
									c106.44,104.75,243.36,138.43,318.15,116.92c21.37-6.14,48.36-19.88,55.63-50.46c12.81-53.86-38.32-138.89-140.27-233.29
									c-8.41-7.78-18.95-13.1-30.47-15.36C1130.2,465.13,860.52,505.94,602.09,640.08z"/>
							</g>
						</g>
					</g>
					<g>
						<g>
							<g>
								<path class="st1" d="M894.38,1363.62c4.85,10.83,8.34,19.72,8.74,31.79c0.34,10.33,0.15,20.91-0.94,31.19
									c-1.13,10.72-3.1,21.36-5.32,31.9c-1.09,5.2-2.11,10.18-4,15.17c-2.13,5.64-4.52,10.91-5.86,16.8
									c-0.12,0.52,0.57,1.03,0.97,0.56c6.97-8.27,10.97-19.75,15.19-29.63c5.02-11.76,8.35-24.04,10.44-36.64
									c3.73-22.46,6.09-49.65-9.84-68.37C899.02,1350.83,891.82,1357.91,894.38,1363.62L894.38,1363.62z"/>
							</g>
						</g>
					</g>
					<g>
						<g>
							<g>
								<path class="st14" d="M1108.51,1375.96c-204.58,48.39-327.84-64.07-460.7-286.25c-57.21-95.67-106.16-196.05-147.56-299.55
									L196.93,31.85L68.27,83.86l388.72,911.58c159.69,371.38,357.51,568.89,665.21,510.08
									C1134.52,1456.71,1127.24,1414.28,1108.51,1375.96z"/>
							</g>
						</g>
						<g class="st4">
							<g>
								<path class="st5" d="M1108.51,1375.96c-204.58,48.39-327.84-64.07-460.7-286.25c-57.21-95.67-106.16-196.05-147.56-299.55
									L196.93,31.85l-35.06,14.17L465.1,804.09c41.4,103.5,90.35,203.88,147.56,299.55c132.86,222.19,256.13,334.65,460.7,286.25
									c17.62,36.06,25.1,75.77,15.65,121c10.92-1.47,21.97-3.23,33.18-5.37C1134.52,1456.71,1127.24,1414.28,1108.51,1375.96z"/>
							</g>
						</g>
						<g class="st2">
							<g>
								<path class="st0" d="M491.09,951.79L113.24,65.69L68.27,83.86l388.72,911.58c159.69,371.38,357.51,568.89,665.21,510.08
									c3.39-13.45,5.25-26.4,5.84-38.93C836.39,1508.28,645.84,1311.67,491.09,951.79z"/>
							</g>
						</g>
						<g>
							<g>
								<path class="st1" d="M899.01,1357.55c16.09,42.95,0.87,90.61-14.33,133.88c21.12,16.41,49.56,18.83,76.25,20.6
									c47.32,3.15,95.09,6.28,141.95-1c2.62-0.41,5.4-0.92,7.35-2.72c1.6-1.48,2.41-3.6,3.12-5.66
									c14.18-40.98,11.5-87.52-7.31-126.59c-69.23,13.87-142.35,7.74-208.3-17.47L899.01,1357.55z"/>
							</g>
						</g>
						<g class="st2">
							<g>
								<g>
									<path d="M899.01,1357.55l-1.26,1.03c0.6,0.23,1.21,0.43,1.82,0.66C899.37,1358.68,899.22,1358.11,899.01,1357.55z"/>
								</g>
							</g>
							<g>
								<g>
									<path d="M1116.23,1448.28c-0.71,2.06-1.52,4.19-3.12,5.66c-1.95,1.8-4.73,2.31-7.35,2.72c-46.86,7.28-94.63,4.15-141.95,1
										c-21.99-1.46-45.16-3.38-64.45-13.18c-3.99,15.93-9.31,31.71-14.66,46.95c21.12,16.41,49.56,18.82,76.25,20.6
										c47.32,3.15,95.09,6.28,141.95-1c2.62-0.41,5.4-0.92,7.35-2.72c1.6-1.48,2.41-3.6,3.12-5.66
										c8.05-23.24,10.65-48.28,7.98-72.72C1119.98,1436.13,1118.31,1442.27,1116.23,1448.28z"/>
								</g>
							</g>
							<g>
								<g>
									<path d="M907.55,1362.13c-2.67-0.94-5.33-1.89-7.98-2.89c2.4,6.76,4.03,13.63,5.03,20.58
										C905.83,1373.93,906.84,1368.02,907.55,1362.13z"/>
								</g>
							</g>
						</g>
						<g>
							<g>
								<path class="st0" d="M1017.96,1532.3c-109.32,0-206.31-35.66-294.28-107.79c-104.01-85.27-196.18-223.5-281.77-422.58
									L53.16,90.31c-1.73-4.06-1.76-8.64-0.07-12.71c1.68-4.07,4.94-7.3,9.02-8.96l128.66-52.01c4.06-1.64,8.58-1.59,12.6,0.12
									c4.02,1.71,7.19,4.95,8.81,9.01l303.32,758.3c42.01,105.01,91.26,205.01,146.41,297.22
									c105.64,176.66,206.45,289.16,358.52,289.16c26.46,0,54.45-3.4,84.31-10.46c7.43-1.76,15.16,1.87,18.54,8.77
									c22.36,45.76,27.22,91.81,14.86,140.8c-1.56,6.19-6.57,10.92-12.85,12.11C1088.21,1528.75,1052.47,1532.3,1017.96,1532.3z
									 M89.94,92.82L472.1,989c169.27,393.68,365.94,549.13,636.46,502.32c6.51-33.24,3.37-64.99-9.54-96.44
									c-212.24,43.77-339.92-87.06-465.31-296.75c-56.03-93.7-106.06-195.27-148.71-301.88L187.8,53.26L89.94,92.82z"/>
							</g>
						</g>
						<g>
							<g>
								<path class="st1" d="M436.5,978.57c28.29-37.15,87.41-58.44,133.72-51.23l-95.65-214.69
									c-54.42-3.11-106.72,15.75-135.27,49.41L436.5,978.57z"/>
							</g>
						</g>
						<g class="st2">
							<g>
								<path class="st0" d="M522.69,885.95c-9.8,1.67-18.86,3.91-27.14,6.47c-24.28,7.49-50.33-4.5-61.23-27.45
									c-20.58-43.34-41.15-86.68-61.73-130.02c-13,7.43-24.32,16.55-33.3,27.13l97.2,216.51c28.29-37.15,87.41-58.44,133.72-51.23
									l-19.7-44.21C541.77,883.46,532.5,884.28,522.69,885.95z"/>
							</g>
						</g>
						<g>
							<g>
								<path class="st1" d="M148.37,293.85c30.45-38.15,92.84-59.05,141.19-50.49L194.09,17.08
									C137.15,12.61,81.96,31.14,51.31,65.63L148.37,293.85z"/>
							</g>
						</g>
						<g class="st2">
							<g>
								<path class="st0" d="M152.38,181.77L90.47,36.2c-15.3,7.78-28.68,17.65-39.16,29.44l97.06,228.21
									c30.45-38.15,92.84-59.05,141.19-50.49c-6.85-13.62-13.7-27.25-20.55-40.87c-10.88-1.56-29.32-2.8-51.1,2.74
									c-3.01,0.77-5.91,1.62-8.69,2.53C186.45,215.25,161.77,203.84,152.38,181.77z"/>
							</g>
						</g>
						<g>
							<g>
								<path class="st0" d="M436.5,995c-0.62,0-1.25-0.04-1.88-0.11c-5.76-0.66-10.74-4.31-13.11-9.59l-97.2-216.51
									c-2.59-5.77-1.64-12.52,2.46-17.35c31.79-37.47,88.75-58.6,148.74-55.19c6.14,0.35,11.56,4.1,14.07,9.71l95.65,214.69
									c2.45,5.5,1.69,11.89-1.96,16.67c-3.66,4.78-9.59,7.17-15.58,6.25c-41.29-6.45-94.34,13.72-118.13,44.95
									C446.44,992.63,441.59,995,436.5,995z M358.78,765.36l82.72,184.25c27.2-23.37,65.69-38.31,102.85-39.97l-80.59-180.89
									C422.47,728.61,383.06,742.38,358.78,765.36z"/>
							</g>
						</g>
						<g>
							<g>
								<path class="st0" d="M148.37,310.27c-0.74,0-1.48-0.05-2.22-0.15c-5.73-0.78-10.63-4.52-12.89-9.85L36.2,72.06
									c-2.49-5.84-1.38-12.59,2.83-17.34C72.99,16.5,132.95-4.18,195.37,0.71c6.12,0.48,11.46,4.33,13.85,9.99l95.48,226.28
									c2.34,5.54,1.46,11.92-2.29,16.63c-3.75,4.7-9.79,6.98-15.7,5.93c-43.43-7.69-99.73,12.29-125.49,44.56
									C158.07,308.03,153.33,310.27,148.37,310.27z M70.73,69.32l83.21,195.63c29.19-24.32,70.55-39.32,110.06-39.95L182.95,32.93
									C139.13,31.74,96.89,45.44,70.73,69.32z"/>
							</g>
						</g>
						<g>
							<g>
								<path class="st0" d="M598.27,1270.75c-4.85,0-9.29-3.25-10.58-8.16c-1.54-5.85,1.95-11.84,7.79-13.38
									c43.96-11.59,82.13-32.49,113.47-62.12c4.39-4.15,11.32-3.97,15.48,0.43c4.16,4.39,3.96,11.32-0.43,15.48
									c-34.03,32.19-75.39,54.86-122.93,67.39C600.13,1270.63,599.19,1270.75,598.27,1270.75z"/>
							</g>
						</g>
						<g>
							<g>
								<path class="st0" d="M642.75,1330.15c-4.63,0-8.94-2.96-10.42-7.61c-1.84-5.76,1.33-11.92,7.09-13.77
									c40.01-12.81,76.56-35.04,111.74-67.96c4.41-4.13,11.35-3.9,15.47,0.52c4.14,4.41,3.91,11.34-0.51,15.48
									c-37.6,35.18-76.86,59-120.02,72.82C644.99,1329.98,643.86,1330.15,642.75,1330.15z"/>
							</g>
						</g>
						<g>
							<g>
								<path class="st0" d="M700.71,1393.1c-3.79,0-7.47-1.97-9.5-5.49c-3.02-5.24-1.22-11.94,4.02-14.95
									c42.03-24.2,74.79-52.78,97.37-84.92c3.47-4.95,10.3-6.14,15.25-2.67c4.95,3.48,6.14,10.31,2.67,15.25
									c-24.42,34.79-59.54,65.51-104.36,91.32C704.44,1392.63,702.56,1393.1,700.71,1393.1z"/>
							</g>
						</g>
						<g>
							<g>
								<path class="st0" d="M882.11,1511.01c-3.13,0-6.3-0.89-9.11-2.77c-7.54-5.04-9.58-15.23-4.54-22.78
									c16.25-24.34,25.36-82.04,12.75-119.94c-2.86-8.61,1.79-17.91,10.4-20.77c8.62-2.87,17.91,1.8,20.77,10.4
									c14.89,44.75,7.29,112.77-16.6,148.55C892.62,1508.44,887.42,1511.01,882.11,1511.01z"/>
							</g>
						</g>
						<g>
							<g>
								<path class="st1" d="M922.2,1370.75c19.33-97.9,142.51-104.29,162.66,10.14C1030.63,1391.96,976.42,1388.58,922.2,1370.75z"
									/>
							</g>
						</g>
						<g>
							<g>
								<path class="st0" d="M1022.69,1403.63c-35.28,0-70.62-5.77-105.63-17.28c-7.88-2.59-12.59-10.65-10.98-18.78
									c11.99-60.76,56.8-87.81,96.22-87.81c0.3,0,0.59,0,0.89,0c37.22,0.39,85.18,26.35,97.84,98.27
									c1.54,8.76-4.17,17.16-12.89,18.94C1066.41,1401.42,1044.56,1403.63,1022.69,1403.63z M942.21,1359.65
									c40.79,11.29,81.92,13.99,122.69,8.06c-12.12-39.93-39.07-54.86-62.05-55.1C979.81,1312.41,953.86,1326.98,942.21,1359.65z"
									/>
							</g>
						</g>
					</g>
				</g>
			</g>
		</g>
	</g>
</g>
</svg>
