<?xml version="1.0" encoding="utf-8"?>
<!-- Generator: Adobe Illustrator 28.0.0, SVG Export Plug-In . SVG Version: 6.00 Build 0)  -->
<svg version="1.1" id="Layer_1" xmlns="http://www.w3.org/2000/svg" xmlns:xlink="http://www.w3.org/1999/xlink" x="0px" y="0px"
	 viewBox="0 0 2329.46 3175.53" style="enable-background:new 0 0 2329.46 3175.53;" xml:space="preserve">
<style type="text/css">
	.st0{fill:#FC3C53;}
	.st1{fill:#371A45;}
	.st2{opacity:0.2;}
	.st3{fill:#FEDA24;}
	.st4{fill:#FFFFFF;}
	.st5{fill:#9DA9B9;}
	.st6{opacity:0.6;}
	.st7{fill:none;stroke:#371A45;stroke-width:23.2392;stroke-miterlimit:10;}
	.st8{opacity:0.3;}
	.st9{fill:none;stroke:#FFFFFF;stroke-width:27.8292;stroke-linecap:round;stroke-miterlimit:10;}
	.st10{fill:#D8D8D8;}
	.st11{fill:#22A7F0;}
	.st12{fill:#1C7AEA;}
	.st13{opacity:0.7;}
	.st14{fill:#220F2D;}
	.st15{opacity:0.5;}
	.st16{fill:#994E31;}
	.st17{fill:#000072;}
	.st18{fill:#149AED;}
	.st19{fill:#FC3963;}
	.st20{fill:#FFEC73;}
	.st21{fill:#7FDEFD;}
	.st22{fill:#B5EA24;}
	.st23{fill:#FED650;}
	.st24{fill:#1AB7FF;}
	.st25{fill:#FC4F8B;}
	.st26{fill:#FF8806;}
	.st27{fill:#620611;}
	.st28{fill:none;stroke:#620611;stroke-width:38.1624;stroke-linecap:round;stroke-linejoin:round;stroke-miterlimit:10;}
	.st29{fill:#FFBC02;}
	.st30{fill:#FACB93;}
	.st31{fill:#5AD55C;}
	.st32{fill:#FC2E04;}
	.st33{fill:#606060;}
	.st34{fill:none;stroke:#620611;stroke-width:28.6218;stroke-linecap:round;stroke-linejoin:round;stroke-miterlimit:10;}
	.st35{fill:none;stroke:#FFFFFF;stroke-width:29.4431;stroke-linecap:round;stroke-miterlimit:10;}
	.st36{fill:#62ED2E;}
	.st37{fill:#32CC17;}
	.st38{fill:none;stroke:#371A45;stroke-width:33.6954;stroke-linecap:round;stroke-linejoin:round;stroke-miterlimit:10;}
	.st39{fill:#7DC142;}
	.st40{fill:#371944;}
	.st41{opacity:0.35;}
	.st42{fill:#101928;}
	.st43{fill:#F9A429;}
	.st44{fill:#0F156D;}
	.st45{fill:#03036B;}
	.st46{fill:#EF6583;}
	.st47{fill:#FF5FAF;}
	.st48{fill:none;stroke:#0F156D;stroke-width:32.1238;stroke-linecap:round;stroke-linejoin:round;stroke-miterlimit:10;}
	.st49{fill:#FEBF01;}
	.st50{fill:none;stroke:#0F156D;stroke-width:31.8348;stroke-linecap:round;stroke-linejoin:round;stroke-miterlimit:10;}
	.st51{fill:#FFC0E6;}
	.st52{fill:#FF97D0;}
	.st53{fill:#F5F5F5;}
	.st54{fill:#FFAA45;}
	.st55{fill:#650000;}
	.st56{fill:#CF793A;}
	.st57{fill:#FFCE00;}
	.st58{fill:#EE1822;}
	.st59{fill:#6D184E;}
	.st60{fill:#F4A61C;}
	.st61{fill:#65E2E5;}
	.st62{fill:#D4FFF7;}
	.st63{fill:#0C256C;}
	.st64{fill:#65D2D9;}
	.st65{fill:#42477F;}
	.st66{fill:#FF0068;}
	.st67{fill:#FA6C27;}
	.st68{fill:#070668;}
	.st69{fill:#FCE27F;}
	.st70{fill:#FFBE55;}
	.st71{fill:#FFA757;}
	.st72{fill:none;}
	.st73{fill:#F70200;}
	.st74{fill:#AD5833;}
	.st75{fill:#FD6C8B;}
	.st76{fill:#FFEE78;}
	.st77{fill:#FFE68E;}
	.st78{fill:#FFED7B;}
	.st79{fill:#39A1FF;}
	.st80{fill:#5F5F82;}
	.st81{fill:none;stroke:#371A45;stroke-width:37.4679;stroke-linecap:round;stroke-linejoin:round;stroke-miterlimit:10;}
	.st82{fill:none;stroke:#000072;stroke-width:23.4174;stroke-linecap:round;stroke-linejoin:round;stroke-miterlimit:10;}
</style>
<g>
	<g>
		<g>
			<g>
				<path class="st0" d="M1716.6,1699.29c43.38,103.03,114.65,206.05,213.8,309.08c69.2-28.79,111.75-78.45,113.87-159.77
					c-79.23-57.12-131.44-136.78-163.84-232.97C1823.05,1611.35,1768.12,1635.56,1716.6,1699.29z"/>
			</g>
			<g>
				<polygon class="st0" points="1518.14,2233.23 1521.25,2247.64 1511.58,2237.65 				"/>
			</g>
			<g>
				<polygon class="st0" points="1948.99,1942.74 1518.14,2233.23 1442.61,1884.97 1640.42,1775.88 1779.35,1699.29 
					1899.17,1871.26 				"/>
			</g>
			<g>
				<path class="st1" d="M1521.25,2266.22c-7.5,0-14.35-4.57-17.19-11.55c-3.09-1.37-5.85-3.6-7.88-6.61
					c-4.78-7.09-4.02-16.29,1.29-22.49l-73.03-336.68c-1.74-8.03,1.99-16.25,9.19-20.22l336.75-185.67
					c8.33-4.59,18.79-2.16,24.23,5.65l169.65,243.44c2.85,4.09,3.94,9.15,3.02,14.04c-0.91,4.9-3.75,9.22-7.88,12.01l-420.4,283.47
					l0.45,2.07c2.18,10.03-4.19,19.93-14.23,22.11C1523.88,2266.08,1522.55,2266.22,1521.25,2266.22z M1463.71,1894.55l66.79,307.94
					l392.45-264.62l-149.28-214.22L1463.71,1894.55z"/>
			</g>
			<g>
				<path class="st1" d="M1930.41,2026.96c-4.96,0-9.82-1.99-13.4-5.7c-100.28-104.2-173.47-210.1-217.54-314.76
					c-2.66-6.31-1.63-13.58,2.68-18.91c52.57-65.02,113.04-95.44,179.68-90.51c7.45,0.56,13.85,5.52,16.24,12.61
					c33.09,98.26,84.48,171.47,157.09,223.81c4.99,3.59,7.87,9.42,7.71,15.57c-2.18,83.41-44.34,142.78-125.31,176.46
					C1935.23,2026.49,1932.81,2026.96,1930.41,2026.96z M1738.2,1702.43c41.34,93.96,107.41,189.27,196.62,283.63
					c57.22-27.15,86.22-68.37,90.42-128.42c-71.81-54.28-123.7-127.72-158.18-223.9C1820.21,1633.98,1777.87,1656.56,1738.2,1702.43
					z"/>
			</g>
			<g class="st2">
				<path class="st1" d="M1948.99,1942.74l-430.85,290.49l-75.53-348.26l197.81-109.08l-2.84,157.89
					c0,35.65,37.18,59.07,69.35,43.69l192.23-106.2L1948.99,1942.74z"/>
			</g>
			<g>
				<path class="st3" d="M1770.36,1647.52c62.02,115.75,139.16,219.72,235.98,308.37c-22.35,23.18-47.12,41.72-75.94,52.48
					c-88.55-84.08-155.25-192.11-213.8-309.08C1731.27,1680.33,1749.44,1663.2,1770.36,1647.52z"/>
			</g>
			<g>
				<path class="st1" d="M1930.41,2022.31c-3.51,0-6.97-1.33-9.6-3.83c-78.03-74.09-146.88-173.53-216.67-312.95
					c-2.4-4.79-1.84-10.54,1.44-14.78c14.8-19.12,33.78-37.42,56.43-54.38c3.25-2.44,7.41-3.33,11.38-2.46
					c3.97,0.88,7.36,3.45,9.27,7.03c64.57,120.51,140.82,220.17,233.1,304.67c2.77,2.54,4.4,6.09,4.52,9.85
					c0.11,3.76-1.29,7.41-3.9,10.11c-25.95,26.91-52.48,45.18-81.09,55.86C1933.69,2022.02,1932.04,2022.31,1930.41,2022.31z
					 M1733.1,1701.05c64.96,128.39,128.94,221.29,200.45,291c18.1-7.97,35.46-19.79,52.63-35.85
					c-85.05-80.11-159.02-176.69-220.17-287.49C1753.47,1679.11,1742.46,1689.94,1733.1,1701.05z"/>
			</g>
			<g class="st2">
				<polygon class="st1" points="1518.14,2233.23 1521.25,2247.64 1511.58,2237.65 				"/>
			</g>
			<g class="st2">
				<path class="st1" d="M1987.44,1799.09c-9.28,19.99-22.38,36.99-38.84,51.35c-28.82,25.14-73.02,21.58-98.4-7.02
					c-47.39-53.4-87.25-106.79-119.68-160.19c-4.67,5.08-9.31,10.35-13.92,16.06c43.38,103.03,114.65,206.05,213.8,309.08
					c69.2-28.79,111.75-78.45,113.87-159.77C2023.5,1833.62,2004.63,1817.05,1987.44,1799.09z"/>
			</g>
		</g>
		<g>
			<g>
				<path class="st4" d="M1791.9,3031.08c0.09,29.98-10.83,60-37.04,85.43c-27.42,26.63-64.88,40.44-103.09,40.44h-243.22
					c-22.5,0-44.67-5.76-64.09-17.06c-109.88-63.68-162.26-238.76-214.08-414.96l-132.23,15.76l-23.66,2.83l-0.09,0.33
					c-20.54,72.18-42.53,134.32-65.81,187.45l-0.05,0.19l-53.08,151.15c-8.78,25.05-30.16,43.64-56.24,48.89l-57.73,11.62
					c-1.86,0.51-3.76,0.93-5.67,1.3c-198,38.44-319.59-17.61-356.86-88.77c-35.51-67.86,5.72-149.43,130.6-175.83l46.62-149.57
					l24.82-79.71c0.6-26.82,1.53-53.73,2.88-80.64c13.11-264.88,61.58-533.99,130.33-805.56l814.16-11.62
					c-8.46,222.82-13.25,440.52-1.3,634.66c7.39,120.01,21.19,231.04,44.48,328.7c14.32,59.96,32.21,114.89,54.43,163.74
					C1705.49,2863.62,1791.62,2947.32,1791.9,3031.08z"/>
				<path class="st1" d="M612.87,3158.7c-131.81,0.01-208-50.17-235.31-102.31c-15.48-29.58-16.49-61.83-2.85-90.78
					c19.77-41.97,67.21-72.9,133.63-87.12l71.1-228.18c0.63-27.78,1.6-54.85,2.88-80.46c12.03-243.23,54.68-506.83,130.37-805.87
					l0.3-1.17l1.21-0.02l815.82-11.65l-0.06,1.66c-8,210.61-13.69,433.24-1.3,634.51c7.93,128.88,22.47,236.31,44.44,328.42
					c14.56,60.97,32.66,115.58,53.82,162.33c33.9-6.46,71.75,4.81,104.01,31.07c38.45,31.29,62.42,78.02,62.57,121.95l0,0
					c0.1,32.72-12.87,62.66-37.52,86.56c-27.14,26.36-64.14,40.88-104.18,40.88h-243.22c-23.01,0-45.45-5.97-64.89-17.27
					c-111.21-64.45-163.75-242.3-214.42-414.6l-153.53,18.31c-20.12,70.55-42.19,133.34-65.69,186.97l-53.08,151.23
					c-8.93,25.45-30.92,44.58-57.41,49.91l-57.73,11.62c-1.79,0.49-3.74,0.92-5.68,1.3C690.64,3154.81,649.58,3158.7,612.87,3158.7z
					 M715.43,1765.91c-75.46,298.36-117.97,561.38-129.98,804.09c-1.28,25.65-2.25,52.77-2.88,80.6l-0.07,0.43l-71.71,230.16
					l-0.9,0.19c-65.91,13.93-112.9,44.33-132.33,85.58c-13.21,28.05-12.22,59.3,2.79,87.99c34.42,65.7,148.1,128.16,355.17,87.95
					c1.87-0.36,3.73-0.77,5.55-1.27l57.83-11.65c25.4-5.11,46.5-23.46,55.06-47.87l53.08-151.15
					c23.65-54.04,45.77-117.04,65.83-187.54l0.29-1.01l1.13-0.45l157.21-18.75l0.38,1.27c50.62,172.1,102.96,350.06,213.36,414.04
					c18.96,11.02,40.85,16.85,63.31,16.85h243.22c39.22,0,75.44-14.2,101.99-39.99c24.02-23.3,36.67-52.45,36.57-84.3l0,0
					c-0.14-43.01-23.67-88.81-61.41-119.52c-31.92-25.98-69.33-36.97-102.63-30.19l-1.23,0.25l-0.52-1.14
					c-21.46-47.18-39.8-102.37-54.52-164.03c-22.01-92.29-36.57-199.9-44.52-328.96c-12.36-200.88-6.73-422.97,1.24-633.16
					L715.43,1765.91z"/>
			</g>
			<g>
				<path class="st1" d="M1651.76,3175.53h-243.22c-26.02,0-51.41-6.77-73.44-19.57c-113.99-66.06-167.73-239.6-218.14-410.71
					l-128.04,15.27c-19.36,66.45-40.57,126.2-63.11,177.77l-52.82,150.48c-10.92,31.12-37.79,54.49-70.13,61l-57.13,11.49
					c-2.06,0.54-4.13,0.98-6.23,1.41c-228.93,44.42-368.97-32.75-389.07-131.92c-12.8-63.14,27.27-138.05,144.55-166.65
					l67.48-216.56c6.02-265.59,49.76-556.01,133.71-887.73c2.06-8.15,9.35-13.91,17.76-14.03l814.16-11.62
					c5.31,0.06,10,1.95,13.57,5.6s5.47,8.6,5.28,13.69c-15.81,417.07-21.7,845.42,90.37,1106.08c64.89-5,125.21,42.76,153.48,96.34
					c33.16,62.84,24.56,127.88-23,174C1737.47,3159.3,1696.25,3175.53,1651.76,3175.53z M1130.38,2706.33
					c8.15,0,15.47,5.36,17.82,13.35c49.68,168.9,101.04,343.54,205.56,404.12c16.38,9.52,35.31,14.55,54.77,14.55h243.22
					c34.26,0,67.12-12.82,90.14-35.18c50.51-48.97,28.02-107.2,16.01-129.97c-27.51-52.14-82.66-84.49-128.23-75.15
					c-8.48,1.73-17.05-2.64-20.64-10.53c-119.36-262.64-115.63-693.79-99.99-1115.92l-780.31,11.14
					c-81.25,324.31-123.51,608.44-129.16,868.22c-0.04,1.74-0.32,3.46-0.84,5.13l-71.44,229.28c-2,6.42-7.32,11.26-13.9,12.66
					c-87.14,18.43-137.98,68.78-126.52,125.32c15.79,77.86,138.26,140.03,335,104.78c0.07-0.01,0.14-0.03,0.21-0.04l0.11-0.02
					l15.96-3.24c0.32-0.06,0.64-0.12,0.96-0.17l56.42-11.35c19.54-3.93,35.78-18.05,42.38-36.86l118.83-338.52
					c0.52-1.67,1.27-3.22,2.2-4.64c3.2-4.88,8.52-7.94,14.25-8.34l154.97-18.49C1128.91,2706.37,1129.65,2706.33,1130.38,2706.33z"
					/>
			</g>
			<g>
				<path class="st1" d="M1130.35,2743.52c-9.39,0-17.46-7.09-18.47-16.64c-1.08-10.21,6.33-19.37,16.54-20.44
					c49.84-5.27,101.6-25.62,158.24-62.21c8.63-5.58,20.13-3.1,25.71,5.53c5.57,8.62,3.1,20.13-5.52,25.7
					c-61.66,39.83-118.74,62.07-174.51,67.95C1131.66,2743.48,1131,2743.52,1130.35,2743.52z"/>
			</g>
			<g>
				<path class="st1" d="M1530.67,2966.6c-3.41,0-6.86-0.94-9.95-2.9c-8.67-5.5-11.23-16.99-5.73-25.66
					c28.04-44.15,63.35-69.19,107.95-76.55c10.13-1.66,19.7,5.19,21.37,15.32c1.67,10.13-5.19,19.7-15.32,21.37
					c-34.02,5.61-60.27,24.61-82.61,59.79C1542.84,2963.55,1536.82,2966.6,1530.67,2966.6z"/>
			</g>
			<g>
				<path class="st1" d="M601.13,2949.56c-6.95,0-13.61-3.91-16.8-10.6c-11.07-23.24-47.92-39.15-75.72-40.55
					c-10.25-0.52-18.14-9.26-17.62-19.51s9.21-18.11,19.51-17.63c32.14,1.63,87.26,19.41,107.4,61.7
					c4.41,9.27,0.48,20.37-8.79,24.78C606.53,2948.98,603.81,2949.56,601.13,2949.56z"/>
			</g>
			<g>
				<path class="st1" d="M1306.75,2879.24c-46.82,0-95.99-7.74-147.4-23.26c-9.83-2.96-15.39-13.34-12.43-23.17
					s13.35-15.39,23.17-12.43c157.93,47.67,287.16,18.07,395.06-90.46c7.24-7.29,19.01-7.31,26.29-0.08s7.31,19.01,0.08,26.29
					C1510.02,2838.09,1414.64,2879.24,1306.75,2879.24z"/>
			</g>
			<g>
				<path class="st1" d="M818.19,2892.96c-99.87,0-196.98-29.97-289.96-89.64c-8.64-5.55-11.15-17.05-5.61-25.69
					c5.55-8.64,17.06-11.14,25.69-5.6c122.57,78.67,247.12,101.81,380.78,70.72c10-2.31,19.99,3.9,22.32,13.9
					c2.33,10-3.9,19.99-13.9,22.32C897.38,2888.3,857.56,2892.96,818.19,2892.96z"/>
			</g>
			<g class="st2">
				<path class="st1" d="M1572.05,3096.52c-78.46-16.27-181.31-83.85-182.33-181.03c-0.7-66.19,46.11-114.29,61.35-128.79
					c24.77-7.58,67.16-24.03,109.04-60.24c4-3.44,7.81-6.93,11.43-10.36c-23.29-97.65-37.09-208.69-44.48-328.7l-481.98-24.96
					l-96.03,260.88l-365.17-53.4c-1.35,26.91-2.28,53.82-2.88,80.64l-24.82,79.71c40.67,11.2,81.38,22.4,122.05,33.56
					c43.32,11.9,73.34,51.59,72.37,96.49c-1.91,86.12-26.4,182.1-70.55,213.66c-75.71,54.19-204.64,17.99-301.09-18.31
					c37.28,71.16,158.86,127.21,356.86,88.77c1.91-0.37,3.81-0.79,5.67-1.3l57.73-11.62c26.07-5.25,47.45-23.84,56.24-48.89
					l53.08-151.15l0.05-0.19c23.29-53.12,45.27-115.27,65.81-187.45l0.09-0.33l155.89-18.59c51.82,176.2,104.2,351.28,214.08,414.96
					c19.43,11.29,41.6,17.06,64.09,17.06h243.22c38.21,0,75.67-13.8,103.09-40.44c26.21-25.42,37.14-55.45,37.04-85.43
					C1727.43,3086.85,1646.84,3112.04,1572.05,3096.52z"/>
			</g>
			<g class="st2">
				<path class="st1" d="M1528.36,1752.74l-814.16,11.62l-51.72,223.06c221.55,38.6,437.73,50.65,647.51,31.06l-0.25,0.03
					l-31.31,193.69l174.98,9.56l33.83-227.78l-0.19,0.03c11.45-2.11,22.88-4.28,34.29-6.6L1528.36,1752.74z"/>
			</g>
		</g>
		<g>
			<g>
				<path class="st0" d="M1606.05,2671.35c9.1-7.66,13.02-19.89,9.95-31.37c-16.46-61.47-31.88-128.29-45.02-200.08
					c-14.41-78.72-24.14-152.81-30.55-221.25c10.66-8.9,25.08-22.97,37.91-43.29c13.75-21.78,20.31-42.24,23.61-56.21l-61.94-23.83
					c-7.61-2.93-8.98-13.15-2.36-17.92c35.53-25.63,58.89-57.51,75.15-93.05c-29.66-61.95-64.87-115.53-108.45-156.48l-48.03,20.71
					c-40.73,104.28-84.78,247.27-105.36,421.36c-20.14,170.34,3.11,426.3,3.11,426.3
					C1352.71,2705.04,1525.56,2739.15,1606.05,2671.35z"/>
			</g>
			<g>
				<path class="st0" d="M1093.37,2391.58c0.19,24.77-0.51,50.15-2,76.18c-4.83,83.24-18.22,172.95-41.74,270.32
					c-83.52,9.81-165.04,11.53-244.52,4.46c-5.95-0.51-11.9-1.07-17.85-1.72c-78.73-8.32-155.38-25.42-229.74-51.96
					c-2.74-0.98-5.48-2-8.23-2.97c-2.97-1.12-5.95-2.23-8.92-3.35c-6.74-2.56-13.39-5.16-20.03-7.85c-3.3-1.3-6.6-2.65-9.85-4
					c6.04-16.5,11.67-33.14,16.87-49.82l0.19-0.56c10.27-32.72,19.06-65.77,26.77-98.91c14.73-63.21,25.61-126.84,35.32-189.35
					c3.16-20.03,6.13-39.92,9.16-59.68c0.93-6.27,1.91-12.5,2.84-18.73c1.26-8.37,2.51-16.69,3.81-24.96
					c4.83-31.6,9.81-62.65,15.34-93c19.71-109.04,45.97-208.78,96.68-289.84c11.11-17.76,23.38-34.63,37.04-50.48l104.72,35.84
					l84.13,28.77C1032.25,2007.81,1092.35,2177.41,1093.37,2391.58z"/>
			</g>
			<g>
				<path class="st3" d="M1540.03,2095.33l61.91,23.8c-3.3,13.99-9.85,34.44-23.61,56.24c-12.83,20.31-27.24,34.39-37.88,43.27
					l-195.67,129.02c1.3-27,3.3-53.26,6.18-77.71c0.28-2.42,0.56-4.83,0.88-7.25c-0.56,5.07-1.12,10.09-1.63,15.15
					c-0.7,6.46-1.35,12.97-1.95,19.47c65.12-41.69,129.02-91.93,191.72-150.31l-88.31-29.42l106.9-136.32
					c-1.81-3.53-3.76-7.16-5.86-10.78c-0.98-1.77-2-3.58-3.07-5.39c-2.88-4.93-5.95-9.95-9.2-15.01c-0.37-0.56-0.7-1.07-1.02-1.58
					c-1.67-2.6-3.44-5.25-5.25-7.95c-1.53-2.23-3.07-4.51-4.69-6.79c-1.86-2.74-3.81-5.48-5.86-8.23v-0.05
					c-1.53-2.14-3.11-4.28-4.74-6.46c-6.65-9.02-13.8-18.22-21.38-27.56c-2.23-2.79-4.55-5.62-6.88-8.41
					c-4-4.83-8.09-9.67-12.27-14.55c-2.46-2.88-4.97-5.81-7.53-8.74c-3.72-4.18-7.44-8.41-11.2-12.64l44.71-19.24
					c26.82,25.19,50.52,55.22,71.62,89.01c13.25,21.1,25.47,43.64,36.86,67.44c-16.27,35.56-39.65,67.44-75.16,93.05
					C1531.01,2082.18,1532.41,2092.4,1540.03,2095.33z"/>
			</g>
			<g>
				<path class="st1" d="M904.7,2760.71c-142.38,0-276.28-25.81-399.57-77.15c-6.89-2.87-10.3-10.66-7.73-17.68
					c47.25-128.79,67.67-263.86,87.41-394.48c28.31-187.29,55.05-364.2,159.13-485.16c3.72-4.32,9.69-5.95,15.08-4.1l188.82,64.61
					c3.11,1.06,5.74,3.19,7.43,6.01c157.01,260.99,191.3,543.34,107.92,888.59c-1.37,5.67-6.13,9.89-11.92,10.58
					C1001.5,2757.79,952.62,2760.71,904.7,2760.71z M528.13,2662.83c154.48,61.79,326,82.8,510.21,62.5
					c78.21-331.45,44.98-603.12-104.37-853.84l-174.94-59.86c-93.88,114.83-119.54,284.52-146.66,463.94
					C593.07,2403.33,573.12,2535.3,528.13,2662.83z"/>
			</g>
			<g>
				<path class="st0" d="M1451.67,2117.59l88.31,29.42c-62.7,58.38-126.61,108.62-191.72,150.31c0.6-6.51,1.26-13.01,1.95-19.47
					c0.51-5.07,1.07-10.09,1.63-15.15c9.39-82.59,24.17-162.16,43.83-238.99c16.04-62.93,35.42-124.05,57.73-183.45
					c2.09,2.32,4.18,4.6,6.23,6.88c3.76,4.23,7.48,8.46,11.2,12.64c2.51,2.93,5.02,5.86,7.53,8.74c4.18,4.88,8.27,9.71,12.27,14.55
					c2.32,2.79,4.65,5.62,6.88,8.41c7.58,9.34,14.73,18.54,21.38,27.56c1.63,2.18,3.21,4.32,4.74,6.46v0.05
					c2.05,2.74,4,5.48,5.86,8.23c1.63,2.28,3.16,4.55,4.69,6.79c1.77,2.65,3.53,5.3,5.25,7.95c0.33,0.51,0.65,1.02,1.02,1.58
					c3.25,5.07,6.32,10.09,9.2,15.01c1.07,1.81,2.09,3.63,3.07,5.39c2.09,3.63,4.04,7.25,5.86,10.78L1451.67,2117.59z"/>
			</g>
			<g>
				<path class="st1" d="M1459,2726.42c-53.21,0-98.95-9.87-109.8-15.97c-6.95-3.91-8.71-9.29-9.01-12.95h0
					c-0.23-2.57-23.15-259.38-3.07-429.2c17.2-145.43,52.93-288.35,106.22-424.79c1.35-3.47,4.05-6.25,7.47-7.73l48.03-20.71
					c5.1-2.2,11.02-1.17,15.07,2.64c42.29,39.74,78.75,92.28,111.48,160.62c1.79,3.73,1.82,8.06,0.1,11.82
					c-17.88,39.09-42.21,70.08-74.26,94.54l55.74,21.44c6.51,2.5,10.17,9.44,8.56,16.23c-5.09,21.47-13.63,41.81-25.39,60.44
					c-9.77,15.47-21.57,29.46-35.14,41.67c6.87,71.12,16.85,142.71,29.7,212.91c12.19,66.6,27.25,133.55,44.77,198.99
					c4.44,16.6-1.23,34.52-14.44,45.64C1574.3,2716.32,1512.82,2726.42,1459,2726.42z M1367.36,2687.98
					c29.97,9.95,164.75,27.42,229.7-27.3c0,0,0,0,0,0c4.98-4.19,7.12-10.9,5.46-17.1c-17.71-66.16-32.94-133.85-45.27-201.18
					c-13.43-73.33-23.76-148.18-30.71-222.46c-0.43-4.57,1.42-9.06,4.95-12.01c13.72-11.45,25.52-24.91,35.06-40.02
					c7.95-12.59,14.19-26.1,18.63-40.28l-50.17-19.3c-8.32-3.19-14.19-10.67-15.34-19.51c-1.14-8.82,2.62-17.52,9.82-22.72
					c29.06-20.96,51.3-47.71,67.86-81.67c-28.71-58.71-60.2-104.67-95.99-140.07l-34.15,14.73
					c-51.26,132.59-85.71,271.34-102.4,412.5C1346.91,2422.92,1363.87,2645.8,1367.36,2687.98z M1367.86,2698.34
					C1367.86,2698.34,1367.86,2698.34,1367.86,2698.34C1367.86,2698.34,1367.86,2698.34,1367.86,2698.34z M1367.86,2698.3
					L1367.86,2698.3L1367.86,2698.3z M1367.87,2698.26C1367.87,2698.26,1367.87,2698.26,1367.87,2698.26
					C1367.87,2698.26,1367.87,2698.26,1367.87,2698.26z M1367.87,2698.23C1367.87,2698.23,1367.87,2698.23,1367.87,2698.23
					C1367.87,2698.23,1367.87,2698.23,1367.87,2698.23z M1367.88,2698.19C1367.88,2698.19,1367.88,2698.19,1367.88,2698.19
					S1367.88,2698.19,1367.88,2698.19z M1367.88,2698.15L1367.88,2698.15L1367.88,2698.15z"/>
			</g>
			<g>
				<path class="st1" d="M1348.25,2311.29c-2.51,0-5.03-0.68-7.26-2.04c-4.55-2.77-7.12-7.91-6.62-13.21
					c14.9-158.22,50.56-313.21,105.99-460.67c1.71-4.55,5.67-7.88,10.44-8.79c4.79-0.91,9.68,0.73,12.94,4.33
					c51.55,56.86,86.62,103.95,107.23,143.96c2.49,4.84,1.94,10.7-1.43,14.99l-94.69,120.77l69.53,23.18
					c4.67,1.56,8.17,5.46,9.22,10.27s-0.52,9.81-4.13,13.17c-63.61,59.19-128.79,110.28-193.71,151.85
					C1353.48,2310.55,1350.87,2311.29,1348.25,2311.29z M1458.47,1866.88c-46.72,129.52-78.07,264.73-93.35,402.66
					c49.54-33.55,99.15-72.7,147.97-116.78l-65.83-21.94c-4.3-1.44-7.64-4.87-8.94-9.21c-1.31-4.34-0.42-9.05,2.38-12.62
					l101.29-129.19C1524.31,1947.74,1496.83,1910.59,1458.47,1866.88z"/>
			</g>
			<g>
				<path class="st1" d="M1344.78,2361.6c-5.29,0-10.34-3.02-12.69-8.14c-3.2-7-0.12-15.28,6.88-18.48
					c61.22-28,124.18-69.55,192.48-127.01c5.89-4.97,14.69-4.2,19.65,1.69c4.96,5.89,4.2,14.69-1.69,19.64
					c-70.25,59.11-135.29,101.96-198.83,131.03C1348.7,2361.2,1346.72,2361.6,1344.78,2361.6z"/>
			</g>
			<g>
				<path class="st3" d="M1400.1,2318.99c-4.72,120.36-3.61,234.73,7.42,338.91c81.93,14.12,148.59-1.37,202.06-42.4
					c7.53,22.46,12.71,43.87-3.53,55.84c-76.51,44.12-159.74,56.05-251.98,24.9c-9.48-108.49-12.39-222-9.29-340.07L1400.1,2318.99z
					"/>
			</g>
			<g>
				<path class="st1" d="M1455.06,2727.49c-34.64,0-69.84-6.01-105.45-18.03c-5.25-1.77-8.95-6.48-9.43-12
					c-9.34-106.86-12.48-221.81-9.34-341.65c0.12-4.51,2.41-8.69,6.16-11.21l55.32-37.19c4.36-2.93,9.99-3.16,14.58-0.61
					c4.58,2.56,7.34,7.48,7.14,12.72c-4.96,126.47-2.91,233.35,6.27,326.27c71.9,10.3,131.13-3.26,180.79-41.37
					c3.57-2.74,8.26-3.6,12.56-2.27c4.31,1.31,7.71,4.63,9.15,8.9c6.13,18.29,17.55,52.32-8.48,71.5c-0.42,0.31-0.85,0.6-1.31,0.85
					C1562.11,2712.78,1509.27,2727.49,1455.06,2727.49z M1367.17,2685.83c81.04,25.11,156.74,16.54,231.11-26.11
					c4.52-3.71,5.63-10.11,3.26-21.52c-54.69,35.24-120.65,46.49-196.4,33.44c-6.15-1.06-10.84-6.07-11.5-12.27
					c-9.53-90-12.31-192.81-8.46-313.56l-26.66,17.92C1355.81,2476.5,1358.72,2584.78,1367.17,2685.83z"/>
			</g>
			<g>
				<path class="st1" d="M1458.06,2559.14c-17.94,0-32.54-14.6-32.54-32.54s14.6-32.53,32.54-32.53c17.94,0,32.54,14.59,32.54,32.53
					S1476,2559.14,1458.06,2559.14z M1458.06,2508.01c-10.25,0-18.59,8.34-18.59,18.59c0,10.25,8.34,18.59,18.59,18.59
					c10.25,0,18.59-8.34,18.59-18.59C1476.66,2516.35,1468.32,2508.01,1458.06,2508.01z"/>
			</g>
			<g>
				<path class="st1" d="M1463.68,2636.86c-16.84,0-30.53-13.7-30.53-30.53c0-16.84,13.7-30.53,30.53-30.53s30.53,13.7,30.53,30.53
					C1494.22,2623.16,1480.52,2636.86,1463.68,2636.86z M1463.68,2589.74c-9.15,0-16.59,7.44-16.59,16.59s7.44,16.58,16.59,16.58
					s16.59-7.44,16.59-16.58S1472.83,2589.74,1463.68,2589.74z"/>
			</g>
			<g>
				<path class="st1" d="M957.79,2570.23c-2.15,0-4.34-0.21-6.53-0.66c-17.58-3.6-28.95-20.83-25.36-38.4
					c3.6-17.58,20.82-28.97,38.4-25.36c17.58,3.6,28.95,20.83,25.36,38.4l0,0C986.51,2559.59,972.91,2570.23,957.79,2570.23z
					 M957.78,2519.09c-8.65,0-16.41,6.08-18.21,14.87c-2.06,10.04,4.45,19.89,14.49,21.94c10.03,2.08,19.89-4.45,21.94-14.49l0,0
					c2.06-10.04-4.45-19.89-14.49-21.94C960.26,2519.21,959.01,2519.09,957.78,2519.09z M982.83,2542.81h0.05H982.83z"/>
			</g>
			<g>
				<path class="st1" d="M947.37,2647.46c-2.06,0-4.12-0.21-6.18-0.63c-7.99-1.64-14.87-6.28-19.36-13.09
					c-4.49-6.81-6.07-14.95-4.43-22.94c1.64-7.99,6.28-14.87,13.09-19.36c6.81-4.5,14.96-6.07,22.94-4.43
					c7.99,1.64,14.86,6.28,19.36,13.09c4.49,6.81,6.07,14.95,4.43,22.94c-1.64,7.99-6.28,14.87-13.09,19.36
					C959.08,2645.73,953.28,2647.46,947.37,2647.46z M947.27,2600.33c-3.22,0-6.36,0.94-9.11,2.75c-3.7,2.44-6.22,6.18-7.11,10.52
					c-0.89,4.34-0.03,8.77,2.41,12.47s6.18,6.22,10.52,7.11c4.34,0.88,8.77,0.03,12.47-2.41s6.22-6.18,7.11-10.52l0,0
					c0.89-4.34,0.03-8.77-2.41-12.47s-6.18-6.22-10.52-7.11C949.51,2600.44,948.39,2600.33,947.27,2600.33z"/>
			</g>
			<g>
				<path class="st3" d="M1091.37,2467.76c-2.65,87.19-17.99,177.69-41.74,270.32c-92.77,9.62-173.13,10.27-244.48,4.37
					c-6.04-0.46-11.99-1.02-17.89-1.63c-88.31-8.83-162.63-27.79-229.74-51.96c-2.74-0.98-5.48-2-8.23-2.97
					c-2.97-1.12-5.95-2.23-8.92-3.35c-6.74-2.56-13.39-5.16-20.03-7.85c-3.3-1.3-6.6-2.65-9.85-4l16.87-49.82l0.19-0.56
					c87.47,39.69,186.15,57.26,291.23,62.05c59.45,2.74,120.89,1.39,183.59-2.37c30.02-67.58,35.18-144.55,26.54-226.77
					L1091.37,2467.76z"/>
			</g>
			<g>
				<path class="st1" d="M901.34,2760.03c-183.14,0-305.99-39.27-396.17-76.45c-6.8-2.8-10.25-10.4-7.89-17.36l17.07-50.39
					c1.26-3.73,4.05-6.75,7.66-8.32c3.61-1.56,7.72-1.54,11.31,0.1c114.78,52.08,256.78,70.34,459.63,58.96
					c23.78-57.94,30.99-127.37,22.07-211.87c-0.47-4.49,1.25-8.93,4.64-11.91s8-4.16,12.4-3.13l62.47,14.55
					c6.46,1.5,10.97,7.36,10.77,14c-2.5,83.05-16.29,172.47-42.16,273.35c-1.45,5.65-6.26,9.8-12.07,10.41
					C997.09,2757.55,947.3,2760.03,901.34,2760.03z M527.91,2662.72c113.7,45.58,263.95,86.63,510.61,62.47
					c22.66-90.42,35.29-171.27,38.49-246.44l-32.46-7.56c6.69,84.57-2.98,154.88-29.43,214.45c-2.11,4.76-6.71,7.95-11.91,8.26
					c-204.01,12.16-349.13-4.72-467.32-54.73L527.91,2662.72z M1002.38,2679.98h0.05H1002.38z"/>
			</g>
			<g class="st2">
				<path class="st1" d="M1575.96,1916.9c-11.48,11.85-23.33,22.96-35.51,33.19c-43.27,36.3-91.05,62-144.78,73.62
					c16.04-62.93,35.42-124.05,57.73-183.45c2.09,2.32,4.18,4.6,6.23,6.88l44.71-19.24
					C1531.15,1853.08,1554.86,1883.11,1575.96,1916.9z"/>
			</g>
		</g>
		<g>
			<g>
				<path class="st5" d="M1880.44,1615.63c158.41-171.26,427.99,23.24,163.84,232.97
					C1967.53,1787.58,1909.16,1712.74,1880.44,1615.63z"/>
			</g>
			<g class="st2">
				<path class="st1" d="M2142.37,1618.28c-2.96,20.31-10.69,42.05-24.18,64.69c-36.62,61.47-123.35,67.18-168.59,11.74
					c-22.59-27.69-41.94-57.82-57.45-90.82c-3.96,3.72-7.88,7.59-11.71,11.74c28.72,97.12,87.09,171.95,163.84,232.97
					C2155.28,1760.46,2172.01,1675.03,2142.37,1618.28z"/>
			</g>
			<g>
				<path class="st0" d="M725.73,1815.95l-8.27,29.89l-55.91,202.04c-13.62,29.28-27.19,58.52-40.76,87.8
					c-0.33,0.65-0.65,1.35-0.93,2c-9.85,21.19-19.71,42.39-29.56,63.58c4.65,18.31,8.37,35.79,11.34,52.38
					c2.65,14.83,4.6,29,6.04,42.48c7.02,64.47,1.95,113.13-3.86,145.2c-2.32,12.87-4.32,25.56-13.39,38.07
					c-11.81,16.27-23.89,30.21-36.11,42.02c-102.25,99.32-213.01,52.01-234.16-29.51v-0.05c-11.57-44.71,3.86-99.74,62.51-146.5
					c-21.43-16.78-38.25-34.91-51.59-54.15c-33.19-47.97-37.42-110.48-11.81-162.91c51.78-106.11,106.44-189.63,164.72-245.31
					C558.31,1811.9,638.4,1786.01,725.73,1815.95z"/>
			</g>
			<g>
				<path class="st4" d="M610.56,2380.98c-1.12,24.22-3.81,44.34-6.74,60.33c-2.32,12.87-4.32,25.56-13.39,38.07
					c-164.86,226.81-386.1,8.04-207.76-134.04C444.12,2403.29,524.01,2402.74,610.56,2380.98z"/>
				<path class="st1" d="M434.2,2579.04c-8.31,0-16.57-0.8-24.78-2.42c-44.82-8.84-80.61-42.57-91.18-85.94
					c-12.45-51.1,10.67-104.53,63.45-146.58l1.07-0.85l0.99,0.94c53.36,50.33,123.19,61.22,226.42,35.27l2.05-0.52l-0.1,2.11
					c-0.96,20.93-3.24,41.3-6.76,60.54l-0.27,1.53c-2.2,12.23-4.47,24.88-13.39,37.18C545.29,2544.16,489.06,2579.04,434.2,2579.04z
					 M382.59,2347.41c-51.03,41.11-73.36,93-61.29,142.52c10.28,42.18,45.11,75,88.73,83.6c61.16,12.02,126.44-22.6,179.13-95.09
					c8.49-11.71,10.6-23.46,12.83-35.89l0.28-1.53c3.38-18.46,5.6-37.96,6.61-58.01C506.27,2408.44,436.33,2397.44,382.59,2347.41z"
					/>
			</g>
			<g>
				<path class="st1" d="M434.29,2596.07c-9.42,0-18.82-0.91-28.16-2.75c-51.31-10.12-92.3-48.83-104.43-98.61
					c-12.64-51.87,6.41-105.27,52.45-149.17c-14.63-13.41-27.47-28.06-38.33-43.75c-36.88-53.24-41.96-122.85-13.27-181.66
					c62.93-129,126.39-218.31,194-273.04c74.49-60.3,153.62-76.71,235.21-48.73c9.71,3.33,14.89,13.91,11.56,23.62
					c-3.33,9.72-13.9,14.88-23.62,11.56c-136.03-46.66-261.55,52.44-383.74,302.9c-22.8,46.74-18.81,101.99,10.42,144.18
					c12.95,18.7,28.57,35.08,47.74,50.08c4.48,3.51,7.11,8.87,7.14,14.56c0.02,5.69-2.56,11.08-7.01,14.62
					c-46.37,36.94-66.94,82.88-56.43,126.03c8.71,35.77,38.35,63.61,75.5,70.94c54.37,10.74,113.44-21.5,162.06-88.39
					c6.18-8.51,7.79-17.44,9.83-28.76l0.31-1.69c12.65-69.85,8.19-147.96-13.26-232.15c-1.06-4.15-0.65-8.54,1.15-12.42
					l71.27-153.38c4.33-9.31,15.38-13.35,24.69-9.03c9.31,4.33,13.35,15.38,9.03,24.69l-68.5,147.42
					c21.37,86.96,25.48,168.17,12.2,241.5l-0.3,1.66c-2.42,13.42-5.16,28.64-16.35,44.03
					C555.73,2558.74,494.65,2596.07,434.29,2596.07z"/>
			</g>
			<g>
				<path class="st1" d="M515.23,2413.15c-49.16,0-101-12.66-145-53.99c-68.1-58.63-96.52-120.36-84.45-183.47
					c1.37-7.15,6.79-12.85,13.87-14.58c49.61-12.07,99.68-4.05,148.81,23.82c25.04,14.21,54.58,19.39,83.2,14.62
					c17.1-2.86,34.33-8.03,51.22-15.35c4.99-2.17,10.67-2.03,15.55,0.35s8.48,6.79,9.84,12.05
					c16.39,63.37,23.02,122.16,20.86,185.01c-0.29,8.28-6.01,15.37-14.05,17.39C586.04,2406.31,551.36,2413.15,515.23,2413.15z
					 M320.64,2194.76c-3.8,45.66,20.56,90.43,74.15,136.47c0.22,0.19,0.43,0.38,0.64,0.58c46.35,43.73,107.44,54.52,196.87,34.41
					c0.57-47.26-4.3-92.5-15.09-140c-13.06,4.45-26.25,7.8-39.42,10c-36.99,6.18-75.24-0.54-107.68-18.95
					C393.04,2196.24,357.09,2188.84,320.64,2194.76z"/>
			</g>
			<g>
				<path class="st3" d="M302.71,2220c37.42,6.27,74.83,19.15,112.25,38.65c49.78,25.94,108.9,29.18,160.97,8.19
					c8.95-3.61,17.61-7.63,25.99-12.06l-11.64-53.53c-34.21,16.03-70.59,22.23-109.83,15.43c-59.74-33.98-118.68-49.87-176.4-37.5
					L302.71,2220z"/>
			</g>
			<g>
				<path class="st1" d="M504.54,2294.62c-32.95,0-65.89-7.92-96.02-23.61c-35.94-18.73-72.32-31.26-108.12-37.26
					c-6.89-1.15-11.86-7.22-11.63-14.2l1.33-40.83c0.21-6.4,4.75-11.84,11.02-13.18c56.89-12.18,117.11,0.17,184.04,37.79
					c34.03,5.43,66.5,0.62,99.19-14.71c3.84-1.8,8.29-1.75,12.1,0.13s6.54,5.39,7.45,9.54l11.64,53.53
					c1.33,6.11-1.58,12.37-7.11,15.29c-8.8,4.65-17.98,8.91-27.29,12.66C556.53,2289.69,530.53,2294.62,504.54,2294.62z
					 M317.04,2208.48c34.76,7.1,69.81,19.79,104.37,37.79c46.63,24.3,101.05,27.08,149.31,7.63c5.16-2.08,10.26-4.32,15.27-6.72
					l-5.78-26.57c-33.29,12.5-67.58,15.81-102.15,9.81c-1.59-0.28-3.11-0.83-4.51-1.62c-57.29-32.58-108.44-45.05-155.94-37.92
					L317.04,2208.48z"/>
			</g>
			<g>
				<path class="st1" d="M2044.27,1867.19c-4.09,0-8.18-1.35-11.57-4.04c-86.61-68.86-142.25-148.1-170.1-242.24
					c-1.86-6.28-0.27-13.09,4.18-17.9c55.82-60.35,130.66-84.71,200.22-65.17c54.9,15.43,93.86,55.37,104.22,106.83
					c8.22,40.85,4.16,123.56-115.4,218.48C2052.45,1865.84,2048.36,1867.19,2044.27,1867.19z M1901.45,1620.66
					c25.22,77.92,72.08,144.84,142.8,203.94c92.83-78.25,96.82-141.32,90.52-172.59c-7.54-37.5-36.64-66.79-77.83-78.37
					C2004.05,1558.78,1946.6,1576.32,1901.45,1620.66z"/>
			</g>
			<g>
				<g>
					<g>
						<path class="st5" d="M2317.85,1461.64c-0.33-21.01-8.6-38.58-20.22-51.27c-29.47-32.07-82.08-36.86-119.87-10.97
							c-25.38,17.43-40.53,47.04-40.53,79.2v52.38c0,5.16-2.09,10.09-5.81,13.66l-53.64,51.27c-10.64,10.13-11.43,27.56-0.84,37.69
							c4.93,4.74,11.29,7.11,17.66,7.11c6.37,0,12.74-2.37,17.66-7.11l54.47-52.01c13.71-13.15,21.61-31.61,21.61-50.61v-52.38
							c0-15.29,6.88-29.14,18.36-37.04c19.01-13.06,42.43-8.37,53.26,3.39c12.5,13.62,7.72,36.07-13.15,61.49
							c-3.53,4.28-5.44,9.39-5.72,14.55L2317.85,1461.64z"/>
					</g>
				</g>
				<g>
					<path class="st5" d="M2317.83,1461.63c0.04,60.46-52.19,78.12-76.74,59.34"/>
				</g>
				<g>
					<path class="st5" d="M2250.54,1501.72c-17.26,19.4-12.22,23.27,10.97,26.33"/>
				</g>
			</g>
			<g class="st6">
				<g>
					<path class="st4" d="M2087.85,1616.06l53.64-51.27c3.72-3.58,5.81-8.5,5.81-13.66v-52.38c0-32.16,15.15-61.77,40.53-79.2
						c37.79-25.89,90.4-21.1,119.87,10.97c2.25,2.46,4.32,5.15,6.29,7.96c-3.56-10.93-9.33-20.42-16.36-28.1
						c-29.47-32.07-82.08-36.86-119.87-10.97c-25.38,17.43-40.53,47.04-40.53,79.2v52.38c0,5.16-2.09,10.09-5.81,13.66l-53.64,51.27
						c-10.64,10.13-11.43,27.56-0.84,37.69c0.79,0.76,1.68,1.36,2.54,2C2079.51,1628.49,2082.35,1621.3,2087.85,1616.06z"/>
				</g>
			</g>
			<g>
				<g>
					<g>
						<path class="st1" d="M2094.61,1652.35c-9.64,0-18.77-3.68-25.72-10.36c-7.17-6.86-11.13-16.27-11.12-26.47
							c0.01-10.55,4.39-20.76,12.01-28.01l53.62-51.25c1.42-1.37,2.22-3.25,2.22-5.27v-52.38c0-35.99,17.03-69.18,45.57-88.78
							c42.46-29.09,101.75-23.51,135,12.69c14.68,16.03,22.94,36.96,23.28,58.95l-23.24,0.36c-0.32-20.89-9.51-35.24-17.17-43.6
							c-25.6-27.86-71.61-31.92-104.73-9.23c-22.21,15.25-35.48,41.28-35.48,69.61v52.38c0,8.27-3.42,16.3-9.37,22.04l-53.66,51.29
							c-3.06,2.91-4.8,6.99-4.81,11.22c0,3.79,1.41,7.22,3.97,9.67c5.24,5.04,14.05,5.01,19.24,0.02l54.5-52.04
							c11.45-10.98,18.02-26.37,18.02-42.21v-52.38c0-19.11,8.74-36.53,23.39-46.62c24.42-16.78,53.96-10.58,68.4,5.1
							c7.99,8.7,22.71,33.57-12.72,76.74c-1.88,2.27-2.94,4.96-3.1,7.81l-23.2-1.26c0.42-7.84,3.32-15.21,8.36-21.32
							c16.54-20.15,21.62-37.45,13.55-46.23c-6.58-7.15-23.5-11.72-38.12-1.67c-8.34,5.74-13.32,16.01-13.32,27.47v52.38
							c0,22.14-9.18,43.65-25.19,59l-54.49,52.02C2113.38,1648.66,2104.25,1652.35,2094.61,1652.35z"/>
					</g>
				</g>
				<g>
					<path class="st1" d="M2263.66,1539.73c-10.93,0-21.37-3.21-29.63-9.53l14.12-18.46c7.85,6,20.62,6.33,31.77,0.82
						c16.73-8.27,26.31-26.83,26.3-50.93l23.24-0.01c0.02,33.28-14.28,59.44-39.23,71.77
						C2281.64,1537.64,2272.49,1539.73,2263.66,1539.73z"/>
				</g>
				<g>
					<path class="st1" d="M2259.99,1539.57c-10.95-1.45-25.94-3.42-30.29-15.1c-4.07-10.94,4.14-21.46,12.16-30.47l17.36,15.45
						c-2.12,2.38-3.64,4.25-4.73,5.71c1.99,0.41,4.74,0.88,8.54,1.38L2259.99,1539.57z"/>
				</g>
			</g>
			<g class="st2">
				<path class="st1" d="M859.21,1831.19l-24.17,453.72l-229.6-56.24l-3.53-0.88l17.94-90.12l12.55-63.21
					c9.53-47.83,2-97.84-23.05-139.67c-31.93-53.26-74.83-66.51-125.35-51.82c74.32-71.07,154.4-96.95,241.73-67.02l-8.27,29.89
					c11.11-17.76,23.38-34.63,37.04-50.48L859.21,1831.19z"/>
			</g>
			<g class="st6">
				
					<ellipse transform="matrix(0.9645 -0.2641 0.2641 0.9645 -352.986 581.9106)" class="st4" cx="1987.92" cy="1603.89" rx="50.07" ry="21.4"/>
			</g>
			<g class="st2">
				<path class="st1" d="M603.82,2441.31c-2.32,12.87-4.32,25.56-13.39,38.07c-11.81,16.27-23.89,30.21-36.11,42.02
					c-102.25,99.32-213.01,52.01-234.16-29.51c155.56,67.07,230.58-42.39,277.62-213.15l9.9,17.38
					C614.69,2360.58,609.63,2409.24,603.82,2441.31z"/>
			</g>
		</g>
		<g>
			<g>
				<path class="st3" d="M1093.28,2404.55v0.05c-0.05,20.92-0.7,41.97-1.91,63.16c-179.64-29.42-304.67-150.73-398.83-323.82
					l91.38-86.77l-153.38-97.6c2.79-12.13,6.27-23.47,10.41-34.16c23.01-59.77,65.35-98.12,113.55-130.05l39.74,13.57l149.1,51.03
					c32.72,52.98,59.82,107.36,81.48,163c10.74,27.47,20.13,55.26,28.26,83.34C1080.82,2202.23,1093.79,2301.74,1093.28,2404.55z"/>
			</g>
			<g>
				<path class="st0" d="M1093.28,2404.55v0.05c-126.65-18.78-234.39-105.74-329.49-238.2l109.22-118.52l-88.82-49.73l-85.47-47.87
					c22.26-58.7,56.05-103.51,95.51-141.34l149.1,51.03c31.28,54.01,58.61,109.87,81.1,166.25c10.69,26.63,20.26,53.36,28.63,80.08
					C1085.38,2208.92,1100.48,2311.08,1093.28,2404.55z"/>
			</g>
			<g>
				<path class="st1" d="M1091.36,2481.72c-0.75,0-1.5-0.06-2.26-0.19c-169-27.7-302.73-135.95-408.83-330.94
					c-3.02-5.55-1.93-12.43,2.65-16.78l78.46-74.47l-138.32-88.02c-4.98-3.17-7.43-9.14-6.1-14.89
					c20.76-90.11,77.28-137.88,129.82-172.71c3.61-2.39,8.12-2.97,12.22-1.57l188.82,64.61c3.05,1.04,5.65,3.12,7.35,5.86
					c112.4,181.98,162.9,389.21,150.11,615.94c-0.22,3.95-2.11,7.62-5.2,10.09C1097.6,2480.65,1094.51,2481.72,1091.36,2481.72z
					 M709.93,2146.63c97.53,175.07,218.22,274.91,368.3,304.59c9.23-213-39.24-407.93-144.17-579.71l-177.53-60.75
					c-44.36,30.15-90.54,70.97-110,142.43l144.89,92.21c3.62,2.3,5.98,6.15,6.39,10.42c0.41,4.28-1.17,8.5-4.28,11.46
					L709.93,2146.63z"/>
			</g>
			<g>
				<path class="st1" d="M1093.3,2418.54c-0.68,0-1.36-0.05-2.04-0.15c-123.32-18.28-234.14-98.05-338.79-243.87
					c-3.85-5.37-3.41-12.71,1.07-17.58l97.26-105.54l-158.88-88.97c-6.03-3.38-8.67-10.66-6.22-17.11
					c20.75-54.67,53.11-102.57,98.92-146.45c3.76-3.61,9.22-4.81,14.16-3.12l149.06,51.01c3.18,1.09,5.86,3.29,7.55,6.2
					c109.03,188.16,164.36,389.61,151.82,552.71c-0.3,3.86-2.18,7.42-5.21,9.83C1099.51,2417.48,1096.44,2418.54,1093.3,2418.54z
					 M781.79,2167.44c93.66,127.6,191.55,200.01,298.57,220.8c7.57-153.55-45.34-340.6-146.51-516.79l-136-46.54
					c-36.97,36.68-63.21,74.95-81.65,119.17l163.63,91.63c3.72,2.08,6.29,5.76,6.96,9.98c0.67,4.21-0.62,8.51-3.52,11.64
					L781.79,2167.44z"/>
			</g>
			<g class="st2">
				<path class="st1" d="M1024.82,2022.96l-0.37,3.25c-89.24,6.09-168.81-4.09-240.25-28.07c-51.82-17.34-99.37-41.92-143.25-72.74
					c23.01-59.77,65.35-98.12,113.55-130.05l39.74,13.57l149.1,51.03C976.06,1912.95,1003.16,1967.33,1024.82,2022.96z"/>
			</g>
			<g class="st2">
				<path class="st1" d="M1093.37,2391.58c0.19,24.77-0.51,50.15-2,76.18c-2.65,87.19-17.99,177.69-41.74,270.32
					c-83.52,9.81-165.04,11.53-244.52,4.46l0.05-0.09l13.62-60.1l7.2-31.88c19.94-87.98-34.53-175.69-122.24-196.74l-93.19-22.4
					l-20.92-99.28l-13.71-65.21l22.87,5.53L1093.37,2391.58z"/>
			</g>
		</g>
		<g>
			<g>
				<path class="st4" d="M1362.7,2469.74l-371.67,7.63c-43.99,0.92-80.76-34.35-81.67-78.39l-4.05-197.78
					c-0.79-38.56,26.16-71.51,62.43-79.72c5.14-1.2,10.47-1.83,15.96-1.95l371.62-7.63c44.05-0.92,80.81,34.35,81.67,78.39
					l3.25,156.65l0.86,41.14C1442.01,2432.12,1406.69,2468.82,1362.7,2469.74z"/>
			</g>
			<g>
				<path class="st4" d="M1362.7,2469.74l-371.67,7.63c-43.99,0.92-80.76-34.35-81.67-78.39l-4.05-197.78
					c-0.79-38.56,26.16-71.51,62.43-79.72c5.14-1.2,10.47-1.83,15.96-1.95l371.62-7.63c44.05-0.92,80.81,34.35,81.67,78.39
					l3.25,156.65l0.86,41.14C1442.01,2432.12,1406.69,2468.82,1362.7,2469.74z"/>
			</g>
			<g>
				<path class="st4" d="M1362.7,2469.74l-371.67,7.63c-43.99,0.92-80.76-34.35-81.67-78.39l-4.05-197.78
					c-0.79-38.56,26.16-71.51,62.43-79.72c5.14-1.2,10.47-1.83,15.96-1.95l371.62-7.63c44.05-0.92,80.81,34.35,81.67,78.39
					l3.25,156.65l0.86,41.14C1442.01,2432.12,1406.69,2468.82,1362.7,2469.74z"/>
			</g>
			<g class="st8">
				<path class="st1" d="M1363.25,2469.76l-371.67,7.63c-43.99,0.92-80.76-34.35-81.67-78.39l-4.05-197.78
					c-0.79-38.56,26.16-71.51,62.43-79.72c21.39,13.58,34.98,22.28,34.98,22.28c21.36,158.39,68.19,236.63,265.4,235.8
					c85.13-0.38,138.58-14.46,172.11-32.62l0.86,41.14C1442.56,2432.13,1407.24,2468.84,1363.25,2469.76z"/>
			</g>
			<g>
				<path class="st1" d="M981.12,2492.23c-22.29,0-43.41-8.52-59.64-24.09c-16.67-16-26.11-37.45-26.58-60.41l-4.41-214.68
					c-0.97-47.56,36.92-87.05,84.48-88.02l388.51-7.99c47.63-1.18,87.04,36.92,88.02,84.48l4.41,214.67
					c0.47,22.96-8.08,44.79-24.07,61.45c-16,16.67-37.45,26.1-60.41,26.57l-388.51,7.99
					C982.32,2492.23,981.72,2492.23,981.12,2492.23z M1365.25,2126.34c-0.4,0-0.79,0-1.18,0.01l-388.51,7.99
					c-31.4,0.65-56.42,26.72-55.78,58.12l4.41,214.68c0.31,15.14,6.55,29.29,17.57,39.86c11.02,10.58,25.41,16.12,40.55,15.92h0
					l388.51-7.99c15.13-0.31,29.29-6.55,39.86-17.57c10.57-11.02,16.23-25.42,15.91-40.55l-4.41-214.67
					C1421.55,2151.13,1396.12,2126.34,1365.25,2126.34z"/>
			</g>
			<g>
				<path class="st4" d="M1231.21,2471.07l-0.71,1.42l-239.49,4.91c-32.24,0.63-60.57-18.09-73.76-45.56
					c-4.83-9.95-7.63-21.05-7.85-32.84l-1.84-87.87l-0.6-29l-1.01-50.91l-0.63-30c-0.89-44.05,34.37-80.76,78.37-81.68l80.3-1.62
					c-36.87,7.73-64.38,40.95-63.6,79.87l1.18,58.71l1.02,48.14l1.83,91.03c0.95,43.95,37.71,79.24,81.68,78.37L1231.21,2471.07z"/>
			</g>
			<g>
				<path class="st10" d="M1269.15,2470.27l-0.71,1.42l-277.43,5.7c-32.24,0.63-60.57-18.09-73.76-45.56
					c-4.83-9.95-7.63-21.05-7.85-32.84l-1.84-87.87l-0.6-29l-1.01-50.91c16.06-2.55,37.46-0.77,49.57,22.79
					c16.79,32.64,33.63,21.31,46.05,2.48l1.02,48.14l1.83,91.03c0.95,43.95,37.71,79.24,81.68,78.37L1269.15,2470.27z"/>
			</g>
			<g>
				<path class="st1" d="M989.3,2492.06c-24.43,0-47.59-9.35-65.4-26.44c-18.3-17.57-28.66-41.12-29.16-66.32l-4.06-197.81
					c-1.1-52.19,40.5-95.54,92.73-96.64l80.28-1.64l3.32,28.99c-30.75,6.47-52.6,33.94-51.95,65.3l4.06,197.81
					c0.34,17.38,7.5,33.64,20.16,45.79c12.65,12.14,29.19,18.63,46.52,18.26l231.2-3.39c1.61-0.02,3.22-0.04,4.82-0.04l5.39-0.11
					l0.01,0.33c8.26,0.71,14.87,3.58,15.02,14.1l0.22,14.65l-14.73,0.22l-336.4,6.9C990.65,2492.05,989.98,2492.06,989.3,2492.06z
					 M1009.38,2133.64l-25.37,0.52c-36.06,0.76-64.79,30.7-64.04,66.73l4.07,197.82c0.34,17.37,7.5,33.63,20.15,45.77
					c12.65,12.13,29.23,18.58,46.52,18.26l28.17-0.58c-18.25-17.56-28.57-41.08-29.07-66.24l-4.06-197.8
					C985.25,2173.71,994.14,2150.94,1009.38,2133.64z"/>
			</g>
			<g>
				<path class="st11" d="M1149,2295.31c0.11,7.32-9.3,66.52-9.3,66.52s-18.71,0.28-41.68,0.62c-28.7,0.42-52.4-28.94-52.94-65.6
					c-0.54-36.65,22.28-66.71,50.98-67.13c19.37-0.29,41.68-0.62,41.68-0.62S1148.83,2283.39,1149,2295.31z"/>
			</g>
			<g>
				<path class="st12" d="M1149,2295.31c0.11,7.32-9.3,66.52-9.3,66.52s-18.71,0.28-41.68,0.62c-28.7,0.42-52.4-28.94-52.94-65.6
					c-0.54-36.65,22.28-66.71,50.98-67.13c19.37-0.29,41.68-0.62,41.68-0.62S1148.83,2283.39,1149,2295.31z"/>
			</g>
			<g>
				<path class="st1" d="M1097.39,2371.75c-16.51,0-31.98-7.92-43.64-22.36c-11.3-13.99-17.68-32.61-17.97-52.4
					c-0.62-41.72,26.36-76.06,60.14-76.57l29.1-0.43c0.12,0,0.24,0,0.36,0c11.67,0,21.7,8.24,23.94,19.71
					c5.85,29.91,8.87,48.58,8.97,55.47l0,0c0.02,1.66,0.1,6.68-7.44,55.5c-1.82,11.78-11.81,20.46-23.74,20.64l-28.95,0.42
					C1097.91,2371.74,1097.65,2371.75,1097.39,2371.75z M1125.38,2238.58c-0.03,0-0.06,0-0.09,0l-29.1,0.43
					c-23.53,0.35-42.29,26.23-41.82,57.7c0.23,15.66,5.15,30.22,13.85,41c8.17,10.12,18.62,15.77,29.66,15.43l28.95-0.42
					c2.84-0.04,5.21-2.1,5.65-4.89c6.89-44.58,7.23-51.45,7.23-52.38l0,0c-0.08-5.46-3.31-24.97-8.63-52.18
					C1130.54,2240.53,1128.16,2238.58,1125.38,2238.58z"/>
			</g>
			<g>
				
					<ellipse transform="matrix(0.9999 -0.0148 0.0148 0.9999 -33.8567 17.1089)" class="st11" cx="1138.72" cy="2295.46" rx="51.97" ry="66.37"/>
			</g>
			<g class="st13">
				<path class="st4" d="M1086.77,2296.25c0.04,2.76,0.21,5.44,0.5,8.09c5.08-29.17,25.25-51.09,49.73-51.46
					c26.57-0.39,48.81,24.72,52.44,57.5c0.91-5.03,1.32-10.29,1.24-15.69c-0.54-36.66-24.23-66-52.94-65.59
					C1109.03,2229.51,1086.22,2259.59,1086.77,2296.25z"/>
			</g>
			<g>
				<path class="st12" d="M1086.77,2296.25c0.55,36.62,24.23,66,52.94,65.59c28.71-0.45,51.51-30.49,50.97-67.15
					c-0.07-5.77-0.74-11.4-1.91-16.71c-7.21,24.83-25.78,42.58-47.79,42.91c-24.15,0.39-44.8-20.37-51.03-48.84
					C1087.78,2279.55,1086.65,2287.71,1086.77,2296.25z"/>
			</g>
			<g>
				<path class="st1" d="M1139.07,2371.13c-16.51,0-31.98-7.92-43.64-22.36c-11.3-14-17.68-32.61-17.97-52.4
					c-0.3-19.79,5.53-38.58,16.41-52.91c11.39-15,26.92-23.41,43.72-23.66c16.81-0.09,32.57,7.69,44.4,22.35
					c11.3,13.99,17.68,32.61,17.97,52.4c0.62,41.72-26.36,76.06-60.14,76.57C1139.58,2371.13,1139.33,2371.13,1139.07,2371.13z
					 M1138.34,2238.39c-0.16,0-0.31,0-0.47,0c-10.96,0.16-21.33,5.95-29.19,16.3c-8.38,11.04-12.86,25.74-12.63,41.4
					s5.15,30.22,13.85,41c8.17,10.12,18.82,15.65,29.66,15.43c23.53-0.35,42.29-26.23,41.82-57.7c-0.23-15.66-5.15-30.22-13.85-41
					C1159.48,2243.86,1149.14,2238.39,1138.34,2238.39z"/>
			</g>
			<g>
				<path class="st1" d="M1247.13,2481.68c-0.01,0-0.02,0-0.03,0c-6.07-0.02-10.97-4.96-10.95-11.03l0.31-100.1
					c0.09-26.96,13.58-51.89,36.1-66.71c16.74-11.01,26.54-29.55,26.19-49.59l-2.41-141.07c-0.1-6.06,4.73-11.07,10.8-11.17
					c0.06,0,0.13,0,0.19,0c5.98,0,10.88,4.8,10.98,10.81l2.41,141.07c0.47,27.61-13.02,53.15-36.09,68.32
					c-16.35,10.75-26.14,28.85-26.2,48.42l-0.31,100.1C1258.1,2476.78,1253.19,2481.68,1247.13,2481.68z"/>
			</g>
			<g>
				<path class="st4" d="M645.9,2212.21c0,0-39.42,23.33-46.62,66.41c-9.85,58.96,32.63,84.83,32.63,84.83s163.47,48.74,284.02-2.9
					c0,0,66.99-81.07-4.69-129.15C911.24,2231.41,728.85,2253.38,645.9,2212.21z"/>
			</g>
			<g class="st8">
				<path class="st1" d="M671.96,2295.55c0,0-39.2-23.9-33.52-78.09c-11.78,9.09-33.93,29.89-39.15,61.17
					c-9.85,58.96,32.63,84.83,32.63,84.83s163.47,48.74,284.02-2.9c0,0,24.17-29.3,27.91-63.11
					C824.76,2341.1,671.96,2295.55,671.96,2295.55z"/>
			</g>
			<g>
				<path class="st1" d="M783.44,2399.06c-81.94,0-151.28-20.24-155.72-21.57l-1.81-0.54l-1.62-0.99
					c-2.08-1.26-50.82-31.8-39.46-99.76c8.23-49.24,51.76-75.51,53.61-76.61l6.85-4.05l7.13,3.54
					c78.05,38.73,255.29,17.98,257.07,17.78l5.4-0.65l4.52,3.03c22.33,14.97,35.36,34.35,38.75,57.58
					c6.82,46.75-29.38,91.2-30.93,93.07l-2.26,2.74l-3.26,1.4C877.63,2392.91,828.62,2399.06,783.44,2399.06z M638.16,2350
					c18.85,5.2,161.82,42.13,268.52-1.45c6.6-8.99,26.67-39.12,22.46-67.6c-1.99-13.43-9.15-24.71-21.83-34.36
					c-31.34,3.34-179.2,16.75-259.88-17.56c-9.97,7.72-29.31,25.75-33.7,52C606.56,2323.97,631.89,2345.41,638.16,2350z"/>
			</g>
			<g>
				<path class="st4" d="M1438.67,2228.49l155.99,1.46c25.83,0.24,50.4,12.16,63.16,32.46c10.42,16.58,10.17,32.99-0.76,49.24
					c-13.45,20-38.8,30.91-64.73,29.62l-152.87-7.58L1438.67,2228.49z"/>
			</g>
			<g class="st8">
				<path class="st1" d="M1634.17,2286.69l-102.72-5.09c-28.15-1.4-50.32-24.52-50.53-52.7l0,0l-42.25-0.39l0.79,105.2l152.87,7.58
					c25.93,1.29,51.28-9.62,64.73-29.62c6.55-9.74,9.18-19.54,8.06-29.4C1655.43,2285.64,1644.86,2287.21,1634.17,2286.69z"/>
			</g>
			<g>
				<path class="st1" d="M1596.54,2356.03c-1.64,0-3.28-0.04-4.93-0.12l-166.69-8.27l-1.01-133.94l170.9,1.59
					c31.47,0.3,60.37,15.36,75.43,39.31c13.54,21.55,13.2,44.1-1.01,65.22C1654.03,2342.43,1626.5,2356.03,1596.54,2356.03z
					 M1454.02,2319.74l139.05,6.9c21.3,1,41.67-8.04,51.85-23.17c7.66-11.39,7.81-21.65,0.51-33.27c-9.8-15.59-29.3-25.4-50.89-25.6
					l-141.09-1.32L1454.02,2319.74z"/>
			</g>
		</g>
		<g>
			<g>
				<path class="st0" d="M341.54,1002.85c-3.53-0.51-7.11-0.56-10.69-0.14c-39.79,4.32-83.99,63.07-135.21,160.49
					c-59.31-8.37-95.28-42.39-136.23-56.24c-12.83-4.37-26.12-6.74-40.81-5.72c63.16-103.41,155.01-126.56,260.65-111.18
					c16.78,2.42,33.93,5.81,51.36,10.04C334.24,1001,337.87,1001.92,341.54,1002.85z"/>
			</g>
			<g>
				<path class="st0" d="M455.5,1026.7v175.27c-73.34,68.83-145.29,119.82-213.52,123.77c-43.09,2.56-84.68-13.71-124.24-56.01
					c53.4-33.23,84.54-137.25,137.3-205.85C298.69,1006.99,357.2,974.5,455.5,1026.7z"/>
			</g>
			<g>
				<path class="st1" d="M233.66,1344.59c-1.85,0-3.68-0.03-5.52-0.09c-45.16-1.49-86.88-22.38-123.98-62.08
					c-3.8-4.06-5.58-9.61-4.85-15.12s3.88-10.41,8.61-13.35c27.61-17.2,50.41-60.1,74.54-105.53
					c27.37-51.53,55.68-104.81,98.27-137.29c51.14-38.98,111.16-39.26,183.49-0.84c6.07,3.23,9.87,9.54,9.87,16.42v175.27
					c0,5.14-2.13,10.04-5.87,13.56C373.34,1304.53,300.66,1344.59,233.66,1344.59z M145.88,1271.27
					c26.18,23.25,53.64,35.09,83.48,36.07c55.88,1.74,121.91-34.25,207.55-113.46v-155.77c-122.38-59.08-170.62,31.74-221.62,127.74
					C193.48,1206.92,172.65,1246.13,145.88,1271.27z"/>
			</g>
			<g>
				<path class="st1" d="M460.07,1044.72c-69.37,13.93-111.41,66.93-153.51,119.99c-15.06,18.13-31.21,36.55-51.68,50.66
					c-8.41,5.64-17.39-6.51-9.34-12.86c17.12-13.83,30.89-31.93,44.18-50.7c27.11-38.95,53.61-80.53,93.4-109.47
					c20.22-14.98,43.47-26.33,67.82-33.66C475.72,1002.19,485.05,1038.55,460.07,1044.72L460.07,1044.72z"/>
			</g>
			<g>
				<path class="st1" d="M195.65,1181.8c-0.86,0-1.73-0.06-2.6-0.18c-40.54-5.72-70.71-22.23-97.33-36.79
					c-27.44-15.01-49.12-26.84-75.84-25.01c-6.92,0.53-13.57-2.94-17.18-8.89c-3.61-5.94-3.61-13.41,0.02-19.35
					C95.23,940.08,243.06,958.1,346.2,984.84c9.55,2.48,15.5,11.98,13.56,21.65c-1.94,9.68-11.1,16.15-20.87,14.75
					c-29.37-4.19-72.03,46.46-126.8,150.62C208.86,1178.03,202.48,1181.8,195.65,1181.8z M51.86,1085.52
					c22.4,5.17,42.28,16.04,61.72,26.68c21.79,11.92,44.22,24.2,72.02,30.31c35.12-65.29,65.47-108.94,93.67-133.67
					C176.27,993.32,103.94,1017.83,51.86,1085.52z"/>
			</g>
			<g>
				<path class="st1" d="M259.73,1074.96c-39.21-5.19-79.14-6.81-117.7,0.69c-12.62,2.23-17.36-15.72-5.32-20.02
					c40.32-13.65,83.18-17.66,125.44-17.77C288.36,1038.86,285.91,1077.36,259.73,1074.96L259.73,1074.96z"/>
			</g>
			<g class="st2">
				<path class="st1" d="M455.5,1026.7v175.27c-73.34,68.83-145.29,119.82-213.52,123.77c25.89-79.48,39.41-167.04,13.06-261.86
					C298.69,1006.99,357.2,974.5,455.5,1026.7z"/>
			</g>
			<g class="st2">
				<path class="st1" d="M330.85,1002.71c-39.79,4.32-83.99,63.07-135.21,160.49c-59.31-8.37-95.28-42.39-136.23-56.24
					c79.34-13.76,151.66-56.75,219.84-116.89c16.78,2.42,33.93,5.81,51.36,10.04L330.85,1002.71z"/>
			</g>
		</g>
		<g>
			<g>
				<path class="st4" d="M1768.6,1550.47c-51.52,105.03-129.91,197.7-231.29,267.12c-20.68,14.15-42.24,27.33-64.73,39.43
					c-10.93,5.92-22.16,11.56-33.58,17.04c-34.5,16.31-69.67,29.59-105.26,39.96c-30.65,9.01-61.64,15.8-92.65,20.54
					c-37.45,5.74-75.04,8.39-112.39,8.15c-13.62-0.13-27.2-0.62-40.73-1.46c-247.69-15.92-480.15-159.68-595.82-396.13
					c-170.46-348.28-22.85-765.68,329.59-932.32c67.9-32.05,138.5-52.58,209.38-62.1c8.27-1.19,16.62-2.15,24.97-2.93
					c22.32-2.24,44.63-3.43,66.86-3.56c51.42-0.29,102.49,5.01,152.23,15.52c49.74,10.45,98.28,26.16,144.59,46.77
					c14.73,6.54,29.24,13.56,43.54,21.12c21.42,11.33,42.28,23.69,62.54,37.24c101.05,67.17,185.99,160.86,242.75,276.9
					C1866.65,1142.09,1859.44,1365.27,1768.6,1550.47z"/>
				<path class="st1" d="M1133.37,1944.24c-1.56,0-3.12,0-4.69-0.01c-13.56-0.13-27.29-0.62-40.82-1.46
					c-256.59-16.49-485.38-168.6-597.09-396.98c-82.29-168.13-93.66-357.63-32.02-533.57c62.14-177.35,190.81-319.69,362.32-400.78
					c66.92-31.58,137.51-52.52,209.83-62.24c7.87-1.13,16.29-2.12,25.03-2.94c22.24-2.24,44.78-3.44,66.99-3.57
					c51.06-0.29,102.35,4.94,152.55,15.55c49.73,10.44,98.48,26.21,144.9,46.87c14.9,6.62,29.58,13.74,43.63,21.16
					c21.87,11.57,42.95,24.13,62.67,37.32c104.24,69.28,188.36,165.24,243.27,277.49c94.99,194.05,94.99,416.41,0.01,610.06
					c-52.65,107.35-132.81,199.92-231.79,267.71c-20.98,14.35-42.8,27.64-64.87,39.52c-10.1,5.47-21.11,11.06-33.65,17.07
					c-34.08,16.11-69.58,29.58-105.49,40.05c-30.07,8.84-61.31,15.76-92.85,20.58C1205.93,1941.49,1169.64,1944.24,1133.37,1944.24z
					 M1126.89,545.7c-1.32,0-2.63,0-3.95,0.01c-22.12,0.13-44.57,1.33-66.72,3.56c-8.7,0.81-17.07,1.8-24.9,2.92
					c-72.02,9.68-142.32,30.52-208.95,61.98c-170.77,80.74-298.89,222.46-360.76,399.04c-61.37,175.18-50.05,363.84,31.88,531.24
					c111.24,227.4,339.06,378.86,594.56,395.29c13.47,0.83,27.15,1.32,40.65,1.46c37.72,0.26,75.4-2.49,112.15-8.12
					c31.4-4.8,62.51-11.7,92.46-20.5c35.77-10.42,71.11-23.83,105.04-39.87c12.49-5.99,23.45-11.55,33.51-17
					c21.98-11.83,43.71-25.07,64.6-39.36c98.55-67.49,178.36-159.67,230.79-266.54l0,0c94.57-192.8,94.56-414.19-0.01-607.4
					C1712.56,830.64,1628.8,735.1,1525,666.11c-19.64-13.13-40.64-25.63-62.41-37.16c-13.99-7.39-28.6-14.48-43.45-21.08
					c-46.22-20.57-94.77-36.27-144.29-46.67C1226.16,550.91,1176.4,545.7,1126.89,545.7z"/>
			</g>
			<g>
				<path class="st10" d="M492.13,1545.1c115.64,236.48,348.15,380.24,595.83,396.13c13.53,0.86,27.1,1.35,40.71,1.47
					c37.36,0.26,74.94-2.41,112.39-8.13c31.02-4.77,62.02-11.54,92.65-20.54c35.61-10.36,70.76-23.64,105.3-39.95
					c11.39-5.51,22.63-11.12,33.58-17.03c22.5-12.12,44.03-25.34,64.72-39.47c101.38-69.43,179.79-162.07,231.3-267.13
					c28.31-57.69,48.51-119.12,59.92-182.37c-51.48,99.12-127.29,186.47-224.01,252.71c-20.67,14.19-42.22,27.35-64.72,39.47
					c-10.91,5.92-22.14,11.53-33.58,17.03c-34.53,16.31-69.68,29.59-105.25,39.97c-30.67,8.98-61.63,15.77-92.65,20.54
					c-37.45,5.72-75.07,8.37-112.39,8.13c-13.65-0.14-27.22-0.63-40.75-1.49c-247.69-15.88-480.15-159.63-595.83-396.13
					c-67.53-137.94-85.09-286.72-59.85-426.44C401.73,1109.87,391.5,1339.54,492.13,1545.1z"/>
			</g>
			<g>
				<path class="st1" d="M1133.37,1954.38c-1.58,0-3.17,0-4.75-0.02c-13.77-0.13-27.68-0.63-41.38-1.48
					c-260.23-16.73-492.26-171.01-605.57-402.64c-83.49-170.59-95.02-362.85-32.48-541.38c63.04-179.93,193.57-324.33,367.56-406.59
					c67.86-32.03,139.46-53.27,212.81-63.12c7.94-1.14,16.53-2.15,25.43-2.98c22.48-2.26,45.35-3.48,67.88-3.62
					c51.7-0.35,103.8,5.01,154.71,15.77c50.42,10.59,99.85,26.58,146.92,47.52c15.11,6.71,30,13.93,44.25,21.46
					c22.18,11.74,43.57,24.48,63.57,37.85c105.71,70.27,191.04,167.6,246.74,281.47c96.37,196.88,96.38,422.5,0,618.98
					c-53.42,108.92-134.74,202.83-235.17,271.61c-21.28,14.56-43.41,28.04-65.79,40.08c-10.22,5.54-21.37,11.2-34.07,17.28
					c-34.62,16.36-70.61,30.02-107.04,40.63c-30.48,8.96-62.17,15.99-94.16,20.87C1206.96,1951.59,1170.15,1954.38,1133.37,1954.38z
					 M1126.89,555.84c-1.3,0-2.59,0-3.89,0.01c-21.8,0.13-43.93,1.31-65.76,3.51c-8.6,0.81-16.81,1.77-24.48,2.87
					c-71.08,9.55-140.38,30.1-206.07,61.11c-168.29,79.57-294.55,219.22-355.52,393.23c-60.47,172.6-49.31,358.49,31.42,523.43
					c109.64,224.14,334.22,373.43,586.1,389.62c13.27,0.83,26.77,1.31,40.1,1.44c37.08,0.24,74.29-2.46,110.51-8.01
					c30.96-4.73,61.63-11.53,91.14-20.21c35.28-10.27,70.12-23.5,103.57-39.31c12.29-5.88,23.1-11.37,33.01-16.74
					c21.69-11.67,43.11-24.72,63.71-38.81c97.11-66.5,175.75-157.32,227.4-262.64c93.17-189.97,93.17-408.1-0.02-598.47
					c-53.88-110.16-136.43-204.32-238.73-272.32c-19.38-12.96-40.07-25.28-61.54-36.64c-13.78-7.28-28.19-14.27-42.82-20.77
					c-45.58-20.28-93.44-35.76-142.26-46.02C1224.75,560.98,1175.69,555.84,1126.89,555.84z M1768.6,1550.47h0.05H1768.6z"/>
			</g>
			<g>
				<path class="st1" d="M1133.37,1961.32c-1.6,0-3.2,0-4.8-0.02c-13.91-0.13-27.94-0.63-41.77-1.49
					c-262.72-16.89-496.97-172.66-611.37-406.52c-84.31-172.27-95.96-366.43-32.8-546.72c63.66-181.7,195.46-327.51,371.14-410.57
					c68.51-32.34,140.8-53.78,214.85-63.72c7.99-1.15,16.7-2.17,25.71-3.02c22.65-2.28,45.73-3.51,68.48-3.65
					c52.38-0.27,104.79,5.07,156.18,15.92c50.89,10.69,100.79,26.83,148.31,47.98c15.25,6.77,30.28,14.06,44.67,21.67
					c22.39,11.85,43.98,24.71,64.19,38.22c106.72,70.94,192.88,169.21,249.11,284.18c97.32,198.82,97.33,426.66,0,625.08l0,0
					c-53.95,109.99-136.07,204.83-237.48,274.28c-21.49,14.69-43.83,28.31-66.43,40.46c-10.31,5.59-21.56,11.29-34.36,17.43
					c-34.98,16.53-71.32,30.33-108.1,41.04c-30.76,9.04-62.76,16.13-95.05,21.07C1207.67,1958.5,1170.5,1961.32,1133.37,1961.32z
					 M1126.89,562.78c-1.29,0-2.57,0-3.85,0.01c-21.58,0.13-43.49,1.3-65.11,3.47c-8.54,0.8-16.63,1.75-24.18,2.83
					c-70.44,9.46-139.05,29.81-204.09,60.52c-166.6,78.77-291.58,217-351.93,389.24c-59.85,170.83-48.8,354.82,31.1,518.09
					c108.55,221.91,330.92,369.72,580.32,385.75c13.13,0.82,26.51,1.29,39.72,1.43c36.66,0.24,73.54-2.43,109.39-7.93
					c30.66-4.69,61.02-11.42,90.23-20c34.95-10.18,69.44-23.27,102.56-38.93c12.14-5.82,22.86-11.25,32.67-16.57
					c21.49-11.57,42.7-24.49,63.1-38.44c96.12-65.82,173.96-155.73,225.09-259.96l0,0c92.22-188.03,92.22-403.94-0.02-592.37
					c-53.34-109.05-135.07-202.28-236.34-269.59c-19.2-12.84-39.69-25.04-60.95-36.29c-13.64-7.2-27.9-14.13-42.39-20.56
					c-45.13-20.08-92.53-35.41-140.87-45.57C1223.79,567.87,1175.21,562.78,1126.89,562.78z M1768.6,1550.47h0.05H1768.6z"/>
			</g>
			<g>
				<path class="st1" d="M1669.3,1700.08c-401.33,303.34-975.36,123.17-1028.53-369.12C604.6,996.04,909.09,703.9,1237.39,691.58
					c238.94-8.97,476.63,85.37,593.66,447.31c0,0,26.75,168.01-14.32,282.34c-41.07,114.33-100.6,218.6-100.6,218.6L1669.3,1700.08z
					"/>
			</g>
			<g>
				<path class="st14" d="M640.79,1330.96c53.15,492.28,627.2,672.44,1028.51,369.13l9.48-12.22
					c-452.69,99.52-920.36-150.95-983.5-647.74C650.89,1128.33,629.65,1227.6,640.79,1330.96z"/>
			</g>
			<g>
				<path class="st1" d="M1236.39,1936.51c-164.3,0-322.24-52.06-444.51-148.52c-138.07-108.92-221.57-263.75-241.46-447.76
					c-18.26-169,37.96-338.73,158.3-477.94c133.68-154.64,331.01-251.37,527.86-258.76c109.39-4.11,208.75,11.45,295.33,46.22
					l1.55,0.62l1.39,0.93c106.42,70.73,192.3,168.7,248.35,283.3c97.01,198.18,97.01,425.27,0,623.04l0,0
					c-53.77,109.63-135.62,204.16-236.7,273.38c-21.42,14.64-43.69,28.21-66.21,40.34c-10.28,5.57-21.5,11.26-34.26,17.38
					c-34.86,16.48-71.08,30.23-107.74,40.91l-2.48,0.52C1302.58,1934.41,1269.34,1936.51,1236.39,1936.51z M1270.56,635.42
					c-10.81,0-21.74,0.21-32.77,0.62c-187.99,7.05-376.58,99.59-504.47,247.53c-114.37,132.3-167.84,293.24-150.56,453.16
					c18.93,175.12,98.21,322.33,229.27,425.72c139.67,110.18,328.54,159.58,518.38,135.6c34.6-10.15,68.79-23.16,101.64-38.69
					c12.19-5.84,22.94-11.29,32.78-16.63c21.56-11.6,42.84-24.57,63.3-38.56c96.45-66.05,174.56-156.26,225.87-260.86
					c92.54-188.68,92.53-405.33-0.02-594.41c-53.28-108.92-134.78-202.1-235.75-269.58
					C1444.96,650.15,1361.79,635.42,1270.56,635.42z M1768.6,1550.47h0.05H1768.6z"/>
			</g>
			<g>
				<path class="st1" d="M1235.48,1863.83c-89.71,0-178.62-17.54-261.51-53.37c-197.68-85.44-324.57-259.63-348.14-477.88
					c-16.25-150.51,33.81-301.67,140.97-425.63c119.03-137.69,294.74-223.82,470.02-230.39c301.98-11.36,506.66,142.66,608.53,457.7
					l0.54,2.26c1.12,7.01,26.88,173.16-15.01,289.78c-41.04,114.24-101.09,219.92-101.7,220.98l-1.18,1.77l-48.05,61.82l-1.58,1.2
					C1546.15,1812,1389.64,1863.83,1235.48,1863.83z M1267,706.05c-9.59,0-19.24,0.18-29.05,0.55
					c-167.1,6.27-334.73,88.52-448.4,220.01c-101.65,117.58-149.17,260.61-133.83,402.74c22.38,207.19,142.72,372.48,330.18,453.51
					c214.84,92.87,472.44,56.98,672.76-93.58l44.93-57.81c5.89-10.45,60.87-109.19,99-215.33
					c37.56-104.56,15.95-259.16,13.79-273.79C1722.35,852.72,1537.59,706.05,1267,706.05z M1669.3,1700.08h0.05H1669.3z"/>
			</g>
			<g>
				<path class="st4" d="M325.29,1313.41c-2.02,137.87,78.83,254.98,180.62,261.54s185.95-99.9,187.97-237.77
					c0.03-0.86,0.02-1.78,0-2.65c0.99-136.72-79.54-252.38-180.62-258.89c-78.63-5.07-146.74,57.31-174.6,149.5
					C330.46,1252.28,325.75,1282.05,325.29,1313.41z"/>
			</g>
			<g>
				<path class="st10" d="M325.29,1313.41c-2.02,137.87,78.83,254.98,180.62,261.54s185.95-99.9,187.97-237.77
					c0.03-0.86,0.02-1.78,0-2.65c-11.4,13.43-29.02,26.24-52.55,20.02c-41.21-10.91-114.08-104.35-114.08-104.35
					s-81.71-11.4-188.59-25.06C330.46,1252.28,325.75,1282.05,325.29,1313.41z"/>
			</g>
			<g>
				<path class="st1" d="M514.97,1593.82c-3.41,0-6.83-0.11-10.27-0.33c-111.36-7.17-200.2-132.94-198.03-280.35l18.59,0.27
					l-18.59-0.27c1.25-85.06,31.77-161.39,83.73-209.4c36.17-33.42,79.05-49.58,124.02-46.66
					c111.36,7.18,200.2,132.94,198.03,280.35c-1.25,85.06-31.77,161.38-83.73,209.4C595.32,1577.7,556.18,1593.82,514.97,1593.82z
					 M504.33,1093.94c-31.79,0-62.3,12.73-88.69,37.11c-43.87,40.53-70.7,108.81-71.79,182.64
					c-1.88,127.9,71.35,236.78,163.24,242.7c34.55,2.23,67.89-10.52,96.4-36.86c43.87-40.53,70.7-108.81,71.79-182.63
					c1.88-127.9-71.35-236.78-163.24-242.7C509.46,1094.02,506.89,1093.94,504.33,1093.94z"/>
			</g>
			<g>
				
					<ellipse transform="matrix(0.9967 -0.0812 0.0812 0.9967 -107.7427 40.9778)" class="st4" cx="449.89" cy="1345.03" rx="150.05" ry="198.49"/>
				<path class="st1" d="M456.81,1544.94c-15.91,0-31.95-3.36-47.72-10.08c-44.97-19.17-81.15-63.17-99.26-120.7l0,0
					c-32.49-103.23,3.78-218.29,80.85-256.48c32.02-15.87,66.61-16.72,100.01-2.49c44.98,19.17,81.16,63.16,99.27,120.7
					c32.49,103.23-3.78,218.29-80.85,256.48C492.21,1540.75,474.59,1544.94,456.81,1544.94z M442.97,1148.27
					c-17.31,0-34.45,4.08-50.9,12.23c-75.74,37.53-111.29,150.9-79.25,252.72l0,0c17.83,56.66,53.37,99.94,97.5,118.75
					c32.54,13.86,66.21,13.04,97.39-2.41c75.74-37.53,111.29-150.9,79.25-252.72c-17.83-56.66-53.37-99.94-97.5-118.75
					C474.09,1151.54,458.47,1148.27,442.97,1148.27z"/>
			</g>
			<g>
				<path class="st10" d="M590.44,1431.67c9.83-36.28,9.59-75.39,1.18-112.27c-29.48,80.84-105.02,112.65-175.12,70.8
					c-45.31-27.02-77.9-78.63-90.89-135.7c-1.89,5.09-3.55,10.44-5.05,15.94c-24.98,92.4,15.18,203.4,89.72,247.91
					C484.81,1562.87,565.46,1524.01,590.44,1431.67z"/>
			</g>
			<g>
				<path class="st1" d="M454.08,1562.25c-2.8,0-5.6-0.1-8.42-0.31c-86.33-6.24-155.5-110.47-154.19-232.35
					c0.78-72.22,26.34-138.44,68.38-177.14c27.29-25.12,59.4-37.13,92.85-34.7c86.33,6.24,155.5,110.47,154.19,232.35
					c-0.78,72.22-26.34,138.44-68.38,177.14C513.52,1550.25,484.48,1562.25,454.08,1562.25z M444.47,1154.64
					c-21.02,0-41.46,8.63-59.43,25.18c-34.64,31.88-55.71,88.02-56.38,150.18c-1.1,102.6,52.59,190.02,119.69,194.87
					c22.99,1.67,45.43-6.98,64.99-24.98c34.64-31.88,55.72-88.02,56.38-150.18c1.1-102.6-52.59-190.02-119.69-194.87
					C448.17,1154.7,446.32,1154.64,444.47,1154.64z"/>
			</g>
			<g class="st15">
				<path class="st4" d="M1331.58,917.68c0,0,221.86,25.61,338.33,158.38c0.12,0.14,0.24,0.28,0.37,0.42
					c24.49,27.97,40.91,61.93,47.8,98.18c9.11,47.95,8.28,82.26,6.37,112.43c-5.85,91.75-25.99,133.55-25.99,133.55
					c55.99-44.85,89.31-97.84,94.95-174.21c0.54-7.53,0.81-15.32,0.83-23.32c0.01-1.84-0.02-3.67-0.08-5.51
					c0.04-0.01,0.03-0.06-0.02-0.11c-1.11-16.22-3.38-37.48-7.97-61.27c-13.81-71.75-48.51-166.49-135.41-215.31
					C1488.25,849.61,1324.54,907.57,1331.58,917.68z"/>
			</g>
			<g class="st15">
				
					<ellipse transform="matrix(0.2453 -0.9694 0.9694 0.2453 -480.5412 1687.1823)" class="st4" cx="843.35" cy="1152.23" rx="108.87" ry="94.78"/>
			</g>
			<g class="st15">
				
					<ellipse transform="matrix(0.3343 -0.9425 0.9425 0.3343 -736.8417 1645.5848)" class="st4" cx="796.47" cy="1344.39" rx="44.97" ry="39.12"/>
			</g>
		</g>
		<g>
			<path class="st16" d="M834.8,819.05c350.85,103.55,702.35,265.37,997.07,447.47c-4.61-34.74-15.09-66.76-35.75-94.04
				c-228.11-140.23-514.92-267.59-828.71-389.04L834.8,819.05z"/>
		</g>
		<g>
			<path class="st1" d="M1831.86,1280.47c-2.54,0-5.08-0.69-7.33-2.08c-305.09-188.5-657.99-346.88-993.68-445.96
				c-5.99-1.77-10.07-7.3-10-13.54c0.08-6.25,4.3-11.67,10.33-13.3l132.61-35.62c2.86-0.77,5.89-0.6,8.65,0.46
				c361.58,139.95,625.63,263.92,830.98,390.17c1.47,0.91,2.77,2.08,3.81,3.46c20.48,27.05,33.06,59.96,38.46,100.62
				c0.71,5.34-1.72,10.61-6.25,13.54C1837.14,1279.72,1834.5,1280.47,1831.86,1280.47z M885.58,819.85
				c313.9,97.27,639.98,244.42,926.54,418.24c-5.66-21.21-14.13-39.42-25.59-55.13c-202.73-124.35-463.48-246.75-819.91-384.87
				L885.58,819.85z"/>
		</g>
		<g>
			<path class="st16" d="M1498.94,973.98c73.31,11.37,150.76,47.86,230.28,96.93c16.93,10.45,26.24,31.22,23.03,51.74
				c-14.2,90.81-64.55,139.2-145.18,152.05c-28.59,4.56-57.77-5.43-79.77-26.09c-95.49-89.67-117.28-175.4-65.35-257.18
				C1470.15,978.53,1484.43,971.73,1498.94,973.98z"/>
		</g>
		<g class="st15">
			<path class="st4" d="M1729.23,1070.91c-79.52-49.07-156.97-85.56-230.28-96.93c-13.41-2.08-26.55,3.63-34.95,14.68
				c72.87,11.63,149.81,47.93,228.79,96.67c16.93,10.45,26.24,31.22,23.03,51.74c-10.15,64.89-38.76,108.1-83.67,132.18
				c66.01-18.39,107.45-65.61,120.11-146.6C1755.47,1102.13,1746.16,1081.36,1729.23,1070.91z"/>
		</g>
		<g class="st2">
			<path class="st17" d="M1649.65,1240.5c-28.59,4.56-57.77-5.43-79.77-26.09c-89.11-83.68-114.01-163.92-74.75-240.73
				c-13.16-0.62-25.7,5.98-33.17,17.75c-51.92,81.78-30.14,167.5,65.35,257.18c22,20.66,51.17,30.65,79.77,26.09
				c44.08-7.02,79.08-24.69,104.1-54.08C1693.22,1230.25,1672.68,1236.83,1649.65,1240.5z"/>
		</g>
		<g>
			<g>
				<path class="st3" d="M405.91,1411.12l49.59,33.24c-49.03,72.02-52.55,119.9,22.72,125.97h5.77l73.14-1.84
					C390.81,1770.17,257.18,1536.79,405.91,1411.12z"/>
			</g>
			<g class="st2">
				<path class="st1" d="M421.55,1421.6l-15.64-10.48c-123.61,104.45-52.18,283.26,70.97,224.9
					C385.39,1645.42,339.86,1515.04,421.55,1421.6z"/>
			</g>
			<g>
				<path class="st1" d="M429.93,1666.03c-8.68,0-16.2-1.05-22.38-2.48c-39.35-9.04-69.37-41.39-80.31-86.54
					c-12.04-49.65-0.84-123.04,66.68-180.09c6.34-5.36,15.46-5.86,22.35-1.24l49.59,33.24c4.11,2.76,6.96,7.05,7.9,11.91
					s-0.1,9.9-2.88,14c-36.78,54.03-33.59,74.83-30.52,81.26c5.08,10.61,23.65,14.38,38.63,15.66h5l72.68-1.83
					c7.33-0.06,13.99,3.9,17.18,10.45c3.19,6.55,2.26,14.35-2.37,19.97C513.63,1650.47,463.22,1666.03,429.93,1666.03z
					 M407.63,1434.65c-45.46,44.4-53.06,97.32-44.26,133.6c7.55,31.16,27.18,53.24,52.51,59.06c28.48,6.53,62.75-7.52,97.24-39.11
					l-34.9,0.73c-0.5,0-1-0.02-1.5-0.06c-36.12-2.92-59.64-15.27-69.91-36.73c-11.93-24.93-4.6-57.78,23.11-102.54L407.63,1434.65z"
					/>
			</g>
			<g>
				<path class="st0" d="M1751.6,847.18c-424.02-86.76-1009.58,7.34-1342.4,254.08v-61.13
					C819.94,633.3,1453.42,438.17,1751.6,847.18z"/>
			</g>
			<g class="st2">
				<path class="st1" d="M1599.94,704.73c-301.6-17.06-620.3,30.43-856.81,147.47c-22.76,11.26-48.9-7.23-45.9-32.44v0
					c15.74-12.28,31.73-24.24,47.92-35.95c-119.94,68.67-234.71,156.05-335.94,256.31v61.13
					c332.82-246.74,918.38-340.84,1342.4-254.08C1707.73,787,1656.56,740,1599.94,704.73z"/>
			</g>
			<g>
				<path class="st1" d="M409.21,1119.86c-2.85,0-5.72-0.65-8.36-1.98c-6.27-3.16-10.23-9.58-10.23-16.61v-61.13
					c0-4.96,1.98-9.72,5.51-13.21C532.25,892.09,691.2,781.12,855.8,706.01c171.36-78.2,340.59-113.23,489.42-101.27
					c175.55,14.09,321.27,94.14,421.41,231.5c4.52,6.2,4.77,14.55,0.62,21.01c-4.15,6.46-11.84,9.71-19.37,8.16
					c-441.99-90.43-1012.75,17.38-1327.6,250.8C417.02,1118.62,413.12,1119.86,409.21,1119.86z M427.8,1047.91v17.29
					c315.46-216.03,848.37-318.09,1278.29-245.42c-92.07-106.15-214.24-165.97-363.85-177.98
					C1060.66,619.15,702.47,778.44,427.8,1047.91z"/>
			</g>
			<g>
				<path class="st1" d="M1692.53,802.08c-109.6-44.54-231.22-54.65-348.06-35.5c-11.87,1.69-15.35-15.7-3.44-18.53
					c59.67-12.64,121.21-18.51,182.79-15.6c61.57,2.81,123,14.62,181.67,34.77c9.72,3.33,14.89,13.91,11.55,23.63
					C1713.63,800.9,1702.36,806.05,1692.53,802.08L1692.53,802.08z"/>
			</g>
			<g>
				<path class="st0" d="M2047.2,822.33c1.53,59.96-34.86,108.29-88.12,134.37c-43.04,21.15-97.05,27.79-151.05,14.41L1751.6,847.2
					c-194.56-317.82-835.96-302.99-1342.39,192.93C147.17,1020.7,82.1,744.76,341.54,676.76
					c296.3-114.66,352.35-381.12,549.28-557.74c51.59-45.69,118.61-76.78,192.56-91.19c139.11-27.14,302.76,4.6,434.53,108.48
					c59.72,47.08,106.11,108.95,136.83,178.52c76.27,172.43,170.99,318.42,307.36,381.91
					C2011.55,719.8,2045.81,767.81,2047.2,822.33z"/>
			</g>
			<g>
				<path class="st3" d="M2047.2,822.33c2.14,84.54-71.11,145.99-160.82,154.63c182.99-44.71,165.6-179.69,45.55-232.21
					c-171.18-50.34-255.54-218.54-329.62-400.78c-22.68-55.82-59.12-105.18-105.92-143.15c-92.72-75.25-192.19-109.83-297.23-110.94
					c-141.25-1.44-273.48,70.83-351.1,188.89c-97.05,147.62-206.74,274.08-334.13,370.8c-33.09,25.15-70.37,44.02-109.74,57.21
					c-179.27,60.19-258.28,145.48-154.12,276.73c-115.03-89.28-102.25-256,91.47-306.76c296.3-114.66,352.35-381.12,549.28-557.74
					c148.73-131.72,425.28-141.81,627.09,17.29c59.72,47.08,106.11,108.95,136.83,178.52c76.27,172.43,170.99,318.42,307.36,381.91
					C2011.55,719.8,2045.81,767.81,2047.2,822.33z"/>
			</g>
			<g class="st15">
				<g>
					<path class="st4" d="M314.07,719.9c296.3-114.66,352.35-381.12,549.28-557.74c148.73-131.72,425.28-141.81,627.09,17.29
						c59.72,47.08,106.11,108.95,136.83,178.52c76.27,172.43,170.99,318.42,307.36,381.91c22.12,10.31,41.17,25.65,55.63,44.3
						c28.2,29.18,39.47,65.05,28.79,98.72c-1.28,12.73-4.31,24.83-8.86,36.21c23.86-25.9,37.97-59.02,37.02-96.78
						c-1.39-54.52-35.65-102.53-85.1-125.58c-136.37-63.49-231.09-209.48-307.36-381.91c-30.72-69.58-77.11-131.44-136.83-178.52
						C1316.1-22.78,1039.55-12.7,890.82,119.02C693.89,295.64,637.84,562.1,341.54,676.76c-82.99,21.74-132.74,64.77-153.5,113.88
						C215.05,760.22,256.59,734.95,314.07,719.9z"/>
				</g>
				<g>
					<path class="st4" d="M209.58,841.08c-12.9,13.73-22.25,28.35-27.75,43.94c9.69,36.4,32.93,71.1,68.24,98.51
						C206.38,928.46,194.93,881.5,209.58,841.08z"/>
				</g>
				<g>
					<path class="st4" d="M1886.39,976.97c37.19-3.58,71.53-16.27,98.87-35.89c2.76-5.19,4.93-10.47,6.56-15.81
						C1969.66,946.73,1935.14,965.05,1886.39,976.97z"/>
				</g>
			</g>
			<g>
				<path class="st1" d="M409.21,1058.72c-0.46,0-0.92-0.02-1.38-0.05c-159.81-11.85-241.13-110.55-249.05-197.24
					c-6.71-73.47,36.3-165.12,177-202.38c180.59-70.2,267.53-196.25,359.56-329.68c53.34-77.34,108.5-157.31,183.07-224.19
					C954.05,38.19,1063.86,0,1180.35,0c1.42,0,2.83,0.01,4.25,0.02c124.06,0.99,246.52,44.21,344.82,121.7
					c60.53,47.71,109.75,111.89,142.34,185.59c88.79,200.82,183.54,319.22,298.17,372.6c56.72,26.42,94.35,82.14,95.87,141.95
					c1.26,49.79-20.58,95.31-61.51,128.18c-52.97,42.53-128.02,57.16-200.75,39.13c-5.51-1.36-10.1-5.18-12.45-10.34l-55.93-122.89
					c-66.69-108.15-190.82-178.52-349.68-198.2c-306.22-37.94-675.31,113.69-963.26,395.69
					C418.73,1056.83,414.05,1058.72,409.21,1058.72z M1180.33,37.18c-107.51,0-208.34,34.79-277.17,95.76
					c-71.2,63.85-125.09,141.98-177.2,217.54C634.62,482.91,540.17,619.84,348.25,694.1c-0.65,0.25-1.32,0.47-2,0.64
					c-99.61,26.1-157.25,88.67-150.43,163.3c6.41,70.14,73.75,150.01,206.51,162.84C553.83,874,728.1,760.11,906.79,691.26
					c167.4-64.5,334.51-88.85,483.26-70.43c170.8,21.16,304.83,98.1,377.41,216.65c0.4,0.65,0.75,1.32,1.06,2.01l52.58,115.55
					c58.06,11.86,118.63-0.84,159.9-33.98c31.67-25.43,48.58-60.32,47.62-98.24c-1.16-45.82-30.36-88.67-74.39-109.18
					c-123.26-57.41-223.83-181.74-316.48-391.27c-30.15-68.18-75.57-127.46-131.35-171.43c-91.86-72.4-206.25-112.79-322.1-113.71
					C1182.98,37.19,1181.65,37.18,1180.33,37.18z"/>
			</g>
			<g>
				<path class="st1" d="M250.09,1002.09c-5.48,0-10.9-2.41-14.57-7.03c-44.05-55.48-59.42-107.12-45.69-153.47
					c18.25-61.6,86.43-111.45,208.44-152.41c38.95-13.08,74.07-31.38,104.39-54.4c119.76-90.95,227.66-210.74,329.87-366.23
					c81.35-123.76,216.54-197.27,362.31-197.27c1.49,0,2.99,0.01,4.48,0.02c112.24,1.16,216.14,39.88,308.8,115.1
					c49.03,39.79,87.55,91.86,111.42,150.58c69.25,170.42,150.83,340.9,317.65,389.93c0.76,0.22,1.5,0.49,2.22,0.81
					c66.66,29.2,106.63,83.6,101.84,138.58c-5.22,59.8-60.17,106.75-150.77,128.82c-9.99,2.42-20.03-3.69-22.46-13.66
					c-2.43-9.98,3.69-20.03,13.66-22.46c74.12-18.05,118.78-53.02,122.52-95.92c3.36-38.57-27.48-78.05-78.67-100.83
					c-181.9-54.11-267.92-232.81-340.44-411.26c-21.51-52.93-56.23-99.85-100.4-135.71c-87.19-70.77-180.65-105.7-285.75-106.78
					c-1.35-0.01-2.73-0.02-4.08-0.02c-133.23,0-256.81,67.26-331.25,180.51C759.04,448.05,648.33,570.85,525.16,664.39
					c-33.54,25.47-72.25,45.68-115.05,60.04c-108.16,36.31-170.28,79.28-184.62,127.72c-10.09,34.05,3.09,74.36,39.16,119.79
					c6.38,8.04,5.04,19.74-3,26.12C258.22,1000.78,254.15,1002.09,250.09,1002.09z"/>
			</g>
			<g>
				<path class="st3" d="M1845.53,977.2l39.97-0.14C1872.44,978.27,1859.06,978.36,1845.53,977.2z"/>
			</g>
			<g>
				<path class="st3" d="M1886.39,976.97c-0.09,0.05-0.19,0.09-0.28,0.09h-0.6C1885.78,977.06,1886.06,977.01,1886.39,976.97z"/>
			</g>
			<g class="st2">
				<path class="st1" d="M1959.08,956.7c-43.04,21.15-97.05,27.79-151.05,14.41L1751.6,847.2
					c-194.56-317.82-835.96-302.99-1342.39,192.93C147.17,1020.7,82.1,744.76,341.54,676.76
					c296.3-114.66,352.35-381.12,549.28-557.74c51.59-45.69,118.61-76.78,192.56-91.19c-178.57,74.5-332.46,232.72-451.91,507.82
					c-29.7,68.46,37.79,138.78,107.69,112.66c280.73-104.72,536.73-104.44,775.49-30.82c115.27,35.56,213.52,110.15,283.43,208.41
					C1834.38,876.99,1891.31,919.19,1959.08,956.7z"/>
			</g>
			<g class="st15">
				
					<ellipse transform="matrix(0.5 -0.866 0.866 0.5 493.2541 1326.1722)" class="st4" cx="1395.13" cy="235.92" rx="32.53" ry="126.39"/>
			</g>
		</g>
		<g>
			<g>
				<path class="st1" d="M1480.47,1034.32c-8.13,19.56-8.33,42.45-0.96,62.27c1.31,3.53,4.72,5.93,8.58,4.87
					c3.39-0.93,6.19-5.03,4.87-8.58c-6.63-17.83-6.35-37.27,0.96-54.86c1.45-3.48-1.56-7.67-4.87-8.58
					C1485.03,1028.34,1481.92,1030.82,1480.47,1034.32L1480.47,1034.32z"/>
			</g>
		</g>
		<g>
			<g>
				<path class="st1" d="M1496,1141.52c5.72,15.17,13.36,29.5,23.19,42.41c2.2,2.89,6.11,4.71,9.54,2.5
					c2.86-1.84,4.86-6.43,2.5-9.54c-4.62-6.08-8.82-12.47-12.52-19.15c-1.86-3.36-3.6-6.78-5.22-10.27
					c-1.75-3.77-2.53-5.66-4.04-9.67c-1.28-3.4-4.77-6.1-8.58-4.87C1497.54,1134.02,1494.62,1137.87,1496,1141.52L1496,1141.52z"/>
			</g>
		</g>
		<g>
			<g>
				<path class="st1" d="M1550.93,1216.46c14.48,17.38,38.16,25.85,60.29,20.88c3.67-0.83,5.83-5.07,4.87-8.58
					c-1.04-3.78-4.89-5.7-8.58-4.87c-4.1,0.92-7.79,1.21-12.53,0.91c-3.9-0.25-8.38-1.23-12.77-2.8
					c-8.09-2.89-15.58-8.4-21.42-15.41c-2.41-2.89-7.37-2.49-9.86,0C1548.07,1209.46,1548.51,1213.56,1550.93,1216.46
					L1550.93,1216.46z"/>
			</g>
		</g>
		<g>
			<g>
				<path class="st1" d="M1654.29,1221.08c13.56-4.95,25.77-12.99,35.57-23.61c2.47-2.68,2.85-7.24,0-9.86
					c-2.69-2.47-7.22-2.86-9.86,0c-2.17,2.35-4.45,4.59-6.86,6.68c-0.62,0.54-1.24,1.06-1.87,1.58c-0.28,0.23-0.56,0.46-0.85,0.68
					c-1.37,1.11,0.73-0.53-0.09,0.08c-1.31,0.97-2.62,1.93-3.97,2.84c-2.61,1.75-5.32,3.36-8.12,4.8c-1.35,0.7-2.72,1.35-4.11,1.97
					c-0.75,0.33-0.82,0.49-0.06,0.04c-0.3,0.17-0.67,0.28-0.99,0.41c-0.83,0.33-1.66,0.65-2.5,0.95c-3.42,1.25-6.09,4.79-4.87,8.58
					C1646.8,1219.56,1650.62,1222.41,1654.29,1221.08L1654.29,1221.08z"/>
			</g>
		</g>
		<g>
			<path class="st1" d="M1593.21,1289.75c-27.22,0-54.04-10.86-75.45-30.97c-100.63-94.5-123.37-186.96-67.58-274.82
				c11.11-17.5,31.08-26.84,50.89-23.76l0,0c67.68,10.49,144.7,42.82,235.47,98.85c21.69,13.38,33.54,39.81,29.49,65.76
				c-14.76,94.38-67.5,149.44-156.76,163.66C1603.93,1289.33,1598.56,1289.75,1593.21,1289.75z M1493.44,987.5
				c-7.78,0-15.12,4.17-19.72,11.41c-48.25,75.99-27.6,154.34,63.12,239.54c19.28,18.1,44.09,26.29,68.03,22.49
				c77.04-12.28,120.74-58.21,133.6-140.43c2.35-15-4.32-30.16-16.58-37.72c-87.54-54.03-161.17-85.11-225.1-95.02
				C1495.68,987.59,1494.56,987.5,1493.44,987.5z"/>
		</g>
		<g>
			<g>
				<path class="st1" d="M1713.12,1154.9c4.18-11.55,8.37-23.1,12.55-34.65c1.24-3.43-1.4-7.79-4.87-8.58
					c-3.93-0.89-7.24,1.19-8.58,4.87c-4.18,11.55-8.37,23.1-12.55,34.65c-1.24,3.43,1.4,7.79,4.87,8.58
					C1708.47,1160.66,1711.79,1158.57,1713.12,1154.9L1713.12,1154.9z"/>
			</g>
		</g>
	</g>
</g>
</svg>
