<?xml version="1.0" encoding="utf-8"?>
<!-- Generator: Adobe Illustrator 26.2.1, SVG Export Plug-In . SVG Version: 6.00 Build 0)  -->
<svg version="1.1" id="Layer_1" xmlns="http://www.w3.org/2000/svg" xmlns:xlink="http://www.w3.org/1999/xlink" x="0px" y="0px"
	 viewBox="0 0 1563.72 2939.76" style="enable-background:new 0 0 1563.72 2939.76;" xml:space="preserve">
<style type="text/css">
	.st0{fill:#FDD100;}
	.st1{fill:#FFFFFF;}
	.st2{opacity:0.3;}
	.st3{fill:#000072;}
	.st4{opacity:0.2;}
	.st5{fill:#DBDBDB;}
	.st6{opacity:0.7;}
	.st7{fill:#F9744B;}
	.st8{opacity:0.5;}
	.st9{fill:#EF7C2E;}
	.st10{fill:#A5A5A5;}
	.st11{fill:#F27E80;}
	.st12{fill:#FA508E;}
	.st13{fill:#371A45;}
	.st14{fill:#C1C1DB;}
	.st15{opacity:0.35;}
	.st16{fill:#22A7F0;}
	.st17{fill:#111A28;}
	.st18{fill:#F92323;}
	.st19{fill:#102770;}
	.st20{fill:#178400;}
	.st21{fill:#177700;}
	.st22{fill:#166600;}
	.st23{fill:#83B732;}
	.st24{fill:#92C931;}
	.st25{fill:#E2E230;}
	.st26{fill:#E3E331;}
	.st27{fill:#E3E332;}
	.st28{fill:#E4E432;}
	.st29{fill:#E5E533;}
	.st30{fill:#E6E634;}
	.st31{fill:#E6E635;}
	.st32{fill:#E7E736;}
	.st33{fill:#E8E837;}
	.st34{fill:#E9E938;}
	.st35{fill:#EAEA39;}
	.st36{fill:#EAEA3A;}
	.st37{fill:#EBEB3B;}
	.st38{fill:#ECEC3C;}
	.st39{fill:#EDED3C;}
	.st40{fill:#EDED3D;}
	.st41{fill:#EEEE3E;}
	.st42{fill:#EFEF3F;}
	.st43{fill:#EFEF40;}
	.st44{fill:#F0F041;}
	.st45{fill:#F1F141;}
	.st46{fill:#F2F242;}
	.st47{fill:#F2F243;}
	.st48{fill:#F3F344;}
	.st49{fill:#F4F445;}
	.st50{fill:#F4F446;}
	.st51{fill:#F5F546;}
	.st52{fill:#F6F647;}
	.st53{fill:#F7F748;}
	.st54{fill:#F7F749;}
	.st55{fill:#F8F84A;}
	.st56{fill:#F9F94B;}
	.st57{fill:#FAFA4C;}
	.st58{fill:#FBFB4D;}
	.st59{fill:#FBFB4E;}
	.st60{fill:#FCFC4F;}
	.st61{fill:#FDFD50;}
	.st62{fill:#FEFE50;}
	.st63{fill:#FEFE51;}
	.st64{fill:#FFFF52;}
	.st65{fill:#0F2675;}
	.st66{fill:#DD6E39;}
	.st67{fill:#D13D09;}
	.st68{fill:#F27A4C;}
	.st69{fill:#E84B21;}
	.st70{fill:#FF6339;}
	.st71{opacity:0.6;}
	.st72{fill:#FF50B8;}
	.st73{opacity:0.4;}
	.st74{fill:#FF3998;}
	.st75{fill:#FF64CF;}
	.st76{fill:#FF5CB5;}
	.st77{fill:#1285DB;}
	.st78{fill:url(#SVGID_1_);}
	.st79{fill:url(#SVGID_00000162345838724780942940000017061392299621418681_);}
	.st80{fill:#FF45B4;}
	.st81{fill:url(#SVGID_00000106826798592104305290000008257919077035772062_);}
	.st82{fill:url(#SVGID_00000013167544891165608790000016026051454191294875_);}
	.st83{fill:#650000;}
	.st84{fill:#E2532A;}
	.st85{fill:#4DA2FF;}
	.st86{fill:#FFA1A8;}
	.st87{fill:#FF929F;}
	.st88{fill:#D37C59;}
	.st89{fill:#F9D9C2;}
	.st90{fill:#FCB790;}
	.st91{fill:#FF8E31;}
	.st92{fill:#BC5508;}
	.st93{fill:#FFE9C2;}
	.st94{fill:#EF2222;}
	.st95{opacity:0.25;}
	.st96{fill:#EF5050;}
	.st97{fill:#37DBFF;}
	.st98{fill:#220F2D;}
	.st99{fill:#FFE266;}
	.st100{fill:#3E8DFF;}
	.st101{fill:#6B184E;}
	.st102{fill:#DB2C2C;}
	.st103{fill:#F0835C;}
	.st104{fill:#FC442B;}
	.st105{fill:#FFDA22;}
	.st106{fill:#E25439;}
	.st107{opacity:0.3;clip-path:url(#SVGID_00000182499238315419077410000010567712365508752515_);}
	.st108{fill:#F4C99F;}
</style>
<g>
	<g>
		<g>
			<path class="st1" d="M1144.14,2171.14H419.59c-90.77,0-164.35-73.58-164.35-164.35v-676.27c0-90.77,73.58-164.35,164.35-164.35
				h724.56c90.77,0,164.35,73.58,164.35,164.35v676.27C1308.49,2097.55,1234.91,2171.14,1144.14,2171.14z"/>
		</g>
		<g>
			<path class="st13" d="M1144.14,1166.18c90.77,0,164.35,73.58,164.35,164.35v676.27c0,90.76-73.58,164.35-164.35,164.35H419.59
				c-90.77,0-164.35-73.58-164.35-164.35v-676.27c0-90.76,73.58-164.35,164.35-164.35H1144.14L1144.14,1166.18z M1144.14,1131.42
				H419.59c-109.79,0-199.1,89.32-199.1,199.1v676.27c0,109.79,89.32,199.1,199.1,199.1h724.55c109.79,0,199.1-89.32,199.1-199.1
				v-676.27C1343.24,1220.74,1253.93,1131.42,1144.14,1131.42L1144.14,1131.42z"/>
		</g>
		<g>
			<path class="st13" d="M624.67,2732.29c-3.16,0-6.36-0.86-9.23-2.67c-88.69-55.71-218.88-31.08-220.19-30.83
				c-9.41,1.85-18.54-4.29-20.4-13.7c-1.85-9.41,4.27-18.54,13.68-20.4c5.87-1.15,144.87-27.64,245.39,35.49
				c8.13,5.11,10.58,15.83,5.47,23.96C636.1,2729.4,630.45,2732.28,624.67,2732.29z"/>
		</g>
		<g>
			<path class="st1" d="M1294.17,2826.21c-0.26,2.65,5.91,105.75-269.28,95.45c-116.65-4.39-195.98-26.72-224.4-88.11
				c-25.42-54.96-21.77-270.1-21.77-270.1v-346h-0.39v346c0,0,1.35,79.51-3.3,154.19c-3,48.18-8.52,94.36-18.46,115.91
				c-28.41,61.39-94.75,83.72-211.41,88.11c-275.18,10.3-282.01-92.8-282.27-95.45c-1.43-14.29,0.26-27.5,4.17-39.58
				c23.2-71.42,124.82-104.88,124.82-104.88s-64.73-246.12-87.06-455.79c-6.99-65.82-10.47-132.42-11.17-198.68
				c-2.87-272.66,41.66-540.46,83.81-731.1c12.9-58.17,25.55-109.18,36.54-150.89c20.59-77.98,35.49-123.69,35.49-123.69h658.07
				c0,0,15.68,48.14,37.15,129.9c10.77,41.01,22.94,90.5,35.36,146.59c42.01,190.6,86.24,457.79,83.37,729.71
				c-0.69,66.08-4.21,132.47-11.21,198.16c-22.29,209.67-87.07,455.79-87.07,455.79S1304.12,2727.54,1294.17,2826.21z"/>
		</g>
		<g class="st2">
			<path class="st13" d="M1294.13,2826.21c-0.26,2.65-7.08,105.75-282.27,95.45c-116.65-4.39-182.99-26.72-211.41-88.11
				c-9.95-21.55-15.47-67.73-18.46-115.91l-2.56-155.36l-4.39,155.36c-3,48.18-8.52,94.36-18.46,115.91
				c-28.41,61.39-94.75,83.72-211.41,88.11c-275.18,10.3-282.01-92.8-282.27-95.45c-1.43-14.29,0.26-27.5,4.17-39.58
				c9.95,16.38,39.67,39.97,126.9,51.96c141.59,19.42,293.65,2.13,319.46-92.02c19.42-70.86,51.4-422.2-56.22-468.17
				c-166.4-71.12-227.48-128.29-181.21-137.51c23.5-4.69,85.46,14.81,302.51,14.81s279.01-19.51,302.51-14.81
				c46.27,9.21-14.81,66.38-181.21,137.51c-107.61,45.97-75.64,397.31-56.22,468.17c25.81,94.15,177.87,111.44,319.46,92.02
				c87.24-11.99,116.96-35.58,126.9-51.96C1293.87,2798.71,1295.56,2811.92,1294.13,2826.21z"/>
		</g>
		<g>
			<path class="st13" d="M1062.57,2939.76c-12.34,0-25.12-0.25-38.34-0.74c-91.96-3.45-202.29-17.71-239.5-98.15
				c-2.28-4.92-4.34-10.89-6.2-17.71c-1.87,6.82-3.93,12.79-6.2,17.71c-29.98,64.81-95.61,93.24-226.53,98.15
				c-275.62,10.3-298.44-90.85-300.21-111.24c-9.18-91.06,87.18-140.67,125.64-156.72c-14.35-56.98-64.66-264.38-83.69-443.25
				c-28.06-263.67-4.47-565.54,72.1-922.86c2.01-9.38,11.22-15.37,20.63-13.35c9.38,2.01,15.36,11.25,13.35,20.63
				c-75.79,353.66-99.18,651.95-71.53,911.89c21.91,205.89,85.96,450.76,86.61,453.2l4.16,15.81l-15.53,5.12
				c-1.24,0.41-125.58,42.7-117.16,126.19c0.11,1.21,10.68,89.39,264.32,79.83c115.79-4.34,172.66-26.93,196.28-78
				c15.63-33.79,19.81-144.44,20.34-217.24c-0.06-11.73-0.03-21.88,0.02-29.79c-0.04-5.73-0.1-10.93-0.18-15.51v-363.68h34.76
				l0.36,17.38v346.01c-0.08,4.67-0.14,9.98-0.18,15.82c0.05,7.87,0.08,18,0.02,29.72c0.53,72.96,4.72,183.53,20.34,217.29
				c22.84,49.38,87.38,73.44,209.25,78c147.87,5.58,209.02-21.84,234.24-45.79c15.57-14.79,16.96-28.33,17.02-32.12l0.08-1.79
				c8.43-83.63-115.9-125.91-117.16-126.33l-15.48-5.14l4.13-15.78c0.64-2.45,64.7-247.31,86.61-453.2
				c27.15-255.17,4.95-547.81-67.86-894.63c-1.97-9.39,4.04-18.61,13.44-20.58c9.35-1.97,18.6,4.04,20.58,13.44
				c73.57,350.43,95.95,646.61,68.41,905.45c-19.03,178.87-69.34,386.27-83.69,443.25c38.36,16.02,134.35,65.44,125.7,156.21
				c-0.24,9.74-3.55,33.38-27.83,56.44C1244.47,2920.95,1170.18,2939.76,1062.57,2939.76z"/>
		</g>
		<g>
			<path class="st13" d="M1161.81,2698.8c-8.51-2.25-18.38-4.3-27.81-5.86c-9.54-1.66-19.18-2.94-28.87-3.96
				c-19.38-2-38.94-2.71-58.52-2.04c-19.6,0.67-39.07,3.36-58.36,7.57c-19.27,4.38-37.87,11.45-55.85,20.41
				c16.44-11.41,34.25-21.37,53.27-28.7c19.03-7.16,38.8-12.89,58.98-16.54c20.18-3.65,40.66-5.89,61.26-6.75
				c10.3-0.41,20.63-0.54,30.99-0.26c10.49,0.23,20.47,0.77,31.64,2.04c9.57,1.08,16.45,9.72,15.37,19.28
				c-1.08,9.57-9.72,16.45-19.29,15.36c-0.82-0.09-1.62-0.24-2.4-0.44L1161.81,2698.8z"/>
		</g>
		<g>
			<path class="st13" d="M390.6,2664.7c11.17-1.26,21.16-1.8,31.64-2.04c10.36-0.28,20.69-0.15,30.99,0.26
				c20.6,0.86,41.08,3.1,61.26,6.75c20.19,3.65,39.95,9.38,58.98,16.54c19.03,7.33,36.84,17.29,53.27,28.7
				c-17.98-8.96-36.58-16.02-55.85-20.41c-19.29-4.2-38.77-6.9-58.36-7.57c-19.58-0.67-39.14,0.03-58.52,2.04
				c-9.69,1.02-19.33,2.3-28.87,3.96c-9.43,1.56-19.29,3.61-27.8,5.86l-0.31,0.08c-9.31,2.46-18.85-3.09-21.31-12.4
				c-2.46-9.31,3.09-18.85,12.4-21.31C388.91,2664.96,389.81,2664.79,390.6,2664.7z"/>
		</g>
		<g>
			<g>
				<path class="st1" d="M543.93,1952.17c-61.54,25.87-156.79,20.46-221.73,12.3c-38.95-4.89-66.28-42.22-60.55-82.52l0,0
					c5.23-36.78,36.41-63.52,72.17-61.78c60.74,2.96,151.84,4.34,209.53-8.95L543.93,1952.17z"/>
			</g>
			<g class="st15">
				<path class="st13" d="M543.95,1952.16c-61.54,25.87-156.83,20.49-221.75,12.31c-38.93-4.87-66.27-42.2-60.55-82.54
					c1.22-8.56,3.83-16.61,7.66-23.86c10.36,19.93,29.55,34.48,52.89,37.43c64.83,8.14,159.94,13.57,221.48-12.21L543.95,1952.16z"
					/>
			</g>
			<g>
				<path class="st13" d="M421.55,1988.58c-35.69,0-71.15-3.06-101.52-6.88c-22.97-2.89-43.51-14.79-57.82-33.54
					c-14.75-19.31-21.22-44.34-17.76-68.67c6.54-45.91,45.38-78.86,90.21-76.69c89.34,4.34,162.06,1.32,204.79-8.53
					c8.69-2.01,30.23-2.29,43.19,37.85c14.61,45.26,11.62,117.73-31.98,136.06l0,0C514.36,1983.45,467.77,1988.58,421.55,1988.58z
					 M330.5,1837.46c-25.81,0-47.78,19.76-51.64,46.93c-2.19,15.39,1.7,30.55,10.97,42.68c8.61,11.28,20.88,18.43,34.54,20.15
					c92.58,11.64,168.16,7.7,212.83-11.08l0,0c8.68-3.65,15.04-16.29,17.47-34.68c4.32-32.82-5.04-64.06-11.3-72.45
					c-58.68,12.6-146.42,11.63-210.39,8.51C332.15,1837.48,331.32,1837.46,330.5,1837.46z"/>
			</g>
			<g class="st2">
				<path class="st13" d="M1279.27,2020.02c-62.29,7.7-149.56,13.08-215.25-4.82v33.14c0,45.79-36.05,83.24-80.15,83.24h-437.5
					c-44.14,0-80.15-37.44-80.15-83.24v-246.78c0-45.71,36.01-83.19,80.15-83.19h437.5c35.23,0,65.35,23.89,76.05,56.85
					c2.65,8.31,4.1,17.17,4.1,26.34v55.65c62.16,9.34,145.54,7.83,203.56,5.04c0.75-0.04,1.45-0.04,2.16-0.04
					C1274.5,1914.1,1277.86,1966.99,1279.27,2020.02z"/>
			</g>
			<g>
				<path class="st1" d="M1014.67,1952.17c61.54,25.87,156.79,20.46,221.73,12.3c38.95-4.89,66.28-42.22,60.55-82.52v0
					c-5.23-36.78-36.41-63.52-72.17-61.78c-60.74,2.96-151.84,4.34-209.53-8.95L1014.67,1952.17z"/>
			</g>
			<g class="st15">
				<path class="st13" d="M1236.41,1964.46c-64.97,8.19-160.21,13.57-221.75-12.31l0.27-68.73c61.54,25.78,156.6,20.35,221.48,12.21
					c23.34-2.95,42.58-17.59,52.94-37.53c3.74,7.21,6.4,15.25,7.61,23.82C1302.69,1922.26,1275.34,1959.59,1236.41,1964.46z"/>
			</g>
			<g>
				<path class="st13" d="M1137.05,1988.58c-46.23,0-92.81-5.13-129.12-20.4l0,0c-43.6-18.33-46.58-90.8-31.97-136.07
					c12.96-40.13,34.51-39.84,43.18-37.84c42.72,9.85,115.46,12.87,204.79,8.53c44.88-2.18,83.68,30.79,90.22,76.69
					c3.46,24.33-3.01,49.35-17.76,68.66c-14.32,18.75-34.85,30.66-57.83,33.54C1208.2,1985.53,1172.73,1988.58,1137.05,1988.58z
					 M1021.4,1936.15c44.66,18.78,120.24,22.71,212.83,11.08c13.66-1.72,25.92-8.88,34.54-20.16c9.26-12.13,13.16-27.29,10.97-42.67
					c-3.99-28.04-27.37-48.2-54.12-46.88c-63.96,3.11-151.7,4.09-210.38-8.51c-6.25,8.39-15.62,39.64-11.3,72.46
					C1006.36,1919.86,1012.73,1932.5,1021.4,1936.15L1021.4,1936.15z"/>
			</g>
			<g>
				<path class="st1" d="M1038.45,1764.62v225.9c0,41.92-33.02,76.22-73.35,76.22H564.53c-40.37,0-73.35-34.3-73.35-76.22v-225.9
					c0-41.88,32.98-76.17,73.35-76.17H965.1c32.21,0,59.79,21.9,69.56,52.08C1037.1,1748.11,1038.45,1756.2,1038.45,1764.62z"/>
			</g>
			<g class="st2">
				<path class="st13" d="M1038.45,1764.62v225.9c0,41.92-33.02,76.22-73.35,76.22H564.53c-40.37,0-73.35-34.3-73.35-76.22v-76.03
					c69.11,39.72,206.03,99.38,343.44,50.16c67.13-24.07,144.09-106.53,144.09-106.53s2.97,86.53,15.33,85.17
					c34.37-3.8,34.12-178.88,40.62-202.75C1037.1,1748.11,1038.45,1756.2,1038.45,1764.62z"/>
			</g>
			<g>
				<path class="st13" d="M963.69,2084.09H565.91c-50.8,0-92.12-41.33-92.12-92.12V1763.2c0-50.8,41.33-92.13,92.12-92.13h397.78
					c50.8,0,92.13,41.33,92.13,92.13v228.77C1055.82,2042.77,1014.49,2084.09,963.69,2084.09z M565.91,1705.83
					c-31.63,0-57.37,25.74-57.37,57.37v228.77c0,31.63,25.74,57.37,57.37,57.37h397.78c31.64,0,57.37-25.74,57.37-57.37V1763.2
					c0-31.64-25.74-57.37-57.37-57.37H565.91z"/>
			</g>
			<g>
				<ellipse class="st16" cx="906.71" cy="1877.59" rx="63.26" ry="65.69"/>
			</g>
			<g>
				<path class="st1" d="M969.99,1877.61c0,4.48-0.41,8.82-1.24,13.04c-5.84-30.08-31.41-52.72-62.04-52.72s-56.2,22.64-62,52.72
					c-0.83-4.22-1.24-8.56-1.24-13.04c0-36.28,28.3-65.72,63.24-65.72C941.64,1811.89,969.99,1841.32,969.99,1877.61z"/>
			</g>
			<g class="st15">
				<path class="st13" d="M969.97,1877.57c0,36.31-28.34,65.69-63.25,65.69s-63.25-29.38-63.25-65.69c0-6.08,0.81-12.03,2.3-17.59
					c7.43,27.7,31.94,48.05,60.96,48.05c29.01,0,53.52-20.35,60.96-48.05C969.16,1865.55,969.97,1871.49,969.97,1877.57z"/>
			</g>
			<g>
				<path class="st13" d="M906.72,1956.31c-42.07,0-76.29-35.32-76.29-78.73s34.22-78.73,76.29-78.73s76.29,35.32,76.29,78.73
					S948.78,1956.31,906.72,1956.31z M906.72,1824.93c-27.7,0-50.22,23.62-50.22,52.66s22.53,52.66,50.22,52.66
					s50.22-23.62,50.22-52.66S934.41,1824.93,906.72,1824.93z"/>
			</g>
			<g>
				<path class="st13" d="M727.46,2084.09c-9.6,0-17.38-7.78-17.38-17.38V1951.1c0-23.15-10.58-45.25-28.3-59.11l-10.17-7.95
					c-26.08-20.39-41.65-52.72-41.65-86.49v-109.1c0-9.6,7.78-17.38,17.38-17.38s17.38,7.78,17.38,17.38v109.1
					c0,23.16,10.58,45.25,28.3,59.11l10.17,7.95c26.08,20.4,41.65,52.72,41.65,86.49v115.62
					C744.84,2076.32,737.06,2084.09,727.46,2084.09z"/>
			</g>
		</g>
		<g>
			<path class="st13" d="M546.11,2413.18c-73.89,0-155.55-12.82-230.33-52.93c-6.08-3.27-8.37-10.84-5.11-16.92
				c3.27-6.09,10.84-8.36,16.92-5.11c192.78,103.43,444.26,12.33,446.77,11.4c6.47-2.41,13.66,0.91,16.06,7.37
				c2.4,6.47-0.9,13.66-7.37,16.06C776.31,2375.55,672.65,2413.18,546.11,2413.18z"/>
		</g>
		<g>
			<path class="st13" d="M1011.15,2413.18c-126.55,0-230.2-37.62-236.96-40.13c-6.47-2.4-9.77-9.59-7.37-16.06
				c2.4-6.46,9.59-9.78,16.06-7.37c2.51,0.93,253.99,92.03,446.77-11.4c6.07-3.25,13.66-0.98,16.92,5.11
				c3.26,6.08,0.98,13.66-5.11,16.92C1166.71,2400.35,1085.03,2413.18,1011.15,2413.18z"/>
		</g>
		<g>
			<path class="st1" d="M602.26,2208.67c0,0,71.49,31.95,176.28,31.95s176.65-31.95,176.65-31.95s-47.48-37.5-176.65-37.5
				S602.26,2208.67,602.26,2208.67z"/>
		</g>
		<g class="st2">
			<path class="st13" d="M602.26,2208.67c0,0,71.49,31.95,176.28,31.95s176.65-31.95,176.65-31.95s-47.48-37.5-176.65-37.5
				S602.26,2208.67,602.26,2208.67z"/>
		</g>
		<g>
			<path class="st13" d="M578.17,2200.61c33.54,7.94,67.69,13.95,101.58,18.23c33.97,4.22,68.01,6.69,102.1,7.09
				c34.1,0.17,68.23-1.98,102.31-6c33.95-4.29,68.2-10.51,101.41-19.32l0.32-0.09c3.11-0.82,6.29,1.03,7.11,4.13
				c0.69,2.6-0.5,5.26-2.73,6.54c-15.95,9.13-32.42,15.89-49.37,22c-8.42,3.16-17.05,5.65-25.67,8.21l-12.99,3.63l-13.13,3.07
				c-35.09,8.04-71.15,11.95-107.25,12.38c-36.11,0.22-72.27-3.38-107.47-11.18c-17.61-3.85-34.9-9.08-51.84-15.17
				c-16.92-6.31-33.38-13.26-49.11-22.94c-2.75-1.69-3.6-5.29-1.91-8.03c1.35-2.2,3.93-3.19,6.31-2.62L578.17,2200.61z"/>
		</g>
		<g>
			<path class="st1" d="M1412.39,1955.86c-45.83,59.82-98.4,79.11-148.93,71.95c-106.48-15.16-203.8-148.24-209.54-268.1
				c-52.74,11.3-136.59,10.3-172.96-29.15c-50.05-54.26-6.52-128.25-6.52-128.25s-97.58,6.13-97.58-63.78
				c0-38.41,147.8-92.15,283.35-82.16c31.76,2.3,88.02,14.25,130.55,42.23c-6.56-58.09-21.29-114.17-34.67-161.31
				c0,0-12.43,1.04-32.32,2.17c-81.03,4.65-285.74,10.86-276.79-45.44c11.17-70.12,292.87-148.76,292.87-148.76
				c1.61,2.09,3.26,4.17,4.87,6.26c26.28,33.8,52.44,70.3,77.81,108.53C1385.45,1505.51,1514.61,1822.53,1412.39,1955.86z"/>
		</g>
		<g>
			<path class="st13" d="M1144.4,1141.69c45.03,40.95,81.11,89.71,114.16,140.05c33.23,50.33,61.8,103.56,89.07,157.33
				c13.5,26.97,26.36,54.28,38.69,81.86c12.02,27.73,23.5,55.72,33.73,84.27c10.13,28.58,19.33,57.56,26.97,87.11
				c7.4,29.61,13.33,59.76,16.55,90.53c3.15,30.74,3.7,62.24-1.3,93.8c-4.98,31.38-16.03,63.34-36.35,90.11
				c-19.25,25.05-43.42,47.84-73.16,63.04c-29.62,15.21-65.22,20.38-97.9,14.05c-16.33-3.05-32.2-8.08-46.76-15.27l-5.53-2.57
				l-5.31-2.92c-3.51-1.99-7.08-3.91-10.54-5.97c-6.65-4.47-13.58-8.62-19.78-13.62c-25.6-19.14-47.24-42.48-65.63-67.89
				c-18.54-25.35-33.25-53.27-44.58-82.57c-11.33-29.3-18.25-60.54-20.16-92.49l21,16.16c-27.9,5.79-55.85,7.62-84.14,5.98
				c-14.14-0.98-28.34-2.93-42.51-6.44c-14.14-3.49-28.37-8.65-41.75-16.94c-6.65-4.18-13.09-9.05-18.87-14.95
				c-1.56-1.38-2.87-2.87-4.06-4.43l-3.7-4.6l-3.67-4.63c-1.19-1.57-2.1-3.37-3.15-5.05c-1.94-3.48-4.27-6.75-5.79-10.44
				l-4.58-11.06l-3.11-11.5c-0.93-3.85-1.26-7.76-1.87-11.64c-1.69-15.57-0.25-30.95,3.11-45.46c1.65-7.29,3.9-14.34,6.45-21.28
				c1.36-3.44,2.7-6.88,4.27-10.26c1.57-3.5,3.06-6.53,5.3-10.54l16.07,26.15c-4.04,0.21-7.02,0.19-10.46,0.14
				c-3.32-0.08-6.63-0.22-9.93-0.47c-6.6-0.47-13.21-1.31-19.84-2.54c-13.22-2.51-26.7-6.55-39.56-14.2
				c-6.39-3.82-12.57-8.61-17.94-14.51c-5.37-5.87-9.82-12.86-12.88-20.32c-3.02-7.49-4.53-15.27-5.14-22.81l-0.24-5.62l-0.03-0.7
				l0.07-1.14l0.21-2.33c0.19-1.53,0.36-3.17,0.72-4.57c0.81-2.57,1.67-5.54,2.81-7.65c1.14-2.07,2.32-4.53,3.62-6.17
				c5.15-7.4,10.79-12.26,16.38-16.61c5.62-4.42,11.32-7.92,17.05-11.29c11.48-6.53,23.13-11.79,34.9-16.46
				c23.53-9.31,47.55-16.03,71.81-21.45c48.54-10.52,98.29-15.14,148.27-12.26c25.67,1.36,50.61,6.48,74.86,13.71
				c24.23,7.4,48.24,16.78,70.69,30.85l-28.42,17.45c-1.75-13.24-3.79-26.47-5.9-39.74l-6.55-39.93
				c-2.19-13.37-4.33-26.82-5.96-40.49c-1.72-13.65-3.23-27.42-3.53-41.62c-0.07-3.31,2.54-6.04,5.85-6.12
				c2.24-0.05,4.23,1.15,5.29,2.95c7.22,12.28,13.04,25.04,18.27,38.03c5.31,12.97,9.73,26.27,13.55,39.76
				c3.73,13.51,7.01,27.19,9.64,41.04c2.62,13.85,4.59,27.87,5.94,41.98l0.06,0.66c0.96,10.03-6.4,18.95-16.44,19.9
				c-4.42,0.42-8.65-0.78-12.05-3.11c-17.93-12.28-38.76-21.73-60.53-28.36c-21.84-6.51-44.43-11.13-66.87-12.27
				c-46.18-2.69-93.22,1.63-138.75,11.52c-22.71,5.07-45.2,11.39-66.46,19.82c-10.6,4.2-20.93,8.91-30.38,14.29
				c-4.63,2.73-9.21,5.56-13.04,8.61c-3.93,2.95-7.36,6.27-9.04,8.82c-0.63,0.69-0.55,1.09-0.96,1.59c-0.34,0.5-0.08,0.55-0.35,0.78
				c-0.02,0.05,0.12-0.06,0.09-0.11c0-0.03-0.02-0.06-0.05-0.09c0,0-0.04-0.06-0.05-0.01l0.02,0.42l0.15,3.39
				c0.38,4.43,1.2,8.58,2.69,12.28c3.03,7.31,8.51,13.32,16.44,18.06c15.69,9.44,39.47,12.85,59.78,12.22
				c9.76-0.31,17.92,7.34,18.23,17.1c0.1,3.24-0.72,6.39-2.16,9.05c-0.99,1.8-2.49,4.72-3.62,7.3c-1.24,2.65-2.3,5.41-3.39,8.16
				c-2.03,5.55-3.84,11.19-5.11,16.88c-2.63,11.37-3.6,22.85-2.41,33.74c0.48,2.67,0.62,5.44,1.28,8.04l2.08,7.77l3.09,7.36
				c0.95,2.49,2.66,4.62,3.91,6.97c0.71,1.13,1.25,2.36,2.08,3.43l2.57,3.15l2.53,3.18l1.25,1.61l1.4,1.31
				c3.54,3.62,7.75,6.82,12.34,9.73c9.25,5.77,20.3,9.96,31.96,12.8c11.66,2.88,23.89,4.6,36.28,5.46
				c24.81,1.47,50.41-0.23,74.61-5.28c9.44-1.97,18.69,4.09,20.66,13.53c0.17,0.83,0.28,1.65,0.33,2.47l0.01,0.17
				c3.18,55.45,25.21,110.53,58.21,156.38c16.58,22.92,36.04,43.82,58.33,60.44c5.42,4.41,11.36,7.89,17.07,11.78l8.95,5.05
				l4.49,2.5l4.63,2.13c12.21,6.06,25.11,10.04,38.07,12.48c25.99,4.93,52.63,1.03,76.15-10.92c23.54-12.05,44.14-30.95,61.18-53.16
				c15.9-21,25.23-47.03,29.58-74.42c4.37-27.45,4-56.18,1.04-84.75c-2.99-28.62-8.58-57.21-15.65-85.51
				c-7.31-28.28-16.18-56.25-26-83.95c-20.02-55.28-43.87-109.42-71.08-161.89c-13.6-26.24-27.87-52.14-42.98-77.56
				c-14.87-25.56-30.4-50.72-45.84-75.94c-15.31-25.32-31.65-49.96-46.98-75.37c-15.55-25.27-31.07-50.58-45.16-77.33l-0.04-0.07
				c-1.51-2.87-0.41-6.42,2.46-7.93C1139.95,1139.66,1142.62,1140.08,1144.4,1141.69z"/>
		</g>
		<g>
			<path class="st13" d="M1318.55,1660.66c-8.33-14.74-17.93-29.44-27.87-43.45c-10.02-14.05-20.65-27.59-31.9-40.45
				c-11.37-12.74-23.37-24.73-36.03-35.64c-12.85-10.62-26.38-19.99-40.46-27.36l-0.38-0.2c-8.51-4.46-11.81-14.97-7.35-23.48
				s14.97-11.81,23.48-7.35c0.41,0.21,0.83,0.46,1.22,0.7c16.35,10.31,30.85,22.39,44.1,35.33c12.97,13.18,24.77,27.13,35.68,41.6
				c10.76,14.57,20.67,29.6,29.85,45.01c9.16,15.49,17.6,31.04,25.25,47.62c2.01,4.36,0.11,9.52-4.25,11.53
				c-4.13,1.9-8.98,0.3-11.19-3.58L1318.55,1660.66z"/>
		</g>
		<g>
			<path class="st1" d="M679.33,1602.3c0,0,43.53,73.99-6.52,128.25C636.45,1770,552.6,1771,499.85,1759.71
				c-5.65,118.56-101.01,250.12-206.19,267.58c-51.53,8.56-105.4-10.25-152.28-71.42c-102.75-134.03,28.28-453.62,192.38-699.6
				c26.15-39.23,53.13-76.55,80.16-111l0.09,0.04l225.48,126.43l-216.92,58.83l-24.89,6.73c-13.42,47.14-28.15,103.23-34.67,161.31
				c42.53-27.98,98.8-39.93,130.55-42.23c135.55-9.99,283.31,43.75,283.31,82.16C776.86,1608.43,679.33,1602.3,679.33,1602.3z"/>
		</g>
		<g class="st2">
			<path class="st13" d="M679.33,1602.3c0,0,43.53,73.99-6.52,128.25C636.45,1770,552.6,1771,499.85,1759.71
				c-5.65,118.56-101.01,250.12-206.19,267.58c-51.53,8.56-105.4-10.25-152.28-71.42c-32.37-42.23-41.53-102.92-33.76-173.87
				c4.56,34.23,15.42,64,33.76,87.89c46.88,61.17,100.75,79.98,152.28,71.42c105.18-17.47,162.88-141.11,168.53-259.67
				c52.74,11.3,134.64,40.23,171,0.78c50.05-54.26-28.37-122.69-28.37-122.69s112.74,21.07,167.96,1.35
				C754.27,1607,679.33,1602.3,679.33,1602.3z"/>
		</g>
		<g class="st2">
			<path class="st13" d="M872.38,1602.3c0,0-43.53,73.99,6.52,128.25c36.36,39.45,120.21,40.45,172.96,29.15
				c5.65,118.56,101.01,250.12,206.19,267.58c51.53,8.56,105.4-10.25,152.28-71.42c32.37-42.23,41.53-102.92,33.76-173.87
				c-4.56,34.23-15.42,64-33.76,87.89c-46.88,61.17-100.75,79.98-152.28,71.42c-105.18-17.47-162.88-141.11-168.53-259.67
				c-52.74,11.3-134.64,40.23-171,0.78c-50.05-54.26,28.37-122.69,28.37-122.69s-112.74,21.07-167.96,1.35
				C797.44,1607,872.38,1602.3,872.38,1602.3z"/>
		</g>
		<g>
			<path class="st13" d="M418.47,1148.84c-14.09,26.75-29.61,52.06-45.17,77.33c-15.32,25.41-31.67,50.04-46.98,75.37
				c-15.44,25.22-30.96,50.39-45.83,75.94c-15.11,25.42-29.39,51.32-42.98,77.56c-27.21,52.47-51.06,106.61-71.08,161.89
				c-9.82,27.7-18.69,55.67-26,83.95c-7.08,28.31-12.66,56.89-15.65,85.51c-2.95,28.57-3.32,57.3,1.04,84.75
				c4.35,27.39,13.69,53.42,29.58,74.42c17.04,22.21,37.64,41.11,61.18,53.16c23.53,11.94,50.16,15.85,76.15,10.92
				c12.96-2.44,25.87-6.42,38.07-12.48l4.63-2.13l4.48-2.5l8.95-5.05c5.71-3.89,11.66-7.37,17.07-11.78
				c22.29-16.63,41.75-37.52,58.33-60.44c33-45.85,55.04-100.93,58.21-156.38l0-0.07c0.55-9.63,8.8-16.98,18.43-16.43
				c0.84,0.05,1.76,0.18,2.57,0.34c24.2,5.05,49.8,6.75,74.61,5.28c12.4-0.86,24.63-2.58,36.29-5.46
				c11.66-2.84,22.71-7.02,31.96-12.8c4.59-2.91,8.8-6.11,12.34-9.73l1.41-1.31l1.25-1.61l2.53-3.18l2.57-3.15
				c0.83-1.07,1.37-2.29,2.08-3.43c1.24-2.35,2.95-4.48,3.9-6.97l3.09-7.36l2.08-7.77c0.66-2.6,0.8-5.37,1.28-8.04
				c1.19-10.89,0.22-22.37-2.41-33.74c-1.28-5.69-3.08-11.33-5.11-16.88c-1.09-2.74-2.15-5.51-3.4-8.16
				c-1.13-2.58-2.63-5.5-3.62-7.3c-4.69-8.56-1.55-19.31,7.02-23.99c2.85-1.56,6.03-2.24,9.05-2.16
				c20.32,0.63,44.09-2.78,59.78-12.22c7.92-4.74,13.41-10.74,16.44-18.06c1.48-3.7,2.3-7.85,2.69-12.28l0.15-3.39l0.02-0.42
				c-0.01-0.05-0.05,0.01-0.05,0.01c-0.03,0.03-0.05,0.06-0.05,0.09c-0.03,0.04,0.11,0.16,0.09,0.11c-0.28-0.23-0.01-0.28-0.35-0.78
				c-0.41-0.5-0.33-0.9-0.96-1.59c-1.67-2.55-5.11-5.87-9.04-8.82c-3.84-3.05-8.41-5.88-13.04-8.61
				c-9.46-5.38-19.78-10.09-30.38-14.29c-21.25-8.43-43.75-14.75-66.46-19.82c-45.53-9.89-92.57-14.21-138.75-11.52
				c-22.44,1.15-45.03,5.76-66.87,12.27c-21.77,6.63-42.6,16.08-60.53,28.36c-8.32,5.7-19.68,3.57-25.37-4.75
				c-2.51-3.67-3.5-7.92-3.11-12.03l0.07-0.68c1.35-14.12,3.32-28.13,5.94-41.98c2.63-13.85,5.9-27.53,9.64-41.04
				c3.82-13.49,8.23-26.78,13.54-39.76c5.23-13,11.05-25.75,18.27-38.03c1.68-2.85,5.34-3.8,8.2-2.13c1.93,1.14,2.99,3.2,2.95,5.29
				c-0.3,14.2-1.81,27.98-3.53,41.62c-1.64,13.66-3.78,27.11-5.96,40.49l-6.55,39.93c-2.11,13.27-4.15,26.5-5.9,39.74l-28.42-17.45
				c22.45-14.07,46.46-23.45,70.69-30.85c24.25-7.23,49.19-12.34,74.87-13.71c49.98-2.89,99.73,1.74,148.27,12.26
				c24.26,5.42,48.28,12.14,71.81,21.45c11.77,4.67,23.42,9.94,34.9,16.46c5.73,3.37,11.43,6.88,17.05,11.29
				c5.6,4.35,11.23,9.21,16.38,16.61c1.3,1.64,2.48,4.1,3.62,6.17c1.15,2.11,2.01,5.09,2.81,7.65c0.35,1.4,0.53,3.04,0.72,4.57
				l0.21,2.33l0.07,1.14l-0.02,0.7l-0.24,5.62c-0.61,7.55-2.12,15.32-5.14,22.81c-3.06,7.46-7.51,14.45-12.88,20.32
				c-5.36,5.9-11.55,10.69-17.94,14.51c-12.85,7.65-26.34,11.68-39.56,14.2c-6.63,1.24-13.24,2.08-19.84,2.54
				c-3.3,0.24-6.61,0.39-9.93,0.47c-3.44,0.05-6.42,0.07-10.46-0.14l16.07-26.15c2.24,4.01,3.73,7.04,5.3,10.54
				c1.57,3.38,2.91,6.82,4.27,10.26c2.55,6.93,4.79,13.99,6.45,21.28c3.36,14.52,4.8,29.89,3.11,45.46
				c-0.61,3.88-0.94,7.79-1.87,11.64l-3.11,11.5l-4.58,11.06c-1.52,3.69-3.85,6.96-5.79,10.44c-1.05,1.68-1.97,3.48-3.15,5.05
				l-3.67,4.63l-3.7,4.6c-1.18,1.56-2.5,3.05-4.06,4.43c-5.79,5.9-12.22,10.76-18.87,14.95c-13.38,8.28-27.61,13.45-41.75,16.94
				c-14.17,3.51-28.38,5.46-42.51,6.44c-28.29,1.64-56.24-0.19-84.14-5.98l21-16.16c-1.91,31.95-8.83,63.18-20.16,92.49
				c-11.34,29.3-26.05,57.22-44.58,82.57c-18.39,25.41-40.03,48.75-65.63,67.89c-6.2,5-13.13,9.16-19.78,13.62
				c-3.46,2.06-7.02,3.98-10.54,5.97l-5.31,2.92l-5.53,2.57c-14.56,7.18-30.43,12.22-46.76,15.27c-32.68,6.33-68.28,1.16-97.9-14.05
				c-29.74-15.21-53.9-38-73.16-63.04c-20.32-26.77-31.37-58.74-36.35-90.11c-5-31.57-4.45-63.06-1.3-93.8
				c3.22-30.77,9.14-60.92,16.55-90.53c7.63-29.55,16.83-58.53,26.97-87.11c10.23-28.55,21.71-56.54,33.73-84.27
				c12.33-27.58,25.19-54.89,38.69-81.86c27.27-53.77,55.84-106.99,89.07-157.33c33.05-50.33,69.13-99.1,114.16-140.05
				c2.4-2.18,6.12-2,8.3,0.4c1.71,1.88,1.97,4.56,0.86,6.68L418.47,1148.84z"/>
		</g>
		<g>
			<path class="st13" d="M219.61,1652.99c7.65-16.58,16.09-32.12,25.25-47.62c9.18-15.41,19.09-30.44,29.85-45.01
				c10.91-14.47,22.71-28.42,35.68-41.6c13.25-12.94,27.75-25.02,44.1-35.33c8.13-5.13,18.87-2.69,24,5.43s2.69,18.87-5.43,24
				c-0.39,0.24-0.78,0.47-1.18,0.68l-0.41,0.21c-14.08,7.37-27.61,16.74-40.46,27.36c-12.66,10.91-24.66,22.9-36.03,35.64
				c-11.24,12.86-21.88,26.4-31.9,40.45c-9.94,14.01-19.54,28.71-27.87,43.45l-0.14,0.24c-2.36,4.18-7.66,5.65-11.84,3.29
				C219.27,1661.95,217.75,1657.05,219.61,1652.99z"/>
		</g>
		<g>
			<g>
				<path class="st1" d="M1415.84,859.53L1415.84,859.53c-7.24,0.43-13.42-5.32-13.8-12.84l-19.91-392.07
					c-0.38-7.52,5.18-13.96,12.42-14.38h0c75.97-4.47,140.81,55.83,144.81,134.7l6.79,133.7
					C1550.15,787.49,1491.81,855.05,1415.84,859.53z"/>
				<path class="st13" d="M1415.08,862.67c-3.91,0-7.65-1.44-10.62-4.09c-3.34-3-5.31-7.16-5.55-11.73l-19.91-392.08
					c-0.46-9.21,6.43-17.13,15.36-17.66c36.59-2.14,72.05,10.32,99.74,35.14c29.17,26.13,46.34,62.54,48.37,102.52l6.79,133.7
					c4.08,80.44-55.7,149.6-133.24,154.17l0,0C1415.71,862.66,1415.39,862.67,1415.08,862.67z M1402.48,443.12
					c-2.57,0-5.16,0.08-7.74,0.23c-5.53,0.32-9.79,5.31-9.49,11.11l19.91,392.08c0.15,2.9,1.38,5.52,3.47,7.4
					c1.96,1.75,4.43,2.64,7.02,2.48h0c74.15-4.37,131.28-70.59,127.37-147.62l-6.79-133.7c-1.94-38.31-18.38-73.18-46.3-98.19
					C1465.46,454.96,1434.65,443.12,1402.48,443.12z"/>
			</g>
			<g class="st15">
				<path class="st13" d="M1542.97,645.93l3.2,62.7c3.99,78.84-54.34,146.41-130.33,150.92c-7.24,0.43-13.42-5.35-13.81-12.87
					l-5.32-104.23c2.27,4.63,7.02,7.64,12.34,7.37l8.96-0.55C1478.03,745.76,1527.09,702.8,1542.97,645.93z"/>
			</g>
			<g>
				<path class="st13" d="M1415.06,876.93c-7.43,0-14.51-2.71-20.11-7.73c-6.2-5.55-9.84-13.23-10.27-21.63l-19.9-392.07
					c-0.86-17,12.04-31.63,28.76-32.61c40.39-2.38,79.54,11.38,110.09,38.75c32.01,28.69,50.87,68.61,53.09,112.41l6.79,133.7
					c4.48,88.23-61.3,164.1-146.64,169.13C1416.26,876.91,1415.66,876.93,1415.06,876.93z M1414.86,842.17c-0.02,0-0.03,0-0.05,0
					h0.01C1414.84,842.18,1414.85,842.17,1414.86,842.17z M1399.67,457.41l19.52,384.43c64.22-6.2,113.04-64.61,109.6-132.33
					l-6.79-133.7c-1.75-34.48-16.52-65.84-41.58-88.29C1457.87,467.31,1429.37,456.72,1399.67,457.41z"/>
			</g>
			<g>
				<path class="st1" d="M147.88,513.65L147.88,513.65c7.24-0.43,13.42,5.32,13.8,12.84l19.91,392.07
					c0.38,7.52-5.18,13.96-12.42,14.38h0c-75.97,4.47-140.81-55.83-144.81-134.7l-6.79-133.7
					C13.57,585.68,71.91,518.12,147.88,513.65z"/>
				<path class="st13" d="M161.23,936.3c-33.71,0-65.98-12.4-91.62-35.38c-29.17-26.13-46.34-62.54-48.37-102.52l-6.79-133.7
					C10.37,584.26,70.14,515.1,147.7,510.53h0c4.21-0.23,8.35,1.2,11.56,4.07c3.34,3,5.31,7.16,5.55,11.73l19.91,392.07
					c0.46,9.21-6.43,17.13-15.36,17.66C166.64,936.22,163.93,936.3,161.23,936.3z M148.07,516.77
					c-74.15,4.37-131.29,70.59-127.38,147.62l6.79,133.7c1.94,38.31,18.38,73.18,46.3,98.19c26.45,23.7,60.24,35.62,95.21,33.55
					c5.53-0.32,9.79-5.31,9.49-11.11l-19.91-392.07c-0.15-2.89-1.38-5.52-3.47-7.4C153.14,517.5,150.68,516.57,148.07,516.77
					L148.07,516.77z"/>
			</g>
			<g class="st15">
				<path class="st13" d="M176.1,809.79l5.51,108.77c0.39,7.51-5.21,13.95-12.45,14.39c-39.88,2.33-76.72-13.16-103.29-39.85
					c-23.99-24.11-39.59-57.38-41.5-94.83l-2.86-56.34c24.08,48.16,73.87,79.76,129.57,76.49l13.78-0.81
					C169.9,817.3,174.03,814.16,176.1,809.79z"/>
			</g>
			<g>
				<path class="st13" d="M161.21,950.56c-37.22,0-72.83-13.67-101.11-39.01C28.09,882.86,9.23,842.94,7.01,799.13l-6.79-133.7
					c-4.48-88.23,61.3-164.1,146.65-169.13h0c8.02-0.47,15.85,2.25,21.91,7.69c6.2,5.55,9.84,13.23,10.27,21.62l19.9,392.07
					c0.86,17-12.04,31.63-28.75,32.61C167.19,950.47,164.2,950.56,161.21,950.56z M144.53,531.34
					c-64.22,6.2-113.05,64.62-109.61,132.33l6.79,133.7c1.75,34.48,16.52,65.84,41.58,88.29c22.55,20.21,50.98,30.8,80.76,30.11
					L144.53,531.34z M148.9,531c0,0-0.01,0-0.02,0C148.89,531,148.89,531,148.9,531L148.9,531z"/>
			</g>
			<g class="st2">
				<path class="st13" d="M1222.53,1260.04c-13.6,13.34-27.76,26.02-42.45,38.06c-18.03,14.81-36.84,28.63-56.31,41.36
					c-102.36,67.04-223.88,105.05-353.65,103.14c-128.77-1.95-248.07-42.97-347.56-112.05c-15.51-10.77-30.59-22.24-45.1-34.37
					c-15.16-12.64-29.72-25.94-43.71-39.93c26.15-39.23,53.13-76.55,80.16-111l0.09,0.04c20.59-77.98,35.49-123.69,35.49-123.69
					h658.07c0,0,15.68,48.14,37.15,129.9C1171,1185.31,1197.16,1221.81,1222.53,1260.04z"/>
			</g>
			<g>
				
					<ellipse transform="matrix(0.0531 -0.9986 0.9986 0.0531 54.769 1430.9266)" class="st1" cx="781.94" cy="686.58" rx="669.27" ry="644.44"/>
				<path class="st13" d="M779.49,1358.9c-3.15,0-6.25-0.02-9.41-0.07c-168.39-2.5-326.73-71.65-445.83-194.69
					c-125.67-129.82-193.08-302.85-189.82-487.2C140.9,309.55,431.6,14.26,784.39,14.26c3.15,0,6.25,0.02,9.41,0.07
					c168.39,2.5,326.72,71.65,445.83,194.69c125.67,129.82,193.09,302.85,189.83,487.2
					C1422.97,1063.61,1132.28,1358.9,779.49,1358.9z M784.39,20.5c-349.42,0-637.3,292.54-643.73,656.55
					c-3.23,182.68,63.56,354.12,188.07,482.74c117.94,121.85,274.72,190.31,441.44,192.79c3.11,0.05,6.22,0.07,9.32,0.07
					c349.43,0,637.3-292.54,643.73-656.56c3.22-182.68-63.57-354.12-188.08-482.74C1117.2,91.52,960.43,23.05,793.7,20.57
					C790.6,20.53,787.49,20.5,784.39,20.5z"/>
			</g>
			<g class="st15">
				<path class="st13" d="M1421.8,603.45c3.57,30.32,5.1,61.27,4.55,92.72c-6.57,369.54-300.35,664.82-656.24,659.57
					c-355.88-5.34-639.09-309.19-632.6-678.73c0.18-10.63,0.61-21.26,1.28-31.73c37.69,326.37,302.42,581.16,628.05,586.01
					C1112.49,1236.4,1399.51,958.03,1421.8,603.45z"/>
			</g>
			<g>
				<path class="st13" d="M779.49,1373.16c-3.22,0-6.4-0.02-9.63-0.07c-172.21-2.56-334.1-73.24-455.86-199.03
					c-128.32-132.57-197.16-309.2-193.83-497.36C126.85,298.18,429.31-5.53,794.01,0.08c172.21,2.56,334.1,73.24,455.86,199.03
					c128.33,132.56,197.17,309.2,193.85,497.37C1437.09,1071.63,1140.03,1373.16,779.49,1373.16z M784.39,34.76
					c-341.68,0-623.19,286.3-629.47,642.55c-3.16,178.86,62.2,346.69,184.06,472.58c115.29,119.1,268.5,186.03,431.41,188.45
					c345.66,5.1,632.24-283.08,638.58-642.48c3.16-178.86-62.21-346.7-184.06-472.58C1109.61,104.18,956.4,37.25,793.49,34.83
					C790.46,34.78,787.42,34.76,784.39,34.76z"/>
			</g>
			<g>
				<path class="st13" d="M1423.97,713.32c-0.41,130.95-41.72,252.56-112.05,353.21c-52.73,75.46-268.92,207.61-535.39,210.32
					c-247.07,2.51-471.44-134.08-523.69-209.45c-69.71-100.53-110.27-222.08-109.86-353.03C144.05,367.83,431.25,223.94,785,223.65
					C1138.75,223.36,1425.05,366.78,1423.97,713.32z"/>
			</g>
			<g class="st8">
				
					<ellipse transform="matrix(0.1659 -0.9861 0.9861 0.1659 352.0987 1759.1149)" class="st1" cx="1215.96" cy="671.41" rx="118.37" ry="82.68"/>
			</g>
			<g class="st8">
				
					<ellipse transform="matrix(0.264 -0.9645 0.9645 0.264 -54.0276 1741.3768)" class="st1" cx="1113.98" cy="906.09" rx="54.25" ry="45.02"/>
			</g>
			<g class="st15">
				<path class="st17" d="M1300.41,390.13c78.06,77.51,123.98,183.99,123.56,323.17c-0.41,130.98-41.75,252.58-112.03,353.23
					c-52.74,75.46-268.96,207.61-535.42,210.34c-94.09,0.98-184.85-18.24-264.11-46.61c327.5-10.61,590.86-172.81,656.25-266.4
					c89.27-127.74,141.7-282.11,142.2-448.27C1311.02,471.18,1307.37,429.39,1300.41,390.13z"/>
			</g>
			<g>
				<path class="st13" d="M192.14,441.2c-3.58,0-7.19-1.1-10.29-3.39c-7.64-5.63-9.34-16.33-3.87-24.03
					C291.73,241.05,511.71,141.86,781.6,141.63c0.29,0,0.6,0,0.9,0c267.83,0,486.94,95.69,601.36,262.62
					c4.66,6.47,4.42,15.53-1.08,21.73c-6.38,7.17-17.32,7.86-24.49,1.48l-1.59-1.42l-1.29-1.84
					c-107.77-157.52-316.57-247.82-572.91-247.82c-0.3,0-0.57,0-0.87,0c-258.2,0.22-467.74,93.85-574.89,256.89l-1.08,1.47
					C202.26,438.97,197.23,441.2,192.14,441.2z"/>
			</g>
			<g class="st8">
				<path class="st1" d="M286.18,925.4c0,0-102.31-341.78,75.56-478.15s433.15-136.04,427.13-119.03c0,0-282.84,71.27-394.15,303.35
					C308.89,810.54,286.18,925.4,286.18,925.4z"/>
			</g>
		</g>
		<g>
			<path class="st13" d="M1415.41,1657.88c-4.24,0-8.38-2.16-10.72-6.06c-30.7-51.05-117.83-54.51-118.71-54.54
				c-6.9-0.23-12.3-6.01-12.08-12.91c0.23-6.9,6.07-12.29,12.91-12.08c4.13,0.14,101.68,4.07,139.31,66.65
				c3.56,5.92,1.65,13.59-4.27,17.15C1419.83,1657.31,1417.6,1657.88,1415.41,1657.88z"/>
		</g>
		<g>
			<path class="st13" d="M136.83,1657.88c-2.19,0-4.41-0.58-6.43-1.79c-5.92-3.55-7.83-11.24-4.27-17.15
				c37.62-62.58,135.18-66.51,139.31-66.65c6.8-0.2,12.68,5.18,12.91,12.08c0.22,6.9-5.18,12.68-12.08,12.91
				c-1.4,0.05-88.22,3.82-118.71,54.54C145.21,1655.73,141.07,1657.88,136.83,1657.88z"/>
		</g>
	</g>
</g>
</svg>
