<?xml version="1.0" encoding="utf-8"?>
<!-- Generator: Adobe Illustrator 28.0.0, SVG Export Plug-In . SVG Version: 6.00 Build 0)  -->
<svg version="1.1" id="Layer_1" xmlns="http://www.w3.org/2000/svg" xmlns:xlink="http://www.w3.org/1999/xlink" x="0px" y="0px"
	 viewBox="0 0 2266.25 3332.57" style="enable-background:new 0 0 2266.25 3332.57;" xml:space="preserve">
<style type="text/css">
	.st0{fill:#AD5833;}
	.st1{fill:#000072;}
	.st2{opacity:0.2;}
	.st3{fill:#16044E;}
	.st4{fill:#7BA2FF;}
	.st5{opacity:0.4;}
	.st6{fill:#FFFFFF;}
	.st7{fill:#FCD3AC;}
	.st8{opacity:0.6;}
	.st9{opacity:0.3;}
	.st10{fill:#9DA9B9;}
	.st11{fill:#C48A76;}
	.st12{fill:#FF67A0;}
	.st13{fill:#FB132B;}
	.st14{fill:#FEBD1C;}
	.st15{fill:#FF8092;}
	.st16{fill:url(#SVGID_1_);}
	.st17{fill:url(#SVGID_00000136404254631954822320000006555521817505355692_);}
	.st18{fill:url(#SVGID_00000036233539743691834430000015361111560538375084_);}
	.st19{fill:url(#SVGID_00000041991829215856415870000016891996813032670880_);}
	.st20{fill:url(#SVGID_00000008835235074225746070000005376008170107053726_);}
	.st21{fill:#0CCBFF;}
	.st22{fill:#12FA1A;}
	.st23{fill:#FEDA24;}
	.st24{fill:#FF1D73;}
	.st25{opacity:0.7;}
	.st26{fill:#FFCE00;}
	.st27{fill:#FEF26D;}
	.st28{fill:#39D4FF;}
	.st29{opacity:0.55;}
	.st30{fill:#FD6BCD;}
	.st31{fill:#FFCEDA;}
	.st32{fill:#FC6ACB;}
	.st33{fill:#ACA5C4;}
	.st34{fill:#FC3C53;}
	.st35{fill:#FD6CCB;}
	.st36{opacity:0.35;}
	.st37{fill:#F282BD;}
	.st38{fill:#FF3636;}
	.st39{opacity:0.5;}
	.st40{fill:#FF0068;}
	.st41{fill:url(#SVGID_00000150823266523477140760000003624488480596332209_);}
	.st42{fill:none;stroke:#000072;stroke-width:34.0177;stroke-linecap:round;stroke-linejoin:round;stroke-miterlimit:10;}
	.st43{fill:none;stroke:#000072;stroke-width:27.6433;stroke-linecap:round;stroke-linejoin:round;stroke-miterlimit:10;}
	.st44{fill:#4C4C7A;}
	.st45{fill:url(#SVGID_00000072979626681656426640000000411956298327530138_);}
	.st46{fill:url(#SVGID_00000115483990178392224940000013156123057257951164_);}
	.st47{fill:url(#SVGID_00000067925574687069539230000009824440634913816764_);}
	.st48{fill:#E37A33;}
	.st49{fill-rule:evenodd;clip-rule:evenodd;fill:#000072;}
	.st50{fill:url(#SVGID_00000019672366323333394780000004952751713134749335_);}
	.st51{fill:#FF7029;}
	.st52{fill-rule:evenodd;clip-rule:evenodd;fill:#4C4C7A;}
	.st53{fill-rule:evenodd;clip-rule:evenodd;fill:#FF7029;}
	.st54{fill:url(#SVGID_00000162347104229088068420000008716083653614987446_);}
	.st55{fill:url(#SVGID_00000137121164744949912890000008964138438222005940_);}
	.st56{fill:url(#SVGID_00000121990626124404377940000002100503302179892610_);}
	.st57{fill-rule:evenodd;clip-rule:evenodd;fill:#FFFFFF;}
	.st58{fill:url(#SVGID_00000153694266761344819790000012566210186765512380_);}
	.st59{fill:#FFCCA9;}
	.st60{fill:url(#SVGID_00000080919710744463595960000000112088285632729759_);}
	.st61{fill:url(#SVGID_00000045596472130373476640000002757888506683594653_);}
	.st62{fill:url(#SVGID_00000129172135483022967100000005788724783218719916_);}
	.st63{fill:url(#SVGID_00000109746228752723698230000012032807621076598454_);}
	.st64{fill:none;stroke:#000072;stroke-width:23.0361;stroke-linecap:round;stroke-linejoin:round;stroke-miterlimit:10;}
	.st65{fill:url(#SVGID_00000176742018805105863060000017381143745994336646_);}
	.st66{fill:#74778C;}
	.st67{fill:#650000;}
	.st68{fill:#C7B6D8;}
	.st69{fill:#3185FF;}
	.st70{fill:#E9C289;}
	.st71{fill:#FBFCF7;}
	.st72{fill:#677568;}
	.st73{fill:#00F970;}
	.st74{fill:#D9DAED;}
	.st75{fill:#0A0062;}
	.st76{fill:#FF7C7E;}
	.st77{fill:none;stroke:#0A0062;stroke-width:36.0029;stroke-linecap:round;stroke-linejoin:round;stroke-miterlimit:10;}
	.st78{fill:url(#SVGID_00000078739002659901371560000014237738164235414933_);}
	.st79{fill:url(#SVGID_00000116935852439148478960000017474838449618516882_);}
	.st80{fill:url(#SVGID_00000062173214243078684640000017296680905668144518_);}
	.st81{fill:url(#SVGID_00000063635315812945499960000008887557990448009620_);}
	.st82{fill:#FFB774;}
	.st83{fill:#45C4EF;}
	.st84{fill:#BFBFDD;}
	.st85{fill:url(#SVGID_00000134234483520941586150000007772500902510492072_);}
	.st86{clip-path:url(#SVGID_00000181076131397781309090000012172120276808916111_);}
	.st87{fill:#77E236;}
	.st88{fill:#54A520;}
	.st89{fill:#371A45;}
	.st90{opacity:0.41;}
	.st91{fill:none;}
	.st92{fill:#32B1D1;}
	.st93{fill:#29B8FF;}
	.st94{fill:#2C96FF;}
	.st95{fill:#2366F9;}
	.st96{fill:#2276FC;}
	.st97{fill:#FFD243;}
	.st98{fill:#FCAC38;}
	.st99{fill:#FFB200;}
	.st100{fill:#FF9100;}
	.st101{fill:none;stroke:#293856;stroke-width:8.2365;stroke-linecap:round;stroke-miterlimit:10;}
	.st102{fill:#D66B09;}
	.st103{fill:#FFD766;}
	.st104{fill:#FFAA39;}
	.st105{fill:#FFCF6E;}
	.st106{fill:#FFEC90;}
	.st107{fill:#FFA92C;}
	.st108{fill:none;stroke:#371A45;stroke-width:3.137;stroke-linecap:round;stroke-miterlimit:10;}
	.st109{fill:#FF8D06;}
	.st110{opacity:0.25;}
	.st111{fill:#22A7F0;}
	.st112{fill:#220F2D;}
	.st113{fill:#D3613B;}
	.st114{fill:#F9D6B6;}
	.st115{fill:#1C7AEA;}
	.st116{fill:#39A1FF;}
	.st117{fill:#FFEB52;}
	.st118{fill:#D2623A;}
	.st119{fill:#FDDBA5;}
	.st120{fill:url(#SVGID_00000127744073011842576670000014318527037172415412_);}
	.st121{fill:url(#SVGID_00000039836494694594972400000002174218787299595137_);}
	.st122{fill:url(#SVGID_00000176042191309377837410000010491870671468324235_);}
	.st123{fill:url(#SVGID_00000128479819754992988700000003341268767468554681_);}
	.st124{fill:url(#SVGID_00000125601432041075487020000005091393475453751168_);}
	.st125{fill:url(#SVGID_00000134248657197637296850000018052760915740872580_);}
	.st126{fill:url(#SVGID_00000160876057524562605140000004626893415283162517_);}
	.st127{fill:url(#SVGID_00000124154007912594986720000003139721574836923570_);}
	.st128{fill:url(#SVGID_00000093176218125258751560000006695798774044440201_);}
	.st129{fill:none;stroke:#16044E;stroke-width:18.4129;stroke-linecap:round;stroke-linejoin:round;stroke-miterlimit:10;}
	.st130{fill:url(#SVGID_00000102529326079438955980000001725139741374629505_);}
	.st131{fill:url(#SVGID_00000051341900521884047520000008659212837974495159_);}
</style>
<g>
	<g>
		<g>
			<g>
				<path class="st113" d="M1192.3,2623.69c-5.93,9.72-11.82,19.22-17.62,28.53c-70.34,113.2-130.32,196.82-233.98,234.48
					c-4.11,1.51-8.26,2.92-12.51,4.25c-1.74,0.55-3.47,1.1-5.25,1.6c-1.55,0.5-3.15,0.96-4.75,1.42c-0.46,0.14-0.91,0.23-1.37,0.37
					c-1.87,0.55-3.74,1.05-5.66,1.51c-1.1,0.32-2.24,0.59-3.38,0.87c-2.1,0.55-4.15,1.05-6.3,1.51c-2.28,0.55-4.61,1.05-6.98,1.55
					c-4.56,0.96-9.17,1.83-13.92,2.6c-2.24,0.41-4.52,0.78-6.8,1.14c-5.39,0.82-10.86,1.55-16.48,2.19
					c-2.83,0.32-5.66,0.59-8.58,0.87c-2.19,0.23-4.38,0.41-6.62,0.59c-1.46,0.14-2.97,0.23-4.47,0.32c-2.65,0.23-5.34,0.37-8.03,0.5
					c-3.24,0.18-6.53,0.37-9.86,0.46c-22.18,0.82-45.87,0.27-71.39-1.6c-5.39-0.41-10.82-0.87-16.39-1.37
					c-15.75-1.51-32.23-3.47-49.39-5.98c-9.4-1.42-19.08-2.92-28.94-4.61c-41.22-7.03-84.03,3.33-116.4,29.85
					c-1.87,1.51-3.7,3.1-5.52,4.7c-7.3,6.48-13.92,13.65-19.81,21.36c-14.1,18.44-24.15,39.89-30.22,62.63
					c-38.57,144.6-162.36,160.31-190.11,73.08c-1.87-5.93-3.06-12.14-3.79-18.3c-0.64-5.16-1.1-10.27-1.55-15.25
					c-10.91-130.14,46.97-206.04,116.85-263.24c9.08-7.44,18.58-14.29,28.39-20.54c38.94-24.97,83.17-40.81,129.36-46.28
					c118.95-14.01,214.67,1.6,295.96-18.53c37.93-9.36,72.67-26.47,105.21-57.97c77.83-24.1,152.32-40.49,213.89-27.07
					c0.96,0.18,1.87,0.41,2.83,0.68c1.83,0.37,3.65,0.82,5.43,1.32c0.5,0.14,0.96,0.23,1.42,0.41
					C1187.83,2622.32,1190.06,2622.96,1192.3,2623.69z"/>
			</g>
			<g>
				<path class="st114" d="M511.91,2950.79c-14.1,18.44-24.15,39.89-30.22,62.63c-38.57,144.6-162.36,160.31-190.11,73.08
					c-1.87-5.93-3.06-12.14-3.79-18.3c-16.89-139.49,42.72-219.1,115.3-278.48c9.08-7.44,18.58-14.29,28.39-20.54
					c-1.51,13.78-1.46,27.71,0.18,41.49c26.34-0.05,52.63,3.33,78.05,10.09C494.38,2862.37,495.84,2909.52,511.91,2950.79z"/>
			</g>
			<g class="st8">
				<path class="st6" d="M315.92,3114.96c-1.87-5.93-3.06-12.14-3.79-18.3c-0.64-5.16-1.1-10.27-1.55-15.25
					c-10.91-130.14,46.97-206.04,116.85-263.24c9.08-7.44,18.58-14.29,28.39-20.54c38.94-24.97,83.17-40.81,129.36-46.28
					c118.95-14.01,214.67,1.6,295.96-18.53c37.93-9.36,72.67-26.47,105.21-57.97c69.28-21.45,135.9-36.74,193.13-30.38
					c4.24-6.83,8.5-13.72,12.8-20.77c-2.24-0.73-4.47-1.37-6.71-1.96c-0.46-0.18-0.91-0.27-1.42-0.41c-1.78-0.5-3.61-0.96-5.43-1.32
					c-0.96-0.27-1.87-0.5-2.83-0.68c-61.58-13.42-136.07,2.97-213.89,27.07c-32.55,31.5-67.28,48.61-105.21,57.97
					c-81.29,20.13-177.01,4.52-295.96,18.53c-46.19,5.48-90.42,21.32-129.36,46.28c-9.81,6.25-19.31,13.1-28.39,20.54
					c-69.88,57.19-127.76,133.1-116.85,263.24c0.46,4.98,0.91,10.09,1.55,15.25c0.73,6.16,1.92,12.37,3.79,18.3
					c6.04,18.98,16.63,33.07,29.89,42.04C319.36,3124.31,317.47,3119.82,315.92,3114.96z"/>
			</g>
			<g class="st9">
				<g>
					<path class="st89" d="M1192.3,2623.69c-5.93,9.72-11.82,19.22-17.62,28.53c-70.34,113.2-130.32,196.82-233.98,234.48
						c-4.11,1.51-8.26,2.92-12.51,4.25c-1.74,0.55-3.47,1.1-5.25,1.6c-1.55,0.5-3.15,0.96-4.75,1.42c-0.46,0.14-0.91,0.23-1.37,0.37
						c-1.87,0.55-3.74,1.05-5.66,1.51c-1.1,0.32-2.24,0.59-3.38,0.87c-2.1,0.55-4.15,1.05-6.3,1.51c-2.28,0.55-4.61,1.05-6.98,1.55
						c-4.56,0.96-9.17,1.83-13.92,2.6c-2.24,0.41-4.52,0.78-6.8,1.14c-5.39,0.82-10.86,1.55-16.48,2.19
						c-2.83,0.32-5.66,0.59-8.58,0.87c-2.19,0.23-4.38,0.41-6.62,0.59c-1.46,0.14-2.97,0.23-4.47,0.32
						c-2.65,0.23-5.34,0.37-8.03,0.5c-3.24,0.18-6.53,0.37-9.86,0.46c-22.18,0.82-45.87,0.27-71.39-1.6
						c-5.39-0.41-10.82-0.87-16.39-1.37c-15.75-1.51-32.23-3.47-49.39-5.98c-9.4-1.42-19.08-2.92-28.94-4.61
						c-41.22-7.03-84.03,3.33-116.4,29.85c-1.87,1.51-3.7,3.1-5.52,4.7c-7.3,6.48-13.92,13.65-19.81,21.36
						c-14.1,18.44-24.15,39.89-30.22,62.63c-38.57,144.6-162.36,160.31-190.11,73.08c-1.87-5.93-3.06-12.14-3.79-18.3
						c-0.64-5.16-1.1-10.27-1.55-15.25c47.56,33.41,130.82-0.46,161.22-114.39c6.07-22.73,16.11-44.18,30.22-62.63
						c5.89-7.71,12.51-14.88,19.81-21.36c1.83-1.6,3.65-3.2,5.52-4.7c32.36-26.52,75.18-36.88,116.4-29.85
						c77.19,13.19,140.73,16.75,194.5,11.78c0.23-0.09,0.5-0.18,0.73-0.27c25.33-9.45,52.26-22.14,63.77-46.6
						c10.64-22.55,4.61-50.71-11.18-70.02c-3.15-3.83-6.66-7.35-10.41-10.54c37.93-9.36,72.67-26.47,105.21-57.97
						c77.83-24.1,152.32-40.49,213.89-27.07v0.05c0.96,0.18,1.92,0.41,2.83,0.64c1.83,0.37,3.65,0.82,5.43,1.32
						c0.5,0.14,0.96,0.23,1.42,0.41C1187.83,2622.32,1190.06,2622.96,1192.3,2623.69z"/>
				</g>
			</g>
			<g>
				<path class="st89" d="M360.08,3158.36c-40.03,0-72.81-25.24-85.9-66.35c-2.07-6.52-3.55-13.59-4.52-21.63
					c-19.03-157.39,55.14-240.22,121.88-294.8c47.77-39.06,105.57-63.55,167.14-70.82c54.75-6.46,105.27-6.76,149.83-7.03
					c97.91-0.58,175.24-1.04,240.8-64.48c2.06-1.99,4.56-3.47,7.29-4.32c78.4-24.29,168.39-45.97,241.27-22.62
					c5.34,1.71,9.6,5.78,11.55,11.04c1.95,5.26,1.37,11.12-1.56,15.9c-69.46,113.12-120.86,190.97-199.31,240.46
					c-86.63,54.66-197.04,66.74-358.02,39.17c-36.83-6.31-73.92,3.14-101.75,25.94c-1.68,1.38-3.34,2.8-4.98,4.25
					c-20.96,18.62-36.34,44.56-44.47,75.01c-27.17,101.76-90.78,139.14-137.01,140.22C361.59,3158.35,360.83,3158.36,360.08,3158.36
					z M971.5,2662.56c-75.35,70.59-162.3,71.1-262.76,71.69c-45.74,0.27-93.04,0.55-145.77,6.77
					c-54.65,6.45-105.94,28.17-148.31,62.82c-59.51,48.66-125.64,122.43-108.75,262.15c0.7,5.74,1.7,10.62,3.07,14.94
					c8.45,26.57,27.48,41.4,52.5,40.89c36.26-0.85,82.04-36.17,102.59-113.13c9.98-37.39,29.18-69.52,55.51-92.91
					c2.01-1.78,4.03-3.51,6.08-5.19c36.02-29.52,83.79-41.8,131.06-33.7c312.71,53.59,392.44-55.72,506.88-241.34
					C1105.31,2625.88,1034.83,2643.12,971.5,2662.56z"/>
			</g>
		</g>
		<g>
			<g>
				<g>
					<path class="st119" d="M220.52,2331.74c-26.76-0.69-51.47,12.63-64.44,34.73c-11.52,19.62-16.49,50.73,1.54,72.45
						c18.7,22.52,56.1,27.68,85.96,8.04l21.42-4.03C250.17,2405.86,235.35,2368.8,220.52,2331.74z"/>
				</g>
				<g class="st9">
					<path class="st89" d="M220.52,2331.74c-26.76-0.69-51.47,12.63-64.44,34.73c-11.52,19.62-16.49,50.73,1.54,72.45
						c18.7,22.52,56.1,27.68,85.96,8.04l21.42-4.03C250.17,2405.86,235.35,2368.8,220.52,2331.74z"/>
				</g>
				<g>
					<path class="st89" d="M203.6,2477.28c-23.2,0-45.44-9.14-60.02-26.7c-23.49-28.3-18.55-67.28-3.24-93.35
						c16.35-27.84,47.22-44.59,80.66-43.74c7.29,0.19,13.77,4.7,16.48,11.47l44.48,111.19c2.03,5.07,1.68,10.78-0.95,15.57
						c-2.63,4.79-7.26,8.14-12.63,9.16l-18.03,3.39C235.74,2473.02,219.44,2477.28,203.6,2477.28z M208.5,2350.85
						c-15.46,2.72-28.94,11.68-36.68,24.87c-7.15,12.18-13.09,35.95-0.15,51.54c13.37,16.1,41.13,18.09,61.88,4.45
						c1.9-1.25,4.03-2.14,6.25-2.61L208.5,2350.85z"/>
				</g>
			</g>
			<g>
				<g>
					<g>
						<g>
							<path class="st113" d="M1176.16,1598.58c-76.24,28.77-142.77,98.13-206.07,180.97l267.69-9.13l4.72-155.41L1176.16,1598.58z"
								/>
						</g>
						<g>
							<path class="st118" d="M2247.92,2670.47c-0.05,7.67-1.28,15.25-3.65,22.5c-2.19,6.71-5.34,13.1-9.45,18.94
								c-54.5,77.51-175.37,44.73-212.94-33.37l-1.28-6.94l-198.47-1079.42c85.04,7.12,159.3,54.77,220.97,136.43
								c119.64,158.48,191.76,445.22,203.26,812.9C2247.69,2583.47,2248.19,2626.46,2247.92,2670.47z"/>
						</g>
						<g class="st8">
							<path class="st6" d="M2246.36,2541.52c-11.5-367.67-83.62-654.42-203.26-812.9c-61.67-81.66-135.93-129.31-220.97-136.43
								l1.55,8.42c65.52,18.05,123.74,61.87,173.7,128.02c119.64,158.48,191.76,445.22,203.26,812.9
								c1.32,41.95,1.83,84.95,1.55,128.95c-0.05,7.67-1.28,15.25-3.65,22.5c-2.19,6.71-5.34,13.1-9.45,18.94
								c-16.75,23.83-39.79,37.2-64.74,42.06c41.01,7.39,83.72-4.04,110.46-42.06c4.11-5.84,7.26-12.23,9.45-18.94
								c2.37-7.26,3.61-14.83,3.65-22.5C2248.19,2626.46,2247.69,2583.47,2246.36,2541.52z"/>
						</g>
						<g>
							<path class="st114" d="M2247.92,2670.47c-0.09,14.79-4.61,29.3-13.1,41.45c-54.5,77.51-175.37,44.73-212.94-33.37l-1.28-6.94
								v-143.1c16.52-46.86,47.65-86.16,89.69-119.82l136.07,132.83C2247.69,2583.47,2248.19,2626.46,2247.92,2670.47z"/>
						</g>
						<g>
							<path class="st89" d="M2147.6,2774.41c-3.94,0-7.93-0.17-11.96-0.5c-54.91-4.53-107.24-39.67-130.22-87.45
								c-0.71-1.46-1.21-3.01-1.5-4.61l-199.74-1086.37c-1.03-5.6,0.61-11.35,4.43-15.56c3.82-4.22,9.38-6.42,15.06-5.93
								c128.69,10.8,237.48,109.17,314.58,284.47c73.96,168.15,117.66,404.16,126.37,682.49c1.31,41.59,1.84,85.21,1.56,129.63l0,0
								c-0.12,18.71-5.79,36.63-16.39,51.8C2226.24,2755.85,2189.48,2774.41,2147.6,2774.41z M2039.37,2672.74
								c18.07,35.43,57.65,61.35,99.27,64.78c19.72,1.61,56.48-0.9,81.24-36.1c6.32-9.03,9.71-19.79,9.78-31.06
								c0.27-43.96-0.25-87.12-1.55-128.26c-16.77-535.82-162.88-887.09-383.47-928.47L2039.37,2672.74z M2247.92,2670.46h0.05
								H2247.92z"/>
						</g>
						<g>
							<path class="st89" d="M2165.09,2746.48l7.7-132.19c0.54-8.35,12.83-8.69,13.81-0.38c0,0,14.99,131.57,14.99,131.57
								c1.15,10.06-6.08,19.14-16.13,20.28C2174.29,2767.14,2164.34,2757.68,2165.09,2746.48L2165.09,2746.48z"/>
						</g>
						<g>
							<path class="st89" d="M2095.68,2748.12l7.7-107.55c0.63-8.21,12.65-8.59,13.81-0.47c0,0,14.99,106.77,14.99,106.77
								c1.41,10.04-5.59,19.32-15.63,20.73C2105.14,2769.36,2094.74,2759.59,2095.68,2748.12L2095.68,2748.12z"/>
						</g>
						<g>
							<path class="st89" d="M2026.59,2523.58c11.37,71.09,44.2,139.21,81.57,31.61c1.35-3.81,2.54-8.2,3.77-12.09
								c6.01-22.71,31.88-34.7,52.73-24.14c3.35,1.55,1.8,6.76-1.85,6.2c-19.57-2.9-33.29,7.98-35.32,26.31
								c-2.93,14.69-7.13,28.78-13.43,42.79c-22.71,52.37-67.54,55.55-93.58,2.95c-5.74-11.2-9.84-22.71-13.1-34.27
								c-3.28-11.56-5.82-23.17-7.81-34.82C1997.01,2510.19,2023.16,2505.78,2026.59,2523.58L2026.59,2523.58z"/>
						</g>
						<g>
							<path class="st89" d="M2246.54,2558.12c-2.94,0-5.89-1.13-8.12-3.39l-129.12-130.79c-29.88,24.39-56.27,58.49-78.54,101.51
								c-2.9,5.6-9.79,7.78-15.38,4.89c-5.6-2.9-7.79-9.79-4.89-15.38c25.79-49.84,57.08-88.67,92.98-115.42
								c4.56-3.4,10.93-2.92,14.94,1.13l136.25,138.01c4.43,4.49,4.38,11.71-0.1,16.14
								C2252.33,2557.02,2249.43,2558.12,2246.54,2558.12z"/>
						</g>
						<g class="st9">
							<g>
								<path class="st89" d="M2244.26,2692.97c-2.19,6.71-5.34,13.1-9.45,18.94c-54.5,77.51-175.37,44.73-212.94-33.37l-1.28-6.94
									l-198.47-1079.42c85.04,7.12,159.3,54.77,220.97,136.43c-3.61,5.43-6.66,11.14-9.13,17.03
									c-18.12,43.32-12.83,92.39-7.26,139.04c12.51,104.16,24.97,208.33,37.47,312.49c11.46,95.44,22.91,191.39,19.35,287.47
									c-1.32,36.38-4.79,73.08,1.05,109.05c5.89,35.92,22.59,71.98,53.09,91.88C2168.63,2705.8,2209.44,2706.02,2244.26,2692.97z"
									/>
							</g>
						</g>
						<g>
							<path class="st89" d="M970.09,1797.8c-6.81,0-13.08-3.8-16.22-9.89c-3.24-6.27-2.57-13.85,1.72-19.45
								c78.82-103.16,144.86-160.83,214.13-186.97c3.47-1.32,7.25-1.53,10.84-0.64l66.34,16.44c8.35,2.07,14.12,9.68,13.86,18.28
								l-4.72,155.41c-0.29,9.62-8.01,17.37-17.63,17.7l-267.69,9.13C970.5,1797.8,970.3,1797.8,970.09,1797.8z M1177.4,1617.69
								c-53.82,21.8-106.87,66.42-168.64,142.27l211.29-7.21l3.75-123.56L1177.4,1617.69z"/>
						</g>
					</g>
					<g>
						<g>
							<path class="st118" d="M2081.9,3245.51c-5.29,37.38-38.02,64.73-75.77,65.18c-102.7,1.23-205.45,2.46-308.2,3.7
								c-47.29,0.59-90.33-28.89-105.44-73.76c-6.94-20.68-9.68-44.5-8.49-70.43c-2.24-157.75-12.05-302.63-36.2-423.36
								c-0.68-3.42-1.37-6.85-2.1-10.27c-1.37-6.66-2.83-13.28-4.29-19.76h-2.15c-1.23,5.43-2.42,10.91-3.65,16.43
								c-17.66,83.53-28.16,179.11-33.87,282.91c-2.74,49.62-4.34,101.1-5.07,154.05c1.19,25.93-1.51,49.75-8.49,70.43
								c-15.11,44.87-58.11,74.36-105.44,73.76c-73.44-0.87-146.84-1.78-220.24-2.65c-29.3-0.36-58.65-0.68-87.96-1.05
								c-37.7-0.46-70.43-27.8-75.73-65.18c-1.92-13.37-1.28-27.11,2.1-40.53c13.24-52.99,62.17-72.58,66.69-74.31
								c-1.1-31.68-2.1-63.04-2.97-93.98c-5.34-183.27-7.21-353.8-4.66-509.9c2.92-180.57,11.82-341.88,28.25-481.51
								c10.32-87.73,23.6-166.93,40.21-236.81l62.76-228.91l4.79-17.57l25.15,0.87l609.73,21.04
								c59.66,48.66,98.14,126.16,121.33,224.58c1.14,4.84,2.28,9.72,3.38,14.65c2.65,11.46,5.16,23.14,7.58,35.1
								c1.6,7.76,3.15,15.61,4.66,23.55l0.05,0.14c26.15,137.76,41.67,305.14,48.93,498.31c1.55,40.53,2.69,82.21,3.47,125.02
								c0.59,28.98,1,58.52,1.23,88.51c0.5,54.64,0.41,110.92-0.09,168.8c-1.05,116.49-3.93,239.36-8.35,368.13
								c4.56,1.73,53.45,21.32,66.73,74.31c0.27,1.19,0.55,2.37,0.82,3.56C2083.23,3220.81,2083.59,3233.32,2081.9,3245.51z"/>
						</g>
						<g>
							<path class="st114" d="M1496.68,3170.19c1.19,25.93-1.51,49.75-8.49,70.43c-15.11,44.87-58.11,74.36-105.44,73.76
								c-102.75-1.23-205.45-2.46-308.2-3.7c-37.7-0.46-70.43-27.8-75.73-65.18c-1.92-13.37-1.28-27.11,2.1-40.53
								c13.24-52.99,62.17-72.58,66.69-74.31c-1.1-31.68-2.1-63.04-2.97-93.98c12-17.12,25.01-33.5,39.03-49.02
								c3.47-3.83,7.53-7.9,12.69-8.12c2.83-0.14,5.57,0.96,8.22,2.1c36.88,15.88,68.1,44.64,87,80.15
								c29.12-24.15,58.24-48.34,87.37-72.48c1.69-1.37,3.51-2.83,5.71-3.01c2.28-0.14,4.34,1.14,6.25,2.37
								c29.62,19.63,55.87,44.37,77.23,72.8c11.55-18.94,25.79-36.2,42.22-51.08c2.46-2.24,5.07-4.47,8.22-5.39
								c3.61-1.1,7.49-0.37,11.14,0.32c12.28,2.42,24.56,4.79,36.79,7.21c5.11,1,10.32,2.01,15.25,3.61
								C1499.01,3065.76,1497.41,3117.24,1496.68,3170.19z"/>
						</g>
						<g>
							<path class="st114" d="M1582.55,3170.19c-1.19,25.93,1.51,49.75,8.49,70.43c15.11,44.87,58.11,74.36,105.44,73.76
								c102.75-1.23,205.45-2.46,308.2-3.7c37.7-0.46,70.43-27.8,75.73-65.18c1.92-13.37,1.28-27.11-2.1-40.53
								c-13.24-52.99-62.17-72.58-66.69-74.31c1.1-31.68,2.1-63.04,2.97-93.98c-12-17.12-25.01-33.5-39.03-49.02
								c-3.47-3.83-7.53-7.9-12.69-8.12c-2.83-0.14-5.57,0.96-8.22,2.1c-36.88,15.88-68.1,44.64-87,80.15
								c-29.12-24.15-58.24-48.34-87.37-72.48c-1.69-1.37-3.51-2.83-5.71-3.01c-2.28-0.14-4.34,1.14-6.25,2.37
								c-29.62,19.63-55.87,44.37-77.23,72.8c-11.55-18.94-25.79-36.2-42.22-51.08c-2.46-2.24-5.07-4.47-8.22-5.39
								c-3.61-1.1-7.49-0.37-11.14,0.32c-12.28,2.42-24.56,4.79-36.79,7.21c-5.11,1-10.32,2.01-15.25,3.61
								C1580.23,3065.76,1581.82,3117.24,1582.55,3170.19z"/>
						</g>
						<g>
							<path class="st89" d="M1146.24,1812.68c-48.68,214.09-60.52,435.77-66.73,655.12c-5.4,220.65-0.92,441.58,6.35,662.22
								c0.27,7.92-4.55,14.84-11.51,17.6c-4.36,1.68-9.52,4.39-14.17,7.27c-22.91,13.87-39.86,37.04-43.34,63.77
								c-6.52,38.37,18.29,73.25,58.69,73.78c85.2,0.97,216.88,2.65,301.79,3.64c16.33,0.65,32.84-2.11,47.56-9.33
								c61.49-31.38,52.88-93.32,54.17-151.54c3.66-141.65,11.43-283.02,42.43-422.46c4.01-19.08,33.93-18.84,37.74,0
								c31,139.43,38.98,280.81,42.46,422.46c1.22,58.26-7.42,120.23,54.07,151.67c14.73,7.24,31.28,10.05,47.63,9.4
								c82.77-0.8,213.93-2.46,297.01-3.29c30.73,1.89,60.26-19.53,64.09-50.53c6.51-40.75-20.36-80.73-57.85-95.53
								c-7.06-2.8-11.28-9.71-11.05-16.89c10.17-303.47,15.47-607.11-2.24-910.17c-8.44-137.37-22.19-274.55-48.1-409.76
								c-0.83-3.93,1.74-7.8,5.7-8.54c3.72-0.71,7.33,1.62,8.29,5.21c14.28,53.7,26.27,108.1,35.03,162.96
								c18.39,109.47,27.89,220.34,34.49,331.07c15.87,276.57,10.42,553.78,1.87,830.44c0,0-11.27-16.98-11.27-16.98
								c48.8,19.15,84.32,68.71,81.15,121.8c-0.74,52.98-47.19,94.73-99.66,92.45c-83.17,0.99-214.19,2.86-297,3.87
								c-6.69,0.16-14.59,0.04-21.32-0.76c-83.12-10.67-120.65-79.68-116.87-158.17c-2.39-151.1-9.51-305.32-42.01-452.61
								c-0.05,0,17.97,14.26,17.75,14.2c0,0-2.08,0-2.08,0l17.8-14.2c-27.45,122.74-36.24,250.71-40.5,377
								c-0.46,21.94-1.71,54.03-1.51,75.61c0.9,27.62-2.44,56.96-13.38,82.86c-18.57,43.37-62.24,73.17-109.02,76.06
								c-24.43,0.75-86.52-0.96-111.6-0.94c-26.43-0.46-167.74-1.92-191.61-2.31c-14.24-0.12-29.57,0.03-43.23-4.76
								c-65.64-20.55-83.22-96.78-51.32-153.24c14.97-26.45,38.25-45.93,66.2-57.54c0,0-11.75,17.69-11.75,17.69
								c-10.41-332.15-16.88-665.14,11.37-996.74c9.9-110.64,24.87-221.21,49.97-330.31c2.26-9.83,12.06-15.96,21.89-13.7
								C1142.53,1792.81,1148.67,1802.8,1146.24,1812.68L1146.24,1812.68z"/>
						</g>
						<g>
							<path class="st89" d="M2006.25,3147.58c-36.62-18.47-82.85-16.57-123.55-9.42c-9.36,1.67-12.94-11.86-3.97-15.01
								c45.05-15.19,93.42-24.41,141.19-9.42C2044.91,3122.52,2030.4,3158.6,2006.25,3147.58L2006.25,3147.58z"/>
						</g>
						<g>
							<path class="st89" d="M1056.83,3113.72c47.76-14.99,96.15-5.76,141.19,9.42c4.06,1.41,6.22,5.84,4.81,9.91
								c-1.28,3.69-5.06,5.81-8.79,5.11c-40.68-7.15-86.94-9.04-123.55,9.42C1046.49,3158.68,1031.79,3122.45,1056.83,3113.72
								L1056.83,3113.72z"/>
						</g>
						<g>
							<path class="st89" d="M1332.54,2646.3c104.94,48.63,215.69,65.28,329.26,41.64c37.12-7.24,73.84-17.89,110.77-29.73
								c3.55-1.16,7.38,0.79,8.52,4.35c0.98,3.04-0.32,6.26-2.95,7.84c-102.6,61.87-232.66,84.06-347.94,45.91
								c-38.43-12.5-74.65-30.96-106.68-54.54c-4.01-2.95-4.86-8.58-1.91-12.59C1324.16,2645.7,1328.76,2644.59,1332.54,2646.3
								L1332.54,2646.3z"/>
						</g>
						<g>
							<g>
								<path class="st89" d="M1101.73,3309.11c1.53-4.82-0.07-9.58-1.38-14.24c-1.23-4.39-1.69-8.57-1.85-13.12
									c-0.39-11.02-1.15-22.63,1.51-33.42c2.58-10.48,9.11-18.67,14.98-27.49c3.38-5.08,5.85-10.39,8.13-16.02
									c1.9-4.7,4.51-8.64,3.91-13.96c-0.1-0.91-0.63-1.45-1.55-1.55c-5.95-0.67-10.2,2.78-15.21,5.35
									c-6.09,3.13-11.36,7.83-15.76,13.04c-8.98,10.65-16.44,23.35-19.12,37.14c-2.57,13.24-2.4,27.02-1.24,40.41
									c0.93,10.77,4.27,31.51,19.38,30.1C1097.44,3314.99,1100.51,3312.94,1101.73,3309.11L1101.73,3309.11z"/>
							</g>
						</g>
						<g>
							<g>
								<path class="st89" d="M1212.99,3304.8c1.73-8.92-2.62-19.06-3.56-28.04c-1.01-9.61-0.5-18.85,1.99-28.19
									c2.18-8.14,5.72-16.07,9.07-23.79c1.84-4.25,3.71-7.76,6.18-11.62c2.14-3.34,5.31-6.82,6.16-10.74
									c0.31-1.42-0.62-2.5-2.01-2.64c-4.34-0.44-9.27,2.47-12.85,4.68c-4.27,2.63-8.94,6.17-12.63,9.61
									c-8.3,7.73-13.25,17.53-16.36,28.33c-3.18,11.05-3.8,23-2.36,34.38c1.32,10.44,5.43,27.25,15.85,32.32
									C1206.29,3310.95,1212.04,3309.66,1212.99,3304.8L1212.99,3304.8z"/>
							</g>
						</g>
						<g>
							<g>
								<path class="st89" d="M1997.08,3315.36c14.8,1.38,18.28-18.59,19.3-29.22c1.31-13.63,1.45-27.8-1.17-41.29
									c-2.61-13.45-9.78-25.86-18.44-36.33c-4.23-5.11-9.36-10.26-15.31-13.38c-5.19-2.72-10.17-6.51-16.33-5.82
									c-0.91,0.1-1.45,0.63-1.55,1.55c-0.58,5.16,1.84,8.52,3.72,13.06c2.3,5.56,4.35,10.96,7.74,16.04
									c6.06,9.08,12.91,17.56,15.57,28.36c2.59,10.53,1.88,21.8,1.54,32.54c-0.14,4.5-0.43,8.83-1.64,13.18
									c-1.38,4.91-3.24,9.96-1.62,15.06C1990.11,3312.98,1993.19,3314.99,1997.08,3315.36L1997.08,3315.36z"/>
							</g>
						</g>
						<g>
							<g>
								<path class="st89" d="M1888.16,3309.08c10.41-5.07,14.53-21.89,15.85-32.32c1.43-11.37,0.82-23.33-2.36-34.38
									c-3.11-10.81-8.07-20.58-16.36-28.33c-3.67-3.43-8.36-7.01-12.63-9.61c-3.59-2.18-8.52-5.11-12.85-4.68
									c-1.39,0.14-2.32,1.22-2.01,2.64c0.81,3.71,3.75,6.92,5.73,10.11c1.22,1.97,2.79,3.7,3.86,5.74
									c0.97,1.85,1.57,3.9,2.42,5.81c3.54,7.9,7.16,16.12,9.4,24.51c2.41,9.02,3.07,18.04,2.09,27.34
									c-0.47,4.44-1.17,8.79-2.04,13.17c-1.04,5.25-2.66,10.36-1.62,15.72C1878.57,3309.66,1884.33,3310.95,1888.16,3309.08
									L1888.16,3309.08z"/>
							</g>
						</g>
						<g>
							<ellipse class="st114" cx="1563.48" cy="2144.58" rx="367.45" ry="438.33"/>
						</g>
						<g class="st9">
							<g>
								<path class="st89" d="M2080.69,3208.53c-9.65,7.49-19.83,14.2-30.77,19.63c-32.55,16.11-69.54,19.95-105.69,20.95
									c-56.69,1.6-117.74-4.88-161.1-42.4c-11.25-9.72-21.12-21.59-26.55-35.65c-4.31-11.27-5.6-23.51-6.76-35.56
									c-9.6-99-14.05-198.56-13.25-298.06c0.13-16.34,0.67-33.69,9.2-47.52c5.56-9.04,14.1-15.75,22.81-21.64
									c74.66-50.57,177.46-51.67,254.43-5.75c0.49-57.88,0.58-114.16,0.09-168.8c-0.77-7.43-1.53-14.86-2.3-22.29
									c0.15-3.16,0.22-6.32,0.26-9.43c0.27-18.9,0.58-37.84,0.84-56.78c0.71-46.24,1.42-92.48,2.13-138.72
									c-1.69,4.66-3.51,9.22-5.51,13.69c-36.97,82.66-98.86,129.69-127.17,150.04c-10.3,7.4-45.89,32.23-98.23,52.52
									c-37.71,10.16-76.89,14.88-115.94,13.74c-46.53-1.37-94.37-11.62-131.66-39.49c-37.29-27.87-61.7-76.03-51.97-121.55
									c10.07-47.13,51.92-80.03,92.68-105.74c37.97-23.95,83.69-46.07,126.16-31.52l3.27,3.6c11.27-17.97,3.62-43.13-12.24-57.22
									c-15.86-14.09-37.65-19.31-58.72-21.8c-137.83-16.29-271.27,62.86-410.02,59.36c-12.48,53.8-20.22,108.7-23.23,163.85
									c-43.31,24.14-85.09,51.13-125.01,80.78c-2.49,156.11-0.67,326.64,4.54,509.9c0.84,30.95,1.82,62.31,2.89,93.98
									c-4.4,1.73-52.07,21.32-64.96,74.31c-3.29,13.42-3.91,27.16-2.05,40.53c5.16,37.38,37.04,64.73,73.77,65.18
									c28.55,0.37,57.14,0.68,85.68,1.05c-5.96-15.93-7.83-33.46-4.76-50.21c6.09-33.41,31.53-62.31,63.32-71.94
									c27.57-8.35,63.9-6.76,76.52-33.32c4.85-10.09,4.45-21.91,4-33.18c-2.85-72.3-25.26-250.19-15.36-349.33
									c3.4-6.81,7.6-13.21,12.62-18.95c0.12-0.14,0.25-0.28,0.37-0.42c17.98-20.31,47.18-26.04,72.36-15.95
									c18.57,7.44,34.59,10.61,43.27,12.33c51.32,10.15,104.52,1.41,104.52,1.42c-0.01,0,8.48-16.22,16.41-15.61
									c1.32,0.1,2.34,0.65,2.79,0.93c-0.24,3.12-0.52,6.22-0.75,9.34c23.52,120.73,33.08,265.61,35.26,423.36
									c-1.16,25.93,1.51,49.75,8.27,70.43c14.72,44.87,56.65,74.36,102.71,73.76c100.09-1.23,200.18-2.46,300.23-3.7
									c36.77-0.46,68.65-27.8,73.81-65.18C2083.58,3233.32,2083.22,3220.81,2080.69,3208.53z"/>
							</g>
						</g>
						<g class="st9">
							<g>
								<path class="st89" d="M1952.23,1808.45c1.14,4.84,2.28,9.72,3.38,14.65c-23.87-41.45-66.19-75.36-109.73-97.86
									c-126.21-65.09-281.04-71.89-412.41-18.08c-18.26,7.44-36.29,16.2-50.94,29.4c-36.97,33.23-45.28,90.56-29.67,137.76
									c15.56,47.2,51.26,85.36,90.88,115.39c-117.45,24.69-236.17,43.23-355.49,55.55c-7.07,0.73-14.1,1.42-21.18,2.1
									c-12.14-97.36-22.87-194.91-32.18-292.59c-1.1-11.87-2.15-24.15,1.96-35.28c2.83-7.71,7.94-14.33,13.1-20.68
									c39.44-48.16,87.78-87.68,141.27-119.27c9.81-5.89,19.81-11.46,29.94-16.71l609.73,21.04
									C1890.56,1632.54,1929.04,1710.04,1952.23,1808.45z"/>
							</g>
						</g>
						<g class="st9">
							<g>
								<path class="st89" d="M1975.23,1901.52l-7.35-19.63l-0.05-0.14l-5.71-15.34c0.27-2.74,0.64-5.48,1.05-8.22
									c0.41-2.88,0.87-5.71,1.28-8.58c0.32-2.19,0.64-4.43,0.91-6.62C1972.81,1861.36,1976.51,1880.98,1975.23,1901.52z"/>
							</g>
						</g>
					</g>
					<g>
						<g>
							<g>
								<path class="st6" d="M1644.62,2069.09c0,0-59.67-5.3-67.36,50.91s53.51,73.48,53.51,73.48s213.97,46.72,368.88,0.16
									c65.47-50.63,4.45-117.7,4.45-117.7S1820.53,2108.07,1644.62,2069.09z"/>
							</g>
							<g class="st9">
								<path class="st89" d="M1630.78,2193.48c0,0,213.95,46.71,368.85,0.16c29.16-22.56,33.23-48.38,28.77-70.07
									c-4.59,6.66-10.8,13.19-18.97,19.51c-154.9,46.55-368.9-0.16-368.9-0.16s-44.12-12.46-52.69-50.6
									c-5.14,6.96-8.98,16.02-10.58,27.7C1569.57,2176.21,1630.78,2193.48,1630.78,2193.48z"/>
							</g>
							<g>
								<path class="st89" d="M1834.91,2225.74c-107.52,0-200.72-19.95-206.56-21.22l-0.66-0.17
									c-24.44-6.89-68.77-33.72-61.63-85.89c7.24-52.91,55.19-62.82,79.56-60.63l1.44,0.22c171.58,38.02,353.28,7.07,355.09,6.76
									l6.12-1.07l4.18,4.59c1.31,1.44,32.05,35.74,28.5,76.41c-1.94,22.22-13.51,41.67-34.4,57.83l-1.66,1.28l-2,0.6
									C1949.79,2220.42,1890.44,2225.74,1834.91,2225.74z M1633.55,2182.53c10.13,2.15,213.72,44.16,360.8,0.9
									c14.64-11.82,22.74-25.44,24.09-40.53c2.1-23.45-12.07-45.5-19.02-54.78c-34.69,5.24-199.38,26.79-356.43-7.82
									c-7.43-0.48-48.73-1.12-54.53,41.24C1582.39,2165.8,1628.84,2181.09,1633.55,2182.53z"/>
							</g>
						</g>
						<g>
							<path class="st6" d="M1785.4,2347.66l-428.78-3.11c-50.75-0.35-92-41.39-91.62-91.24l1.76-223.81
								c0.34-43.63,32.48-80.05,74.58-88.19c5.96-1.19,12.13-1.74,18.46-1.7l428.72,3.1c50.81,0.36,92.06,41.4,91.62,91.24
								l-1.35,177.26l-0.34,46.55C1878.06,2307.61,1836.15,2348.01,1785.4,2347.66z"/>
						</g>
						<g>
							<path class="st6" d="M1785.4,2347.66l-428.78-3.11c-50.75-0.35-92-41.39-91.62-91.24l1.76-223.81
								c0.34-43.63,32.48-80.05,74.58-88.19c5.96-1.19,12.13-1.74,18.46-1.7l428.72,3.1c50.81,0.36,92.06,41.4,91.62,91.24
								l-1.35,177.26l-0.34,46.55C1878.06,2307.61,1836.15,2348.01,1785.4,2347.66z"/>
						</g>
						<g>
							<path class="st6" d="M1785.4,2347.66l-428.78-3.11c-50.75-0.35-92-41.39-91.62-91.24l1.76-223.81
								c0.34-43.63,32.48-80.05,74.58-88.19c5.96-1.19,12.13-1.74,18.46-1.7l428.72,3.1c50.81,0.36,92.06,41.4,91.62,91.24
								l-1.35,177.26l-0.34,46.55C1878.06,2307.61,1836.15,2348.01,1785.4,2347.66z"/>
						</g>
						<g class="st9">
							<path class="st89" d="M1786.03,2347.7l-428.78-3.11c-50.75-0.35-92-41.39-91.62-91.24l1.76-223.81
								c0.34-43.63,32.48-80.05,74.58-88.19c24.22,16.04,39.61,26.3,39.61,26.3c19.48,179.8,70.94,269.77,298.35,275.06
								c98.16,2.26,160.25-11.98,199.5-31.45l-0.34,46.55C1878.69,2307.65,1836.78,2348.05,1786.03,2347.7z"/>
						</g>
						<g>
							<path class="st89" d="M1804.68,2362.88c-0.22,0-0.43,0-0.65,0l-466.16-3.37c-23.62-0.17-45.81-9.58-62.48-26.51
								c-16.67-16.92-25.75-39.25-25.57-62.87l2-257.72c0.38-48.66,40.09-88,88.67-88c0.22,0,0.43,0,0.65,0l466.16,3.37
								c23.62,0.17,45.81,9.58,62.48,26.51c16.67,16.92,25.75,39.25,25.57,62.87l-2,257.72
								C1892.98,2323.53,1853.26,2362.88,1804.68,2362.88z M1338.08,2329.38l466.16,3.37c0.14,0,0.29,0,0.43,0
								c32.08,0,58.3-25.97,58.55-58.11l2-257.72c0.12-15.57-5.88-30.3-16.9-41.49s-25.66-17.41-41.24-17.52l-466.16-3.37
								c-0.14,0-0.29,0-0.43,0c-32.08,0-58.3,25.97-58.55,58.11l-2,257.72c-0.12,15.57,5.88,30.3,16.9,41.49
								S1322.51,2329.26,1338.08,2329.38z"/>
						</g>
						<g>
							<path class="st6" d="M1633.75,2345.01l-0.87,1.59l-276.29-2.02c-37.2-0.31-69.25-22.37-83.56-53.86
								c-5.25-11.4-8.12-24.05-7.98-37.38l0.73-99.43l0.24-32.82l0.49-57.61l0.25-33.95c0.4-49.85,42.25-90.25,93.01-89.9
								l92.64,0.71c-42.76,7.58-75.55,44.28-75.93,88.32l-0.54,66.44l-0.39,54.48l-0.84,103.01c-0.34,49.73,40.9,90.8,91.64,91.21
								L1633.75,2345.01z"/>
						</g>
						<g class="st9">
							<path class="st89" d="M1677.52,2345.3l-0.87,1.59l-320.06-2.31c-37.2-0.31-69.25-22.37-83.56-53.86
								c-5.25-11.4-8.12-24.05-7.98-37.38l0.73-99.43l0.24-32.82l0.49-57.61c18.6-2.38,43.22,0.31,56.42,27.34
								c18.29,37.45,38.08,25.16,53.02,4.26l-0.39,54.48l-0.84,103.01c-0.34,49.73,40.9,90.8,91.64,91.21L1677.52,2345.3z"/>
						</g>
						<g>
							<path class="st89" d="M1744.68,2362.44l-388.17-2.81c-28.9-0.2-55.97-11.63-76.22-32.19
								c-19.78-20.08-30.54-46.44-30.31-74.22l1.74-223.84c0.42-57.97,48.55-104.86,107.46-104.86c0.25,0,0.49,0,0.74,0l92.62,0.69
								l2.53,29.89c-36.51,6.5-63.21,37.5-63.49,73.7l-1.74,223.84c-0.17,19.74,7.52,38.51,21.65,52.85
								c14.6,14.82,34.12,23.06,54.97,23.2c0.1,0,271.57,3.54,278.5,3.63l15.12,0.11l-0.11,15.16
								c-0.14,10.65-6.45,13.69-15.27,14.49L1744.68,2362.44z M1359.16,1954.65c-42.38,0-77.02,33.52-77.32,74.96l-1.74,223.86
								c-0.17,19.73,7.52,38.49,21.65,52.84c14.6,14.82,34.12,23.06,54.97,23.2l36.52,0.26c-1.09-1.02-2.17-2.07-3.22-3.14
								c-19.78-20.08-30.55-46.45-30.31-74.23l1.74-223.83c0.22-28.46,12.02-54.6,31.31-73.67l-33.06-0.24
								C1359.51,1954.65,1359.33,1954.65,1359.16,1954.65z M1265.03,2253.34h0.05H1265.03z"/>
						</g>
						<g>
							<path class="st111" d="M1544.67,2143.64c-0.11,8.28-12.89,74.93-12.89,74.93s-21.58-0.28-48.07-0.62
								c-33.1-0.43-59.48-34.39-58.91-75.86c0.56-41.47,27.86-74.74,60.96-74.32c22.34,0.29,48.07,0.62,48.07,0.62
								S1544.86,2130.16,1544.67,2143.64z"/>
						</g>
						<g>
							<g>
								<path class="st115" d="M1543.21,2143.14c-0.11,7.41-12.36,67.11-12.36,67.11s-20.7-0.25-46.12-0.55
									c-31.76-0.38-57.06-30.8-56.52-67.93c0.54-37.14,26.73-66.93,58.48-66.55c21.43,0.26,46.12,0.55,46.12,0.55
									S1543.39,2131.06,1543.21,2143.14z"/>
							</g>
							<g>
								<path class="st89" d="M1516.99,2219.21c-0.11,0-0.22,0-0.33,0l-32.03-0.39c-16.14-0.19-31.6-7.05-43.54-19.32
									c-14.3-14.68-22.32-35.78-21.99-57.87c0.61-42.1,31.15-75.98,67.72-75.55l32.2,0.39c12.45,0.15,23.02,8.68,25.13,20.28
									c5.55,30.5,8.31,49.52,8.21,56.53c-0.02,1.68-0.1,6.82-9.97,56.08C1540.05,2210.91,1529.41,2219.21,1516.99,2219.21z
									 M1486.09,2084.33c-26.46,0-48.29,25.7-48.75,57.56c-0.25,17.28,5.88,33.64,16.82,44.87c8.54,8.76,19.43,13.67,30.68,13.8
									l32.03,0.39c0.04,0,0.07,0,0.11,0c3.68,0,6.89-2.22,7.49-5.19c8.98-44.8,9.59-51.81,9.62-52.77
									c0.08-5.52-2.88-25.33-7.91-52.99c-0.54-2.97-3.72-5.24-7.39-5.28l-32.2-0.39
									C1486.42,2084.33,1486.26,2084.33,1486.09,2084.33z M1543.22,2143.14h0.05H1543.22z"/>
							</g>
							<g>
								
									<ellipse transform="matrix(0.0216 -0.9998 0.9998 0.0216 -643.8026 3628.123)" class="st111" cx="1531.83" cy="2143" rx="67.25" ry="57.5"/>
							</g>
							<g class="st25">
								<path class="st6" d="M1474.34,2142.33c-0.04,2.8,0.06,5.52,0.31,8.21c6.53-29.4,29.52-51.03,56.62-50.72
									c29.41,0.35,53.22,26.42,56.21,59.72c1.16-5.07,1.78-10.39,1.86-15.86c0.54-37.14-24.75-67.53-56.52-67.93
									C1501.05,2075.36,1474.89,2105.19,1474.34,2142.33z"/>
							</g>
							<g>
								<path class="st115" d="M1474.34,2142.33c-0.54,37.1,24.75,67.53,56.52,67.93c31.77,0.35,57.93-29.43,58.47-66.57
									c0.1-5.85-0.46-11.57-1.59-16.97c-8.75,24.95-29.85,42.4-54.21,42.1c-26.72-0.29-48.92-21.9-54.93-50.91
									C1475.99,2125.45,1474.48,2133.68,1474.34,2142.33z"/>
							</g>
							<g>
								<path class="st89" d="M1531.45,2219.38c-0.24,0-0.47,0-0.71,0c-16.14-0.19-31.6-7.05-43.54-19.32
									c-14.3-14.68-22.31-35.78-21.99-57.87c0.61-42.1,31.11-75.77,67.72-75.55c16.14,0.2,31.6,7.06,43.54,19.33
									c14.3,14.68,22.32,35.78,21.99,57.87C1597.85,2185.65,1567.86,2219.38,1531.45,2219.38z M1532.21,2084.88
									c-26.46,0-48.29,25.7-48.75,57.56c-0.25,17.28,5.88,33.64,16.82,44.87c8.54,8.76,19.43,13.67,30.68,13.8
									c26.5,0.36,48.78-25.5,49.25-57.55c0.25-17.28-5.88-33.64-16.82-44.87c-8.54-8.77-19.43-13.67-30.68-13.81
									C1532.54,2084.88,1532.38,2084.88,1532.21,2084.88z"/>
							</g>
						</g>
						<g>
							<path class="st89" d="M1652.13,2356.38c-0.12,0-0.24,0-0.37,0c-6.24-0.2-11.13-5.42-10.93-11.66l3.61-113.19
								c0.96-30.14,17.12-57.58,43.22-73.41c20.02-12.14,32.12-33.14,32.39-56.16l1.8-159.62c0.07-6.24,5.21-11,11.42-11.17
								c6.24,0.07,11.24,5.19,11.17,11.43l-1.8,159.62c-0.35,30.88-16.52,59.01-43.26,75.22c-19.54,11.86-31.64,32.34-32.35,54.82
								l-3.61,113.19C1663.22,2351.55,1658.2,2356.38,1652.13,2356.38z"/>
						</g>
					</g>
					<g>
						<g>
							<g>
								<g>
									<g>
										<g>
											<path class="st82" d="M1255.94,408.87c-15.17,0-29.73-8.52-36.72-23.12l-120.82-252.3c-9.7-20.26-1.14-44.55,19.12-54.25
												c20.26-9.7,44.55-1.15,54.25,19.12l120.82,252.3c9.7,20.26,1.14,44.55-19.12,54.25
												C1267.81,407.59,1261.83,408.87,1255.94,408.87z"/>
										</g>
									</g>
									<g class="st9">
										<path class="st89" d="M1255.11,366.61l-120.82-252.3c-6.23-13.01-4.9-27.66,2.19-39.06c-6.34-0.22-12.83,1.02-18.95,3.95
											c-20.26,9.7-28.82,33.99-19.12,54.25l120.82,252.3c6.99,14.6,21.55,23.12,36.72,23.12c5.89,0,11.87-1.29,17.54-4
											c7.27-3.48,13-8.86,16.96-15.24C1275.78,389.13,1261.88,380.76,1255.11,366.61z"/>
									</g>
									<g>
										<g>
											<path class="st89" d="M1255.94,422.4c-20.76,0-39.96-12.09-48.91-30.81l-120.81-252.3
												c-12.91-26.95-1.48-59.38,25.48-72.29c13.06-6.25,27.77-7.05,41.42-2.24c13.66,4.81,24.62,14.65,30.87,27.71
												l120.82,252.3c6.25,13.06,7.05,27.76,2.23,41.42c-4.81,13.65-14.65,24.62-27.71,30.87
												C1271.95,420.61,1264.08,422.4,1255.94,422.4z M1135.08,88.72c-4,0-7.99,0.9-11.71,2.68
												c-13.5,6.47-19.23,22.71-12.76,36.22l120.82,252.3c4.49,9.38,14.11,15.43,24.52,15.43c4.06,0,8-0.9,11.7-2.67
												c6.54-3.13,11.47-8.62,13.88-15.46c2.41-6.84,2.01-14.21-1.12-20.75l-120.82-252.3c-3.13-6.54-8.63-11.47-15.47-13.88
												C1141.17,89.24,1138.12,88.72,1135.08,88.72z"/>
										</g>
									</g>
								</g>
								<g>
									<g>
										
											<ellipse transform="matrix(0.9104 -0.4138 0.4138 0.9104 -120.638 616.7089)" class="st116" cx="1363.32" cy="586.84" rx="368.41" ry="339.03"/>
									</g>
									<g class="st8">
										<path class="st6" d="M1698.71,434.4c-77.48-170.46-290.45-240.4-475.68-156.21c-47.18,21.45-87.97,50.85-121.35,85.55
											c26.72-22.31,56.98-41.6,90.51-56.84c185.23-84.19,398.2-14.26,475.68,156.21c57.74,127.04,23.89,274.03-73.76,375.54
											C1715.01,737.7,1762.17,574.01,1698.71,434.4z"/>
									</g>
									<g>
										<path class="st89" d="M1340.89,944.79c-40.61,0-80.98-6.32-119.75-19.05c-93.48-30.7-166.47-94.93-205.52-180.85
											c-80.44-176.98,10.1-391.86,201.83-479c191.73-87.15,413.15-14.06,493.59,162.92l0,0c80.44,176.98-10.1,391.86-201.83,479
											C1455.12,932.38,1397.77,944.79,1340.89,944.79z M1385.52,256.14c-52.04,0-105.58,11.04-156.89,34.36
											c-178.15,80.98-262.66,279.79-188.39,443.19c35.89,78.96,103.13,138.04,189.34,166.35
											c86.61,28.44,181.94,22.45,268.43-16.86c178.15-80.97,262.66-279.79,188.4-443.19
											C1633.53,323.66,1514.17,256.14,1385.52,256.14z"/>
									</g>
									<g>
										<path class="st117" d="M1255.77,928.04c-145.58-158.39-172.96-442.26-85.07-592.96c21.25-36.44,61.22-57.03,103.3-54.07
											c190.88,13.42,323.93,241.8,344.78,535.25L1255.77,928.04z"/>
									</g>
									<g>
										<path class="st89" d="M1255.78,942.39c-3.88,0-7.74-1.56-10.57-4.64c-70.71-76.94-118.21-186.05-133.76-307.26
											c-14.85-115.82,2.23-226.13,46.86-302.66c23.97-41.1,68.65-64.55,116.71-61.16c191.83,13.49,335.74,233.93,358.09,548.55
											c0.56,7.91-5.4,14.78-13.3,15.34c-7.93,0.59-14.78-5.4-15.34-13.31c-10.12-142.49-47.94-272.48-106.48-366.04
											C1438,355.37,1360.2,301.46,1273,295.33c-37.04-2.56-71.47,15.4-89.89,46.98c-81.76,140.2-63.54,416.32,83.24,576.02
											c5.36,5.84,4.98,14.92-0.86,20.29C1262.73,941.14,1259.25,942.39,1255.78,942.39z"/>
									</g>
									<g class="st9">
										<path class="st89" d="M1202.21,643.91c-59.72-131.39-21.44-284.1,84.04-385.78c-8.89,3.3-17.74,6.84-26.52,10.83
											c-185.23,84.19-272.59,290.63-195.11,461.09c77.48,170.46,290.45,240.4,475.68,156.21c42.46-19.3,79.7-45.07,111.07-75.31
											C1472.76,877.34,1276.01,806.29,1202.21,643.91z"/>
									</g>
								</g>
								<g>
									<g>
										<path class="st117" d="M1138.94,228.58c20.21-11.04,40.49-21.33,60.91-31.67c34.33-17.39,71.6-28.24,109.86-32.4
											c127.76-13.92,191.42-61.16,144.59-118.05c-62.23-73.49-126.83-11.35-215.02,63.03c-11.04,9.31-23.19,17.24-36.13,23.65
											c-35.36,17.53-70.73,35.05-106.09,52.58c-15.32,7.59-32.04,12.09-49.11,12.91c-106.31,5.1-181.28,46.54-190.71,97.48
											c-2.06,11.15-2.18,29.2,11.42,53.9c59.11,51.27,124.34-14.97,212.75-83.69C1099.53,252.23,1118.78,239.59,1138.94,228.58z
											"/>
									</g>
									<g class="st9">
										<path class="st89" d="M1361.09,133.84c-40.34,6.07-59.92,1.1-110.43,13.2c-31.63,7.58-53.09,16.51-62.75,20.77
											c-28.98,12.79-47.5,25.83-61.51,35.17c-68.8,45.83-137.52,91.62-191.48,72.02c-7.67-2.79-18.59-8.18-30.11-19.76
											c-2.32-5.37-4.04-10.38-5.35-15.08c-23.5,15.83-38.37,35.09-42.23,55.96c-2.06,11.15-2.18,29.2,11.42,53.9
											c59.12,51.27,124.34-14.96,212.75-83.69c18.13-14.09,37.39-26.74,57.55-37.75c20.21-11.04,40.49-21.33,60.91-31.67
											c34.33-17.39,71.6-28.24,109.86-32.4c84.81-9.24,141.32-33.17,156.07-64.86C1422.79,121.43,1386.43,130.02,1361.09,133.84
											z"/>
									</g>
									<g>
										<path class="st89" d="M913.69,381.95c-18.39,0-36.29-6.45-53.9-21.72l-1.82-1.58l-1.16-2.11
											c-12.17-22.1-16.5-43.26-12.87-62.89c11.03-59.6,92.75-103.21,203.35-108.53c15.07-0.73,29.79-4.6,43.76-11.52
											l106.09-52.58c12.05-5.97,23.29-13.33,33.42-21.87c4.84-4.08,9.6-8.12,14.3-12.11c41.67-35.35,77.67-65.88,112.47-79.52
											c41.28-16.19,76.38-6.31,107.3,30.2c22.75,27.63,20.48,50.63,14.59,65.09c-15.62,38.35-75.29,65.03-168.03,75.14
											c-37.17,4.05-72.56,14.49-105.21,31.03c-18.79,9.52-40.09,20.31-60.54,31.48l0,0c-19.42,10.61-38.17,22.9-55.73,36.55
											c-10.98,8.54-21.61,17.04-31.9,25.27C1005.48,344.14,958.21,381.95,913.69,381.95z M879.34,341.34
											c40.73,33.23,85.95,0.31,161.56-60.18c10.39-8.32,21.12-16.89,32.2-25.51c18.7-14.54,38.67-27.64,59.37-38.94
											c20.83-11.37,42.32-22.26,61.29-31.87c35.57-18.01,74.09-29.38,114.5-33.78c94.21-10.27,137.14-36.93,145.91-58.46
											c4.59-11.27,1.22-23.55-10.3-37.55c-23.31-27.52-46.27-34.26-76.66-22.35c-30.61,12-65.01,41.18-104.84,74.97
											c-4.72,4-9.5,8.06-14.36,12.16c-11.78,9.94-24.85,18.5-38.85,25.43l-106.1,52.58c-17.32,8.58-35.65,13.39-54.47,14.3
											c-94.75,4.56-169.63,40.9-178.06,86.44C868.17,311.31,871.13,325.69,879.34,341.34z M1138.94,228.59h0.05H1138.94z"/>
									</g>
								</g>
							</g>
							<g>
								<g>
									<path class="st6" d="M2152.53,1304.05c-38.36,98.24-101.8,187.4-187.64,257.42c-17.51,14.27-35.88,27.74-55.18,40.31
										c-9.37,6.14-19.04,12.06-28.88,17.84c-29.77,17.25-60.36,31.84-91.55,43.83c-26.86,10.4-54.18,18.84-81.69,25.44
										c-33.21,7.99-66.78,13.19-100.36,15.79c-12.25,0.91-24.48,1.49-36.71,1.76c-223.72,4.37-443.4-107.24-565.14-310.95
										c-179.4-300.04-78.26-686.14,225.8-862.42c58.58-33.91,120.46-57.68,183.42-71.58c7.34-1.69,14.77-3.18,22.21-4.52
										c19.88-3.7,39.83-6.45,59.8-8.24c46.17-4.14,92.45-3.23,137.93,2.46c45.47,5.64,90.27,16.09,133.42,31.11
										c13.73,4.77,27.29,9.98,40.71,15.69c20.09,8.57,39.77,18.09,58.99,28.74c95.84,52.72,179.21,130.49,238.95,230.46
										C2209.82,929.78,2220.17,1130.82,2152.53,1304.05z"/>
									<path class="st89" d="M1557.82,1707.92c-226.95,0-438.19-118.6-553.61-311.73c-86.6-144.84-111.11-314.21-69-476.93
										c42.45-164.01,147.31-301.58,295.28-387.36c57.73-33.42,119.57-57.55,183.81-71.73c7.04-1.63,14.32-3.11,22.26-4.53
										c19.82-3.69,39.98-6.46,59.91-8.26c45.82-4.11,92.32-3.28,138.22,2.47c45.48,5.64,90.46,16.13,133.7,31.18
										c13.95,4.84,27.67,10.14,40.79,15.73c20.53,8.75,40.42,18.44,59.12,28.79c98.87,54.39,181.67,134.25,239.46,230.95
										c99.96,167.17,116.73,366.92,46.01,548.05c-39.21,100.42-104.24,189.62-188.05,257.98c-17.74,14.45-36.35,28.04-55.3,40.4
										c-8.7,5.7-18.17,11.55-28.94,17.86c-29.39,17.04-60.25,31.82-91.75,43.93c-26.34,10.21-53.88,18.78-81.86,25.5
										c-32.72,7.87-66.55,13.19-100.57,15.83c-12.22,0.9-24.59,1.5-36.78,1.76C1566.31,1707.88,1562.06,1707.92,1557.82,1707.92z
										 M1553.98,447.54c-19.14,0-38.25,0.85-57.25,2.55c-19.85,1.78-39.92,4.55-59.67,8.22c-7.9,1.42-15.15,2.89-22.15,4.51
										c-63.98,14.12-125.56,38.15-183.05,71.43c-147.33,85.42-251.74,222.39-294.01,385.69c-41.93,162-17.53,330.64,68.7,474.85
										c117.08,195.9,333.2,314.88,563.95,310.28c12.14-0.26,24.46-0.85,36.63-1.75c33.87-2.63,67.56-7.92,100.14-15.76
										c27.86-6.69,55.29-15.23,81.52-25.39c31.36-12.07,62.1-26.78,91.36-43.74c10.73-6.29,20.16-12.11,28.82-17.79
										c18.87-12.3,37.4-25.83,55.07-40.22c83.45-68.06,148.2-156.89,187.24-256.86l0,0c70.42-180.34,53.72-379.23-45.81-545.67
										c-57.54-96.28-139.99-175.81-238.44-229.97c-18.62-10.31-38.42-19.96-58.87-28.68c-13.06-5.56-26.73-10.83-40.62-15.66
										c-43.06-14.99-87.85-25.43-133.14-31.04C1607.69,449.21,1580.81,447.54,1553.98,447.54z"/>
								</g>
								<g class="st9">
									<path class="st89" d="M1005.38,1395.47c121.72,203.73,341.44,315.35,565.15,310.95c12.22-0.25,24.45-0.83,36.68-1.75
										c33.59-2.59,67.14-7.82,100.36-15.78c27.5-6.62,54.85-15.04,81.68-25.44c31.21-11.99,61.79-26.57,91.58-43.83
										c9.82-5.81,19.49-11.7,28.88-17.83c19.3-12.59,37.64-26.09,55.17-40.34c85.85-70.02,149.3-159.15,187.65-257.42
										c21.08-53.96,34.6-110.67,40.08-168.35c-38.78,92.93-100.29,177.12-182.19,243.92c-17.5,14.3-35.87,27.76-55.17,40.34
										c-9.35,6.14-19.02,12.03-28.88,17.83c-29.79,17.26-60.37,31.84-91.54,43.84c-26.88,10.38-54.18,18.82-81.68,25.44
										c-33.21,7.96-66.81,13.18-100.36,15.78c-12.27,0.91-24.5,1.49-36.72,1.74c-223.71,4.41-443.39-107.21-565.15-310.95
										c-71.06-118.83-98.06-251.17-85.92-378.59C891.34,1011.29,899.48,1218.39,1005.38,1395.47z"/>
								</g>
								<g>
									<path class="st89" d="M1557.84,1717.04c-230.17,0-444.39-120.29-561.46-316.18c-87.87-146.95-112.72-318.8-70-483.89
										c43.07-166.4,149.44-305.95,299.53-392.97c58.55-33.89,121.27-58.37,186.42-72.75c7.1-1.64,14.53-3.15,22.62-4.6
										c20.04-3.73,40.49-6.55,60.71-8.36c46.47-4.16,93.63-3.32,140.17,2.5c46.11,5.72,91.72,16.35,135.57,31.61
										c14.14,4.92,28.06,10.28,41.37,15.95c20.83,8.88,41,18.71,59.97,29.21c100.26,55.16,184.26,136.16,242.87,234.25
										c101.42,169.6,118.44,372.28,46.68,556.05l0,0c-39.78,101.88-105.75,192.38-190.78,261.73
										c-17.99,14.66-36.86,28.44-56.08,40.97c-8.81,5.77-18.4,11.69-29.3,18.09c-29.84,17.3-61.15,32.29-93.09,44.58
										c-26.7,10.34-54.63,19.04-83.01,25.85c-33.18,7.97-67.5,13.37-101.99,16.05c-12.41,0.92-24.94,1.52-37.29,1.78
										C1566.44,1717,1562.13,1717.04,1557.84,1717.04z M1553.97,456.66c-18.87,0-37.71,0.84-56.43,2.51
										c-19.56,1.76-39.35,4.49-58.82,8.11c-7.81,1.4-14.91,2.84-21.77,4.42c-63.15,13.94-123.85,37.63-180.53,70.44
										c-145.2,84.18-248.1,219.16-289.75,380.08c-41.31,159.62-17.27,325.78,67.7,467.88
										c115.41,193.1,328.34,310.37,555.94,305.84c11.96-0.25,24.12-0.84,36.13-1.73c33.36-2.59,66.57-7.81,98.68-15.53
										c27.47-6.59,54.5-15.01,80.35-25.02c30.94-11.9,61.24-26.41,90.08-43.12c10.55-6.19,19.86-11.93,28.4-17.53
										c18.63-12.13,36.89-25.47,54.3-39.66c82.23-67.07,146.03-154.59,184.5-253.11c69.38-177.69,52.93-373.66-45.14-537.67
										c-56.71-94.9-137.98-173.28-235.01-226.66c-18.37-10.17-37.89-19.68-58.05-28.28c-12.87-5.48-26.34-10.67-40.04-15.43
										c-42.45-14.78-86.62-25.07-131.27-30.61C1606.94,458.31,1580.43,456.66,1553.97,456.66z M2152.53,1304.05h0.05H2152.53z"/>
								</g>
								<g>
									<path class="st89" d="M1557.85,1720.08c-231.24,0-446.46-120.85-564.07-317.66c-88.29-147.65-113.26-320.33-70.33-486.22
										c43.27-167.19,150.15-307.41,300.95-394.84c58.82-34.05,121.83-58.64,187.29-73.09c7.12-1.64,14.6-3.16,22.74-4.62
										c20.11-3.74,40.66-6.57,60.97-8.4c46.69-4.17,94.06-3.33,140.82,2.51c46.32,5.74,92.14,16.43,136.19,31.76
										c14.2,4.94,28.19,10.33,41.56,16.03c20.92,8.92,41.19,18.79,60.25,29.35c100.73,55.42,185.12,136.8,244.01,235.35
										c101.91,170.42,119,374.06,46.9,558.72l0,0c-39.97,102.36-106.26,193.3-191.69,262.98
										c-18.08,14.73-37.03,28.57-56.34,41.16c-8.84,5.8-18.48,11.75-29.43,18.17c-29.99,17.39-61.44,32.45-93.54,44.79
										c-26.82,10.39-54.88,19.13-83.39,25.97c-33.34,8.01-67.81,13.44-102.47,16.12c-12.47,0.93-25.06,1.53-37.46,1.8
										C1566.49,1720.04,1562.16,1720.08,1557.85,1720.08z M1553.97,459.7c-18.78,0-37.52,0.83-56.16,2.5
										c-19.46,1.75-39.16,4.46-58.53,8.07c-7.78,1.39-14.83,2.83-21.64,4.4c-62.87,13.88-123.28,37.46-179.69,70.11
										c-144.48,83.76-246.88,218.09-288.33,378.21c-41.11,158.83-17.18,324.17,67.36,465.56
										c114.85,192.16,326.92,308.99,553.27,304.37c11.9-0.26,24.01-0.84,35.97-1.72c33.19-2.57,66.24-7.77,98.2-15.45
										c27.34-6.56,54.24-14.94,79.97-24.91c30.8-11.85,60.95-26.28,89.65-42.92c10.5-6.16,19.76-11.88,28.25-17.44
										c18.54-12.08,36.72-25.36,54.05-39.48c81.82-66.73,145.31-153.83,183.59-251.85l0,0c69.04-176.81,52.67-371.81-44.92-535
										c-56.44-94.43-137.3-172.43-233.86-225.55c-18.28-10.12-37.71-19.59-57.78-28.14c-12.81-5.45-26.21-10.62-39.84-15.36
										c-42.25-14.71-86.21-24.96-130.65-30.46C1606.69,461.34,1580.3,459.7,1553.97,459.7z M2152.53,1304.05h0.05H2152.53z"/>
								</g>
								<g>
									<path class="st89" d="M2074.6,1445.94c-337.67,302.77-866.95,184.2-951.83-254.05
										c-57.75-298.16,193.76-583.57,487.77-619.39c213.98-26.07,434.63,40.76,567.06,357.09c0,0,36.7,148.92,8.43,254.72
										c-28.27,105.81-73.9,203.97-73.9,203.97L2074.6,1445.94z"/>
								</g>
								<g>
									<path class="st112" d="M1122.79,1191.89c84.87,438.24,614.16,556.81,951.82,254.07l7.6-11.7
										c-399.18,123.54-838.21-66.21-932.39-507.75C1116.58,1009.09,1104.98,1099.88,1122.79,1191.89z"/>
								</g>
								<g>
									<path class="st89" d="M1645.24,1692.29c-127.09,0-250.15-35.06-351.63-102.16c-131.99-87.27-218.51-219.81-250.2-383.32
										c-29.08-150.13,8.55-306.53,105.97-440.41c108.25-148.75,277.94-250.36,453.92-271.8c97.8-11.93,188.08-5.46,268.33,19.21
										l1.33,0.41l1.22,0.67c100.76,55.43,185.15,136.82,244.04,235.37c101.91,170.42,119,374.06,46.9,558.72l0,0
										c-39.97,102.36-106.26,193.3-191.69,262.98c-18.08,14.73-37.03,28.57-56.34,41.16c-8.84,5.8-18.48,11.75-29.43,18.17
										c-29.99,17.39-61.44,32.45-93.54,44.79l-2.02,0.6C1743.23,1687.13,1693.93,1692.29,1645.24,1692.29z M1696.12,515.85
										c-28.99,0-58.86,1.87-89.54,5.6c-168.66,20.55-331.4,118.07-435.32,260.87c-92.96,127.74-128.93,276.67-101.29,419.35
										c30.27,156.21,112.76,282.74,238.56,365.9c134.06,88.64,307.81,118.83,476.87,82.88c30.42-11.76,60.24-26.07,88.64-42.53
										c10.5-6.16,19.76-11.88,28.25-17.44c18.54-12.08,36.72-25.36,54.05-39.48c81.83-66.73,145.31-153.83,183.59-251.85
										l12.6,4.92l-12.6-4.92c69.04-176.81,52.67-371.81-44.92-535c-56.2-94.04-136.62-171.77-232.65-224.88
										C1811.13,523.67,1755.47,515.85,1696.12,515.85z"/>
								</g>
								<g>
									<path class="st6" d="M838.02,1199.91c8.58,124.01,90.04,223.12,181.98,221.34c91.94-1.78,159.52-103.77,150.94-227.78
										c-0.04-0.78-0.12-1.6-0.2-2.38c-9.42-122.9-90.49-220.74-181.78-218.96c-71.03,1.37-127.51,62.55-145.59,147.47
										C838.06,1144.6,836.07,1171.71,838.02,1199.91z"/>
								</g>
								<g class="st9">
									<path class="st89" d="M838.02,1199.91c8.58,124.01,90.04,223.12,181.98,221.34c91.94-1.78,159.52-103.77,150.94-227.78
										c-0.04-0.78-0.12-1.6-0.2-2.38c-9.23,12.92-24.09,25.76-45.7,21.95c-37.84-6.69-110.35-85.14-110.35-85.14
										s-74.27-4.08-171.32-8.3C838.06,1144.6,836.07,1171.71,838.02,1199.91z"/>
								</g>
								<g>
									<path class="st89" d="M1017.59,1434.78c-97.8,0-184.11-104.21-193.08-233.94c-5.23-75.63,16.13-145.62,58.59-192.02
										c29.36-32.08,65.87-49.45,105.57-50.22c0.89-0.02,1.78-0.02,2.67-0.02c97.8,0,184.11,104.21,193.09,233.94
										c5.23,75.63-16.13,145.62-58.59,192.03c-29.36,32.08-65.87,49.44-105.58,50.21
										C1019.37,1434.78,1018.48,1434.78,1017.59,1434.78z M991.4,985.63c-0.73,0-1.46,0-2.19,0.02
										c-32.12,0.62-61.91,14.95-86.15,41.44c-36.94,40.36-56.21,104.62-51.56,171.89c8.07,116.74,83.47,210.23,168.24,208.74
										c32.12-0.62,61.91-14.95,86.15-41.43c36.94-40.36,56.22-104.62,51.56-171.9C1149.44,1078.66,1075.2,985.63,991.4,985.63z"
										/>
								</g>
								<g>
									
										<ellipse transform="matrix(0.9864 -0.1643 0.1643 0.9864 -187.3103 173.0172)" class="st6" cx="952.35" cy="1218.92" rx="135.27" ry="178.94"/>
									<path class="st89" d="M965.05,1398.35c-11.55,0-23.29-1.93-35.05-5.82c-41.85-13.83-77.67-50.62-98.28-100.95
										c-36.97-90.29-13.06-196.39,53.29-236.51c27.57-16.66,58.57-20.04,89.66-9.77c41.85,13.83,77.67,50.62,98.28,100.95
										c36.97,90.29,13.06,196.39-53.3,236.5C1002.52,1393.13,984.05,1398.35,965.05,1398.35z M939.65,1042.33
										c-18.5,0-36.47,5.09-53.16,15.18c-65.21,39.43-88.61,143.96-52.14,233.01c20.29,49.56,55.48,85.77,96.55,99.34
										c30.27,10,60.47,6.71,87.31-9.51c65.22-39.42,88.61-143.95,52.14-233.01c-20.29-49.56-55.48-85.76-96.55-99.34
										C962.35,1044.21,950.9,1042.33,939.65,1042.33z"/>
								</g>
								<g class="st9">
									<path class="st89" d="M1085.14,1286.16c6.09-33.33,2.93-68.45-7.41-100.95c-20.39,74.84-85.85,109.12-151.98,76.81
										c-42.74-20.86-75.91-64.76-91.88-115.05c-1.32,4.71-2.4,9.65-3.34,14.7c-15.48,84.89,28.97,181.58,99.29,215.95
										C1000.14,1411.99,1069.66,1371,1085.14,1286.16z"/>
								</g>
								<g>
									<path class="st89" d="M963.71,1410.88c-75.88,0-143.75-86.75-151.62-194.12l0,0c-4.69-64.06,12.97-124.57,47.23-161.86
										c22.01-23.96,49.14-36.8,78.46-37.13c0.38,0,0.77-0.01,1.15-0.01c75.88,0,143.77,86.75,151.62,194.12
										c4.69,64.06-12.97,124.57-47.23,161.86c-22.01,23.96-49.14,36.8-78.46,37.13C964.48,1410.88,964.09,1410.88,963.71,1410.88
										z M938.97,1044.8c-0.3,0-0.58,0-0.88,0c-21.67,0.25-42.02,10.07-58.85,28.39c-29.3,31.89-44.32,84.82-40.17,141.59l0,0
										c6.84,93.49,62.63,169.04,124.6,169.05c0.3,0,0.59,0,0.88,0c21.67-0.25,42.02-10.07,58.85-28.39
										c29.3-31.89,44.32-84.82,40.17-141.59C1056.74,1120.37,1000.94,1044.8,938.97,1044.8z"/>
								</g>
								<g class="st39">
									<path class="st6" d="M1471.08,718.92c0,0,280.07-16.38,452.95,122.68c0.18,0.15,0.36,0.29,0.54,0.44
										c36.36,29.3,64.03,67.76,80.41,111.13c21.66,57.35,28.07,99.99,32.24,137.73c12.64,114.8-3.23,170.89-3.23,170.89
										c59.56-67.63,89.31-140.41,79.75-236.14c-0.97-9.43-2.32-19.13-4.03-29.03c-0.38-2.28-0.82-4.54-1.29-6.81
										c0.05-0.03,0.02-0.07-0.05-0.13c-4.89-19.83-12.3-45.65-23.14-74.09c-32.63-85.79-96.1-195.5-214.2-237.09
										C1650.19,600.76,1460.17,707.94,1471.08,718.92z"/>
								</g>
								<g class="st39">
									
										<ellipse transform="matrix(0.1634 -0.9866 0.9866 0.1634 77.9525 2124.0125)" class="st6" cx="1291.28" cy="1016.05" rx="98.15" ry="85.44"/>
								</g>
								<g class="st39">
									
										<ellipse transform="matrix(0.2543 -0.9671 0.9671 0.2543 -210.7346 2111.1201)" class="st6" cx="1263.65" cy="1192.22" rx="40.54" ry="35.27"/>
								</g>
							</g>
						</g>
					</g>
				</g>
				<g>
					<g>
						<path class="st118" d="M720.19,1506.99c-3.6,5.95-10.07,9.48-17.02,9.89c-603.43,34.99-718.36,1163.16-42.72,1163.16H1041
							c136.33,0,256.91-93.05,286.54-226.12c14.89-66.84,5.58-135.68-33.43-186.84c-16.92-22.19-27.32-48.66-28.34-76.55
							l-9.84-269.48c-4.77-130.72-69.71-253.06-178.06-326.34c-18.66-12.62-38.1-23.54-58.33-32.74
							c20.21-6.86,33.46-15.72,40.5-26.37c8.22-12.44,3.54-29.39-9.77-36.1c-51.71-26.07-112.23-21.71-178.69,3.13
							C983,1394.74,774.29,1417.62,720.19,1506.99z"/>
					</g>
					<g class="st8">
						<g>
							<path class="st6" d="M679.53,1527.48c1.92-3.17,4.06-6.25,6.35-9.26c-67.75,6.37-129.1,26.67-183.61,57.63
								c48.73-21.61,102.22-35.12,160.25-38.48C669.46,1536.96,675.93,1533.43,679.53,1527.48z"/>
						</g>
						<g>
							<path class="st6" d="M1294.11,2267.08c-16.92-22.19-27.32-48.66-28.34-76.55l-9.84-269.48
								c-4.77-130.72-69.71-253.06-178.06-326.34c-18.66-12.62-38.1-23.54-58.33-32.74c20.21-6.86,33.46-15.72,40.5-26.37
								c8.22-12.44,3.54-29.39-9.77-36.1c-51.71-26.07-112.23-21.71-178.69,3.13c90.42-87.55-29.97-88.98-107.48-38.66
								c70.79-27.01,142.35-13.98,66.82,59.15c66.46-24.84,126.98-29.19,178.69-3.13c13.32,6.71,18,23.66,9.77,36.1
								c-7.04,10.65-20.29,19.51-40.5,26.37c20.23,9.21,39.68,20.12,58.33,32.74c108.35,73.28,173.29,195.62,178.06,326.34
								l9.84,269.48c1.02,27.89,11.42,54.36,28.34,76.55c39.02,51.16,48.32,119.99,33.43,186.84
								c-17.53,78.71-66.89,143.41-132.5,183.14c85.53-35.25,152.17-109.38,173.16-203.64
								C1342.43,2387.07,1333.13,2318.24,1294.11,2267.08z"/>
						</g>
					</g>
					<g>
						<path class="st114" d="M902.38,2191.88c-721.05,187.38-452.26-728.51-19.55-345.23c11.06,9.79,27.73,9.45,38.54-0.61
							c324.93-302.34,517.02,436.63,67.73,332.15L902.38,2191.88z"/>
					</g>
					<g>
						<path class="st89" d="M1041,2698.29H660.46c-148.72,0-272.13-54.18-356.89-156.7c-74.08-89.6-117.11-215.85-121.16-355.5
							c-4.68-161.45,42.03-326.76,128.13-453.54c96.29-141.78,235.36-224.84,391.57-233.9c1.1-0.06,2.09-0.51,2.46-1.12
							c35.84-59.21,126.78-89.79,173.65-84.72c29.35,3.13,38.85,18.48,41.9,27.34c3.1,9,2.61,18.79-1.52,29.47
							c53.2-11.42,99.3-6.88,139.88,13.57c11.06,5.58,19.24,15.66,22.43,27.67c3.17,11.9,1.11,24.59-5.64,34.8
							c-3.98,6.03-9.15,11.45-15.54,16.32c9.66,5.47,19.14,11.35,28.37,17.6c111.48,75.4,181.04,202.8,186.08,340.8l9.84,269.48
							c0.85,23.27,9.36,46.14,24.61,66.14c40.18,52.69,53.57,126.27,36.74,201.88C1314.35,2597.18,1186.34,2698.29,1041,2698.29z
							 M866.87,1448.75c-2.85,0-6.06,0.14-9.67,0.48c-42.06,3.95-98.96,30.17-121.38,67.22l0,0c-6.61,10.91-18.41,17.89-31.57,18.66
							c-315.05,18.27-494.17,344.8-485.33,649.93c6.67,230.47,126.17,476.74,441.55,476.74H1041
							c128.37,0,241.39-89.09,268.72-211.84c14.49-65.07,3.51-127.69-30.13-171.79c-19.85-26.04-30.94-56.1-32.07-86.96
							l-9.84-269.48c-4.62-126.39-68.19-242.99-170.05-311.88c-17.74-12-36.47-22.51-55.66-31.24c-6.82-3.1-11.05-10.05-10.67-17.53
							c0.37-7.48,5.27-13.97,12.37-16.38c15.59-5.29,26.36-11.91,31.14-19.15c1.38-2.08,1.1-4.2,0.82-5.28
							c-0.3-1.14-1.17-3.23-3.58-4.44c-44-22.19-97.66-20.9-164.08,3.93c-8.1,3.02-17.21-0.04-21.83-7.35
							c-4.62-7.31-3.48-16.86,2.73-22.87c24.84-24.06,26.6-35.17,26.69-37.25C884.06,1451.13,878.52,1448.75,866.87,1448.75z
							 M720.2,1506.99h0.05H720.2z"/>
					</g>
					<g>
						<ellipse class="st89" cx="722.08" cy="2042.77" rx="90.53" ry="109.55"/>
					</g>
					<g>
						<ellipse class="st6" cx="752.89" cy="2019.97" rx="32.02" ry="43.05"/>
					</g>
					<g class="st36">
						
							<ellipse transform="matrix(0.8911 -0.4537 0.4537 0.8911 -872.0646 543.0175)" class="st6" cx="695.67" cy="2088.97" rx="19.65" ry="30.33"/>
					</g>
					<g>
						<ellipse class="st89" cx="1100.61" cy="2042.77" rx="83.85" ry="109.55"/>
					</g>
					<g>
						<ellipse class="st6" cx="1072.07" cy="2019.97" rx="29.66" ry="43.05"/>
					</g>
					<g class="st36">
						
							<ellipse transform="matrix(0.3917 -0.9201 0.9201 0.3917 -1237.6686 2305.8875)" class="st6" cx="1125.07" cy="2088.97" rx="29.92" ry="18.45"/>
					</g>
					<g>
						<path class="st114" d="M788.42,2238.43c3.23-58.64,59.99-83.64,109.4-61.39c20.57-45.75,98.14-77.6,119.82-3.42
							c31.66-5.25,77.57,8.42,76.05,53.23c-0.34,10.13,7.35,18.78,17.46,19.45c325.57,21.5,254.4,459.33-161.59,433.74H602.64
							c-305.74-53.45-194.84-427.29,164.7-421.64C778.67,2258.57,787.8,2249.74,788.42,2238.43z"/>
					</g>
					<g class="st9">
						<g>
							<path class="st89" d="M1238.39,1879.58l8.82,249.72c0.76,21.63,7.48,42.31,18.53,60.55l-9.82-268.79
								c-2.28-62.35-18.27-122.79-46.11-176.91C1226.89,1786.65,1236.73,1832.52,1238.39,1879.58z"/>
						</g>
						<g>
							<path class="st89" d="M1026.42,1546.83c4.41,2.07,8.77,4.25,13.1,6.51c9.36-5.19,16.14-11.11,20.52-17.73
								c3.16-4.78,4.4-10.23,3.99-15.51c-0.38,0.78-0.81,1.55-1.29,2.3C1056.43,1532.26,1044.54,1540.47,1026.42,1546.83z"/>
						</g>
						<g>
							<path class="st89" d="M742.75,1505.04c6.23-0.37,12.03-3.65,15.26-9.16c18.17-31.02,55.79-53.39,90.49-63.99
								c-44.32,6.26-103.09,33.46-128.3,75.1c-0.01,0.02-0.02,0.03-0.03,0.05C727.61,1506.18,735.13,1505.49,742.75,1505.04z"/>
						</g>
						<g>
							<path class="st89" d="M1306.27,2285.28c4.07,28.46,2.71,58.47-3.67,88.08c-26.57,123.31-134.69,209.54-256.93,209.54H704.45
								c-564.57,0-513.51-907.87-66.05-1057.76c-546.04,108.49-628.65,1154.9,22.06,1154.9H1041
								c136.33,0,256.91-93.05,286.54-226.12C1340.73,2394.7,1334.89,2333.95,1306.27,2285.28z"/>
						</g>
					</g>
					<g>
						<path class="st89" d="M983.5,2692.51c-11.19,0-22.62-0.35-34.3-1.06H602.64c-0.66,0-1.32-0.06-1.97-0.17
							c-148.91-26.04-193.86-120.93-186.28-201.06c11.4-120.42,139.27-246.51,353.12-243.23c0.05,0,0.1,0,0.16,0
							c5.06,0,9.06-3.92,9.35-9.18l0,0c1.63-29.55,15.4-53.65,38.77-67.86c22.24-13.53,50.27-16.02,76.73-7.2
							c17.04-27.59,50.1-46.66,79.49-44.58c14.56,1.01,39.84,8.12,53.49,43.16c18.7-1,42.67,3.24,59.93,18.38
							c13.51,11.86,20.31,28.29,19.65,47.53c-0.14,4.04,2.85,7.42,6.8,7.68c156.57,10.34,220.49,111.75,214.37,207.68
							C1318.3,2567.32,1196.07,2692.5,983.5,2692.51z M603.64,2668.62h345.91c0.23,0,0.47,0,0.7,0.02
							c219.12,13.54,345.56-107.16,353.23-227.51c5.4-84.61-52.22-174.15-193.09-183.45c-16.32-1.07-28.67-14.79-28.11-31.22
							c0.42-12.35-3.58-22.31-11.9-29.61c-13.52-11.86-35.29-14.57-50.88-11.97c-5.71,0.94-11.2-2.51-12.82-8.06
							c-4.55-15.55-14.52-34.39-36.24-35.89c-23.08-1.58-51.56,17.09-62.22,40.79c-1.24,2.76-3.53,4.92-6.36,5.99
							c-2.83,1.08-5.97,0.98-8.74-0.26c-22.36-10.08-46.84-9.33-65.47,2c-16.75,10.19-26.64,27.81-27.84,49.61
							c-0.95,17.34-15.02,30.75-32.13,30.75c-0.18,0-0.35,0-0.52,0c-117.39-1.85-193.69,37.04-236.99,69.99
							c-53.83,40.96-87.74,96.57-93.04,152.57C428.69,2581.39,492.47,2648.87,603.64,2668.62z"/>
					</g>
					<g>
						
							<ellipse transform="matrix(0.8221 -0.5693 0.5693 0.8221 -1092.2654 982.3531)" class="st89" cx="1025.83" cy="2239.02" rx="26.6" ry="16.27"/>
					</g>
					<g>
						
							<ellipse transform="matrix(0.5693 -0.8221 0.8221 0.5693 -1458.2719 1700)" class="st89" cx="893.45" cy="2241.87" rx="16.27" ry="26.6"/>
					</g>
					<g>
						<path class="st89" d="M718.8,2452.23c46.52,61.83,135.03,81.84,208.6,86.04c94.68,3.65,210.29-14.95,267.99-97.85
							c1.65-2.55,5.08-3.27,7.61-1.58c2.2,1.46,2.99,4.23,2.05,6.59c-8.96,22.33-24.45,42-42.72,57.86
							c-94.87,80.46-266.1,81.56-373.49,25.96c-10.53-5.64-20.87-11.73-30.38-19.05c-19.15-14.3-36.12-32.33-46.78-53.75
							C709.53,2451.94,715.85,2448.04,718.8,2452.23L718.8,2452.23z"/>
					</g>
					<g>
						<path class="st89" d="M980.18,2311.73c17.07,37.67,17.06,81.18,8.31,120.97c-3.2,13.3-7.68,26.45-14.6,38.38
							c-1.15,1.98-3.68,2.65-5.66,1.5c-1.62-0.94-2.37-2.82-1.95-4.55c8.21-37.63,8.37-76.25,5.26-114.42
							c-0.91-12.75-2.51-25.36-3.96-38.24C966.75,2308.01,977.02,2305.08,980.18,2311.73L980.18,2311.73z"/>
					</g>
					<g>
						<path class="st118" d="M325.73,1962.13c12.17,98.9,12.17,197.8,0,296.7c-53.83,63.79-132.08,93.62-196.62,73.02
							c-116-37.03-111.19-212.55-110.73-223.65c2.68-65.15,32.5-194.22,132.6-216.34C242.56,1871.61,320.98,1956.81,325.73,1962.13z
							"/>
					</g>
					<g class="st8">
						<path class="st6" d="M325.73,1962.13c-4.75-5.31-83.17-90.52-174.75-70.28c-48.3,10.67-80.2,46.27-100.62,87.55
							c19.82-27.66,46.69-49.48,82.68-57.43c91.58-20.24,170,64.96,174.75,70.28c11.67,94.78,12.12,189.56,1.43,284.34
							c5.71-5.59,11.24-11.51,16.52-17.76C337.9,2159.92,337.9,2061.02,325.73,1962.13z"/>
					</g>
					<g class="st9">
						<path class="st89" d="M170.19,2238.29c-116-37.03-111.19-212.55-110.73-223.65c0.76-18.39,3.68-41.88,9.73-66.61
							c-35.99,49.37-49.08,118.08-50.81,160.16c-0.46,11.09-5.27,186.62,110.73,223.65c64.54,20.6,142.79-9.22,196.62-73.02
							c2.43-19.75,4.35-39.49,5.81-59.24C281.95,2239.02,221.71,2254.73,170.19,2238.29z"/>
					</g>
					<g>
						<path class="st89" d="M170.9,2356.42c-16.24,0-32.16-2.34-47.34-7.19C-6.58,2307.69-0.2,2115.6,0.14,2107.44
							c3.1-75.32,37.52-209.24,146.9-233.41c102.69-22.73,188.68,71.89,192.3,75.93c2.48,2.78,4.06,6.25,4.51,9.94
							c12.3,99.92,12.3,201.24,0,301.16c-0.43,3.52-1.88,6.83-4.17,9.54C293.61,2325.2,230.18,2356.42,170.9,2356.42z
							 M179.73,1906.99c-8.13,0-16.41,0.83-24.81,2.69c-87.89,19.42-115.81,138.83-118.29,199.26
							c-0.29,7.02-5.88,172.33,98.04,205.5c55.34,17.68,124.5-7.75,173.61-63.34c11.03-93.2,11.05-187.62,0.05-280.83
							C293.98,1955.61,241.73,1906.99,179.73,1906.99z"/>
					</g>
					<g>
						<path class="st114" d="M334.86,2046.16c-220.62-167.72-248.01,292.13-2.68,144.42L334.86,2046.16z"/>
					</g>
					<g>
						<path class="st89" d="M244.18,2233.92c-40.18,0-63.3-21.45-73.7-34.63c-37.57-47.59-32.77-133.64,9.87-177.07
							c18.72-19.06,72.06-55.95,162.8,13.03c3.48,2.65,5.49,6.79,5.41,11.16l-2.68,144.42c-0.09,4.71-2.59,9.05-6.63,11.48
							C300.36,2225.72,269.01,2233.92,244.18,2233.92z M244.94,2022.52c-17.43,0-32.66,6.27-45.06,18.9
							c-33.33,33.95-37.25,103.74-7.91,140.91c25.49,32.29,70.31,32.33,126.66,0.32l2.4-129.68
							C292.97,2032.72,267.17,2022.52,244.94,2022.52z"/>
					</g>
				</g>
			</g>
			<g>
				<g>
					<path class="st119" d="M231.12,2448.69c27.78-3.31,55.56-10.07,83.34-20.29c20.86-7.67,44.35-2.74,60.52,12.51
						c198.58,187.29-114.84,288.46-161.6,32.01C211.25,2461.27,219.35,2450.09,231.12,2448.69z"/>
				</g>
				<g class="st9">
					<path class="st89" d="M294.4,2445.16c-0.65-3.56-0.25-7.05,0.83-10.25c-21.37,6.63-42.74,11.24-64.11,13.79
						c-11.77,1.4-19.86,12.58-17.74,24.23c29.71,162.93,167.02,181.48,212.32,125.33C372.24,2591.4,312.76,2545.86,294.4,2445.16z"
						/>
				</g>
				<g>
					<path class="st89" d="M358.76,2645.21c-5.58,0-11.25-0.37-16.98-1.13c-57.34-7.6-125.91-55.69-146.36-167.87
						c-1.92-10.55,0.63-21.55,7.01-30.19c6.33-8.57,16-14.2,26.54-15.45c26.24-3.12,52.88-9.61,79.19-19.3
						c27.11-9.96,58.25-3.54,79.36,16.36c88.21,83.2,73.28,143.59,62.77,165.7C434.95,2625.55,399.39,2645.2,358.76,2645.21z
						 M334.45,2443.12c-4.62,0-9.26,0.79-13.69,2.42c-28.98,10.67-58.41,17.83-87.49,21.29c0,0,0,0-0.01,0
						c-0.59,0.07-1.09,0.37-1.47,0.89c-0.3,0.4-0.62,1.06-0.46,1.94c16.94,92.89,70.64,132.3,115.24,138.22
						c31.71,4.22,60.12-7.95,70.72-30.23c14.75-31-5.76-77.15-54.85-123.45C354.8,2446.97,344.66,2443.12,334.45,2443.12z
						 M231.12,2448.69h0.05H231.12z"/>
				</g>
			</g>
		</g>
	</g>
</g>
</svg>
