<?xml version="1.0" encoding="utf-8"?>
<!-- Generator: Adobe Illustrator 27.6.1, SVG Export Plug-In . SVG Version: 6.00 Build 0)  -->
<svg version="1.1" id="Layer_1" xmlns="http://www.w3.org/2000/svg" xmlns:xlink="http://www.w3.org/1999/xlink" x="0px" y="0px"
	 viewBox="0 0 2111.81 3110.63" style="enable-background:new 0 0 2111.81 3110.63;" xml:space="preserve">
<style type="text/css">
	.st0{fill:#FFFFFF;}
	.st1{fill:#371A45;}
	.st2{fill:#FFD243;}
	.st3{opacity:0.6;}
	.st4{fill:#FF9D33;}
	.st5{opacity:0.25;}
	.st6{opacity:0.7;}
	.st7{fill:#111A28;}
	.st8{opacity:0.5;}
	.st9{fill:#FFC9AB;}
	.st10{fill:#000072;}
	.st11{fill:#DB895D;}
	.st12{fill:#EF54C3;}
	.st13{fill:#C2C6D2;}
	.st14{fill:#42477F;}
	.st15{opacity:0.55;}
	.st16{opacity:0.3;}
	.st17{fill:#FF67A0;}
	.st18{fill:#EFA91D;}
	.st19{fill:#FFF3E9;}
	.st20{fill:#390075;}
	.st21{fill:#FFAD40;}
	.st22{fill:#97979E;}
	.st23{fill:#571F0C;}
	.st24{fill:#61B4E2;}
	.st25{fill:#9DA1A5;}
	.st26{fill:#F8F8F8;}
	.st27{fill:#22A7F0;}
	.st28{fill:#F4F4F4;}
	.st29{fill:#8B8B8C;}
	.st30{fill:#77BEED;}
	.st31{fill:#52CAFF;}
	.st32{fill:#9DA9B9;}
	.st33{fill:#E86B34;}
	.st34{fill:#AFB5BC;}
	.st35{fill:#F3F3F3;}
	.st36{fill:#999999;}
	.st37{fill:#89857D;}
	.st38{fill:#F2F2F2;}
	.st39{fill:#F9F9F9;}
	.st40{fill:none;stroke:#371A45;stroke-width:37.2099;stroke-linecap:round;stroke-linejoin:round;stroke-miterlimit:10;}
</style>
<g>
	<g>
		<g>
			<path class="st34" d="M1555.94,3032.21c221.89-382.12,373.85-794.04,444.81-1240.61
				C2172.83,2268.68,1897.62,2901.92,1555.94,3032.21z"/>
		</g>
		<g class="st3">
			<path class="st0" d="M1555.94,3032.21c3.05-5.28,6.1-10.55,9.15-15.88c311.52-153.05,554.41-717.13,426.35-1169.08
				c3.26-18.47,6.36-37.03,9.31-55.65C2172.83,2268.68,1897.62,2901.92,1555.94,3032.21z"/>
		</g>
		<g>
			<path class="st1" d="M1555.93,3050.32c-5.21,0-10.29-2.25-13.8-6.38c-4.97-5.84-5.71-14.18-1.86-20.82
				c225.16-387.7,374.07-803,442.59-1234.37c1.3-8.15,7.95-14.4,16.17-15.18c8.21-0.78,15.93,4.11,18.74,11.88
				c81.03,224.62,70.15,502.71-29.86,762.98c-95.41,248.29-254.48,435.46-425.53,500.7
				C1560.27,3049.93,1558.09,3050.32,1555.93,3050.32z M2005.86,1869.46c-70.75,390.87-207.21,767.98-406.3,1122.82
				c142.36-76.62,272.32-242.87,354.54-456.84C2040.6,2310.35,2058.51,2072.04,2005.86,1869.46z"/>
		</g>
		<g>
			<path class="st33" d="M2049.69,2439.82l7.79,2.3c26.75,7.9,42.04,35.99,34.17,62.75v0c-7.71,26.21-34.86,41.54-61.28,34.62
				l-20.06-5.25L2049.69,2439.82z"/>
		</g>
		<g>
			<path class="st1" d="M2000.74,1791.59c68.46,351.49-63.69,817.66-287.86,1094.69c-45.24,55.42-97.39,106.58-156.95,145.93
				c66.9-58.8,122.02-127.97,169.96-202.32C1910.05,2536.54,2021.44,2138.58,2000.74,1791.59L2000.74,1791.59z"/>
		</g>
		<g class="st5">
			<path class="st1" d="M1555.94,3032.21c221.89-382.12,373.85-794.04,444.81-1240.61
				C2057.91,2207.85,1852.46,2808.82,1555.94,3032.21z"/>
		</g>
		<g>
			<path class="st34" d="M1815.45,2363.2l-26.35,76.74c-8.76,25.51,5.14,53.23,30.82,61.47l141.02,45.25
				c24.27,7.79,50.41-4.7,59.61-28.48l26.49-68.5c9.63-24.92-2.86-52.91-27.84-62.38l-141.16-53.49
				C1852.63,2324.18,1824.28,2337.49,1815.45,2363.2z"/>
		</g>
		<g class="st3">
			<path class="st0" d="M2047.04,2449.66l-26.48,68.53c-9.21,23.79-35.33,36.26-59.64,28.45l-0.72-0.26
				c4.03-4.34,7.29-9.46,9.52-15.26l26.48-68.53c9.62-24.88-2.9-52.91-27.88-62.38l-141.15-53.48c-0.52-0.21-1.09-0.41-1.6-0.52
				c12.88-14.02,33.52-19.6,52.5-12.41l141.15,53.48C2044.2,2396.74,2056.66,2424.78,2047.04,2449.66z"/>
		</g>
		<g>
			<path class="st1" d="M1975.62,2567.07c-6.7,0-13.51-1.03-20.21-3.17l-141.02-45.25c-17.09-5.48-30.93-17.33-38.97-33.38
				s-9.27-34.23-3.44-51.2l26.35-76.74c5.87-17.11,18.12-30.76,34.5-38.45c16.37-7.69,34.7-8.39,51.63-1.98l141.16,53.49
				c16.63,6.3,29.78,18.72,37.02,34.95c7.24,16.24,7.7,34.31,1.29,50.88l-26.49,68.51
				C2027.34,2550.83,2002.3,2567.07,1975.62,2567.07z M1860.96,2348.77c-4.35,0-8.68,0.96-12.74,2.87
				c-7.42,3.49-12.98,9.68-15.64,17.44l0,0l-26.35,76.74c-2.64,7.7-2.09,15.94,1.56,23.21s9.92,12.65,17.67,15.14l141.02,45.25
				c15.1,4.84,31.46-2.95,37.19-17.76l26.49-68.51c2.91-7.52,2.7-15.71-0.58-23.07c-3.29-7.36-9.25-12.99-16.79-15.85l-141.16-53.49
				C1868.16,2349.43,1864.55,2348.77,1860.96,2348.77z M1815.45,2363.2h0.05H1815.45z"/>
		</g>
		<g>
			<path class="st0" d="M907.65,1298.31L324.84,2170.1c-26.84-13.55-50.84-27.26-72.26-40.76c-38.59-24.31-68.79-48-91.96-68.95
				c-45.41-41.07-61.76-104.95-41.59-162.77c22.19-63.62,52.55-130.24,86.95-196.13c19.45-37.24,40.14-74.22,61.45-110.32
				c44.02-74.74,90.46-145.75,132.77-207.15c45.26-65.69,85.81-120.36,113.63-156.93c24.1-31.65,59.95-52.24,99.41-57.2
				l172.18-21.67L907.65,1298.31z"/>
		</g>
		<g>
			<path class="st1" d="M324.81,2188.2c-2.74,0-5.52-0.62-8.14-1.94c-65.73-33.15-122.31-70.99-168.19-112.45
				c-50.84-45.96-69.12-117.46-46.55-182.14c89.1-255.47,307.68-557.53,397.51-675.54c26.86-35.28,67.52-58.69,111.56-64.23
				l172.14-21.64c9.92-1.24,18.97,5.78,20.22,15.7c1.25,9.92-5.78,18.97-15.7,20.22l-172.14,21.64
				c-34.46,4.33-66.27,22.64-87.27,50.23c-88.79,116.64-304.74,414.97-392.14,665.53c-17.76,50.91-3.38,107.18,36.64,143.36
				c43.48,39.29,97.38,75.28,160.22,106.98c8.93,4.5,12.51,15.39,8.01,24.32C337.81,2184.56,331.43,2188.2,324.81,2188.2z"/>
		</g>
		<g>
			<path class="st0" d="M502.35,1428.03l-61.91,52.34l-37.5,336.4l-56.07,6.83l-0.88-0.67l-120.72-91.76
				c-9.98-7.55-16.6-18.15-19.29-29.69c-2.64-11.28-1.6-23.48,3.72-34.6l72-150.88c0.1-0.16,0.1-0.21,0.1-0.21l47.17-98.79
				c3.78-7.91,10.6-13.86,18.93-16.55l47.53-15.26c1.55-0.52,3.15-0.88,4.76-1.19c6.47-0.98,13.14,0,19.03,2.95L502.35,1428.03z"/>
		</g>
		<g>
			<path class="st0" d="M1423.22,3001.53c-2.95,14.59-7.4,28.91-12.72,42.26c-9.15,22.86-30.31,38.84-54.72,42
				c-182.89,23.74-326.83-20.64-396.09-49.03c-27.1-11.12-44.07-38.38-42.26-67.65l14.48-233.58c2.17-35.12-8.02-69.83-28.81-98.17
				l-158.74-216.61l-12.57-17.12c-15.57,228.66-132.15,385.33-327.56,485.78c29.79,45.83,37.24,130.29-37.03,172.29
				c-9.52,5.38-20.43,10.09-32.79,13.91c-108.62,33.62-246.97-122.84-296.11-228.87s7.34-158.63,7.34-158.63l232.75-253.44
				l-12.1-148.24c-29.12-218.27,31.55-372.14,70.14-444.24c0.05-0.05,0.05-0.05,0.05-0.1c6.93-12.93,13.14-23.22,18-30.77
				c0.52-0.83,0.72-1.24,0.72-1.24c6.1-9.36,9.83-14.17,9.83-14.17l16.4-93.1c-4.81-144.72,60.88-225.1,105.62-262.8
				c0.05,0,0.1-0.05,0.15-0.1c22.65-19.03,39.88-27.15,39.88-27.15c51.98-35.33,111.1-60.31,164.43-77.69
				c0.36-0.16,0.52-0.21,0.52-0.21l0.1-0.05c48.52-15.78,92.17-25.29,121.29-30.67c20.28-3.67,33.52-5.38,36.46-5.74
				c0.41-0.05,0.62-0.05,0.62-0.05s519.24,176.06,619.22,288.09c99.98,112.08,65.95,494.83,65.95,494.83l77.95,146.12l14.74,114.2
				l-368.99-72.41l52.71,259.49c9.67,47.48,13.03,96.05,10.09,144.46l-11.07,180.51
				C1418.36,2854.64,1437.65,2930.83,1423.22,3001.53z"/>
		</g>
		<g>
			<path class="st1" d="M1251.74,3110.63c-136,0-241.9-33.73-298.92-57.09c-34.27-14.04-55.75-48.41-53.45-85.54l14.45-233.59
				c1.91-30.8-7.09-61.47-25.33-86.36l-143.43-195.69c-26.51,195.62-132.67,344.93-316.15,444.5
				c13.68,29.58,21.57,71.36,6.89,111.93c-10.11,27.94-34.98,65.22-96.04,84.13c-126.56,39.13-271.76-139.01-317.89-238.55
				c-51.7-111.58,3.53-171.66,10.74-178.83l227.08-247.25l-11.39-139.93c-38.96-293.33,79.12-471.49,99.63-499.83l15.36-87.01
				c-6.39-217.33,137.78-296.01,154.68-304.47c139.03-93.91,322.7-115.8,330.47-116.69c2.65-0.3,5.34-0.02,7.87,0.84
				c21.38,7.25,524.91,178.88,626.91,293.19c98.55,110.44,74.89,453.69,70.93,503.06l75.43,141.4c1.03,1.93,1.7,4.03,1.98,6.21
				l14.72,114.22c0.74,5.77-1.33,11.55-5.58,15.53c-4.24,3.98-10.14,5.69-15.86,4.55l-342.32-67.19l47.3,232.86
				c9.96,49.04,13.46,99.23,10.4,149.18l-9.94,162.32c53.33,5.18,80.8,29.59,94.69,50.33c26.58,39.66,27.44,100.84,2.31,163.66
				c-11.52,28.8-38.04,49.2-69.22,53.25C1320.97,3108.56,1285.43,3110.63,1251.74,3110.63z M731.81,2385.53
				c5.67,0,11.13,2.67,14.6,7.4l171.28,233.7c23.23,31.7,34.69,70.77,32.27,110l-14.45,233.59c-1.34,21.63,11.14,41.64,31.04,49.79
				c67.83,27.79,208.28,70.97,386.86,47.81c18.18-2.35,33.6-14.15,40.26-30.79c15.97-39.93,24.68-95.06,1.23-130.06
				c-15.43-23.02-43.68-34.89-83.97-35.27c-4.96-0.04-9.69-2.13-13.07-5.76c-3.38-3.63-5.13-8.49-4.82-13.45l11.05-180.54
				c2.86-46.79-0.42-93.82-9.75-139.76l-52.7-259.45c-1.2-5.93,0.63-12.07,4.9-16.36s10.39-6.18,16.33-5l344.3,67.57l-11.09-86.02
				l-76.38-143.19c-1.66-3.1-2.37-6.62-2.06-10.12c0.33-3.75,32.22-376.22-61.42-481.16c-91.22-102.23-559.53-265.14-607.58-281.66
				c-27.3,3.71-190.52,28.78-311.39,110.88c-0.78,0.53-1.61,1-2.46,1.4c-5.75,2.75-141.99,70.36-135.25,273.08c0,0,0,0,0,0
				l3.23,96.93c0.01,0.21,0.01,0.43,0.01,0.64c-0.01,9.71-7.72,17.73-17.5,18.05c-4.15,0.16-8.06-1.14-11.19-3.41
				c-24.47,36.49-125.05,205.45-89.83,469.6c0.04,0.31,0.07,0.62,0.1,0.92l12.07,148.27c0.41,5.03-1.3,10-4.71,13.72L58.96,2700.36
				c-0.32,0.35-0.65,0.68-0.99,1c-1.75,1.71-45.73,46.06-3.24,137.76c50.25,108.44,182.08,247.77,274.33,219.19
				c37.6-11.64,62.06-32.45,72.7-61.85c12.47-34.46,2.61-73.65-12.7-97.19c-2.79-4.29-3.63-9.57-2.32-14.52
				c1.32-4.95,4.67-9.11,9.22-11.45c199.2-102.37,303.15-256.4,317.79-470.89c0.52-7.59,5.72-14.04,13.02-16.16
				C728.44,2385.77,730.13,2385.53,731.81,2385.53z M527.08,1412.72h0.05H527.08z"/>
		</g>
		<g>
			<ellipse class="st0" cx="1418.86" cy="973.74" rx="657.74" ry="644.58"/>
		</g>
		<g class="st5">
			<path class="st1" d="M1872.69,1440.34c-118.03,110.27-277.9,177.98-453.81,177.98c-363.3,0-657.75-288.61-657.75-644.57
				c0-247.23,142.03-461.93,350.47-570.09C985.96,521.08,907.65,686.75,907.65,870.31c0,355.95,294.51,644.57,657.75,644.57
				C1676.4,1514.88,1780.98,1487.93,1872.69,1440.34z"/>
		</g>
		<g>
			<path class="st1" d="M1345.6,1629.88c-1.23,0-2.49-0.15-3.74-0.46c-157.06-38.85-281.47-121.87-369.78-246.77
				c-68.47-96.83-108.31-211.2-115.21-330.73c-6.86-118.74,19.02-237.27,74.83-342.8c55.73-105.38,138.97-187.22,240.72-236.68
				c93.06-45.24,199.13-63.02,306.74-51.4c8.52,0.92,14.68,8.57,13.76,17.09c-0.92,8.52-8.57,14.67-17.09,13.76
				c-220.96-23.85-414.09,77.75-516.69,271.73c-109.54,207.12-94.87,452.78,38.29,641.11c83.88,118.64,202.28,197.55,351.89,234.56
				c8.32,2.06,13.4,10.47,11.34,18.79C1358.9,1625.15,1352.56,1629.88,1345.6,1629.88z"/>
		</g>
		<g>
			<path class="st1" d="M1493.54,1619.48c-66.39,0-132.87-13.32-196.95-39.81c-101.64-42.02-194.07-116.95-260.27-210.99
				c-113.69-161.49-173.52-417.93-0.64-653.49c131.18-197.46,421.86-275.28,676.33-181c257.15,95.28,388.29,331.53,350.79,631.98
				c-1.06,8.51-8.82,14.54-17.32,13.48c-8.5-1.06-14.54-8.82-13.48-17.32c35.6-285.17-88.06-509.11-330.77-599.03
				c-241.48-89.46-516.56-16.65-639.89,169.36c-0.14,0.21-0.28,0.41-0.43,0.61c-163.41,222.38-106.73,464.82,0.79,617.55
				c136.69,194.16,358.94,279.7,566.21,217.91c8.21-2.48,16.86,2.22,19.3,10.43s-2.22,16.86-10.44,19.3
				C1589.69,1612.5,1541.64,1619.48,1493.54,1619.48z"/>
		</g>
		<g>
			<path class="st1" d="M2047.38,1164.25c86.97-696.75-743.59-825.39-998.99-440.17c-313.13,426.15,129.1,995.1,583.94,859.51
				C1831.66,1501.4,1983.53,1374.38,2047.38,1164.25z"/>
		</g>
		<g class="st6">
			<path class="st7" d="M2012.29,1254.5c-76.08,157.5-210.92,259.39-379.95,329.11c-454.85,135.56-897.07-433.38-583.95-859.52
				c7.29-10.97,15-21.52,23.17-31.65c-26.33,63.41-40.76,132.77-40.76,205.44c0,302.11,249.92,547.07,558.24,547.07
				C1758.28,1444.95,1909.98,1371.09,2012.29,1254.5z"/>
		</g>
		<g>
			<path class="st1" d="M1418.86,1636.42c-372.66,0-675.84-297.28-675.84-662.69c0-365.41,303.18-662.69,675.84-662.69
				s675.84,297.28,675.84,662.69C2094.7,1339.14,1791.52,1636.42,1418.86,1636.42z M1418.86,347.26
				c-352.7,0-639.63,281.04-639.63,626.48c0,345.44,286.94,626.49,639.63,626.49s639.63-281.04,639.63-626.49
				C2058.49,628.29,1771.55,347.26,1418.86,347.26z"/>
		</g>
		<g>
			
				<ellipse transform="matrix(0.4344 -0.9007 0.9007 0.4344 -163.0399 1292.6951)" class="st0" cx="947.85" cy="776.18" rx="232.04" ry="167.66"/>
		</g>
		<g class="st5">
			<path class="st1" d="M1129.38,725.49c-0.67,39.57-10.6,82.24-30.52,123.51c-55.7,115.44-168.41,176.43-251.84,136.18
				c-83.38-40.24-105.88-166.44-50.22-281.84c2.79-5.74,5.69-11.38,8.74-16.81c-1.24,71.12,27.21,132.41,80.74,158.27
				C965.58,883.03,1071.3,829.86,1129.38,725.49z"/>
		</g>
		<g>
			<path class="st1" d="M902.48,1015.76c-22.16,0-43.53-4.74-63.3-14.28c-45.71-22.05-76.69-66.74-87.22-125.85
				c-10.14-56.95,0-120.93,28.57-180.16c59.92-124.23,183.74-189.1,275.99-144.6c45.71,22.05,76.69,66.75,87.22,125.85
				c10.14,56.95,0,120.93-28.57,180.16l0,0c-28.57,59.23-72.32,107-123.21,134.51C961.99,1007.59,931.55,1015.76,902.48,1015.76z
				 M993,572.8c-65.69,0-138.97,53.61-179.87,138.39c-25.29,52.42-34.36,108.57-25.53,158.08c8.44,47.36,32.34,82.72,67.3,99.59
				c34.97,16.87,77.53,13.56,119.84-9.33c44.24-23.92,82.53-65.96,107.81-118.39l0,0c25.29-52.42,34.36-108.56,25.54-158.08
				c-8.44-47.36-32.34-82.73-67.3-99.59C1025.78,576.24,1009.63,572.8,993,572.8z"/>
		</g>
		<g>
			<path class="st1" d="M856.98,969.29c-15.24,0-30.02-3.18-43.84-9.84c-71.34-34.41-86-146.85-33.37-255.97
				c52.64-109.12,149.76-167.63,221.09-133.23c71.34,34.41,86,146.85,33.36,255.97l0,0C991.79,914.2,920.43,969.29,856.98,969.29z
				 M957.9,591.71c-51.11,0-113.99,50.23-150.18,125.25c-43.57,90.33-34.92,188.58,18.89,214.53
				c53.81,25.96,136.08-28.44,179.66-118.76l0,0c43.57-90.33,34.92-188.58-18.89-214.53C978.26,593.8,968.33,591.71,957.9,591.71z
				 M1020.25,819.47h0.05H1020.25z"/>
		</g>
		<g class="st8">
			<path class="st0" d="M1246.57,1243.21c15.02,30.44,42.96,75.05,90.1,112.1c20.3,15.95,19.46,47.09-2.1,61.28
				c-11.86,7.8-25.78,11.98-41.94,12.24c-21.72,0.35-42.67-7.64-60.15-20.54c-82.09-60.6-97.09-134.17-43.07-177.82
				C1208.04,1215.42,1235.98,1221.74,1246.57,1243.21z"/>
		</g>
		<g class="st8">
			<ellipse class="st0" cx="1127.74" cy="1106.93" rx="60.3" ry="72.67"/>
		</g>
		<g class="st8">
			<path class="st0" d="M1362.64,726.11c312.82-24,474.2,138.76,525.38,437.42c3.18,18.58,29.85,18.67,33.42,0.16
				c73.14-378.46-199.63-683.52-568.65-469.21C1337.18,703.55,1344.63,727.49,1362.64,726.11z"/>
		</g>
		<g>
			<path class="st33" d="M242.43,1877.5l1629.25,502.45c20.37,6.28,31.14,28.52,23.45,48.4l-4.67,12.05
				c-6.87,17.74-26.14,27.31-44.43,22.06L210.8,1992.76c-13.97-4.01-22.23-18.41-18.63-32.5l16.29-63.73
				C212.26,1881.64,227.75,1872.97,242.43,1877.5z"/>
		</g>
		<g>
			<path class="st2" d="M1754.66,730.5c-169.91-23.74-372.51-108.82-409.07-212.99c-104.94-47.17-176.79-100.03-211.65-128.68
				c-20.59-16.91-29.17-44.79-20.69-70.03c4.14-12.31,11.53-24.05,24.57-31.45c30.67-80.69,83.32-144.1,147.77-188.99
				c268.7-187.44,742.68-53.84,687.55,484.64C2056.82,717.88,1921.46,753.73,1754.66,730.5z"/>
		</g>
		<g>
			<path class="st4" d="M1754.66,730.5c-169.91-23.74-372.51-108.82-409.07-212.99c-104.94-47.17-176.79-100.03-211.65-128.68
				c-20.59-16.91-29.17-44.79-20.69-70.03c4.14-12.31,11.53-24.05,24.57-31.45c30.67-80.69,83.32-144.1,147.77-188.99l3.1,0.21
				c0,0-144.98,211.8,110.48,334.54l59.07,34.03c0,0,20.9,81.98,84.31,119.58c63.36,37.65,128.32,25.91,128.32,25.91
				S1677.59,667.04,1754.66,730.5z"/>
		</g>
		<g class="st3">
			<path class="st0" d="M1961.29,714.16c4.09-22.19-3-50.17-24.36-84.62c60.36-589.17-512.83-693.65-757.37-423.3
				c217.65-326.68,857.14-243.92,793.58,376.75C2013.89,648.68,2002.72,690.88,1961.29,714.16z"/>
		</g>
		<g>
			<path class="st1" d="M1843.25,755.18c-26.24,0-51.3-1.98-71.77-4.31c-181.96-20.76-393.17-108.18-440.1-219.94
				c-103.98-47.61-175.31-100.48-208.94-128.11c-26.47-21.75-37.05-57.83-26.32-89.8c5.46-16.27,14.52-28.94,26.99-37.75
				c40.04-100.98,117.29-182.49,218.09-229.94c97.17-45.73,208.08-57.33,312.27-32.64c185.96,44.06,371.82,215.93,338.3,566.11
				c28.4,48.06,32.7,88.35,12.77,119.82C1975.92,743.78,1906.24,755.18,1843.25,755.18z M1545.87,36.56
				c-155.7,0-323.83,80.2-391.12,257.2c-1.5,3.94-4.32,7.23-7.98,9.31c-7.6,4.32-12.94,11.34-16.34,21.47
				c-5.98,17.81,0.04,38.03,14.98,50.31c32.96,27.08,103.75,79.47,207.6,126.14c4.53,2.03,8.02,5.83,9.66,10.52
				c34.17,97.39,241.09,183.79,412.91,203.39c101.12,11.53,177.13-2.13,198.36-35.66c12.6-19.9,7.16-49.06-16.17-86.68
				c-2.11-3.4-3.03-7.4-2.62-11.38c33.88-330.98-137.94-492.48-310.03-533.25C1613.43,40.41,1579.94,36.56,1545.87,36.56z"/>
		</g>
		<g>
			<path class="st1" d="M1862.17,555.69c-9.01,0-16.81-6.71-17.94-15.88c-1.23-9.92,5.82-18.96,15.74-20.19
				c48.25-5.98,83.28-20.65,104.11-43.6c6.72-7.4,18.17-7.96,25.57-1.24c7.4,6.72,7.96,18.17,1.24,25.57
				c-26.82,29.55-69.37,48.12-126.47,55.19C1863.66,555.64,1862.91,555.69,1862.17,555.69z"/>
		</g>
		<g>
			<path class="st1" d="M1660.59,542.86c-1.15,0-2.31-0.11-3.48-0.34c-199.24-38.82-422.83-140.56-531.64-241.93
				c-7.32-6.81-7.72-18.27-0.91-25.58c6.81-7.32,18.27-7.73,25.58-0.91c104.41,97.27,320.53,195.21,513.88,232.88
				c9.81,1.91,16.22,11.42,14.31,21.23C1676.66,536.86,1669.08,542.86,1660.59,542.86z"/>
		</g>
		<g>
			<path class="st1" d="M1804,641.01c-21.31,0-40.52-0.89-55.09-1.86c-134.06-8.89-283.81-47.23-410.84-105.19
				c-9.1-4.15-13.11-14.89-8.96-23.98c4.15-9.1,14.88-13.11,23.98-8.96c123.21,56.21,268.35,93.39,398.21,102
				c126.1,8.36,195.31-12.78,206.24-35.97c4.27-9.04,15.05-12.91,24.09-8.65c9.04,4.27,12.92,15.05,8.65,24.09
				C1967.29,631.3,1874.3,641.01,1804,641.01z"/>
		</g>
		<g>
			<path class="st1" d="M1641.98,626.17c-1.6,0-3.23-0.21-4.85-0.66c-9.63-2.67-15.28-12.65-12.6-22.29
				c63.2-227.73,10.63-397.04-59.64-479.56c-42.75-50.21-95.54-74.61-148.71-68.69c-9.95,1.09-18.89-6.06-19.99-15.99
				c-1.1-9.94,6.06-18.89,15.99-19.99c65.44-7.27,129.48,21.56,180.27,81.21c76.29,89.59,133.94,271.32,66.96,512.71
				C1657.19,620.92,1649.91,626.17,1641.98,626.17z"/>
		</g>
		<g>
			<path class="st1" d="M1833.81,640.41c-2.69,0-5.43-0.61-8.01-1.88c-8.96-4.43-12.64-15.29-8.21-24.25
				c40.86-82.64,47.17-200.32,16.87-314.78c-31.16-117.71-93.79-207.87-171.83-247.34c-8.92-4.51-12.5-15.41-7.98-24.33
				c4.51-8.92,15.4-12.49,24.33-7.98c87.25,44.14,156.68,142.69,190.48,270.39c32.48,122.69,25.22,249.82-19.41,340.09
				C1846.89,636.71,1840.48,640.41,1833.81,640.41z"/>
		</g>
		<g class="st5">
			<path class="st1" d="M1895.14,2428.35l-4.66,12.05c-6.88,17.74-26.17,27.31-44.43,22.09L210.79,1992.74
				c-13.96-3.98-22.24-18.41-18.62-32.48l6.41-25.14c1.66,9.93,8.84,18.47,19.09,21.41l1635.26,469.74
				c17.59,5.02,36.1-3.62,43.55-20.12C1898.29,2413.24,1897.98,2420.95,1895.14,2428.35z"/>
		</g>
		<g class="st3">
			<path class="st0" d="M1895.14,2428.35l-4.66,12.05c-0.05,0.1-0.05,0.16-0.1,0.26c-1.45-14.17-11.12-26.95-25.71-31.4
				L235.41,1906.83c-14.69-4.55-30.15,4.14-33.93,19.03l-10.09,39.41c0.1-1.66,0.36-3.36,0.78-5.02l16.29-63.72
				c3.78-14.9,19.29-23.59,33.98-19.03l1629.21,502.43C1892.03,2386.24,1902.84,2408.48,1895.14,2428.35z"/>
		</g>
		<g>
			<path class="st1" d="M1856.39,2482.04c-5.08,0-10.24-0.7-15.36-2.18L205.8,2010.15c-23.54-6.76-37.23-30.64-31.17-54.38
				l16.29-63.73c3.03-11.88,10.91-22.12,21.6-28.11c10.69-5.99,23.54-7.35,35.25-3.74l0,0c0,0,0,0,0,0l1629.24,502.45
				c14.49,4.47,26.59,14.86,33.21,28.51s7.26,29.58,1.79,43.72l-4.67,12.06C1898.94,2468.62,1878.51,2482.04,1856.39,2482.04z
				 M234.49,1894.4c-1.91,0-3.42,0.64-4.28,1.13c-1.23,0.69-3.41,2.31-4.22,5.49l-16.29,63.73c-1.18,4.63,1.49,9.29,6.08,10.62
				l1635.23,469.71c9.35,2.68,19.05-2.13,22.55-11.2l4.67-12.06c1.89-4.88,1.67-10.16-0.61-14.87c-2.28-4.71-6.29-8.15-11.29-9.69
				L237.1,1894.8c0,0,0,0,0,0C236.17,1894.51,235.3,1894.4,234.49,1894.4z"/>
		</g>
		<g>
			<path class="st0" d="M656.05,2005.05c-53.74-3.13-76.82,58.94-46.46,102.25l33.46,9.61c-95.72,105.69-387.09,5.7-287.84-204.64
				l17.13-203.44c0,0,128.44-100,326.71,24.14l-40.52,160.34c0,0,68.09,41.21,55.59,129.66L656.05,2005.05z"/>
		</g>
		<g>
			<path class="st1" d="M532.93,2177.35c-47.85,0-97.6-14.89-135.67-40.29c-79.2-52.84-101.43-138.45-59.82-229.5l16.86-200.24
				c0.42-5.03,2.93-9.66,6.92-12.76c5.66-4.41,140.81-106.3,347.44,23.08c6.66,4.17,9.87,12.16,7.94,19.78l-37.53,148.54
				c21.17,17.35,63.85,62.64,52.99,139.55c-0.74,5.25-3.75,9.91-8.22,12.75s-9.97,3.58-15.04,2.02l-55.82-17.21
				c-19.51-0.41-28.97,11.4-32.98,18.59c-8.2,14.7-7.57,34.2,1.24,50.17l26.82,7.71c6.01,1.72,10.7,6.43,12.41,12.44
				s0.21,12.48-3.99,17.11C626.04,2162.67,580.42,2177.34,532.93,2177.35z M389.65,1718.99l-16.4,194.81
				c-0.18,2.15-0.75,4.25-1.67,6.21c-50.66,107.36,15.13,166.5,45.77,186.94c58.33,38.93,137.16,44.63,186.74,17.61
				c-3.77-1.2-7.05-3.61-9.33-6.86c-19.84-28.3-22.35-65.08-6.39-93.69c13.88-24.88,39.56-38.68,68.73-37.03
				c1.45,0.08,2.89,0.34,4.28,0.77l36.13,11.14c-1.38-60.21-46.31-88.83-48.44-90.15c-6.7-4.16-10.03-12.22-8.1-19.87l37.24-147.39
				C522.71,1649.72,415.77,1702.88,389.65,1718.99z"/>
		</g>
		<g>
			<path class="st1" d="M343.72,1898.29l63.96-29.11l-40.98,57.09c-6.03,8.41-17.74,10.33-26.15,4.29
				C328.88,1922.65,330.89,1903.75,343.72,1898.29L343.72,1898.29z"/>
		</g>
		<g>
			<path class="st1" d="M664.18,1910.51l-63.4,1.77l52.11-36.16c8.57-5.95,20.34-3.82,26.29,4.75
				C687.9,1892.66,678.68,1910.53,664.18,1910.51L664.18,1910.51z"/>
		</g>
		<g>
			<path class="st35" d="M1618.73,2397.16c-20.33,150.2-424.43-18.52-215.37-137.48c15.98-10.5,35.95-14.84,56.58-13.86
				c50.53,2.33,104.79,36.51,113.22,89.74l6.88,45.15l0.88,5.59L1618.73,2397.16z"/>
		</g>
		<g>
			<path class="st1" d="M1533.01,2474.52c-79.11,0-183.68-49.79-204.06-115.66c-7.61-24.61-9.27-72.19,64.95-114.63
				c32.3-20.9,78.52-22.29,120.81-3.6c41.55,18.36,70.08,52.79,76.32,92.08l6.04,39.42l26.67,7.66
				c8.64,2.48,14.15,10.92,12.94,19.83c-5.84,43.02-38.42,70.12-89.4,74.34C1542.65,2474.33,1537.88,2474.52,1533.01,2474.52z
				 M1454.49,2263.77c-15.58,0-30.01,3.69-41.21,11.04c-0.32,0.21-0.64,0.41-0.98,0.6c-40.2,22.88-56.6,47.35-48.75,72.74
				c14.75,47.69,111.08,95.52,180.76,89.71c26.79-2.22,44.28-11.69,52.2-28.24l-20.56-5.91c-6.79-1.95-11.83-7.67-12.9-14.65
				l-7.78-50.79c-4.29-27-24.93-51.17-55.19-64.54C1485.04,2267.09,1469.25,2263.77,1454.49,2263.77z M1403.34,2259.68h0.05H1403.34
				z"/>
		</g>
		<g>
			<path class="st35" d="M1642.32,2306.64c-5.9,0.21-11.84,0.72-17.64,1.81c-69.72,13.34-82.86-29.02-82.86-29.02
				c-3.1-28.76,11.28-49.81,31.81-62.22c26.17-15.83,62.33-17.59,84.88-3.21c12.93,6.93,23.33,23.79,26.43,41.27
				C1689.23,2279.7,1679.3,2305.3,1642.32,2306.64z"/>
		</g>
		<g>
			<path class="st1" d="M1598.87,2329.21c-59.78,0-73.72-42.33-74.36-44.39c-0.35-1.12-0.59-2.28-0.72-3.45
				c-3.47-32.52,10.94-61.34,39.55-79.08c32.23-19.98,75.97-21.59,104.32-3.93c25.85,14.26,41.68,51.79,34.61,82.4
				c-6.18,26.8-27.8,42.82-59.3,43.96c-5.9,0.21-10.63,0.69-14.88,1.51c0,0,0,0-0.01,0
				C1617.31,2328.3,1607.6,2329.21,1598.87,2329.21z M1624.69,2308.46h0.05H1624.69z M1559.6,2275.23
				c2.65,5.32,15.56,24.25,61.69,15.45c6.11-1.17,12.58-1.85,20.37-2.13c19.58-0.71,23.84-9.43,25.33-15.93
				c3.65-15.82-6.47-37.03-17.01-42.66c-0.41-0.22-0.82-0.45-1.21-0.7c-16.65-10.62-45.8-8.94-66.36,3.8
				C1571.09,2240.08,1558.15,2253.04,1559.6,2275.23z"/>
		</g>
		<g>
			<path class="st1" d="M293.5,2424.72l31.43,80.64l-61.67-60.73C243.46,2422.25,280.76,2397.69,293.5,2424.72L293.5,2424.72z"/>
		</g>
		<g>
			<path class="st1" d="M527.63,2802.61c-69.48,0-134.77-27.92-190.54-81.88c-59.05-57.13-102.35-139.8-121.92-232.79
				c-2.06-9.79,4.2-19.38,13.99-21.45c9.75-2.06,19.38,4.2,21.44,13.98c32.92,156.42,148.7,304.15,306.3,284.04
				c9.91-1.32,18.98,5.74,20.25,15.65s-5.74,18.98-15.66,20.25C550.12,2801.89,538.81,2802.61,527.63,2802.61z"/>
		</g>
		<g>
			<path class="st1" d="M764.79,2422.69c-19.81,0-32.1-0.83-34.32-1c-9.97-0.74-17.45-9.42-16.71-19.39
				c0.74-9.97,9.41-17.47,19.38-16.71l0,0c2.57,0.18,259.29,17.13,441.79-126.88c7.84-6.2,19.23-4.85,25.42,2.99
				c6.19,7.85,4.85,19.23-3,25.42C1042.43,2409.39,843.83,2422.69,764.79,2422.69z"/>
		</g>
		<g>
			<path class="st1" d="M714.02,2411.28l1.64-89.54l33.94,82.87c3.87,9.45-0.65,20.24-10.1,24.11
				C727.56,2433.94,713.53,2424.21,714.02,2411.28L714.02,2411.28z"/>
		</g>
		<g>
			<path class="st1" d="M1126.5,2749.98c-118.57,0-203.71-46.46-209.01-49.43c-8.73-4.88-11.85-15.91-6.97-24.63
				c4.88-8.72,15.89-11.85,24.61-6.98l0,0c1.81,1,182.7,99.07,378.09-0.32c8.92-4.53,19.81-0.99,24.34,7.92s0.98,19.81-7.93,24.34
				C1257.3,2737.69,1187.48,2749.98,1126.5,2749.98z"/>
		</g>
		<g>
			<path class="st1" d="M1313.45,2871.57c-28.54-1.46-58.82-1.05-85.53,11.36c15.2-17.41,37.22-28.94,58.3-38.45
				c7.51-3.26,14.81-6.31,23.16-9.01c9.74-3.19,20.22,2.11,23.41,11.85C1337.15,2859.67,1326.37,2873.02,1313.45,2871.57
				L1313.45,2871.57z"/>
		</g>
		<g>
			<path class="st1" d="M740.43,1642.89l-24.93,97.64c-2.51,9.85-12.53,15.79-22.38,13.28c-12.3-2.88-17.91-18.24-10.52-28.39
				C682.6,1725.42,740.43,1642.89,740.43,1642.89L740.43,1642.89z"/>
		</g>
		<g>
			<path class="st1" d="M691.48,1718.48c9.83-17.21,25.7-27.78,41.88-37.96c44.97-25.4,95.36-36.6,145.81-44.03
				c0,0,28.5-3.51,28.5-3.51c-36.62,8.36-74.38,18.77-108.71,33.82c-19.47,8.35-37.65,18.5-54.46,30.58
				c-10.8,8.51-21.8,17.87-28.6,29.86C709.96,1744.02,685.19,1735.93,691.48,1718.48L691.48,1718.48z"/>
		</g>
		<g>
			<path class="st1" d="M779.49,1928.07c-8.07,0-16.25-1.9-23.89-5.9l-95.99-50.36c-8.85-4.64-12.27-15.59-7.62-24.44
				s15.58-12.28,24.44-7.62l95.98,50.35c7.21,3.77,16.1,1.24,20.21-5.78l35.8-60.99c2.15-3.66,2.68-7.92,1.48-12
				c-1.2-4.08-3.94-7.38-7.73-9.31l-122.71-62.29c-8.91-4.53-12.47-15.42-7.95-24.34c4.53-8.91,15.43-12.47,24.34-7.95l122.71,62.3
				c12.6,6.4,22.1,17.85,26.08,31.41s2.15,28.32-5,40.5l-35.8,60.99C814.3,1918.93,797.17,1928.07,779.49,1928.07z"/>
		</g>
		<g>
			<path class="st1" d="M1305.58,2223.48c-2.84,0-5.73-0.67-8.42-2.09c-8.85-4.65-12.24-15.61-7.58-24.45l87.79-166.72
				c10.21-19.39,12.15-41.56,5.46-62.43c-6.68-20.86-21.15-37.78-40.72-47.63l-411.08-206.82c-13.93-7.02-30.85-3.06-40.23,9.4
				l-53.07,70.43c-6.01,7.98-17.36,9.59-25.35,3.56c-7.99-6.02-9.58-17.37-3.56-25.35l53.07-70.43
				c19.92-26.44,55.84-34.84,85.42-19.96l411.08,206.82c28.33,14.25,49.25,38.73,58.93,68.93c9.68,30.2,6.87,62.29-7.91,90.34
				l-87.79,166.72C1318.37,2219.96,1312.09,2223.48,1305.58,2223.48z"/>
		</g>
		<g>
			<path class="st1" d="M704.61,1966.69c-2.85,0-5.73-0.67-8.43-2.09c-8.85-4.66-12.24-15.61-7.58-24.45l30.39-57.66
				c4.66-8.85,15.62-12.23,24.46-7.58c8.85,4.66,12.24,15.61,7.58,24.45l-30.39,57.66C717.4,1963.18,711.11,1966.69,704.61,1966.69z
				"/>
		</g>
		<g>
			<path class="st1" d="M792.79,2065.33c-2.99,0-6.03-0.74-8.83-2.31c-8.73-4.88-11.84-15.92-6.95-24.64L929.52,1766
				c23.01-41.11,74-56.71,116.09-35.55c8.93,4.49,12.53,15.38,8.04,24.31c-4.49,8.93-15.37,12.54-24.31,8.04
				c-24.73-12.45-54.7-3.26-68.23,20.89L808.6,2056.07C805.28,2062,799.13,2065.33,792.79,2065.33z"/>
		</g>
		<g>
			<path class="st1" d="M1158.51,2172.37c-1.78,0-3.58-0.37-5.31-1.15c-6.51-2.93-9.41-10.59-6.48-17.1l37.41-83.01l-62.8-97.98
				c-2.42-3.78-2.71-8.54-0.77-12.58l66.59-138.36c3.1-6.44,10.82-9.14,17.26-6.04c6.44,3.1,9.14,10.82,6.04,17.26l-63.45,131.86
				l62.69,97.8c2.36,3.68,2.7,8.31,0.9,12.29l-40.29,89.4C1168.15,2169.53,1163.44,2172.37,1158.51,2172.37z"/>
		</g>
		<g>
			<ellipse class="st27" cx="1015.42" cy="1906.67" rx="70.69" ry="78.88"/>
		</g>
		<g>
			<path class="st1" d="M1015.42,1998.48c-46.11,0-83.62-41.18-83.62-91.81s37.51-91.81,83.62-91.81
				c46.11,0,83.62,41.18,83.62,91.81S1061.53,1998.48,1015.42,1998.48z M1015.42,1840.72c-31.85,0-57.76,29.58-57.76,65.95
				s25.91,65.95,57.76,65.95c31.85,0,57.76-29.58,57.76-65.95S1047.27,1840.72,1015.42,1840.72z"/>
		</g>
		<g>
			<path class="st1" d="M1001.22,1996.88c-3.8,0-7.57-1.67-10.13-4.88c-13.29-16.7-20.6-38.15-20.6-60.4
				c0-50.62,37.52-91.81,83.64-91.81c5.63,0,11.35,0.64,16.97,1.92c6.97,1.58,11.34,8.5,9.76,15.47c-1.58,6.96-8.53,11.3-15.47,9.76
				c-3.76-0.85-7.55-1.28-11.26-1.28c-31.86,0-57.78,29.58-57.78,65.95c0,16.42,5.32,32.15,14.98,44.29
				c4.45,5.59,3.52,13.73-2.07,18.17C1006.89,1995.96,1004.05,1996.88,1001.22,1996.88z"/>
		</g>
		<g>
			<path class="st1" d="M1376.91,1944.44c21.51-67.45,40.38-135.93,55.31-205.27c-2.18,53.41-6.94,106.93-13.14,160.11
				c-2.1,17.81-4.33,35.46-6.92,53.44L1376.91,1944.44L1376.91,1944.44z"/>
		</g>
		<g>
			<path class="st1" d="M1355.22,2223.78l-32.39-16.18c68.34-136.73,206.22-144.19,212.05-144.44l1.6,36.17
				C1531.51,2099.56,1413.81,2106.56,1355.22,2223.78z"/>
		</g>
		<g>
			<path class="st1" d="M346.84,1841.7c-3.82,0-7.67-1.21-10.94-3.69l-121.58-92.41c-26.46-20.11-35.28-56.48-20.96-86.48
				l119.29-249.9c5.89-12.33,16.73-21.81,29.74-25.99l47.52-15.27c12.4-3.98,25.66-3,37.33,2.77l83.16,41.09
				c8.96,4.43,12.64,15.29,8.21,24.25c-4.43,8.96-15.29,12.64-24.25,8.21l-83.16-41.09c-3.2-1.58-6.83-1.85-10.22-0.76l-47.52,15.27
				c-3.56,1.15-6.53,3.74-8.14,7.12l-119.28,249.9c-6.97,14.59-2.68,32.28,10.19,42.06l121.58,92.41
				c7.96,6.05,9.51,17.41,3.46,25.37C357.71,1839.23,352.3,1841.7,346.84,1841.7z"/>
		</g>
		<g>
			<path class="st1" d="M447.94,1498.5c-3.32,0-6.68-0.91-9.69-2.82l-113.08-71.81c-8.44-5.36-10.94-16.55-5.58-24.99
				c5.36-8.44,16.55-10.94,24.99-5.58l113.08,71.81c8.44,5.36,10.94,16.55,5.58,24.99C459.79,1495.53,453.93,1498.5,447.94,1498.5z"
				/>
		</g>
		<g>
			<path class="st1" d="M599.61,1162.18c46.59,29,87.98,65.13,125.3,105.04c-11.15-7.5-22.32-14.82-33.82-21.59
				c-33.71-19.96-69.44-37.81-106.39-50.46C559.4,1185.76,575.77,1149.41,599.61,1162.18L599.61,1162.18z"/>
		</g>
		<g>
			<path class="st1" d="M2043.43,2559.3c-5.82,0-11.74-0.74-17.65-2.29l-20.07-5.25c-9.67-2.53-15.46-12.43-12.92-22.1
				c2.53-9.67,12.42-15.45,22.1-12.93l20.06,5.25c17.05,4.48,34.35-5.29,39.33-22.23c5.05-17.14-4.79-35.21-21.93-40.27l-7.8-2.31
				c-9.59-2.84-15.06-12.91-12.22-22.5s12.91-15.06,22.49-12.22l7.79,2.3c36.26,10.71,57.08,48.94,46.39,85.21
				C2100.19,2539.94,2073.17,2559.3,2043.43,2559.3z"/>
		</g>
		<g class="st5">
			<path class="st1" d="M376.1,1732.99l-30.1,89.95l-1.6,4.86c0,0-12.46,29.33-28.34,72.41l-73.6-22.71
				c-14.69-4.55-30.21,4.14-33.98,19.03l-16.29,63.72c-3.62,14.07,4.66,28.5,18.62,32.48l68.12,19.55
				c-10.6,36.41-19.65,73.86-24.67,107.74c-0.47,3.15-0.98,6.26-1.66,9.31c-38.59-24.31-68.79-48-91.96-68.95
				c-45.41-41.07-61.76-104.95-41.59-162.77c22.19-63.62,52.55-130.24,86.95-196.13c-2.64-11.28-1.6-23.48,3.72-34.6l72-150.88
				c-0.98,2.9-12.88,38.02-14.28,75.15c-1.97,49.86,15.1,103.39,103.19,87.1L376.1,1732.99z"/>
		</g>
		<g class="st5">
			<path class="st1" d="M1263.55,1600.22c0,0-239.22,9.21-478.12-155.74c0,0-243.25,8.9-269.11,226.29
				c-25.86,217.39-36.21,205.54-36.21,205.54s-113.84,224.94,116.32,195.98l33.21,50.33c0,0-63.31,77.64-145.24,36.83
				c-81.93-40.81-67.24,281.27-64.65,345.92s-228.41,279.09-228.41,279.09s-56.07,69.67,16.34,164.27
				c59.48,77.69,134.58,105.51,159.51,112.96c-9.52,5.38-20.43,10.09-32.79,13.91c-108.62,33.62-246.97-122.84-296.11-228.87
				s7.34-158.63,7.34-158.63l232.75-253.44l-12.1-148.24c-29.12-218.27,31.55-372.14,70.14-444.24c0.05-0.05,0.05-0.05,0.05-0.1
				c10.4-17.22,16.14-27.36,18-30.77c0.52-0.83,0.72-1.24,0.72-1.24l20.9-112.86c0,0-2.84-183.25,110.94-257.22
				c0.05,0,0.1-0.05,0.15-0.1c2.02-1.34,4.14-2.64,6.26-3.88c114.67-67.81,191.11-98.27,198.05-100.96
				c0.36-0.16,0.52-0.21,0.52-0.21l0.1-0.05l121.29-30.67l35.22-8.9c0,0,0.41,1.09,1.24,3.15
				C860.79,1324.64,947.63,1509.08,1263.55,1600.22z"/>
		</g>
		<g class="st5">
			<path class="st1" d="M1423.22,3001.53c-2.95,14.59-7.4,28.91-12.72,42.26c-9.15,22.86-30.31,38.84-54.72,42
				c-182.89,23.74-326.83-20.64-396.09-49.03c-27.1-11.12-44.07-38.38-42.26-67.65l14.48-233.58c2.17-35.12-8.02-69.83-28.81-98.17
				l-158.74-216.61c-1.97-8.17-3.05-12.78-3.05-12.78l162.05-12.93l167.48-64.08c-10.24,4.29-144.93,63.83-75.26,210.2
				c72.41,152.12,48.88,372.82,48.88,372.82s29.33,106.7,197.68,118.24C1383.44,3041.93,1416.29,3011.52,1423.22,3001.53z"/>
		</g>
		<g class="st5">
			<path class="st1" d="M689.57,1745.9c0,0-0.86,91.24,127.58,106.82l-2.54,29.91l2.54,102.91l90.5-132.82
				c0,0-93.53,195.41,291.16,319.71l-479-137.76l-15.19-75.51l-36.61-79.65l10.34-43.1L689.57,1745.9z"/>
		</g>
		<g class="st5">
			<polygon class="st1" points="1393.39,2038.65 1468.02,2246.5 1404.82,2235.97 1327.48,2187.73 			"/>
		</g>
		<g class="st5">
			<path class="st1" d="M1618.73,2397.16c-20.33,150.2-424.43-18.52-215.37-137.48c15.98-10.5,35.95-14.84,56.58-13.86
				c-21.88,31.09-95.01,152.68,113.22,135.41c2.33-0.21,4.6-0.36,6.88-0.52l0.88,5.59L1618.73,2397.16z"/>
		</g>
		<g class="st5">
			<path class="st1" d="M1642.32,2306.64c-5.9,0.21-11.84,0.72-17.64,1.81c-69.72,13.34-82.86-29.02-82.86-29.02
				c-3.1-28.76,11.28-49.81,31.81-62.22c-0.31,20.79,6.93,80.43,105.57,40.4c1.91-0.78,3.83-1.55,5.74-2.33
				C1689.23,2279.7,1679.3,2305.3,1642.32,2306.64z"/>
		</g>
		<g class="st5">
			<polygon class="st1" points="576.64,2170.1 1136.39,2307.54 1155.57,2264.13 635.26,2129.34 			"/>
		</g>
	</g>
</g>
</svg>
