<?xml version="1.0" encoding="utf-8"?>
<!-- Generator: Adobe Illustrator 26.2.1, SVG Export Plug-In . SVG Version: 6.00 Build 0)  -->
<svg version="1.1" id="Layer_1" xmlns="http://www.w3.org/2000/svg" xmlns:xlink="http://www.w3.org/1999/xlink" x="0px" y="0px"
	 viewBox="0 0 3165.45 3321.27" style="enable-background:new 0 0 3165.45 3321.27;" xml:space="preserve">
<style type="text/css">
	.st0{fill:#FFFFFF;}
	.st1{fill:#FF0019;}
	.st2{opacity:0.25;}
	.st3{fill:#371A45;}
	.st4{opacity:0.5;}
	.st5{fill:#FF5917;}
	.st6{fill:#FFE600;}
	.st7{fill:#22A7F0;}
	.st8{fill:#2577EF;}
	.st9{fill:#2568EF;}
	.st10{opacity:0.4;}
	.st11{fill:#DD3740;}
	.st12{fill:#BF2121;}
	.st13{opacity:0.35;}
	.st14{fill:#111A28;}
	.st15{opacity:0.25;clip-path:url(#SVGID_00000145766970745687661630000010889999262914246836_);}
	.st16{fill:#99A4C4;}
	.st17{fill:#FFDE52;}
	.st18{fill:#F2A83D;}
	.st19{fill:#FF0068;}
	.st20{fill:#E8E8E8;}
	.st21{fill:#000072;}
	.st22{fill:#8E8FB3;}
	.st23{opacity:0.15;}
	.st24{fill:#686868;}
	.st25{fill:#FC7E81;}
	.st26{fill:#F27E80;}
	.st27{fill:#FF5C64;}
	.st28{opacity:0.7;}
	.st29{fill:#9E9E9E;}
	.st30{fill:#3EC4FF;}
	.st31{fill:#2E98EF;}
	.st32{opacity:0.3;}
	.st33{fill:#B2B2B2;}
	.st34{fill:#3A3A3A;}
	.st35{fill:#FF5AB6;}
	.st36{fill:#F240AA;}
	.st37{fill:#68D8FF;}
	.st38{fill:#4CA9FC;}
	.st39{fill:#69F1FF;}
	.st40{fill:#1D74F2;}
	.st41{fill:#83D67C;}
	.st42{fill:#5DAA55;}
	.st43{fill:#54B74F;}
	.st44{fill:#36912F;}
	.st45{fill:#E448FF;}
	.st46{fill:#CE13E2;}
	.st47{fill:#FA84FF;}
	.st48{fill:#FC54DC;}
	.st49{fill:none;stroke:#FFFFFF;stroke-width:29.9293;stroke-linecap:round;stroke-miterlimit:10;}
	.st50{fill:#127DDD;}
	.st51{fill:#220F2D;}
	.st52{fill:#00CFFF;}
	.st53{fill:#FFD243;}
	.st54{fill:#FCAC38;}
	.st55{fill:#FF8A3B;}
	.st56{opacity:0.6;}
	.st57{fill:#FFA92C;}
	.st58{fill:#BD89E5;}
	.st59{fill:#945CC6;}
	.st60{fill:#293856;}
	.st61{opacity:0.41;}
	.st62{clip-path:url(#SVGID_00000037660375407475569180000013180175572828588963_);}
	.st63{fill:#FFB200;}
	.st64{fill:#FF9100;}
	.st65{fill:none;stroke:#293856;stroke-width:24.5158;stroke-linecap:round;stroke-miterlimit:10;}
	.st66{fill:#D66B09;}
	.st67{fill:#FFD766;}
	.st68{fill:#FFAA39;}
	.st69{fill:#FFCF6E;}
	.st70{fill:#FFEC90;}
	.st71{opacity:0.2;}
	.st72{clip-path:url(#SVGID_00000162353262211882227210000008261363205065082755_);}
	.st73{fill:none;stroke:#293856;stroke-width:25.4306;stroke-linecap:round;stroke-miterlimit:10;}
	.st74{fill:#F9A528;}
	.st75{fill:#F78B2B;}
	.st76{fill:#FF6C6C;}
	.st77{opacity:0.54;}
	.st78{fill:#40A4FF;}
	.st79{fill:#309FF2;}
	.st80{fill:#FC4242;}
	.st81{fill:#FF9522;}
	.st82{fill:#E5711A;}
	.st83{fill:#6B184E;}
	.st84{fill:#FF9FA4;}
	.st85{fill:#FF5F67;}
	.st86{fill:#FFE3E1;}
</style>
<g>
	<g>
		<g>
			<path class="st0" d="M631.19,2925.58c0.47,4.94-9.25,10.22-24.16,14.04c-7.53,1.93-12.97,8.52-13.44,16.28
				c-0.93,15.36-4.28,25.91-9.22,26.38c-4.94,0.47-10.22-9.25-14.04-24.16c-1.93-7.53-8.52-12.98-16.28-13.44
				c-15.37-0.93-25.94-4.27-26.42-9.22c-0.47-4.97,9.27-10.26,24.18-14.05c7.54-1.92,13-8.52,13.47-16.28
				c0.93-15.38,4.28-25.92,9.22-26.39c4.94-0.47,10.22,9.25,14.04,24.18c1.93,7.54,8.53,12.99,16.3,13.45
				C620.18,2917.25,630.72,2920.61,631.19,2925.58z"/>
		</g>
		<g>
			<path class="st0" d="M508.34,1476.46c0.29,5.15-10.01,10.24-25.64,13.6c-7.89,1.7-13.81,8.32-14.61,16.36
				c-1.58,15.91-5.48,26.72-10.63,27.01c-5.15,0.29-10.24-10.01-13.6-25.64c-1.7-7.89-8.32-13.81-16.36-14.61
				c-15.92-1.58-26.76-5.48-27.05-10.63c-0.29-5.18,10.03-10.27,25.66-13.62c7.9-1.69,13.83-8.32,14.63-16.36
				c1.58-15.93,5.48-26.74,10.63-27.03c5.15-0.29,10.24,10.01,13.6,25.66c1.7,7.9,8.33,13.82,16.38,14.61
				C497.25,1467.38,508.05,1471.28,508.34,1476.46z"/>
		</g>
		<g>
			<path class="st0" d="M2647.17,157.29c0,5.61-11.49,10.5-28.66,13.19c-8.67,1.36-15.49,8.19-16.85,16.85
				c-2.69,17.17-7.58,28.66-13.19,28.66s-10.5-11.49-13.19-28.66c-1.36-8.67-8.19-15.49-16.85-16.85
				c-17.18-2.69-28.7-7.58-28.7-13.19c0-5.64,11.51-10.53,28.68-13.21c8.68-1.35,15.52-8.18,16.88-16.86
				c2.69-17.19,7.58-28.68,13.19-28.68c5.61,0,10.5,11.49,13.19,28.68c1.36,8.68,8.2,15.51,16.88,16.86
				C2635.69,146.76,2647.17,151.65,2647.17,157.29z"/>
		</g>
		<g>
			<circle class="st0" cx="3147.12" cy="1687.13" r="18.33"/>
		</g>
		<g>
			<circle class="st0" cx="2797.04" cy="2286.31" r="18.28"/>
		</g>
		<g>
			<circle class="st0" cx="2513.4" cy="2944.78" r="21.73"/>
		</g>
		<g>
			<circle class="st0" cx="115.89" cy="810.78" r="21.73"/>
		</g>
		<g>
			<circle class="st0" cx="2681.21" cy="1083.42" r="18.33"/>
		</g>
		<g>
			<circle class="st0" cx="255.97" cy="133.58" r="21.73"/>
		</g>
		<g>
			<circle class="st0" cx="20.59" cy="2764.43" r="20.59"/>
		</g>
		<g>
			<circle class="st0" cx="3050.12" cy="551.38" r="9.43"/>
		</g>
		<g>
			<circle class="st0" cx="2943.87" cy="2877.04" r="11.18"/>
		</g>
		<g>
			<circle class="st0" cx="748.04" cy="403.17" r="11.18"/>
		</g>
		<g>
			<circle class="st0" cx="1656.96" cy="548.28" r="11.18"/>
		</g>
		<g>
			<circle class="st0" cx="449.19" cy="2272.88" r="10.59"/>
		</g>
		<g>
			<circle class="st0" cx="37.37" cy="1785.5" r="20.59"/>
		</g>
	</g>
	<g>
		<g>
			<path class="st1" d="M1397.89,2569.75c-351.53,5.58-389.39,405.07-458.26,378.1c-19.6-7.64-46.02-76.98-56.94-172.54
				c-16.36-142.28,1.62-342.66,127.47-483.72c53.7-60.19,127-109.57,225.68-139.04L1397.89,2569.75z"/>
		</g>
		<g class="st2">
			<path class="st3" d="M1397.89,2569.75c-351.53,5.58-389.39,405.07-458.26,378.1c-19.6-7.64-46.02-76.98-56.94-172.54
				c0.99-0.87,50.37,106.33,145.77-47.12c79.68-128.11,82.84-148.82,82.01-182.91c-1.27-52.23-72.79-115.51-100.31-253.68
				c53.7-60.19,127-109.57,225.68-139.04L1397.89,2569.75z"/>
		</g>
		<g>
			<path class="st3" d="M947,2965.26c-4.19,0-8.55-0.85-13.13-2.65c-42.62-16.67-77.34-167.42-71.45-310.19
				c6.33-153.09,62.66-423.58,368.88-515.05c7.92-2.36,16.31,1.75,19.3,9.44l162.06,417.19c1.88,4.83,1.27,10.28-1.62,14.58
				s-7.71,6.91-12.89,7c-226.88,3.62-315.78,174.48-374.6,287.54C996.28,2925.53,975.6,2965.26,947,2965.26z M1226.42,2172.08
				c-239.93,78.23-311.15,276.05-328.39,429.75c-19.5,173.89,27.13,319.84,47.64,331.4c9.1,3.55,33.56-43.57,49.77-74.73
				c56.69-108.96,150.36-289.03,379.65-303.7L1226.42,2172.08z"/>
		</g>
		<g class="st4">
			<path class="st0" d="M1000.75,2382.51c-15.08-8.46-49.7,57.3-69.65,146.29c-15.73,70.15-8.5,90.32-0.23,91.78
				c7.86,1.39,19.84-30.74,40.18-100.98C985.72,2468.93,1010.3,2387.87,1000.75,2382.51z"/>
		</g>
		<g class="st4">
			<path class="st0" d="M924.21,2631.87c-12.43,6.43-23.43,46.01-6.31,72.68C934.64,2730.64,942.01,2622.67,924.21,2631.87z"/>
		</g>
		<g>
			<path class="st1" d="M1715.24,2569.75c351.53,5.58,389.39,405.07,458.26,378.1c19.6-7.64,46.02-76.98,56.94-172.54
				c16.36-142.28-1.62-342.66-127.47-483.72c-53.7-60.19-127-109.57-225.68-139.04L1715.24,2569.75z"/>
		</g>
		<g class="st2">
			<path class="st3" d="M1715.24,2569.75c351.53,5.58,389.39,405.07,458.26,378.1c19.6-7.64,46.02-76.98,56.94-172.54
				c-0.99-0.87-50.37,106.33-145.77-47.12c-79.68-128.11-82.84-148.82-82.01-182.91c1.27-52.23,72.79-115.51,100.31-253.68
				c-53.7-60.19-127-109.57-225.68-139.04L1715.24,2569.75z"/>
		</g>
		<g>
			<path class="st3" d="M2166.13,2965.26c-28.61,0-49.28-39.72-76.55-92.13c-58.82-113.07-147.72-283.92-374.6-287.54
				c-5.18-0.08-10-2.7-12.89-7s-3.5-9.75-1.62-14.58l162.06-417.19c2.99-7.69,11.38-11.81,19.3-9.44
				c306.22,91.47,362.55,361.96,368.88,515.05c5.9,142.77-28.82,293.52-71.45,310.19
				C2174.69,2964.41,2170.32,2965.26,2166.13,2965.26z M1738.04,2554.81c229.29,14.67,322.96,194.74,379.65,303.7
				c16.22,31.16,40.7,78.2,50.03,74.61c20.24-11.45,66.88-157.39,47.38-331.29c-17.24-153.7-88.47-351.51-328.39-429.75
				L1738.04,2554.81z"/>
		</g>
		<g class="st4">
			<path class="st0" d="M2112.38,2382.51c15.08-8.46,49.7,57.3,69.65,146.29c15.73,70.15,8.5,90.32,0.23,91.78
				c-7.86,1.39-19.84-30.74-40.18-100.98C2127.41,2468.93,2102.83,2387.87,2112.38,2382.51z"/>
		</g>
		<g class="st4">
			<path class="st0" d="M2188.92,2631.87c12.43,6.43,23.43,46.01,6.31,72.68C2178.49,2730.64,2171.12,2622.67,2188.92,2631.87z"/>
		</g>
		<g>
			<path class="st1" d="M1729.45,2700.71c0,0,132.31,122.99,92.05,265.56l-57.58-52.18c0,0,17.81,281.4-210.06,391.34
				c-227.87-109.95-210.06-391.34-210.06-391.34l-57.58,52.18c-40.26-142.56,92.05-265.56,92.05-265.56H1729.45z"/>
		</g>
		<g>
			<path class="st5" d="M1670.99,2773.76c0,0,88.26,82.04,61.4,177.14l-38.41-34.81c0,0,11.88,187.71-140.12,261.05
				c-152-73.34-140.12-261.05-140.12-261.05l-38.41,34.81c-26.85-95.1,61.4-177.14,61.4-177.14H1670.99z"/>
		</g>
		<g>
			<path class="st6" d="M1624.37,2786.52c0,0,53.13,49.39,36.96,106.63l-23.12-20.95c0,0,7.15,112.99-84.35,157.14
				c-91.5-44.15-84.35-157.14-84.35-157.14l-23.12,20.95c-16.17-57.24,36.96-106.63,36.96-106.63H1624.37z"/>
		</g>
		<g>
			<path class="st3" d="M1553.87,3321.27c-2.35,0-4.71-0.52-6.88-1.57c-97.36-46.98-166.11-132.32-198.83-246.82
				c-14.09-49.3-18.7-93.75-20.04-123.2l-31.25,28.32c-4.06,3.68-9.75,5-15.01,3.49c-5.27-1.51-9.38-5.64-10.87-10.92
				c-42.4-150.15,90.82-276.17,96.51-281.46c6.41-5.96,16.43-5.59,22.39,0.82c5.96,6.41,5.59,16.43-0.82,22.39
				c-1.16,1.08-108.79,103.2-92.95,223.62l37.06-33.58c4.78-4.33,11.71-5.33,17.51-2.53c5.81,2.8,9.34,8.84,8.94,15.27
				c-0.17,2.67-13.9,266.39,194.25,372.66c208.15-106.27,194.42-369.99,194.25-372.67c-0.4-6.43,3.14-12.47,8.95-15.26
				c5.81-2.78,12.72-1.79,17.5,2.53l37.07,33.59c15.96-120.71-91.79-222.54-92.96-223.63c-6.41-5.96-6.77-15.98-0.82-22.39
				c5.96-6.4,15.98-6.77,22.39-0.82c5.69,5.29,138.91,131.31,96.51,281.46c-1.49,5.27-5.6,9.4-10.87,10.92
				c-5.27,1.51-10.95,0.2-15.01-3.49l-31.25-28.32c-1.34,29.45-5.95,73.9-20.04,123.2c-32.72,114.5-101.47,199.84-198.83,246.82
				C1558.58,3320.75,1556.22,3321.27,1553.87,3321.27z"/>
		</g>
		<g>
			<path class="st7" d="M1821.89,2579.69l-20.83,121.61c-6.89,40.15-35.96,72.86-75,84.47c-28.08,8.32-56.59,13.62-85.3,16.99
				c-28.71,3.41-57.7,4.95-86.69,5.7c-58.01-1.54-115.83-6.06-171.98-22.69c-19.52-5.78-36.55-16.87-49.54-31.52
				c-12.39-13.94-21.15-31.13-24.91-50.05c-0.2-0.95-0.4-1.94-0.55-2.89l-12.59-73.5l-8.28-48.11H1821.89z"/>
		</g>
		<g>
			<path class="st8" d="M1821.89,2579.69l-20.83,121.61c-6.89,40.15-35.96,72.86-75,84.47c-28.08,8.32-56.59,13.62-85.3,16.99
				c-28.71,3.41-57.7,4.95-86.69,5.7c-58.01-1.54-115.83-6.06-171.98-22.69c-19.52-5.78-36.55-16.87-49.54-31.52
				c-12.39-13.94-21.15-31.13-24.91-50.05c54.49,31.32,107.99,41.74,116.78-6.73c6.53-36.16-72.63-35.44-129.93-69.66l-8.28-48.11
				H1821.89z"/>
		</g>
		<g>
			<path class="st3" d="M1554.07,2824.32c-0.14,0-0.28,0-0.43,0c-52.91-1.43-115.2-5.31-176.07-23.36
				c-45.15-13.38-78.15-50.53-86.11-96.96l-20.85-121.61c-0.79-4.6,0.49-9.32,3.5-12.89c3.01-3.57,7.44-5.63,12.11-5.63h535.68
				c4.67,0,9.1,2.06,12.11,5.63c3.01,3.57,4.29,8.29,3.5,12.89l-20.85,121.61c-7.96,46.43-40.95,83.58-86.11,96.96
				c-60.86,18.05-123.16,21.94-176.07,23.36C1554.35,2824.32,1554.21,2824.32,1554.07,2824.32z M1305.01,2595.54l17.67,103.1
				c5.91,34.45,30.39,62.01,63.89,71.94c57.19,16.95,116.73,20.67,167.49,22.05c50.76-1.38,110.3-5.1,167.49-22.05
				c33.5-9.93,57.98-37.5,63.89-71.94l17.67-103.1H1305.01z"/>
		</g>
		<g>
			<path class="st0" d="M1840.66,2582.52c382.94-444.01,504.13-1033.95,436.39-1473.81C2177.38,461.5,1728.42,15.84,1553.87,15.84
				S930.36,461.5,830.69,1108.7c-67.74,439.86,53.45,1029.8,436.39,1473.81c0,0,120.49,54.47,286.79,54.47
				S1840.66,2582.52,1840.66,2582.52z"/>
		</g>
		<g>
			<path class="st0" d="M1840.66,2582.52c382.94-444.01,504.13-1033.95,436.39-1473.81C2177.38,461.5,1728.42,15.84,1553.87,15.84
				S930.36,461.5,830.69,1108.7c-67.74,439.86,53.45,1029.8,436.39,1473.81c0,0,120.49,54.47,286.79,54.47
				S1840.66,2582.52,1840.66,2582.52z"/>
		</g>
		<g class="st2">
			<path class="st3" d="M2275.98,1604.84c-47.4,331.38-185.8,682.67-435.33,971.99c0,0-120.46,54.49-286.79,54.49v-0.08
				c-166.32,0-286.79-54.49-286.79-54.49c-249.52-289.32-387.92-640.61-435.33-971.99c78.92,263.7,231.19,633.33,408.04,752.53
				c80.7,54.41,144.07,77.22,314.07-153.57v0.08c170,230.79,233.36,207.98,314.07,153.57
				C2044.8,2238.16,2197.06,1868.53,2275.98,1604.84z"/>
		</g>
		<g>
			<path class="st3" d="M1553.87,2652.82c-167.78,0-288.27-53.59-293.32-55.88c-2.1-0.95-3.96-2.34-5.47-4.09
				c-180.33-209.09-315.36-466.6-390.49-744.68c-67.28-249.03-84.88-512.5-49.56-741.89c44.13-286.56,163.66-569.37,336.57-796.32
				C1292.85,124.57,1454.51,0,1553.87,0c99.36,0,261.02,124.57,402.27,309.97c172.91,226.95,292.43,509.76,336.57,796.32
				c35.33,229.39,17.73,492.87-49.56,741.89c-75.13,278.08-210.16,535.58-390.49,744.68c-1.51,1.74-3.37,3.14-5.47,4.09
				C1842.14,2599.23,1721.65,2652.82,1553.87,2652.82z M1276.69,2569.4c19.65,8.2,130.97,51.75,277.18,51.75
				c146.19,0,257.5-43.53,277.18-51.75c409.81-477.19,488.06-1083.53,430.34-1458.29c-58.48-379.72-232.14-652.9-330.45-781.95
				c-155.72-204.4-304.62-297.49-377.07-297.49s-221.35,93.1-377.07,297.49c-98.31,129.05-271.98,402.23-330.45,781.95
				C788.63,1485.87,866.87,2092.22,1276.69,2569.4z M1840.66,2582.51h0.05H1840.66z"/>
		</g>
		<g>
			<path class="st1" d="M2147.64,667.39c-182.68-42.41-387.89-74.01-593.77-74.01c-54.97,0-109.85,2.26-164.3,6.38
				c-149.53,11.29-295.54,36.55-429.47,67.64c176.42-399.8,462.57-651.54,593.77-651.54c22.41,0,49.3,7.33,79.4,21.5
				C1779.55,106.1,2001.32,335.82,2147.64,667.39z"/>
		</g>
		<g class="st4">
			<path class="st0" d="M1584.45,42.21c22.41,0,49.3,7.33,79.4,21.5c35.43,16.65,75.3,42.82,117.44,77.51
				c-53.41-48.02-104.12-83.24-148.02-103.87c-30.1-14.18-56.99-21.5-79.4-21.5c-131.2,0-417.35,251.74-593.77,651.54
				c15.63-3.63,31.45-7.17,47.4-10.63C1184.8,278.48,1457.34,42.21,1584.45,42.21z"/>
		</g>
		<g class="st2">
			<path class="st3" d="M2147.64,667.39c-182.68-42.41-387.89-74.01-593.77-74.01c-54.97,0-109.85,2.26-164.3,6.38
				c142.4-63.44,420.24-25.54,472.31-144.62c36.91-84.51-76.35-278.51-228.61-417.78C1779.55,106.1,2001.32,335.82,2147.64,667.39z"
				/>
		</g>
		<g>
			<path class="st3" d="M2147.64,683.24c-1.19,0-2.39-0.13-3.58-0.41c-210.36-48.84-408.93-73.6-590.19-73.6
				s-379.82,24.76-590.19,73.6c-5.85,1.36-11.95-0.71-15.78-5.32c-3.83-4.62-4.71-11.01-2.29-16.5
				c80.61-182.67,193.18-353.26,316.99-480.36C1372.78,67.54,1481.67,0.01,1553.87,0.01s181.09,67.53,291.27,180.63
				c123.81,127.1,236.38,297.69,316.99,480.36c2.42,5.49,1.54,11.88-2.29,16.5C2156.79,681.18,2152.3,683.24,2147.64,683.24z
				 M1553.87,577.54c174.67,0,365.01,22.65,566.21,67.35c-77.98-168.31-182.93-324.4-297.63-442.14
				c-102.78-105.51-205.7-171.06-268.58-171.06c-62.88,0-165.79,65.55-268.58,171.06c-114.7,117.74-219.65,273.83-297.63,442.14
				C1188.86,600.19,1379.2,577.54,1553.87,577.54z"/>
		</g>
		<g>
			<path class="st1" d="M1656.16,2559.5c-0.51,24.63-2.45,49.14-5.5,73.26v0.04c-21.27,168.74-95.08,316.17-95.08,316.17
				s-73.46-147.95-93.65-317.2c-2.85-23.64-4.63-47.72-5.03-71.83c-3.21-195.59,100.51-350.46,100.51-350.46
				S1660.32,2363.91,1656.16,2559.5z"/>
		</g>
		<g class="st2">
			<path class="st3" d="M1650.66,2632.8c-21.27,168.74-95.08,316.17-95.08,316.17s-73.46-147.95-93.65-317.2
				c73.7,135.63,94.64-78.29,94.64-78.29S1577.4,2766.29,1650.66,2632.8z"/>
		</g>
		<g>
			<path class="st3" d="M1555.58,2964.81c-0.01,0-0.02,0-0.02,0c-6.01-0.01-11.49-3.41-14.16-8.79
				c-3.96-7.98-97.09-197.66-100.33-395.82c-3.24-198.26,98.83-353.06,103.17-359.56c2.94-4.39,7.88-7.03,13.16-7.03
				c0,0,0.01,0,0.02,0c5.29,0,10.23,2.65,13.16,7.06c4.32,6.47,105.65,160.88,101.43,359.18
				c-4.21,198.16-98.26,388.22-102.26,396.21C1567.06,2961.43,1561.58,2964.81,1555.58,2964.81z M1557.36,2240.47
				c-27.26,48.89-87.01,173.14-84.62,319.21c2.37,144.93,56.56,289.1,82.91,350.9c26.64-61.87,81.61-206.37,84.69-351.41
				C1643.45,2413.2,1584.4,2289.3,1557.36,2240.47z"/>
		</g>
		<g>
			<path class="st3" d="M1556.58,1963.93c-2.73,0-5.46-0.02-8.19-0.06c-149.37-2.44-289.24-70.25-383.75-186.04
				c-75.21-92.2-115.57-208.58-113.66-327.71c2.18-135.04,56.82-261.15,153.86-355.11c97.04-93.95,224.89-144.44,359.89-142.29
				c278.76,4.49,501.89,234.94,497.4,513.71c0,0,0,0,0,0c-1.93,118.68-45.72,233.31-123.31,322.77
				C1842.43,1900.53,1703.5,1963.93,1556.58,1963.93z M1556.32,984.33c-123.66,0-240.37,47.21-329.44,133.44
				c-90.96,88.06-142.18,206.28-144.22,332.86c-1.8,111.66,36.03,220.75,106.52,307.17c88.59,108.54,219.7,172.1,359.71,174.39
				c140.5,2.31,273.93-57.43,365.99-163.74c72.73-83.85,113.77-191.29,115.57-302.53c4.21-261.31-204.94-477.32-466.23-481.52
				C1561.59,984.35,1558.95,984.33,1556.32,984.33z M2046.3,1466.17h0.05H2046.3z"/>
		</g>
		<g>
			<circle class="st7" cx="1556.56" cy="1458.28" r="489.8"/>
		</g>
		<g>
			<path class="st9" d="M2046.3,1466.17c-4.36,270.51-227.19,486.21-497.66,481.86c-270.47-4.4-486.21-227.19-481.82-497.66
				c0.36-21.5,2.06-42.69,5.15-63.4c34.18,233.29,233.25,414.1,476.67,418.06c248.93,4,457.54-178.4,492.51-418.42
				C2044.96,1412.51,2046.74,1439.13,2046.3,1466.17z"/>
		</g>
		<g>
			<path class="st3" d="M1556.68,1963.92c-2.76,0-5.52-0.02-8.29-0.07c-278.78-4.51-501.91-234.98-497.4-513.75
				c4.51-278.78,234.92-501.87,513.75-497.4c135.04,2.18,261.15,56.83,355.1,153.86c93.95,97.04,144.48,224.85,142.3,359.89
				C2057.68,1742.45,1831.71,1963.92,1556.68,1963.92z M1556.45,984.31c-257.82,0-469.6,207.58-473.78,466.3
				c-4.23,261.31,204.93,477.34,466.24,481.56c2.58,0.04,5.2,0.06,7.77,0.06c257.82,0.02,469.61-207.58,473.79-466.3
				c2.05-126.58-45.32-246.39-133.38-337.34c-88.06-90.95-206.27-142.17-332.85-144.22
				C1561.64,984.33,1559.02,984.31,1556.45,984.31z"/>
		</g>
		<g>
			<path class="st3" d="M1556.58,1963.93c-2.73,0-5.46-0.02-8.19-0.06c-149.37-2.44-289.24-70.25-383.75-186.04
				c-75.21-92.2-115.57-208.58-113.66-327.71c2.18-135.04,56.82-261.15,153.86-355.11c97.04-93.95,224.89-144.44,359.89-142.29
				c278.76,4.49,501.89,234.94,497.4,513.71c0,0,0,0,0,0c-1.93,118.68-45.72,233.31-123.31,322.77
				C1842.43,1900.53,1703.5,1963.93,1556.58,1963.93z M1556.32,984.33c-123.66,0-240.37,47.21-329.44,133.44
				c-90.96,88.06-142.18,206.28-144.22,332.86c-1.8,111.66,36.03,220.75,106.52,307.17c88.59,108.54,219.7,172.1,359.71,174.39
				c140.5,2.31,273.93-57.43,365.99-163.74c72.73-83.85,113.77-191.29,115.57-302.53c4.21-261.31-204.94-477.32-466.23-481.52
				C1561.59,984.35,1558.95,984.33,1556.32,984.33z M2046.3,1466.17h0.05H2046.3z"/>
		</g>
		<g>
			<path class="st0" d="M1926.87,1778.82c-91.52,105.69-227.46,171.63-378.22,169.21c-150.24-2.46-283.62-72.27-371.73-180.22
				c23.84-26.57,48.51-48.31,72.59-66.01c89.02-65.62,169.96-76.59,169.96-76.59h255.34c0,0,84.55,11.8,175.91,81.26
				C1876.14,1725.79,1902.08,1749.55,1926.87,1778.82z"/>
		</g>
		<g class="st2">
			<path class="st3" d="M1850.72,1706.47c-69.3,88.82-177.37,145.97-298.82,145.97c-123.55,0-233.29-59.12-302.39-150.64
				c89.02-65.62,169.96-76.59,169.96-76.59h255.34C1674.81,1625.21,1759.36,1637.01,1850.72,1706.47z"/>
		</g>
		<g>
			<path class="st3" d="M1556.58,1963.93c-2.73,0-5.46-0.02-8.19-0.06c-149.37-2.44-289.24-70.25-383.75-186.04
				c-4.93-6.04-4.73-14.78,0.48-20.58c114.53-127.77,246.65-146.97,252.22-147.73c0.71-0.1,1.42-0.14,2.13-0.14h255.34
				c0.73,0,1.46,0.05,2.19,0.15c5.89,0.82,145.49,21.7,261.95,159.06c5.05,5.96,5.01,14.71-0.11,20.61
				C1842.43,1900.53,1703.5,1963.93,1556.58,1963.93z M1198.02,1768.3c88.35,102.13,215.46,161.68,350.89,163.89
				c135.94,2.35,265.22-53.6,356.85-153.48c-101.92-113.45-220.31-135.69-232.17-137.66h-252.9
				C1409.44,1642.9,1297.41,1663.73,1198.02,1768.3z"/>
		</g>
		<g>
			<path class="st0" d="M1457.95,1922.8c-16.63,19.01-37.82,32.12-37.82,32.12l-65.7-46.61v-34.93c0,0,32.23-27.13,64.23-34.49
				c15.25-3.52,30.41-2.57,41.98,7.92C1489.44,1872.87,1476.53,1901.54,1457.95,1922.8z"/>
		</g>
		<g class="st2">
			<path class="st3" d="M1457.95,1922.8c-16.63,19.01-37.82,32.12-37.82,32.12l-65.7-46.61v-34.93c0,0,32.23-27.13,64.23-34.49
				C1422.63,1869.38,1418.71,1911.32,1457.95,1922.8z"/>
		</g>
		<g>
			<path class="st3" d="M1420.13,1970.75c-3.22,0-6.43-0.98-9.16-2.92l-65.69-46.6c-4.19-2.97-6.67-7.79-6.67-12.92v-34.94
				c0-4.68,2.07-9.12,5.65-12.13c8.28-6.95,82.2-66.76,127.04-26.17c20.2,18.29,23.02,37.58,21.84,50.54
				c-4.03,44.09-58.48,78.95-64.68,82.77C1425.9,1969.96,1423.01,1970.75,1420.13,1970.75z M1370.28,1900.13l50.01,35.47
				c15.36-11.38,39.52-33.17,41.3-52.9c0.49-5.43-0.18-13.83-11.56-24.14c-18.75-16.96-60.27,7.86-79.75,22.48V1900.13z"/>
		</g>
		<g>
			<path class="st0" d="M1737.93,1873.37c0,0-70.33-59.06-106.22-26.56c-54.51,49.36,40.53,108.1,40.53,108.1l65.69-46.6V1873.37z"
				/>
			<path class="st3" d="M1672.24,1970.75c-2.88,0-5.77-0.79-8.33-2.36c-6.2-3.83-60.65-38.68-64.68-82.77
				c-1.18-12.96,1.64-32.25,21.84-50.54c44.85-40.61,118.76,19.21,127.04,26.17c3.58,3.01,5.65,7.45,5.65,12.13v34.94
				c0,5.13-2.49,9.95-6.67,12.92l-65.69,46.6C1678.67,1969.77,1675.45,1970.75,1672.24,1970.75z M1659.01,1852.84
				c-6.45,0-12.21,1.67-16.68,5.72c-11.38,10.31-12.05,18.71-11.56,24.14c1.78,19.73,25.93,41.52,41.3,52.9l50-35.47v-19.09
				C1707.25,1869.9,1679.62,1852.84,1659.01,1852.84z"/>
		</g>
		<g class="st2">
			<path class="st3" d="M1636.56,1922.8c16.63,19.01,37.82,32.12,37.82,32.12l65.7-46.61v-34.93c0,0-32.23-27.13-64.23-34.49
				C1671.89,1869.38,1675.81,1911.32,1636.56,1922.8z"/>
		</g>
		<g class="st4">
			<ellipse class="st0" cx="1556.29" cy="2417.43" rx="9.76" ry="89.91"/>
		</g>
		<g class="st10">
			<path class="st0" d="M1484.42,142.66c-65.79-16.59-326.88,279.29-200.5,340.14C1413.51,545.2,1575.18,165.55,1484.42,142.66z"/>
		</g>
		<g class="st10">
			<path class="st0" d="M1557.76,256.9c-30.22,1.04-105.42,160.04-43.77,170.46C1577.2,438.04,1599.46,255.47,1557.76,256.9z"/>
		</g>
		<g>
			<path class="st11" d="M1565.83,883.77c-317.28-5.11-578.64,247.94-583.79,565.22c-2.57,160.38,60.79,306.47,165.09,412.4
				c55.92,56.79,123.63,102.05,199.23,131.75c62.29,24.51,130.01,38.49,200.89,39.64c317.32,5.15,578.68-247.94,583.79-565.22
				C2136.2,1150.28,1883.15,888.92,1565.83,883.77z M2046.3,1466.17c-1.94,119.71-46.65,228.73-119.43,312.64
				c-91.52,105.69-227.46,171.63-378.22,169.21c-42.93-0.71-84.47-6.89-123.95-17.94c-78.53-21.86-149.02-62.81-206.24-117.45
				c-14.77-14.02-28.63-29.03-41.54-44.83c-70.49-86.41-112.03-197.21-110.09-317.44c4.36-270.47,227.19-486.21,497.66-481.82
				C1834.96,972.91,2050.66,1195.7,2046.3,1466.17z"/>
		</g>
		<g>
			<path class="st12" d="M2130.93,1443.92c-7.76,314.9-268.02,565.29-583.67,560.19c-70.88-1.15-138.6-15.13-200.89-39.64
				c-75.6-29.7-143.31-74.96-199.23-131.75c-99.04-100.62-161.21-237.44-164.97-388.32c-0.08,1.54-0.08,3.05-0.12,4.59
				c-2.57,160.38,60.79,306.47,165.09,412.4c55.92,56.79,123.63,102.05,199.23,131.75c62.29,24.51,130.01,38.49,200.89,39.64
				c317.32,5.15,578.68-247.94,583.79-565.22C2131.17,1459.64,2131.13,1451.76,2130.93,1443.92z"/>
		</g>
		<g>
			<path class="st12" d="M1424.7,1930.09c-9.7,25.46-31.21,53.06-78.33,63.04c-75.6-29.7-143.31-74.96-199.23-131.75
				c0.91-37.11,12.2-67.28,12.2-67.28l59.12,18.53C1275.68,1867.28,1346.17,1908.23,1424.7,1930.09z"/>
		</g>
		<g>
			<path class="st12" d="M1687.1,1930.09c9.7,25.46,31.21,53.06,78.33,63.04c75.6-29.7,143.31-74.96,199.23-131.75
				c-0.91-37.11-12.2-67.28-12.2-67.28l-59.12,18.53C1836.12,1867.28,1765.63,1908.23,1687.1,1930.09z"/>
		</g>
		<g>
			<path class="st3" d="M1556.84,2048.69c-3.28,0-6.55-0.02-9.83-0.08c-325.49-5.29-586.04-274.39-580.8-599.88
				c5.23-322.26,269.11-580.88,590.24-580.88c3.23,0,6.41,0.02,9.64,0.08c0,0,0,0,0,0c157.7,2.56,304.96,66.37,414.65,179.67
				c109.7,113.3,168.7,262.54,166.14,420.22c-2.54,157.68-66.33,304.94-179.64,414.64
				C1856.3,1989.88,1710.89,2048.69,1556.84,2048.69z M1556.45,899.53c-303.92,0-553.62,244.73-558.57,549.71
				c-4.96,308.02,241.6,562.69,549.63,567.69c149.27,2.43,290.47-53.42,397.7-157.24c107.22-103.81,167.59-243.17,170-392.39
				c2.42-149.22-53.42-290.45-157.23-397.67c-103.81-107.22-243.17-167.6-392.41-170.02
				C1562.53,899.56,1559.48,899.53,1556.45,899.53z M1556.58,1963.93c-2.73,0-5.46-0.02-8.19-0.06
				c-149.37-2.44-289.24-70.25-383.75-186.04c-75.21-92.2-115.57-208.58-113.66-327.71c2.18-135.04,56.82-261.15,153.86-355.11
				c97.04-93.95,224.89-144.44,359.89-142.29c135.04,2.18,261.15,56.81,355.09,153.84c93.94,97.03,144.48,224.83,142.31,359.88
				c0,0,0,0,0,0c-1.93,118.68-45.72,233.31-123.31,322.77C1842.43,1900.53,1703.5,1963.93,1556.58,1963.93z M1556.32,984.33
				c-123.66,0-240.37,47.21-329.44,133.44c-90.96,88.06-142.18,206.28-144.22,332.86c-1.8,111.66,36.03,220.75,106.52,307.17
				c88.59,108.54,219.7,172.1,359.71,174.39c140.5,2.31,273.93-57.43,365.99-163.74c72.73-83.85,113.77-191.29,115.57-302.53
				c2.04-126.58-45.33-246.38-133.39-337.33c-88.06-90.95-206.27-142.16-332.84-144.2C1561.59,984.35,1558.95,984.33,1556.32,984.33
				z M2046.3,1466.17h0.05H2046.3z"/>
		</g>
		<g>
			<g>
				<path class="st0" d="M2021.4,1468.42l-9.77-1.06c-4.99-0.54-8.6-5.02-8.06-10.01l30.97-286.39c0.54-4.99,5.02-8.6,10.01-8.06
					l9.77,1.06c52.34,5.66,90.18,52.68,84.52,105.01l-12.43,114.93C2120.76,1436.24,2073.74,1474.08,2021.4,1468.42z"/>
				<path class="st3" d="M2031.84,1471.83c-3.57,0-7.15-0.19-10.74-0.58l-9.77-1.06c-6.54-0.71-11.29-6.6-10.58-13.14l30.97-286.39
					c0.71-6.54,6.63-11.28,13.15-10.58l9.77,1.06c26.07,2.82,49.48,15.62,65.92,36.05c16.44,20.43,23.94,46.03,21.12,72.1
					l-12.43,114.93c-2.82,26.07-15.62,49.48-36.05,65.92C2075.59,1464.3,2054.13,1471.83,2031.84,1471.83z M2021.71,1465.59
					c24.56,2.66,48.68-4.41,67.92-19.9c19.24-15.48,31.3-37.54,33.96-62.1l12.43-114.93c2.66-24.56-4.41-48.68-19.9-67.92
					c-15.49-19.24-37.54-31.3-62.1-33.96l-9.77-1.06c-3.44-0.35-6.51,2.11-6.88,5.53l-30.97,286.39c-0.18,1.66,0.3,3.29,1.34,4.58
					c1.04,1.3,2.53,2.11,4.19,2.29L2021.71,1465.59z"/>
			</g>
			<g class="st2">
				<path class="st3" d="M2132.3,1329.46l-4.91,45.53c-6.2,57.24-57.64,98.66-114.92,92.49c-5.46-0.58-9.4-5.52-8.81-10.97
					l8.16-75.68c1.16,3.62,4.36,6.37,8.36,6.84l6.75,0.71C2072.18,1393.27,2113.82,1368.42,2132.3,1329.46z"/>
			</g>
			<g>
				<path class="st3" d="M2031.87,1484.83c-4.04,0-8.1-0.22-12.17-0.66l-9.77-1.06c-6.62-0.72-12.56-3.97-16.74-9.15
					c-4.17-5.19-6.08-11.69-5.36-18.31l30.97-286.39c1.48-13.66,13.85-23.56,27.46-22.1l9.77,1.06
					c29.52,3.19,56.03,17.69,74.64,40.82c18.62,23.13,27.11,52.13,23.92,81.65l-12.43,114.92c-3.19,29.52-17.69,56.03-40.82,74.65
					C2081.41,1476.3,2057.1,1484.83,2031.87,1484.83z M2023.11,1452.67c21.11,2.27,41.84-3.79,58.38-17.1
					c16.54-13.31,26.9-32.27,29.19-53.37l12.43-114.93c2.28-21.11-3.79-41.84-17.1-58.38c-13.31-16.54-32.26-26.9-53.37-29.19
					l-3.06-0.33l-29.52,272.96L2023.11,1452.67z"/>
			</g>
			<g>
				<path class="st0" d="M1096.79,1060.42l9.77,1.06c4.99,0.54,8.6,5.02,8.06,10.01l-30.97,286.39c-0.54,4.99-5.02,8.6-10.01,8.06
					l-9.77-1.06c-52.34-5.66-90.18-52.68-84.52-105.01l12.43-114.93C997.43,1092.6,1044.45,1054.76,1096.79,1060.42z"/>
				<path class="st3" d="M1074.64,1368.83c-0.43,0-0.87-0.02-1.31-0.07l-9.77-1.06c-26.07-2.82-49.48-15.62-65.92-36.05
					c-16.44-20.43-23.94-46.03-21.12-72.1l12.43-114.93c5.82-53.82,54.35-92.86,108.15-87.04l9.77,1.06
					c6.54,0.71,11.28,6.6,10.58,13.14l-30.97,286.39c-0.34,3.17-1.9,6.02-4.38,8.01
					C1079.95,1367.92,1077.35,1368.83,1074.64,1368.83z M1086.47,1062.71c-46.57,0-86.75,35.2-91.87,82.54l-12.43,114.93
					c-2.66,24.56,4.41,48.68,19.9,67.92c15.48,19.24,37.54,31.3,62.09,33.96l9.77,1.06c1.66,0.18,3.28-0.3,4.58-1.34
					c1.3-1.04,2.11-2.53,2.29-4.19l30.97-286.39c0.37-3.42-2.11-6.51-5.53-6.87l-9.77-1.06
					C1093.12,1062.89,1089.78,1062.71,1086.47,1062.71z"/>
			</g>
			<g class="st2">
				<path class="st3" d="M1092.3,1278.05l-8.55,78.98c-0.58,5.46-5.52,9.4-10.97,8.81c-30.05-3.26-55.77-18.98-72.5-41.48
					c-15.11-20.32-22.89-46.21-19.96-73.4l4.42-40.91c12.37,37.65,45.89,66.57,87.87,71.11l10.39,1.12
					C1086.8,1282.69,1090.25,1280.94,1092.3,1278.05z"/>
			</g>
			<g>
				<path class="st3" d="M1074.66,1381.83c-0.91,0-1.82-0.05-2.73-0.15l-9.77-1.06c-60.93-6.59-105.15-61.52-98.56-122.46
					l12.43-114.93c6.59-60.94,61.47-105.17,122.47-98.57l9.77,1.06c13.66,1.48,23.57,13.79,22.1,27.45l-30.97,286.4
					c-0.72,6.62-3.97,12.56-9.15,16.74C1085.77,1379.92,1080.32,1381.83,1074.66,1381.83z M1086.48,1075.7
					c-40.03,0-74.56,30.26-78.96,70.94l-12.43,114.92c-4.71,43.57,26.9,82.85,70.47,87.56l3.06,0.33l29.52-272.96l-3.06-0.33
					C1092.2,1075.86,1089.32,1075.7,1086.48,1075.7z"/>
			</g>
			<g>
				<circle class="st0" cx="1559.15" cy="1264.43" r="487.96"/>
				<path class="st3" d="M1559.38,1755.29c-28.85,0-58.09-2.56-87.47-7.87c-129.01-23.3-241.23-95.45-315.97-203.16
					c-74.75-107.7-103.08-238.07-79.77-367.08c23.3-129.01,95.45-241.23,203.16-315.97s238.07-103.08,367.08-79.77
					c266.32,48.11,443.85,303.91,395.75,570.23C1999.35,1588.62,1792.13,1755.29,1559.38,1755.29z M1558.13,779.18
					c-97.92,0-193.41,29.69-275.56,86.7c-106.45,73.88-177.77,184.79-200.8,312.31c-23.03,127.52,4.97,256.37,78.85,362.82
					c73.88,106.46,184.79,177.77,312.31,200.8c263.23,47.55,516.08-127.92,563.63-391.15l2.8,0.51l-2.8-0.51
					c47.55-263.24-127.93-516.08-391.16-563.62C1616.28,781.78,1587.09,779.18,1558.13,779.18z"/>
			</g>
			<g class="st13">
				<path class="st3" d="M2046.75,1283.86c-0.86,22.26-3.32,44.73-7.4,67.31c-47.94,265.19-301.75,441.34-566.95,393.46
					c-265.19-47.94-441.34-301.75-393.46-566.95c1.37-7.63,2.93-15.23,4.65-22.68c-9.85,239.6,158.21,455.8,400.86,499.64
					C1742.02,1701.15,1988.81,1536.34,2046.75,1283.86z"/>
			</g>
			<g>
				<path class="st3" d="M1559.38,1768.28c-29.62,0-59.63-2.63-89.78-8.07c-132.43-23.92-247.61-97.98-324.34-208.54
					c-76.73-110.56-105.81-244.37-81.89-376.8c23.92-132.43,97.98-247.61,208.53-324.34c110.56-76.73,244.38-105.79,376.8-81.89
					c132.43,23.92,247.61,97.98,324.34,208.53s105.81,244.37,81.89,376.8l0,0C2011,1597.2,1798.3,1768.28,1559.38,1768.28z
					 M1558.15,792.18c-95.3,0-188.23,28.89-268.18,84.38c-103.6,71.9-173,179.84-195.42,303.94
					c-22.42,124.1,4.84,249.5,76.74,353.11c71.9,103.6,179.84,173,303.94,195.42c256.19,46.3,502.25-124.49,548.53-380.68
					c22.42-124.1-4.84-249.5-76.74-353.11c-71.9-103.6-179.84-173.01-303.94-195.42C1614.75,794.71,1586.34,792.18,1558.15,792.18z
					 M2039.35,1351.17h0.05H2039.35z"/>
			</g>
			<g>
				<path class="st3" d="M2035.58,1363.22c-15.55,94.21-60.57,176.63-124.82,240.36c-48.17,47.78-225.03,116.13-424.37,85.06
					c-184.83-28.81-336.51-154.93-366.76-215.65c-40.36-81-56.5-173.52-40.95-267.73c41.16-249.31,272.42-317.31,536.67-273.69
					C1879.6,975.2,2076.74,1113.91,2035.58,1363.22z"/>
			</g>
			<g class="st4">
				
					<ellipse transform="matrix(0.3362 -0.9418 0.9418 0.3362 23.945 2641.3379)" class="st0" cx="1885.67" cy="1303.68" rx="86.35" ry="62.57"/>
			</g>
			<g class="st4">
				
					<ellipse transform="matrix(0.4631 -0.8863 0.8863 0.4631 -337.1136 2363.4548)" class="st0" cx="1782.18" cy="1459.97" rx="39.64" ry="34.01"/>
			</g>
			<g class="st13">
				<path class="st14" d="M1980.92,1115.27c49.28,65.47,71.18,147.8,54.66,247.93c-15.55,94.23-60.59,176.64-124.81,240.38
					c-48.18,47.78-225.06,116.12-424.4,85.07c-70.39-10.95-135.94-36.03-191.84-66.27c245.85,32.94,461.44-51.18,521.18-110.45
					c81.55-80.89,138.69-185.51,158.4-305.06C1979.41,1174.93,1981.55,1144.4,1980.92,1115.27z"/>
			</g>
			<g>
				<path class="st3" d="M2030.48,1150.35c-3.37,0-6.72-1.35-9.19-4.03c-0.1-0.11-0.27-0.29-0.37-0.41l-1.04-1.21l-0.7-1.43
					c-62.31-127.06-208.22-218.12-400.3-249.84c-193.16-31.88-360.78,9.59-459.9,113.79l-0.99,0.93
					c-5.29,4.47-13.23,3.85-17.72-1.42c-4.32-5.07-3.94-12.56,0.77-17.13c104.98-110.11,280.6-154.2,481.92-120.98
					c200.07,33.03,352.64,129,418.65,263.31c2.6,5,1.61,11.32-2.77,15.21C2036.45,1149.29,2033.46,1150.35,2030.48,1150.35z"/>
			</g>
			<g class="st4">
				<path class="st0" d="M1161.64,1371.31c0,0-36.62-258.69,112.11-334.82s339.36-44.25,332.89-32.76
					c0,0-219.56,16.26-329.71,169.53C1191.98,1291.44,1161.64,1371.31,1161.64,1371.31z"/>
			</g>
		</g>
		<g>
			<path class="st0" d="M1337.8,1952.5c-18.97,3.45-47.12-1.43-63.44-29.34c-50.77-3.29-95.75-33.62-113.14-53.58
				c-24.04-27.6-36.67-50.97-37.98-73.18c-0.63-9.62,0.91-19.05,4.55-28.47c17.15-44.39,67.44-29.74,105.42-15.29
				c35.16,13.35,128.74,27.6,155.19,95.71c1.74,4.47,3.05,8.87,4,13.19C1403.18,1909.22,1369.36,1946.72,1337.8,1952.5z"/>
		</g>
		<g class="st2">
			<path class="st3" d="M1337.8,1952.5c-18.97,3.45-47.12-1.43-63.44-29.34c-50.77-3.29-95.75-33.62-113.14-53.58
				c-24.04-27.6-36.67-50.97-37.98-73.18c11.09,16.51,37.62,49.9,80.15,67.56c52.67,21.94,75.72,16.67,82.72,19.01
				c6.53,2.18,91.24,49.62,106.29-21.42C1403.18,1909.22,1369.36,1946.72,1337.8,1952.5z"/>
		</g>
		<g>
			<path class="st3" d="M1327.11,1969.28c-20.67,0-45.08-8.08-61.8-31.05c-53.05-6.09-98.02-37.58-116.03-58.26
				c-26.35-30.26-54.28-71-36.25-117.75c24.32-63,98.05-34.95,125.81-24.39l0,0c5.83,2.22,13.83,4.58,23.1,7.32
				c43.67,12.91,116.77,34.52,141.23,97.49c10.87,27.98,9.26,56.99-4.54,81.68c-12.74,22.78-34.95,39.55-57.98,43.76
				C1336.43,1968.85,1331.87,1969.28,1327.11,1969.28z M1172.59,1753.97c-17.63,0-25.46,7.89-30,19.66
				c-6.67,17.27-8.24,40.94,30.58,85.54c14.83,17.04,55.7,45.18,102.2,48.17l8.42,0.54l4.25,7.28
				c15.21,26.08,41.74,22.69,46.91,21.76c13.76-2.52,27.91-13.53,36.03-28.06c6.44-11.52,12.13-30.38,2.67-54.75
				c-18.83-48.47-80.13-66.59-120.69-78.58c-9.88-2.92-18.42-5.44-25.38-8.1l0,0C1202.7,1757.98,1185.16,1753.97,1172.59,1753.97z"
				/>
		</g>
		<g>
			<path class="st0" d="M1756.72,1952.5c18.97,3.45,47.12-1.43,63.44-29.34c50.77-3.29,95.75-33.62,113.14-53.58
				c24.04-27.6,36.67-50.97,37.98-73.18c0.63-9.62-0.91-19.05-4.55-28.47c-17.15-44.39-67.44-29.74-105.42-15.29
				c-35.16,13.35-128.74,27.6-155.19,95.71c-1.74,4.47-3.05,8.87-4,13.19C1691.34,1909.22,1725.16,1946.72,1756.72,1952.5z"/>
		</g>
		<g class="st2">
			<path class="st3" d="M1756.72,1952.5c18.97,3.45,47.12-1.43,63.44-29.34c50.77-3.29,95.75-33.62,113.14-53.58
				c24.04-27.6,36.67-50.97,37.98-73.18c-11.09,16.51-37.62,49.9-80.15,67.56c-52.67,21.94-75.72,16.67-82.72,19.01
				c-6.53,2.18-91.24,49.62-106.29-21.42C1691.34,1909.22,1725.16,1946.72,1756.72,1952.5z"/>
		</g>
		<g>
			<path class="st3" d="M1767.41,1969.28c-4.76,0-9.32-0.43-13.54-1.2c-23.03-4.21-45.25-20.98-57.98-43.76
				c-13.8-24.69-15.41-53.7-4.54-81.68c24.47-62.97,97.56-84.58,141.23-97.48c9.26-2.74,17.26-5.11,23.1-7.32l0,0
				c27.76-10.56,101.49-38.62,125.81,24.39c18.04,46.75-9.9,87.49-36.25,117.75c-18.01,20.69-62.98,52.17-116.03,58.26
				C1812.49,1961.2,1788.08,1969.28,1767.41,1969.28z M1866.94,1767.43L1866.94,1767.43c-6.96,2.65-15.5,5.17-25.38,8.1
				c-40.56,11.99-101.85,30.11-120.69,78.58c-9.47,24.37-3.78,43.23,2.67,54.75c8.12,14.53,22.26,25.54,36.03,28.06
				c5.16,0.94,31.69,4.33,46.91-21.76l4.25-7.28l8.42-0.54c46.5-2.98,87.37-31.13,102.2-48.17c38.83-44.6,37.25-68.27,30.59-85.54
				C1944.15,1753.46,1926.71,1744.71,1866.94,1767.43z"/>
		</g>
	</g>
</g>
</svg>
